<?xml version="1.0" encoding="UTF-8" standalone="no"?>
<!-- Created with Inkscape (http://www.inkscape.org/) -->

<svg
   version="1.1"
   id="svg1"
   width="301.73199"
   height="265.87601"
   viewBox="0 0 301.73199 265.87601"
   xmlns="http://www.w3.org/2000/svg"
   xmlns:svg="http://www.w3.org/2000/svg">
  <defs
     id="defs1">
    <pattern
       patternUnits="userSpaceOnUse"
       x="0"
       y="0"
       width="4.98138"
       height="4.98138"
       id="pattern7">
      <path
         d="M 0,0 3.08846,3.08846"
         style="fill:none;stroke:#808080;stroke-opacity:1;stroke-width:0.3985;stroke-linecap:butt;stroke-linejoin:miter;stroke-miterlimit:10;stroke-dasharray:none"
         transform="translate(0.99628,0.99628)"
         id="path7" />
    </pattern>
  </defs>
  <g
     id="g1">
    <path
       id="path1"
       d="M 0,0 H 192.2766"
       style="fill:none;stroke:#000000;stroke-width:0.3985;stroke-linecap:butt;stroke-linejoin:miter;stroke-miterlimit:10;stroke-dasharray:none;stroke-opacity:1"
       transform="matrix(1.3333333,0,0,-1.3333333,42.444,243.76667)" />
    <path
       id="path2"
       d="M 1.99252,0 -1.19551,1.59401 0,0 -1.19551,-1.59401"
       style="fill:#000000;fill-opacity:1;fill-rule:nonzero;stroke:none"
       transform="matrix(1.3333333,0,0,-1.3333333,298.8128,243.76667)" />
    <path
       id="path3"
       d="M 0,0 V 159.40384"
       style="fill:none;stroke:#000000;stroke-width:0.3985;stroke-linecap:butt;stroke-linejoin:miter;stroke-miterlimit:10;stroke-dasharray:none;stroke-opacity:1"
       transform="matrix(1.3333333,0,0,-1.3333333,42.444,243.76667)" />
    <path
       id="path4"
       d="M 1.99252,0 -1.19551,1.59401 0,0 -1.19551,-1.59401"
       style="fill:#000000;fill-opacity:1;fill-rule:nonzero;stroke:none"
       transform="matrix(0,-1.3333333,-1.3333333,0,42.444,31.228213)" />
    <path
       id="path5"
       d="M 0,0 194.26912,161.39636"
       style="fill:none;stroke:#000000;stroke-width:0.3985;stroke-linecap:butt;stroke-linejoin:miter;stroke-miterlimit:10;stroke-dasharray:none;stroke-opacity:1"
       transform="matrix(1.3333333,0,0,-1.3333333,42.444,243.76667)" />
    <path
       id="path6"
       d="m 72.8509,60.52364 v 40.34909 h 48.5673 V 60.52364 Z"
       style="fill:url(#pattern7);fill-opacity:1;fill-rule:nonzero;stroke:none"
       transform="matrix(1.3333333,0,0,-1.3333333,42.444,243.76667)" />
    <path
       id="path8"
       d="M 0,60.52364 H 194.26912"
       style="fill:none;stroke:#000000;stroke-width:0.3985;stroke-linecap:butt;stroke-linejoin:miter;stroke-miterlimit:10;stroke-dasharray:2.98883, 1.99255, 0.3985, 1.99255;stroke-dashoffset:0;stroke-opacity:1"
       transform="matrix(1.3333333,0,0,-1.3333333,42.444,243.76667)" />
    <g
       id="g8"
       aria-label="L−ϵ"
       transform="matrix(1.3333333,0,0,1.3333333,4.428,167.05467)">
      <path
         id="path9"
         d="m 3.7278281,-6.0234219 c 0.09375,-0.3632812 0.1171875,-0.46875 1.0546875,-0.46875 0.3046875,0 0.375,0 0.375,-0.1875 0,-0.1289062 -0.1054687,-0.1289062 -0.1523437,-0.1289062 -0.328125,0 -1.1484375,0.035156 -1.4765625,0.035156 -0.3046875,0 -1.03125,-0.035156 -1.3242188,-0.035156 -0.070312,0 -0.1875,0 -0.1875,0.1992187 0,0.1171875 0.082031,0.1171875 0.28125,0.1171875 0.011719,0 0.1992188,0 0.375,0.011719 0.1757813,0.023437 0.2695313,0.035156 0.2695313,0.1640625 0,0.035156 -0.011719,0.070312 -0.046875,0.1875 l -1.3359375,5.35546873 c -0.09375,0.38671875 -0.1171875,0.46875 -0.90234378,0.46875 -0.1640625,0 -0.26953125,0 -0.26953125,0.19921875 0,0.105468745 0.09375,0.105468745 0.26953125,0.105468745 H 5.2747031 c 0.234375,0 0.2460938,0 0.3046875,-0.164062495 L 6.3645469,-2.3202969 c 0.046875,-0.1054687 0.046875,-0.1289062 0.046875,-0.140625 0,-0.035156 -0.035156,-0.1054687 -0.1289063,-0.1054687 -0.082031,0 -0.09375,0.046875 -0.1640625,0.2109375 -0.3398437,0.9140625 -0.7734375,2.05078123 -2.4960937,2.05078123 h -0.9375 c -0.140625,0 -0.1640625,0 -0.2226563,-0.0117188 -0.1054687,-0.0117188 -0.1289062,-0.0234375 -0.1289062,-0.10546875 0,-0.0234375 0,-0.046875 0.046875,-0.22265625 z m 0,0"
         style="fill:#000000;fill-opacity:1;fill-rule:nonzero;stroke:none" />
      <path
         id="path10"
         d="m 15.557906,-2.2968594 c 0.175781,0 0.351563,0 0.351563,-0.1992187 0,-0.1992188 -0.175782,-0.1992188 -0.351563,-0.1992188 h -5.390625 c -0.164062,0 -0.3398435,0 -0.3398435,0.1992188 0,0.1992187 0.1757815,0.1992187 0.3398435,0.1992187 z m 0,0"
         style="fill:#000000;fill-opacity:1;fill-rule:nonzero;stroke:none" />
      <path
         id="path11"
         d="m 21.921187,-2.2499844 c 0.164063,0 0.339844,0 0.339844,-0.1757812 0,-0.1289063 -0.117187,-0.1289063 -0.28125,-0.1289063 h -1.617187 c 0.234375,-0.8554687 0.796875,-1.4296875 1.699218,-1.4296875 h 0.316407 c 0.164062,0 0.328125,0 0.328125,-0.1640625 0,-0.140625 -0.128907,-0.140625 -0.304688,-0.140625 h -0.351562 c -1.289063,0 -2.625,0.9960938 -2.625,2.5195313 0,1.08984373 0.75,1.87499998 1.804687,1.87499998 0.644531,0 1.289063,-0.3984375 1.289063,-0.50390625 0,-0.0351563 -0.01172,-0.140625 -0.09375,-0.140625 -0.02344,0 -0.04687,0 -0.128907,0.0585937 -0.316406,0.19921875 -0.679687,0.375 -1.042968,0.375 -0.585938,0 -1.078125,-0.421875 -1.078125,-1.30078133 0,-0.3515625 0.08203,-0.7265625 0.105468,-0.84375 z m 0,0"
         style="fill:#000000;fill-opacity:1;fill-rule:nonzero;stroke:none" />
    </g>
    <path
       id="path12"
       d="M 0,80.69818 H 97.13455"
       style="fill:none;stroke:#000000;stroke-width:0.3985;stroke-linecap:butt;stroke-linejoin:miter;stroke-miterlimit:10;stroke-dasharray:0.3985, 1.99255;stroke-dashoffset:0;stroke-opacity:1"
       transform="matrix(1.3333333,0,0,-1.3333333,42.444,243.76667)" />
    <path
       id="path13"
       d="m 3.7265781,-6.0222344 c 0.09375,-0.3632812 0.1171875,-0.46875 1.0546875,-0.46875 0.3046875,0 0.375,0 0.375,-0.1875 0,-0.1289062 -0.1054687,-0.1289062 -0.1523437,-0.1289062 -0.328125,0 -1.1484375,0.035156 -1.4765625,0.035156 -0.3046875,0 -1.03125,-0.035156 -1.3242188,-0.035156 -0.070312,0 -0.1875,0 -0.1875,0.1992187 0,0.1171875 0.082031,0.1171875 0.28125,0.1171875 0.011719,0 0.1992188,0 0.375,0.011719 0.1757813,0.023437 0.2695313,0.035156 0.2695313,0.1640625 0,0.035156 -0.011719,0.070312 -0.046875,0.1875 l -1.3359375,5.35546872 c -0.09375,0.38671875 -0.1171875,0.46875 -0.90234378,0.46875 -0.1640625,0 -0.26953125,0 -0.26953125,0.19921875 0,0.10546875 0.09375,0.10546875 0.26953125,0.10546875 H 5.2734531 c 0.234375,0 0.2460938,0 0.3046875,-0.1640625 L 6.3632969,-2.3191094 c 0.046875,-0.1054687 0.046875,-0.1289062 0.046875,-0.140625 0,-0.035156 -0.035156,-0.1054687 -0.1289063,-0.1054687 -0.082031,0 -0.09375,0.046875 -0.1640625,0.2109375 -0.3398437,0.9140625 -0.7734375,2.05078122 -2.4960937,2.05078122 h -0.9375 c -0.140625,0 -0.1640625,0 -0.2226563,-0.0117188 -0.1054687,-0.0117188 -0.1289062,-0.0234375 -0.1289062,-0.10546875 0,-0.0234375 0,-0.046875 0.046875,-0.22265625 z m 0,0"
       style="fill:#000000;fill-opacity:1;fill-rule:nonzero;stroke:none"
       aria-label="L"
       transform="matrix(1.3333333,0,0,1.3333333,26.054667,140.70933)" />
    <path
       id="path14"
       d="M 0,100.87273 H 194.26912"
       style="fill:none;stroke:#000000;stroke-width:0.3985;stroke-linecap:butt;stroke-linejoin:miter;stroke-miterlimit:10;stroke-dasharray:2.98883, 1.99255, 0.3985, 1.99255;stroke-dashoffset:0;stroke-opacity:1"
       transform="matrix(1.3333333,0,0,-1.3333333,42.444,243.76667)" />
    <g
       id="g14"
       aria-label="L+ϵ"
       transform="matrix(1.3333333,0,0,1.3333333,4.428,113.25733)">
      <path
         id="path15"
         d="m 3.7278281,-6.0230781 c 0.09375,-0.3632813 0.1171875,-0.46875 1.0546875,-0.46875 0.3046875,0 0.375,0 0.375,-0.1875 0,-0.1289063 -0.1054687,-0.1289063 -0.1523437,-0.1289063 -0.328125,0 -1.1484375,0.035156 -1.4765625,0.035156 -0.3046875,0 -1.03125,-0.035156 -1.3242188,-0.035156 -0.070312,0 -0.1875,0 -0.1875,0.1992188 0,0.1171875 0.082031,0.1171875 0.28125,0.1171875 0.011719,0 0.1992188,0 0.375,0.011719 0.1757813,0.023437 0.2695313,0.035156 0.2695313,0.1640625 0,0.035156 -0.011719,0.070312 -0.046875,0.1875 l -1.3359375,5.35546877 c -0.09375,0.38671875 -0.1171875,0.46875 -0.90234378,0.46875 -0.1640625,0 -0.26953125,0 -0.26953125,0.19921875 0,0.105468755 0.09375,0.105468755 0.26953125,0.105468755 H 5.2747031 c 0.234375,0 0.2460938,0 0.3046875,-0.164062505 L 6.3645469,-2.3199531 c 0.046875,-0.1054688 0.046875,-0.1289063 0.046875,-0.140625 0,-0.035156 -0.035156,-0.1054688 -0.1289063,-0.1054688 -0.082031,0 -0.09375,0.046875 -0.1640625,0.2109375 -0.3398437,0.9140625 -0.7734375,2.05078127 -2.4960937,2.05078127 h -0.9375 c -0.140625,0 -0.1640625,0 -0.2226563,-0.0117188 -0.1054687,-0.0117188 -0.1289062,-0.0234375 -0.1289062,-0.10546875 0,-0.0234375 0,-0.046875 0.046875,-0.22265625 z m 0,0"
         style="fill:#000000;fill-opacity:1;fill-rule:nonzero;stroke:none" />
      <path
         id="path16"
         d="m 13.073531,-2.2965156 h 2.777344 c 0.140625,0 0.328125,0 0.328125,-0.1992188 0,-0.1992187 -0.1875,-0.1992187 -0.328125,-0.1992187 h -2.777344 v -2.7890625 c 0,-0.1289063 0,-0.328125 -0.199219,-0.328125 -0.199218,0 -0.199218,0.1992187 -0.199218,0.328125 v 2.7890625 H 9.8860312 c -0.140625,0 -0.328125,0 -0.328125,0.1992187 0,0.1992188 0.1875,0.1992188 0.328125,0.1992188 h 2.7890628 v 2.80078122 c 0,0.12890625 0,0.328125 0.199218,0.328125 0.199219,0 0.199219,-0.19921875 0.199219,-0.328125 z m 0,0"
         style="fill:#000000;fill-opacity:1;fill-rule:nonzero;stroke:none" />
      <path
         id="path17"
         d="m 21.921187,-2.2496406 c 0.164063,0 0.339844,0 0.339844,-0.1757813 0,-0.1289062 -0.117187,-0.1289062 -0.28125,-0.1289062 h -1.617187 c 0.234375,-0.8554688 0.796875,-1.4296875 1.699218,-1.4296875 h 0.316407 c 0.164062,0 0.328125,0 0.328125,-0.1640625 0,-0.140625 -0.128907,-0.140625 -0.304688,-0.140625 h -0.351562 c -1.289063,0 -2.625,0.9960937 -2.625,2.5195312 0,1.08984377 0.75,1.87500002 1.804687,1.87500002 0.644531,0 1.289063,-0.3984375 1.289063,-0.50390625 0,-0.0351563 -0.01172,-0.140625 -0.09375,-0.140625 -0.02344,0 -0.04687,0 -0.128907,0.0585938 -0.316406,0.19921875 -0.679687,0.375 -1.042968,0.375 -0.585938,0 -1.078125,-0.421875 -1.078125,-1.30078127 0,-0.3515625 0.08203,-0.7265625 0.105468,-0.84375 z m 0,0"
         style="fill:#000000;fill-opacity:1;fill-rule:nonzero;stroke:none" />
    </g>
    <path
       id="path18"
       d="M 72.8509,0 V 161.39636"
       style="fill:none;stroke:#000000;stroke-width:0.3985;stroke-linecap:butt;stroke-linejoin:miter;stroke-miterlimit:10;stroke-dasharray:2.98883, 1.99255, 0.3985, 1.99255;stroke-dashoffset:0;stroke-opacity:1"
       transform="matrix(1.3333333,0,0,-1.3333333,42.444,243.76667)" />
    <g
       id="g18"
       aria-label="a+δ"
       transform="matrix(1.3333333,0,0,1.3333333,124.74667,260.34133)">
      <path
         id="path19"
         d="m 3.7144141,-3.7628359 c -0.1757813,-0.375 -0.46875,-0.6445313 -0.9140625,-0.6445313 -1.171875,0 -2.40234379,1.4648438 -2.40234379,2.9179688 0,0.93749996 0.55078125,1.59374996 1.32421879,1.59374996 0.1992187,0 0.703125,-0.03515625 1.3007812,-0.73828125 0.070312,0.41015625 0.421875,0.73828125 0.9023438,0.73828125 0.3515625,0 0.5742187,-0.22265625 0.7382812,-0.5390625 0.1640625,-0.36328125 0.2929688,-0.97265626 0.2929688,-0.99609376 0,-0.09375 -0.082031,-0.09375 -0.1171875,-0.09375 -0.09375,0 -0.1054688,0.035156 -0.140625,0.1757813 -0.1640625,0.64453121 -0.3515625,1.24218746 -0.75,1.24218746 -0.2695313,0 -0.3046875,-0.2578125 -0.3046875,-0.45703125 0,-0.22265625 0.023437,-0.3046875 0.1289062,-0.73828121 0.1171875,-0.421875 0.1289063,-0.5273438 0.2226563,-0.9023438 l 0.3515625,-1.3945312 c 0.070312,-0.28125 0.070312,-0.2929688 0.070312,-0.3398438 0,-0.1640625 -0.1171875,-0.2695312 -0.28125,-0.2695312 -0.2460938,0 -0.3867188,0.2226562 -0.4218745,0.4453125 z m -0.6445313,2.578125 c -0.046875,0.1757812 -0.046875,0.19921871 -0.1992187,0.36328121 -0.4453125,0.55078125 -0.84375,0.71484375 -1.125,0.71484375 -0.5039063,0 -0.6445313,-0.55078125 -0.6445313,-0.93749996 0,-0.5039063 0.328125,-1.7226563 0.5507813,-2.1796875 0.3046875,-0.5976563 0.7617187,-0.9609375 1.1601562,-0.9609375 0.6445313,0 0.7851563,0.8203125 0.7851563,0.8789062 0,0.058594 -0.023437,0.1171875 -0.035156,0.1640625 z m 0,0"
         style="fill:#000000;fill-opacity:1;fill-rule:nonzero;stroke:none" />
      <path
         id="path20"
         d="m 11.557187,-2.2979922 h 2.777344 c 0.140625,0 0.328125,0 0.328125,-0.1992187 0,-0.1992188 -0.1875,-0.1992188 -0.328125,-0.1992188 h -2.777344 v -2.7890625 c 0,-0.1289062 0,-0.328125 -0.199218,-0.328125 -0.199219,0 -0.199219,0.1992188 -0.199219,0.328125 v 2.7890625 H 8.3696875 c -0.140625,0 -0.328125,0 -0.328125,0.1992188 0,0.1992187 0.1875,0.1992187 0.328125,0.1992187 H 11.15875 v 2.80078126 c 0,0.12890625 0,0.328125 0.199219,0.328125 0.199218,0 0.199218,-0.19921875 0.199218,-0.328125 z m 0,0"
         style="fill:#000000;fill-opacity:1;fill-rule:nonzero;stroke:none" />
      <path
         id="path21"
         d="m 20.06793,-4.3487734 c -1.242188,0.2929687 -2.203125,1.59375 -2.203125,2.7890625 0,0.96093746 0.632812,1.67578121 1.570312,1.67578121 1.160156,0 1.992188,-1.55859371 1.992188,-2.94140621 0,-0.9023438 -0.398438,-1.3945313 -0.738282,-1.8515625 -0.351562,-0.4453125 -0.949218,-1.1953125 -0.949218,-1.6289063 0,-0.2226562 0.199218,-0.4570312 0.550781,-0.4570312 0.304687,0 0.503906,0.1289062 0.703125,0.2695312 0.199219,0.1171875 0.398437,0.2460938 0.550781,0.2460938 0.246094,0 0.398438,-0.234375 0.398438,-0.3984375 0,-0.2226563 -0.152344,-0.2460938 -0.515625,-0.328125 -0.515625,-0.1054688 -0.65625,-0.1054688 -0.820313,-0.1054688 -0.773437,0 -1.136719,0.421875 -1.136719,1.0195313 0,0.5390625 0.292969,1.1015625 0.597657,1.7109375 z m 0.128906,0.2109375 c 0.246094,0.4570312 0.539062,0.9960937 0.539062,1.7109375 0,0.6679687 -0.375,2.32031246 -1.300781,2.32031246 -0.550781,0 -0.960937,-0.41015625 -0.960937,-1.17187496 0,-0.6210938 0.375,-2.4960938 1.722656,-2.859375 z m 0,0"
         style="fill:#000000;fill-opacity:1;fill-rule:nonzero;stroke:none" />
    </g>
    <path
       id="path22"
       d="M 97.13455,0 V 80.69818"
       style="fill:none;stroke:#000000;stroke-width:0.3985;stroke-linecap:butt;stroke-linejoin:miter;stroke-miterlimit:10;stroke-dasharray:0.3985, 1.99255;stroke-dashoffset:0;stroke-opacity:1"
       transform="matrix(1.3333333,0,0,-1.3333333,42.444,243.76667)" />
    <path
       id="path23"
       d="m 3.7148281,-3.7617656 c -0.1757812,-0.375 -0.46875,-0.6445313 -0.9140625,-0.6445313 -1.171875,0 -2.40234373,1.4648438 -2.40234373,2.9179688 0,0.93749997 0.55078125,1.59374997 1.32421873,1.59374997 0.1992188,0 0.703125,-0.03515625 1.3007813,-0.73828125 0.070312,0.41015625 0.421875,0.73828125 0.9023437,0.73828125 0.3515625,0 0.5742188,-0.22265625 0.7382813,-0.5390625 0.1640625,-0.36328125 0.2929687,-0.97265627 0.2929687,-0.99609377 0,-0.09375 -0.082031,-0.09375 -0.1171875,-0.09375 -0.09375,0 -0.1054687,0.035156 -0.140625,0.1757813 -0.1640625,0.64453122 -0.3515625,1.24218747 -0.75,1.24218747 -0.2695312,0 -0.3046875,-0.2578125 -0.3046875,-0.45703125 0,-0.22265625 0.023437,-0.3046875 0.1289063,-0.73828122 0.1171875,-0.421875 0.1289062,-0.5273438 0.2226562,-0.9023438 l 0.3515625,-1.3945312 c 0.070312,-0.28125 0.070312,-0.2929688 0.070312,-0.3398438 0,-0.1640625 -0.1171875,-0.2695312 -0.28125,-0.2695312 -0.2460937,0 -0.3867187,0.2226562 -0.4218745,0.4453125 z m -0.6445312,2.578125 c -0.046875,0.1757812 -0.046875,0.19921872 -0.1992188,0.36328122 -0.4453125,0.55078125 -0.84375,0.71484375 -1.125,0.71484375 -0.5039062,0 -0.6445312,-0.55078125 -0.6445312,-0.93749997 0,-0.5039063 0.328125,-1.7226563 0.5507812,-2.1796875 0.3046875,-0.5976563 0.7617188,-0.9609375 1.1601563,-0.9609375 0.6445312,0 0.7851562,0.8203125 0.7851562,0.8789062 0,0.058594 -0.023437,0.1171875 -0.035156,0.1640625 z m 0,0"
       style="fill:#000000;fill-opacity:1;fill-rule:nonzero;stroke:none"
       aria-label="a"
       transform="matrix(1.3333333,0,0,1.3333333,168.44533,256.836)" />
    <path
       id="path24"
       d="M 121.4182,0 V 161.39636"
       style="fill:none;stroke:#000000;stroke-width:0.3985;stroke-linecap:butt;stroke-linejoin:miter;stroke-miterlimit:10;stroke-dasharray:2.98883, 1.99255, 0.3985, 1.99255;stroke-dashoffset:0;stroke-opacity:1"
       transform="matrix(1.3333333,0,0,-1.3333333,42.444,243.76667)" />
    <g
       id="g24"
       aria-label="a−δ"
       transform="matrix(1.3333333,0,0,1.3333333,189.50133,260.34133)">
      <path
         id="path25"
         d="m 3.7138438,-3.7628359 c -0.1757813,-0.375 -0.46875,-0.6445313 -0.9140625,-0.6445313 -1.171875,0 -2.4023438,1.4648438 -2.4023438,2.9179688 0,0.93749996 0.55078125,1.59374996 1.3242188,1.59374996 0.1992187,0 0.703125,-0.03515625 1.3007812,-0.73828125 0.070312,0.41015625 0.421875,0.73828125 0.9023438,0.73828125 0.3515625,0 0.5742187,-0.22265625 0.7382812,-0.5390625 0.1640625,-0.36328125 0.2929688,-0.97265626 0.2929688,-0.99609376 0,-0.09375 -0.082031,-0.09375 -0.1171875,-0.09375 -0.09375,0 -0.1054688,0.035156 -0.140625,0.1757813 -0.1640625,0.64453121 -0.3515625,1.24218746 -0.75,1.24218746 -0.2695313,0 -0.3046875,-0.2578125 -0.3046875,-0.45703125 0,-0.22265625 0.023437,-0.3046875 0.1289062,-0.73828121 0.1171875,-0.421875 0.1289063,-0.5273438 0.2226563,-0.9023438 l 0.3515625,-1.3945312 c 0.070312,-0.28125 0.070312,-0.2929688 0.070312,-0.3398438 0,-0.1640625 -0.1171875,-0.2695312 -0.28125,-0.2695312 -0.2460938,0 -0.3867188,0.2226562 -0.4218745,0.4453125 z m -0.6445313,2.578125 c -0.046875,0.1757812 -0.046875,0.19921871 -0.1992187,0.36328121 -0.4453125,0.55078125 -0.84375,0.71484375 -1.125,0.71484375 -0.5039063,0 -0.6445313,-0.55078125 -0.6445313,-0.93749996 0,-0.5039063 0.328125,-1.7226563 0.5507813,-2.1796875 0.3046875,-0.5976563 0.7617187,-0.9609375 1.1601562,-0.9609375 0.6445313,0 0.7851563,0.8203125 0.7851563,0.8789062 0,0.058594 -0.023437,0.1171875 -0.035156,0.1640625 z m 0,0"
         style="fill:#000000;fill-opacity:1;fill-rule:nonzero;stroke:none" />
      <path
         id="path26"
         d="m 14.043922,-2.2979922 c 0.175781,0 0.351562,0 0.351562,-0.1992187 0,-0.1992188 -0.175781,-0.1992188 -0.351562,-0.1992188 H 8.6532969 c -0.1640625,0 -0.3398438,0 -0.3398438,0.1992188 0,0.1992187 0.1757813,0.1992187 0.3398438,0.1992187 z m 0,0"
         style="fill:#000000;fill-opacity:1;fill-rule:nonzero;stroke:none" />
      <path
         id="path27"
         d="m 20.067359,-4.3487734 c -1.242187,0.2929687 -2.203125,1.59375 -2.203125,2.7890625 0,0.96093746 0.632813,1.67578121 1.570313,1.67578121 1.160156,0 1.992187,-1.55859371 1.992187,-2.94140621 0,-0.9023438 -0.398437,-1.3945313 -0.738281,-1.8515625 -0.351562,-0.4453125 -0.949219,-1.1953125 -0.949219,-1.6289063 0,-0.2226562 0.199219,-0.4570312 0.550782,-0.4570312 0.304687,0 0.503906,0.1289062 0.703125,0.2695312 0.199218,0.1171875 0.398437,0.2460938 0.550781,0.2460938 0.246094,0 0.398437,-0.234375 0.398437,-0.3984375 0,-0.2226563 -0.152343,-0.2460938 -0.515625,-0.328125 -0.515625,-0.1054688 -0.65625,-0.1054688 -0.820312,-0.1054688 -0.773438,0 -1.136719,0.421875 -1.136719,1.0195313 0,0.5390625 0.292969,1.1015625 0.597656,1.7109375 z m 0.128907,0.2109375 c 0.246093,0.4570312 0.539062,0.9960937 0.539062,1.7109375 0,0.6679687 -0.375,2.32031246 -1.300781,2.32031246 -0.550781,0 -0.960938,-0.41015625 -0.960938,-1.17187496 0,-0.6210938 0.375,-2.4960938 1.722657,-2.859375 z m 0,0"
         style="fill:#000000;fill-opacity:1;fill-rule:nonzero;stroke:none" />
    </g>
    <path
       id="path28"
       d="m 98.59157,80.69818 c 0,0.66852 -0.65233,1.21047 -1.45702,1.21047 -0.80469,0 -1.45701,-0.54195 -1.45701,-1.21047 0,-0.66853 0.65232,-1.21048 1.45701,-1.21048 0.80469,0 1.45702,0.54195 1.45702,1.21048 z"
       style="fill:#000000;fill-opacity:1;fill-rule:nonzero;stroke:#000000;stroke-width:0.3985;stroke-linecap:butt;stroke-linejoin:miter;stroke-miterlimit:10;stroke-dasharray:none;stroke-opacity:1;paint-order:stroke fill markers"
       transform="matrix(1.3333333,0,0,-1.3333333,42.444,243.76667)" />
    <path
       id="path29"
       d="m 1.7346875,-0.73764844 c -0.070312,0.234375 -0.2929687,0.609375 -0.65625,0.609375 -0.023437,0 -0.22265625,0 -0.375,-0.09375 0.28125,-0.09375 0.3046875,-0.33984375 0.3046875,-0.38671875 0,-0.15234375 -0.1171875,-0.2578125 -0.28125,-0.2578125 -0.1875,0 -0.38671875,0.1640625 -0.38671875,0.43359375 0,0.33984375 0.38671875,0.50390625 0.72656255,0.50390625 0.3164062,0 0.609375,-0.19921875 0.7851562,-0.4921875 0.1640625,0.36328125 0.5507813,0.4921875 0.8203125,0.4921875 0.8085938,0 1.2304688,-0.8671875 1.2304688,-1.06640625 0,-0.09375 -0.09375,-0.09375 -0.1054688,-0.09375 -0.1054687,0 -0.1054687,0.035156 -0.140625,0.11718742 -0.140625,0.48046875 -0.5625,0.84375 -0.9492187,0.84375 -0.28125,0 -0.421875,-0.1875 -0.421875,-0.4453125 0,-0.1875 0.1640625,-0.82031242 0.3632812,-1.59374992 0.1289063,-0.5390625 0.4453125,-0.7148438 0.6796875,-0.7148438 0.011719,0 0.2226563,0 0.375,0.1054688 -0.2226562,0.058594 -0.3046875,0.2578125 -0.3046875,0.375 0,0.1523437 0.1171875,0.2578125 0.28125,0.2578125 0.1523438,0 0.3867188,-0.1289063 0.3867188,-0.421875 0,-0.3867188 -0.4453125,-0.5039063 -0.7265625,-0.5039063 -0.3515625,0 -0.6328125,0.2226563 -0.7851563,0.4921875 -0.1171875,-0.2929687 -0.4453125,-0.4921875 -0.8320312,-0.4921875 -0.7851563,0 -1.2304688,0.8554688 -1.2304688,1.0664063 0,0.082031 0.10546875,0.082031 0.1171875,0.082031 0.09375,0 0.10546875,-0.023437 0.140625,-0.1171875 0.17578125,-0.5390625 0.609375,-0.84375 0.9492188,-0.84375 0.234375,0 0.421875,0.1289063 0.421875,0.46875 0,0.1289063 -0.082031,0.4804688 -0.1523438,0.7148438 z m 0,0"
       style="fill:#000000;fill-opacity:1;fill-rule:nonzero;stroke:none"
       aria-label="x"
       transform="matrix(1.3333333,0,0,1.3333333,288.09333,252.464)" />
    <g
       id="g29"
       aria-label="f(x)"
       transform="matrix(0,-1.3333333,1.3333333,0,32.770667,53.816)">
      <path
         id="path30"
         d="m 2.8356328,-2.7547578 h 0.6796875 c 0.140625,0 0.234375,0 0.234375,-0.1523438 0,-0.09375 -0.09375,-0.09375 -0.2109375,-0.09375 h -0.65625 c 0.1640625,-0.890625 0.2226563,-1.2070312 0.28125,-1.4179687 0.035156,-0.1523438 0.1875,-0.2929688 0.3515625,-0.2929688 0,0 0.1992188,0 0.328125,0.082031 -0.2929687,0.09375 -0.3046875,0.3398437 -0.3046875,0.3867187 0,0.1523438 0.1171875,0.2578125 0.2695313,0.2578125 0.1992187,0 0.3984375,-0.1640625 0.3984375,-0.4335937 0,-0.3164063 -0.3398438,-0.4921875 -0.6914063,-0.4921875 -0.3046875,0 -0.6445312,0.1757812 -0.84375,0.5273437 -0.1289062,0.2578125 -0.1875,0.5742188 -0.3398437,1.3828125 H 1.7809453 c -0.140625,0 -0.2226562,0 -0.2226562,0.1523438 0,0.09375 0.082031,0.09375 0.2109375,0.09375 h 0.515625 c 0,0.046875 -0.4453125,2.55468749 -0.609375,3.29296874 -0.035156,0.1640625 -0.1523438,0.69140626 -0.4921875,0.69140626 0,0 -0.1757813,0 -0.30468754,-0.082031 0.28125004,-0.09375 0.30468754,-0.35156246 0.30468754,-0.38671871 0,-0.15234375 -0.1171875,-0.2578125 -0.28125004,-0.2578125 -0.1875,0 -0.3984375,0.1640625 -0.3984375,0.421875 0,0.31640621 0.328125,0.49218751 0.67968754,0.49218751 0.4453125,0 0.75,-0.45703126 0.84375,-0.60937501 0.2460937,-0.46875 0.4101562,-1.32421875 0.421875,-1.40625 z m 0,0"
         style="fill:#000000;fill-opacity:1;fill-rule:nonzero;stroke:none" />
      <path
         id="path31"
         d="m 7.1393438,-5.2274141 c -1.3242188,0.9257813 -1.6757813,2.4140625 -1.6757813,3.4804688 0,0.98437499 0.2929688,2.50781249 1.6757813,3.4804687 0.058594,0 0.140625,0 0.140625,-0.082031 0,-0.046875 -0.023437,-0.058594 -0.070312,-0.1054688 -0.9257813,-0.83203121 -1.265625,-2.01562496 -1.265625,-3.2929687 0,-1.875 0.7148437,-2.8007813 1.2890625,-3.3164063 0.023437,-0.023437 0.046875,-0.046875 0.046875,-0.082031 0,-0.082031 -0.082031,-0.082031 -0.1406255,-0.082032 z m 0,0"
         style="fill:#000000;fill-opacity:1;fill-rule:nonzero;stroke:none" />
      <path
         id="path32"
         d="m 9.5123906,-0.73913281 c -0.070312,0.234375 -0.2929687,0.609375 -0.65625,0.609375 -0.023437,0 -0.2226562,0 -0.375,-0.09375 0.28125,-0.09375 0.3046875,-0.33984375 0.3046875,-0.38671875 0,-0.15234375 -0.1171875,-0.2578125 -0.28125,-0.2578125 -0.1875,0 -0.3867187,0.1640625 -0.3867187,0.43359375 0,0.33984375 0.3867187,0.50390625 0.7265625,0.50390625 0.3164062,0 0.609375,-0.19921875 0.7851562,-0.4921875 0.1640625,0.36328125 0.5507809,0.4921875 0.8203129,0.4921875 0.808593,0 1.230468,-0.8671875 1.230468,-1.06640625 0,-0.09375 -0.09375,-0.09375 -0.105468,-0.09375 -0.105469,0 -0.105469,0.035156 -0.140625,0.11718748 -0.140625,0.48046875 -0.5625,0.84375 -0.949219,0.84375 -0.28125,0 -0.421875,-0.1875 -0.421875,-0.4453125 0,-0.1875 0.164062,-0.82031248 0.363281,-1.59374998 0.128906,-0.5390625 0.445313,-0.7148438 0.679688,-0.7148438 0.01172,0 0.222656,0 0.375,0.1054688 -0.222657,0.058594 -0.304688,0.2578125 -0.304688,0.375 0,0.1523437 0.117188,0.2578125 0.28125,0.2578125 0.152344,0 0.386719,-0.1289063 0.386719,-0.421875 0,-0.3867188 -0.445313,-0.5039063 -0.726563,-0.5039063 -0.351562,0 -0.632812,0.2226563 -0.785156,0.4921875 -0.117187,-0.2929687 -0.4453124,-0.4921875 -0.8320311,-0.4921875 -0.7851563,0 -1.2304688,0.8554688 -1.2304688,1.0664063 0,0.082031 0.1054688,0.082031 0.1171875,0.082031 0.09375,0 0.1054688,-0.023437 0.140625,-0.1171875 0.1757813,-0.5390625 0.609375,-0.84375 0.9492188,-0.84375 0.234375,0 0.421875,0.1289063 0.421875,0.46875 0,0.1289063 -0.082031,0.4804688 -0.1523438,0.7148438 z m 0,0"
         style="fill:#000000;fill-opacity:1;fill-rule:nonzero;stroke:none" />
      <path
         id="path33"
         d="m 12.928406,-5.2274141 c -0.05859,0 -0.140625,0 -0.140625,0.082031 0,0.035156 0.02344,0.058594 0.07031,0.1054687 0.597656,0.5507813 1.265625,1.4882813 1.265625,3.2929688 0,1.45312499 -0.457031,2.55468749 -1.207031,3.234375 -0.117188,0.1171875 -0.128907,0.1289062 -0.128907,0.1640625 0,0.035156 0.02344,0.082031 0.09375,0.082031 0.08203,0 0.75,-0.4570312 1.207032,-1.32421871 0.304687,-0.5859375 0.503906,-1.3359375 0.503906,-2.15624999 0,-0.984375 -0.292969,-2.5078125 -1.664063,-3.4804688 z m 0,0"
         style="fill:#000000;fill-opacity:1;fill-rule:nonzero;stroke:none" />
    </g>
    <path
       id="path34"
       d="m 6.1871406,-5.8239609 c 0.140625,-0.375 0.4101563,-0.65625 1.0898438,-0.6679688 v -0.3164062 c -0.3164063,0.023437 -0.7148438,0.035156 -0.9726563,0.035156 -0.2929687,0 -0.8789062,-0.023437 -1.1367187,-0.035156 v 0.3164062 c 0.515625,0.011719 0.7265625,0.2695313 0.7265625,0.4921875 0,0.082031 -0.023437,0.140625 -0.046875,0.1992188 L 4.0191719,-0.99583594 2.1207344,-6.0231797 c -0.058594,-0.140625 -0.058594,-0.1640625 -0.058594,-0.1875 0,-0.28125 0.5625,-0.28125 0.8203125,-0.28125 v -0.3164062 c -0.3632812,0.035156 -1.0546875,0.035156 -1.4296875,0.035156 -0.48046873,0 -0.90234373,-0.023437 -1.26562498,-0.035156 v 0.3164062 c 0.64453125,0 0.84374998,0 0.97265628,0.375 L 3.4801094,2.578125e-4 C 3.5504219,0.18775781 3.5972969,0.22291406 3.7262031,0.22291406 c 0.1640625,0 0.1875,-0.0585938 0.234375,-0.1875 z m 3.0439453,1.4179687 -1.3945312,0.1171875 v 0.3046875 c 0.65625,0 0.7382812,0.058594 0.7382812,0.5507813 v 2.67187496 c 0,0.45703125 -0.1054687,0.45703125 -0.7734375,0.45703125 V 2.578125e-4 C 8.1178047,-0.01146094 8.6568672,-0.03489844 8.9029609,-0.03489844 c 0.3398438,0 0.6914063,0.0234375 1.03125,0.0351562525 V -0.30442969 c -0.65625,0 -0.703125,-0.0585938 -0.703125,-0.4453125 z m 0.046875,-1.734375 c 0,-0.3164062 -0.2460937,-0.5273437 -0.5273437,-0.5273437 -0.3164063,0 -0.5273438,0.2695312 -0.5273438,0.5273437 0,0.2695313 0.2109375,0.5273438 0.5273438,0.5273438 0.28125,0 0.5273437,-0.1992188 0.5273437,-0.5273438 z m 3.0351561,4.2070313 c 0.222656,0.035156 1.03125,0.1992187 1.03125,0.9140625 0,0.51562496 -0.351562,0.91406246 -1.125,0.91406246 -0.832031,0 -1.195312,-0.57421875 -1.382812,-1.41796876 -0.03516,-0.1289062 -0.03516,-0.1757812 -0.140625,-0.1757812 -0.128907,0 -0.128907,0.070312 -0.128907,0.2578125 v 1.31249996 c 0,0.1640625 0,0.234375 0.105469,0.234375 0.05859,0 0.07031,0 0.257813,-0.19921875 0.01172,-0.01171875 0.01172,-0.03515625 0.199218,-0.22265625 0.433594,0.421875 0.878907,0.421875 1.089844,0.421875 1.148438,0 1.605469,-0.66796875 1.605469,-1.38281246 0,-0.5273438 -0.292969,-0.8203125 -0.421875,-0.9492188 -0.328125,-0.3164062 -0.714844,-0.3984375 -1.136719,-0.46875 -0.550781,-0.1171875 -1.21875,-0.2460937 -1.21875,-0.8203125 0,-0.3515625 0.257813,-0.7617187 1.113281,-0.7617187 1.101563,0 1.148438,0.9023437 1.171875,1.2070312 0,0.09375 0.09375,0.09375 0.117188,0.09375 0.128906,0 0.128906,-0.046875 0.128906,-0.2460937 v -0.9960938 c 0,-0.1757812 0,-0.2460937 -0.117187,-0.2460937 -0.04687,0 -0.07031,0 -0.199219,0.1171875 -0.02344,0.046875 -0.128906,0.1289062 -0.164063,0.1640625 -0.375,-0.28125 -0.785156,-0.28125 -0.9375,-0.28125 -1.21875,0 -1.59375,0.6679687 -1.59375,1.2304687 0,0.3398438 0.164063,0.6210938 0.433594,0.84375 0.316406,0.2578125 0.597656,0.3164063 1.3125,0.4570313 z m 5.745117,1.14843746 v 0.890625 L 19.499641,2.578125e-4 V -0.30442969 c -0.703125,0 -0.785157,-0.0703125 -0.785157,-0.5625 V -4.4059922 l -1.453125,0.1171875 v 0.3046875 c 0.691407,0 0.773438,0.070312 0.773438,0.5625 v 1.7695313 c 0,0.86718746 -0.480469,1.54687496 -1.207031,1.54687496 -0.832032,0 -0.878907,-0.46875 -0.878907,-0.99609376 v -3.3046875 l -1.464843,0.1171875 v 0.3046875 c 0.785156,0 0.785156,0.035156 0.785156,0.9140625 v 1.5 c 0,0.77343751 0,1.67578126 1.511719,1.67578126 0.550781,0 0.996093,-0.26953125 1.277343,-0.890625 z m 4.962891,0.0234375 c 0.03516,0.3984375 0.304687,0.8203125 0.773437,0.8203125 0.210938,0 0.820313,-0.140625 0.820313,-0.94921875 V -1.4411484 h -0.246094 v 0.55078121 c 0,0.5859375 -0.246094,0.64453125 -0.363281,0.64453125 -0.328125,0 -0.363281,-0.45703125 -0.363281,-0.50390625 V -2.7419297 c 0,-0.4101562 0,-0.8085937 -0.363282,-1.171875 -0.386718,-0.3867187 -0.878906,-0.5507812 -1.359375,-0.5507812 -0.820312,0 -1.511718,0.46875 -1.511718,1.125 0,0.3046875 0.199218,0.46875 0.457031,0.46875 0.28125,0 0.46875,-0.1992188 0.46875,-0.4570313 0,-0.1171875 -0.05859,-0.4453125 -0.515625,-0.4570312 0.269531,-0.3515625 0.761719,-0.4570313 1.078125,-0.4570313 0.492187,0 1.054687,0.3867188 1.054687,1.2773438 v 0.3632812 c -0.503906,0.035156 -1.207031,0.058594 -1.828125,0.3632813 -0.75,0.3398437 -0.996093,0.8554687 -0.996093,1.28906246 0,0.80859375 0.960937,1.0546875 1.59375,1.0546875 0.65625,0 1.113281,-0.3984375 1.300781,-0.8671875 z m -0.07031,-1.62890626 v 0.9960938 c 0,0.94921871 -0.714843,1.28906246 -1.160156,1.28906246 -0.492187,0 -0.902344,-0.3515625 -0.902344,-0.85546875 0,-0.53906251 0.421875,-1.37109371 2.0625,-1.42968751 z M 26.443,-6.9138047 25.013312,-6.8083359 v 0.3164062 c 0.703125,0 0.773438,0.070312 0.773438,0.5507813 v 5.17968746 c 0,0.45703125 -0.105469,0.45703125 -0.773438,0.45703125 V 2.578125e-4 C 25.341437,-0.01146094 25.868781,-0.03489844 26.114875,-0.03489844 c 0.257812,0 0.738281,0.0234375 1.113281,0.0351562525 V -0.30442969 c -0.667969,0 -0.785156,0 -0.785156,-0.45703125 z m 2.768555,2.5078125 -1.394532,0.1171875 v 0.3046875 c 0.65625,0 0.738282,0.058594 0.738282,0.5507813 v 2.67187496 c 0,0.45703125 -0.105469,0.45703125 -0.773438,0.45703125 V 2.578125e-4 C 28.098273,-0.01146094 28.637336,-0.03489844 28.88343,-0.03489844 c 0.339843,0 0.691406,0.0234375 1.03125,0.0351562525 V -0.30442969 c -0.65625,0 -0.703125,-0.0585938 -0.703125,-0.4453125 z m 0.04687,-1.734375 c 0,-0.3164062 -0.246094,-0.5273437 -0.527344,-0.5273437 -0.316406,0 -0.527344,0.2695312 -0.527344,0.5273437 0,0.2695313 0.210938,0.5273438 0.527344,0.5273438 0.28125,0 0.527344,-0.1992188 0.527344,-0.5273438 z m 4.851562,2.1445313 c 0.08203,-0.1054688 0.08203,-0.1289063 0.08203,-0.1640625 0,-0.1289063 -0.08203,-0.1289063 -0.257812,-0.1289063 h -3.1875 l -0.105469,1.59375 h 0.246094 c 0.05859,-1.0078125 0.246094,-1.3828125 1.347656,-1.3828125 h 1.136719 l -2.789063,3.76171876 c -0.08203,0.10546875 -0.08203,0.12890625 -0.08203,0.17578125 0,0.1406250025 0.07031,0.1406250025 0.257813,0.1406250025 h 3.28125 L 34.215461,-1.8630234 h -0.246094 c -0.09375,1.17187496 -0.304687,1.61718746 -1.453125,1.61718746 h -1.183594 z m 3.855469,3.23437496 c 0.03516,0.3984375 0.304687,0.8203125 0.773437,0.8203125 0.210938,0 0.820313,-0.140625 0.820313,-0.94921875 V -1.4411484 h -0.246094 v 0.55078121 c 0,0.5859375 -0.246094,0.64453125 -0.363281,0.64453125 -0.328125,0 -0.363281,-0.45703125 -0.363281,-0.50390625 V -2.7419297 c 0,-0.4101562 0,-0.8085937 -0.363282,-1.171875 -0.386718,-0.3867187 -0.878906,-0.5507812 -1.359375,-0.5507812 -0.820312,0 -1.511718,0.46875 -1.511718,1.125 0,0.3046875 0.199218,0.46875 0.457031,0.46875 0.28125,0 0.46875,-0.1992188 0.46875,-0.4570313 0,-0.1171875 -0.05859,-0.4453125 -0.515625,-0.4570312 0.269531,-0.3515625 0.761719,-0.4570313 1.078125,-0.4570313 0.492187,0 1.054687,0.3867188 1.054687,1.2773438 v 0.3632812 c -0.503906,0.035156 -1.207031,0.058594 -1.828125,0.3632813 -0.75,0.3398437 -0.996093,0.8554687 -0.996093,1.28906246 0,0.80859375 0.960937,1.0546875 1.59375,1.0546875 0.65625,0 1.113281,-0.3984375 1.300781,-0.8671875 z m -0.07031,-1.62890626 v 0.9960938 c 0,0.94921871 -0.714843,1.28906246 -1.160156,1.28906246 -0.492187,0 -0.902344,-0.3515625 -0.902344,-0.85546875 0,-0.53906251 0.421875,-1.37109371 2.0625,-1.42968751 z m 2.835938,-1.03125 v 2.66015626 c 0,0.45703125 -0.117188,0.45703125 -0.785156,0.45703125 V 2.578125e-4 c 0.351562,-0.0117187525 0.855468,-0.0351562525 1.125,-0.0351562525 0.257812,0 0.785156,0.0234375 1.113281,0.0351562525 V -0.30442969 c -0.65625,0 -0.773438,0 -0.773438,-0.45703125 V -2.5895859 c 0,-1.03125 0.714844,-1.59375 1.347657,-1.59375 0.621093,0 0.738281,0.5390625 0.738281,1.1015625 v 2.32031246 c 0,0.45703125 -0.117188,0.45703125 -0.773438,0.45703125 V 2.578125e-4 c 0.339844,-0.0117187525 0.855469,-0.0351562525 1.125,-0.0351562525 0.257813,0 0.773438,0.0234375 1.113282,0.0351562525 V -0.30442969 c -0.515625,0 -0.773438,0 -0.785157,-0.3046875 V -2.5075547 c 0,-0.8554687 0,-1.171875 -0.304687,-1.5234375 -0.140625,-0.1757812 -0.46875,-0.375 -1.042969,-0.375 -0.726562,0 -1.195312,0.4335938 -1.476562,1.0546875 v -1.0546875 l -1.40625,0.1171875 v 0.3046875 c 0.703125,0 0.785156,0.070312 0.785156,0.5625 z m 8.217773,2.87109376 v 0.65625 L 50.413703,2.578125e-4 V -0.30442969 c -0.703125,0 -0.773437,-0.0703125 -0.773437,-0.5625 V -6.9138047 l -1.441407,0.1054688 v 0.3164062 c 0.703125,0 0.785157,0.070312 0.785157,0.5507813 v 2.15625 c -0.292969,-0.3632813 -0.726563,-0.6210938 -1.265625,-0.6210938 -1.171875,0 -2.214844,0.984375 -2.214844,2.2617188 0,1.26562496 0.972656,2.24999996 2.109375,2.24999996 0.644531,0 1.089844,-0.33984375 1.335937,-0.65625 z m 0,-2.67187496 v 2.0507812 c 0,0.17578126 0,0.19921876 -0.105468,0.36328126 -0.304688,0.48046875 -0.75,0.703125 -1.183594,0.703125 -0.445313,0 -0.796875,-0.2578125 -1.042969,-0.64453125 -0.257812,-0.41015621 -0.292969,-0.97265621 -0.292969,-1.38281251 0,-0.3632812 0.02344,-0.9609375 0.316407,-1.4179687 0.210937,-0.3046875 0.585937,-0.6328125 1.125,-0.6328125 0.351562,0 0.761718,0.1523437 1.078125,0.5976562 0.105468,0.1640625 0.105468,0.1875 0.105468,0.3632813 z m 6.439453,1.0898437 c 0,-1.2773437 -0.996093,-2.3320312 -2.191406,-2.3320312 -1.253906,0 -2.214844,1.0898437 -2.214844,2.3320312 0,1.28906251 1.03125,2.23828126 2.203125,2.23828126 1.207032,0 2.203125,-0.97265625 2.203125,-2.23828126 z m -2.191406,1.99218751 c -0.433594,0 -0.867187,-0.2109375 -1.136719,-0.66796875 -0.257812,-0.43359376 -0.257812,-1.04296876 -0.257812,-1.40624996 0,-0.3867188 0,-0.9257813 0.246094,-1.359375 0.269531,-0.4570313 0.738281,-0.6679688 1.136718,-0.6679688 0.433594,0 0.867188,0.2226563 1.125,0.6445313 0.257813,0.4335937 0.257813,1.0078125 0.257813,1.3828125 0,0.3632812 0,0.9023437 -0.222656,1.33593746 -0.222657,0.4453125 -0.65625,0.73828125 -1.148438,0.73828125 z m 9.117188,-0.62109375 c 0.03516,0.3984375 0.304687,0.8203125 0.773437,0.8203125 0.210938,0 0.820313,-0.140625 0.820313,-0.94921875 V -1.4411484 H 63.66175 v 0.55078121 c 0,0.5859375 -0.246094,0.64453125 -0.363281,0.64453125 -0.328125,0 -0.363282,-0.45703125 -0.363282,-0.50390625 V -2.7419297 c 0,-0.4101562 0,-0.8085937 -0.363281,-1.171875 -0.386719,-0.3867187 -0.878906,-0.5507812 -1.359375,-0.5507812 -0.820312,0 -1.511719,0.46875 -1.511719,1.125 0,0.3046875 0.199219,0.46875 0.457032,0.46875 0.28125,0 0.46875,-0.1992188 0.46875,-0.4570313 0,-0.1171875 -0.05859,-0.4453125 -0.515625,-0.4570312 0.269531,-0.3515625 0.761718,-0.4570313 1.078125,-0.4570313 0.492187,0 1.054687,0.3867188 1.054687,1.2773438 v 0.3632812 c -0.503906,0.035156 -1.207031,0.058594 -1.828125,0.3632813 -0.75,0.3398437 -0.996094,0.8554687 -0.996094,1.28906246 0,0.80859375 0.960938,1.0546875 1.59375,1.0546875 0.65625,0 1.113282,-0.3984375 1.300782,-0.8671875 z m -0.07031,-1.62890626 v 0.9960938 c 0,0.94921871 -0.714844,1.28906246 -1.160156,1.28906246 -0.492188,0 -0.902344,-0.3515625 -0.902344,-0.85546875 0,-0.53906251 0.421875,-1.37109371 2.0625,-1.42968751 z m 5.414063,-4.4179687 v 0.3164062 h 0.234375 c 0.773437,0 0.785156,0.1054688 0.785156,0.46875 v 5.25000001 c 0,0.3515625 -0.01172,0.46875 -0.785156,0.46875 H 67.657844 V 2.578125e-4 h 3.644531 c 1.675781,0 3.046875,-1.4765625125 3.046875,-3.3515625125 0,-1.8867187 -1.347656,-3.4570312 -3.046875,-3.4570312 z m 2.367187,6.50390621 c -0.46875,0 -0.492187,-0.0703125 -0.492187,-0.3984375 V -6.0934922 c 0,-0.328125 0.02344,-0.3984375 0.492187,-0.3984375 h 0.996094 c 0.621094,0 1.300781,0.2109375 1.816406,0.9257813 0.421875,0.5859375 0.515625,1.4414062 0.515625,2.2148437 0,1.1132813 -0.1875,1.7109375 -0.550781,2.1914063 -0.199219,0.26953121 -0.761719,0.85546871 -1.769531,0.85546871 z m 6.00586,-2.20312501 c 0.05859,-1.4882812 0.902343,-1.734375 1.242187,-1.734375 1.019531,0 1.125,1.3476563 1.125,1.734375 z m -0.01172,0.2109375 h 2.789062 c 0.210938,0 0.246094,0 0.246094,-0.2109375 0,-0.984375 -0.539062,-1.9570312 -1.78125,-1.9570312 -1.160156,0 -2.074219,1.03125 -2.074219,2.2734375 0,1.33593746 1.042969,2.29687496 2.191407,2.29687496 1.21875,0 1.664062,-1.1015625 1.664062,-1.28906246 0,-0.1054688 -0.08203,-0.1171875 -0.128906,-0.1171875 -0.09375,0 -0.117188,0.058594 -0.128906,0.140625 -0.351563,1.01953121 -1.253907,1.01953121 -1.347657,1.01953121 -0.503906,0 -0.902343,-0.29296875 -1.125,-0.66796875 C 76.019172,-1.2888047 76.019172,-1.9450547 76.019172,-2.2966172 Z m 6.618164,-1.6875 c 0.457031,0 0.527344,0.1289063 0.527344,0.5390625 v 2.68359376 c 0,0.45703125 -0.117188,0.45703125 -0.785157,0.45703125 V 2.578125e-4 C 82.707648,-0.01146094 83.234992,-0.03489844 83.492805,-0.03489844 c 0.246093,0 0.738281,0.0234375 1.101562,0.0351562525 V -0.30442969 c -0.667969,0 -0.773437,0 -0.773437,-0.45703125 V -4.4177109 l -1.253907,0.09375 c -0.164062,0.011719 -0.175781,0.023437 -0.1875,0.023437 -0.01172,0.011719 -0.03516,0.011719 -0.175781,0.011719 h -1.171875 v -1.125 c 0,-0.9960937 0.855469,-1.3945312 1.464844,-1.3945312 0.304687,0 0.667969,0.1054687 0.867187,0.328125 -0.410156,0.023437 -0.46875,0.3046875 -0.46875,0.46875 0,0.328125 0.257813,0.4570312 0.445313,0.4570312 0.222656,0 0.457031,-0.1640625 0.457031,-0.4570312 0,-0.5976563 -0.550781,-1.0078125 -1.289062,-1.0078125 -0.925782,0 -2.109375,0.5039062 -2.109375,1.59375 v 1.1367187 h -0.785157 v 0.3046875 h 0.785157 v 3.22265626 c 0,0.45703125 -0.105469,0.45703125 -0.773438,0.45703125 V 2.578125e-4 C 79.953742,-0.01146094 80.481086,-0.03489844 80.72718,-0.03489844 c 0.246093,0 0.738281,0.0234375 1.113281,0.0351562525 V -0.30442969 c -0.667969,0 -0.785156,0 -0.785156,-0.45703125 V -3.9841172 Z m 3.345703,0.5625 v 2.66015626 c 0,0.45703125 -0.117187,0.45703125 -0.785156,0.45703125 V 2.578125e-4 c 0.351562,-0.0117187525 0.855469,-0.0351562525 1.125,-0.0351562525 0.257812,0 0.785156,0.0234375 1.113281,0.0351562525 V -0.30442969 c -0.65625,0 -0.773437,0 -0.773437,-0.45703125 V -2.5895859 c 0,-1.03125 0.714843,-1.59375 1.347656,-1.59375 0.621094,0 0.738281,0.5390625 0.738281,1.1015625 v 2.32031246 c 0,0.45703125 -0.117187,0.45703125 -0.773437,0.45703125 V 2.578125e-4 c 0.339843,-0.0117187525 0.855468,-0.0351562525 1.125,-0.0351562525 0.257812,0 0.773437,0.0234375 1.113281,0.0351562525 V -0.30442969 c -0.515625,0 -0.773438,0 -0.785156,-0.3046875 V -2.5075547 c 0,-0.8554687 0,-1.171875 -0.304688,-1.5234375 -0.140625,-0.1757812 -0.46875,-0.375 -1.042969,-0.375 -0.726562,0 -1.195312,0.4335938 -1.476562,1.0546875 v -1.0546875 l -1.40625,0.1171875 v 0.3046875 c 0.703125,0 0.785156,0.070312 0.785156,0.5625 z m 6.19043,-0.984375 -1.394532,0.1171875 v 0.3046875 c 0.65625,0 0.738282,0.058594 0.738282,0.5507813 v 2.67187496 c 0,0.45703125 -0.105469,0.45703125 -0.773438,0.45703125 V 2.578125e-4 C 91.060187,-0.01146094 91.59925,-0.03489844 91.845344,-0.03489844 c 0.339843,0 0.691406,0.0234375 1.03125,0.0351562525 V -0.30442969 c -0.65625,0 -0.703125,-0.0585938 -0.703125,-0.4453125 z m 0.04687,-1.734375 c 0,-0.3164062 -0.246094,-0.5273437 -0.527344,-0.5273437 -0.316406,0 -0.527344,0.2695312 -0.527344,0.5273437 0,0.2695313 0.210938,0.5273438 0.527344,0.5273438 0.28125,0 0.527344,-0.1992188 0.527344,-0.5273438 z m 3.788086,6.36328126 h -0.679688 v 0.48046875 c 0.539063,0.0117188 0.820313,0.24609375 0.820313,0.55078129 0,0.375 -0.421875,0.5507812 -1.347657,0.5507812 H 94.484987 V 2.0276016 H 94.9303 c 0.03516,0 0.703125,0 1.171875,-0.1171875 0.410156,-0.082031 0.738281,-0.2695313 0.738281,-0.65625 0,-0.42187504 -0.363281,-0.63281254 -0.832031,-0.70312504 z M 94.338508,-2.1677109 c 0,-1.6289063 0.820312,-2.0507813 1.347656,-2.0507813 0.09375,0 0.714844,0.011719 1.066406,0.375 -0.410156,0.023437 -0.46875,0.328125 -0.46875,0.4570313 0,0.2578125 0.1875,0.4570312 0.457032,0.4570312 0.257812,0 0.457031,-0.1640625 0.457031,-0.46875 0,-0.6796875 -0.75,-1.0664062 -1.523438,-1.0664062 -1.242187,0 -2.15625,1.078125 -2.15625,2.3085937 0,1.27734376 0.984375,2.26171876 2.144532,2.26171876 1.335937,0 1.652343,-1.19531246 1.652343,-1.28906246 0,-0.1054688 -0.105468,-0.1054688 -0.128906,-0.1054688 -0.09375,0 -0.117187,0.046875 -0.128906,0.1054688 -0.292969,0.92578121 -0.9375,1.04296871 -1.3125,1.04296871 -0.527344,0 -1.40625,-0.421875 -1.40625,-2.02734371 z m 7.415042,-4.3359375 -0.16407,-0.1523438 c 0,0.011719 -0.375,0.4804688 -0.82031,0.4804688 -0.22265,0 -0.46875,-0.1523438 -0.64453,-0.2460938 -0.269531,-0.1640625 -0.445312,-0.234375 -0.621093,-0.234375 -0.375,0 -0.5625,0.2226563 -1.066406,0.7734375 l 0.152343,0.1523438 c 0,-0.011719 0.375,-0.4804688 0.820313,-0.4804688 0.222656,0 0.480469,0.1523438 0.644533,0.2578125 0.26953,0.1523438 0.44531,0.2226563 0.62109,0.2226563 0.375,0 0.5625,-0.2109375 1.07813,-0.7734375 z m -0.83203,5.74218746 c 0.0352,0.3984375 0.30468,0.8203125 0.77343,0.8203125 0.21094,0 0.82032,-0.140625 0.82032,-0.94921875 V -1.4411484 h -0.2461 v 0.55078121 c 0,0.5859375 -0.24609,0.64453125 -0.36328,0.64453125 -0.32812,0 -0.36328,-0.45703125 -0.36328,-0.50390625 V -2.7419297 c 0,-0.4101562 0,-0.8085937 -0.36328,-1.171875 -0.38672,-0.3867187 -0.87891,-0.5507812 -1.359377,-0.5507812 -0.820312,0 -1.511719,0.46875 -1.511719,1.125 0,0.3046875 0.199219,0.46875 0.457032,0.46875 0.28125,0 0.46875,-0.1992188 0.46875,-0.4570313 0,-0.1171875 -0.05859,-0.4453125 -0.515625,-0.4570312 0.269531,-0.3515625 0.761718,-0.4570313 1.078125,-0.4570313 0.492184,0 1.054684,0.3867188 1.054684,1.2773438 v 0.3632812 c -0.5039,0.035156 -1.207028,0.058594 -1.828122,0.3632813 -0.75,0.3398437 -0.996094,0.8554687 -0.996094,1.28906246 0,0.80859375 0.960938,1.0546875 1.59375,1.0546875 0.656246,0 1.113286,-0.3984375 1.300786,-0.8671875 z m -0.0703,-1.62890626 v 0.9960938 c 0,0.94921871 -0.71484,1.28906246 -1.160153,1.28906246 -0.492188,0 -0.902344,-0.3515625 -0.902344,-0.85546875 0,-0.53906251 0.421875,-1.37109371 2.062497,-1.42968751 z m 6.42188,0.2578125 c 0,-1.2773437 -0.9961,-2.3320312 -2.19141,-2.3320312 -1.2539,0 -2.21484,1.0898437 -2.21484,2.3320312 0,1.28906251 1.03125,2.23828126 2.20312,2.23828126 1.20703,0 2.20313,-0.97265625 2.20313,-2.23828126 z m -2.19141,1.99218751 c -0.43359,0 -0.86719,-0.2109375 -1.13672,-0.66796875 -0.25781,-0.43359376 -0.25781,-1.04296876 -0.25781,-1.40624996 0,-0.3867188 0,-0.9257813 0.24609,-1.359375 0.26954,-0.4570313 0.73829,-0.6679688 1.13672,-0.6679688 0.4336,0 0.86719,0.2226563 1.125,0.6445313 0.25782,0.4335937 0.25782,1.0078125 0.25782,1.3828125 0,0.3632812 0,0.9023437 -0.22266,1.33593746 -0.22266,0.4453125 -0.65625,0.73828125 -1.14844,0.73828125 z m 0,0"
       style="fill:#000000;fill-opacity:1;fill-rule:nonzero;stroke:none"
       aria-label="VisualizandoaDefni¸c˜ao"
       transform="matrix(1.3333333,0,0,1.3333333,100.24267,13.652)" />
  </g>
</svg>
