<?xml version="1.0" encoding="UTF-8" standalone="no"?>
<!-- Created with Inkscape (http://www.inkscape.org/) -->

<svg
   version="1.1"
   id="svg1"
   width="267.34534"
   height="253.87868"
   viewBox="0 0 267.34534 253.87868"
   xmlns="http://www.w3.org/2000/svg"
   xmlns:svg="http://www.w3.org/2000/svg">
  <defs
     id="defs1">
    <clipPath
       clipPathUnits="userSpaceOnUse"
       id="clipPath23">
      <path
         d="m 0,12735.204 h 194.26486 v 161.397 H 0 Z"
         id="path23" />
    </clipPath>
    <clipPath
       clipPathUnits="userSpaceOnUse"
       id="clipPath25">
      <path
         d="m 0,12735.204 h 194.26486 v 161.397 H 0 Z"
         id="path25" />
    </clipPath>
  </defs>
  <g
     id="g1">
    <path
       id="path1"
       d="m 4.62535,12813.779 v 4.247 m 46.25354,-4.247 v 4.247 m 92.50708,-4.247 v 4.247 m 46.25354,-4.247 v 4.247"
       style="fill:none;stroke:#808080;stroke-width:0.19925;stroke-linecap:butt;stroke-linejoin:miter;stroke-miterlimit:10;stroke-dasharray:none;stroke-opacity:1"
       transform="matrix(1.3333333,0,0,-1.3333333,6.7466667,17228.14)" />
    <path
       id="path2"
       d="m 95.00645,12737.806 h 4.25193 m -4.25193,26.032 h 4.25193 m -4.25193,26.031 h 4.25193 m -4.25193,52.063 h 4.25193 m -4.25193,26.032 h 4.25193 m -4.25193,26.031 h 4.25193"
       style="fill:none;stroke:#808080;stroke-width:0.19925;stroke-linecap:butt;stroke-linejoin:miter;stroke-miterlimit:10;stroke-dasharray:none;stroke-opacity:1"
       transform="matrix(1.3333333,0,0,-1.3333333,6.7466667,17228.14)" />
    <path
       id="path3"
       d="M 0,12815.903 H 192.27234"
       style="fill:none;stroke:#000000;stroke-width:0.3985;stroke-linecap:butt;stroke-linejoin:miter;stroke-miterlimit:10;stroke-dasharray:none;stroke-opacity:1"
       transform="matrix(1.3333333,0,0,-1.3333333,6.7466667,17228.14)" />
    <path
       id="path4"
       d="M 1.99252,0 -1.19551,1.59401 0,0 -1.19551,-1.59401"
       style="fill:#000000;fill-opacity:1;fill-rule:nonzero;stroke:none"
       transform="matrix(1.3333333,0,0,-1.3333333,263.10979,140.26988)" />
    <path
       id="path5"
       d="m 97.13243,12735.204 v 159.404"
       style="fill:none;stroke:#000000;stroke-width:0.3985;stroke-linecap:butt;stroke-linejoin:miter;stroke-miterlimit:10;stroke-dasharray:none;stroke-opacity:1"
       transform="matrix(1.3333333,0,0,-1.3333333,6.7466667,17228.14)" />
    <path
       id="path6"
       d="M 1.99252,0 -1.19551,1.59401 0,0 -1.19551,-1.59401"
       style="fill:#000000;fill-opacity:1;fill-rule:nonzero;stroke:none"
       transform="matrix(0,-1.3333333,-1.3333333,0,136.25657,35.32884)" />
    <g
       id="g6"
       aria-label="−4"
       transform="matrix(1.3333333,0,0,1.3333333,4.428,156.57467)">
      <path
         id="path7"
         d="m 6.5637656,-2.2972109 c 0.1757813,0 0.3515625,0 0.3515625,-0.1992188 0,-0.1992187 -0.1757812,-0.1992187 -0.3515625,-0.1992187 h -5.390625 c -0.1640625,0 -0.33984372,0 -0.33984372,0.1992187 0,0.1992188 0.17578122,0.1992188 0.33984372,0.1992188 z m 0,0"
         style="fill:#000000;fill-opacity:1;fill-rule:nonzero;stroke:none" />
      <path
         id="path8"
         d="m 10.677047,-1.6409609 v 0.86718746 c 0,0.3515625 -0.02344,0.46875 -0.7617189,0.46875 H 9.7043906 V -3.359375e-4 C 10.114547,-0.03549219 10.641891,-0.03549219 11.052047,-0.03549219 c 0.421875,0 0.949219,0 1.359375,0.0351562525 V -0.30502344 h -0.210938 c -0.738281,0 -0.761718,-0.1171875 -0.761718,-0.46875 V -1.6409609 h 0.996093 v -0.3164063 h -0.996093 v -4.5234375 c 0,-0.1992187 0,-0.2578125 -0.152344,-0.2578125 -0.09375,0 -0.117188,0 -0.199219,0.1171875 l -3.0585936,4.6640625 v 0.3164063 z m 0.05859,-0.3164063 H 8.3098594 l 2.4257816,-3.7148437 z m 0,0"
         style="fill:#000000;fill-opacity:1;fill-rule:nonzero;stroke:none" />
    </g>
    <g
       id="g8"
       aria-label="−2"
       transform="matrix(1.3333333,0,0,1.3333333,66.097333,156.57467)">
      <path
         id="path9"
         d="m 6.5627422,-2.2972109 c 0.1757812,0 0.3515625,0 0.3515625,-0.1992188 0,-0.1992187 -0.1757813,-0.1992187 -0.3515625,-0.1992187 h -5.390625 c -0.1640625,0 -0.33984376,0 -0.33984376,0.1992187 0,0.1992188 0.17578126,0.1992188 0.33984376,0.1992188 z m 0,0"
         style="fill:#000000;fill-opacity:1;fill-rule:nonzero;stroke:none" />
      <path
         id="path10"
         d="M 9.0148906,-0.76205469 10.069578,-1.7933047 c 1.558594,-1.3710937 2.15625,-1.9101562 2.15625,-2.90625 0,-1.1367187 -0.902344,-1.9335937 -2.121094,-1.9335937 -1.1249996,0 -1.8515621,0.9140625 -1.8515621,1.8046875 0,0.5507812 0.4921875,0.5507812 0.5273437,0.5507812 0.1640625,0 0.515625,-0.1171875 0.515625,-0.5273437 0,-0.2578125 -0.1875,-0.515625 -0.5273437,-0.515625 -0.082031,0 -0.1054688,0 -0.1289063,0.011719 0.2226563,-0.6445312 0.7617188,-1.0195312 1.3359375,-1.0195312 0.9140629,0 1.3359379,0.8085937 1.3359379,1.6289062 0,0.796875 -0.492188,1.5820313 -1.042969,2.203125 L 8.3586406,-0.36361719 C 8.2531719,-0.25814844 8.2531719,-0.23471094 8.2531719,-3.359375e-4 H 11.944578 L 12.225828,-1.7347109 h -0.257812 c -0.04687,0.3046875 -0.117188,0.73828121 -0.210938,0.89062496 -0.07031,0.0820313 -0.726562,0.0820313 -0.949219,0.0820313 z m 0,0"
         style="fill:#000000;fill-opacity:1;fill-rule:nonzero;stroke:none" />
    </g>
    <path
       id="path11"
       d="M 1.2657266,-0.76205469 2.3204141,-1.7933047 c 1.5585937,-1.3710937 2.15625,-1.9101562 2.15625,-2.90625 0,-1.1367187 -0.9023438,-1.9335937 -2.1210938,-1.9335937 -1.125,0 -1.85156249,0.9140625 -1.85156249,1.8046875 0,0.5507812 0.4921875,0.5507812 0.52734379,0.5507812 0.1640625,0 0.515625,-0.1171875 0.515625,-0.5273437 0,-0.2578125 -0.1875,-0.515625 -0.5273438,-0.515625 -0.0820312,0 -0.10546874,0 -0.12890624,0.011719 0.22265624,-0.6445312 0.76171874,-1.0195312 1.33593754,-1.0195312 0.9140625,0 1.3359375,0.8085937 1.3359375,1.6289062 0,0.796875 -0.4921875,1.5820313 -1.0429688,2.203125 L 0.60947656,-0.36361719 C 0.50400781,-0.25814844 0.50400781,-0.23471094 0.50400781,-3.359375e-4 H 4.1954141 L 4.4766641,-1.7347109 H 4.2188516 c -0.046875,0.3046875 -0.1171875,0.73828121 -0.2109375,0.89062496 -0.070312,0.0820313 -0.7265625,0.0820313 -0.9492188,0.0820313 z m 0,0"
       style="fill:#000000;fill-opacity:1;fill-rule:nonzero;stroke:none"
       aria-label="2"
       transform="matrix(1.3333333,0,0,1.3333333,194.60533,156.57467)" />
    <path
       id="path12"
       d="m 2.9306953,-1.6409609 v 0.86718746 c 0,0.3515625 -0.023437,0.46875 -0.7617187,0.46875 H 1.9580391 V -3.359375e-4 C 2.3681953,-0.03549219 2.8955391,-0.03549219 3.3056953,-0.03549219 c 0.421875,0 0.9492188,0 1.359375,0.0351562525 V -0.30502344 H 4.4541328 c -0.7382812,0 -0.7617187,-0.1171875 -0.7617187,-0.46875 V -1.6409609 H 4.6885078 V -1.9573672 H 3.6924141 v -4.5234375 c 0,-0.1992187 0,-0.2578125 -0.1523438,-0.2578125 -0.09375,0 -0.1171875,0 -0.1992187,0.1171875 l -3.05859379,4.6640625 v 0.3164063 z m 0.058594,-0.3164063 H 0.56350781 L 2.9892891,-5.6722109 Z m 0,0"
       style="fill:#000000;fill-opacity:1;fill-rule:nonzero;stroke:none"
       aria-label="4"
       transform="matrix(1.3333333,0,0,1.3333333,256.276,156.57467)" />
    <g
       id="g12"
       aria-label="−6"
       transform="matrix(1.3333333,0,0,1.3333333,111.75467,248.344)">
      <path
         id="path13"
         d="m 6.5619297,-2.2970625 c 0.1757812,0 0.3515625,0 0.3515625,-0.1992188 C 6.9134922,-2.6955 6.7377109,-2.6955 6.5619297,-2.6955 h -5.390625 c -0.1640625,0 -0.33984376,0 -0.33984376,0.1992187 0,0.1992188 0.17578126,0.1992188 0.33984376,0.1992188 z m 0,0"
         style="fill:#000000;fill-opacity:1;fill-rule:nonzero;stroke:none" />
      <path
         id="path14"
         d="m 9.0609531,-3.2697188 v -0.234375 c 0,-2.5195312 1.2421879,-2.8828125 1.7460939,-2.8828125 0.234375,0 0.65625,0.058594 0.878906,0.3984375 -0.152344,0 -0.550781,0 -0.550781,0.4453125 0,0.3164063 0.234375,0.4570313 0.457031,0.4570313 0.164063,0 0.457031,-0.082031 0.457031,-0.46875 0,-0.5976563 -0.433593,-1.078125 -1.265625,-1.078125 -1.2773434,0 -2.6132809,1.2890625 -2.6132809,3.4804687 0,2.6601563 1.1484375,3.37500005 2.0742189,3.37500005 1.113281,0 2.050781,-0.9375 2.050781,-2.25000005 0,-1.265625 -0.878906,-2.2265625 -1.992187,-2.2265625 -0.6679691,0 -1.0429691,0.5039063 -1.2421879,0.984375 z m 1.1835939,3.21093755 c -0.6210939,0 -0.9257814,-0.59765625 -0.9843751,-0.75 C 9.0843906,-1.2775313 9.0843906,-2.0744063 9.0843906,-2.2501875 c 0,-0.7734375 0.3164063,-1.7695313 1.2187504,-1.7695313 0.152343,0 0.609375,0 0.925781,0.609375 0.175781,0.375 0.175781,0.8789063 0.175781,1.3710938 0,0.4804687 0,0.9726562 -0.164062,1.3359375 -0.304688,0.59765625 -0.761719,0.64453125 -0.996094,0.64453125 z m 0,0"
         style="fill:#000000;fill-opacity:1;fill-rule:nonzero;stroke:none" />
    </g>
    <g
       id="g14"
       aria-label="−4"
       transform="matrix(1.3333333,0,0,1.3333333,111.75467,213.636)">
      <path
         id="path15"
         d="m 6.5619297,-2.2963359 c 0.1757812,0 0.3515625,0 0.3515625,-0.1992188 0,-0.1992187 -0.1757813,-0.1992187 -0.3515625,-0.1992187 h -5.390625 c -0.1640625,0 -0.33984376,0 -0.33984376,0.1992187 0,0.1992188 0.17578126,0.1992188 0.33984376,0.1992188 z m 0,0"
         style="fill:#000000;fill-opacity:1;fill-rule:nonzero;stroke:none" />
      <path
         id="path16"
         d="m 10.678141,-1.6400859 v 0.86718746 c 0,0.3515625 -0.02344,0.46875 -0.7617191,0.46875 H 9.7054844 V 5.390625e-4 C 10.115641,-0.03461719 10.642984,-0.03461719 11.053141,-0.03461719 c 0.421875,0 0.949218,0 1.359375,0.0351562525 V -0.30414844 h -0.210938 c -0.738281,0 -0.761719,-0.1171875 -0.761719,-0.46875 V -1.6400859 h 0.996094 v -0.3164063 h -0.996094 v -4.5234375 c 0,-0.1992187 0,-0.2578125 -0.152343,-0.2578125 -0.09375,0 -0.117188,0 -0.199219,0.1171875 l -3.0585939,4.6640625 v 0.3164063 z m 0.05859,-0.3164063 H 8.3109531 l 2.4257809,-3.7148437 z m 0,0"
         style="fill:#000000;fill-opacity:1;fill-rule:nonzero;stroke:none" />
    </g>
    <g
       id="g16"
       aria-label="−2"
       transform="matrix(1.3333333,0,0,1.3333333,111.75467,178.928)">
      <path
         id="path17"
         d="m 6.5619297,-2.2956094 c 0.1757812,0 0.3515625,0 0.3515625,-0.1992187 0,-0.1992188 -0.1757813,-0.1992188 -0.3515625,-0.1992188 h -5.390625 c -0.1640625,0 -0.33984376,0 -0.33984376,0.1992188 0,0.1992187 0.17578126,0.1992187 0.33984376,0.1992187 z m 0,0"
         style="fill:#000000;fill-opacity:1;fill-rule:nonzero;stroke:none" />
      <path
         id="path18"
         d="M 9.0140781,-0.76045312 10.068766,-1.7917031 c 1.558593,-1.3710938 2.15625,-1.9101563 2.15625,-2.90625 0,-1.1367188 -0.902344,-1.9335938 -2.121094,-1.9335938 -1.1250001,0 -1.8515626,0.9140625 -1.8515626,1.8046875 0,0.5507813 0.4921875,0.5507813 0.5273437,0.5507813 0.1640625,0 0.515625,-0.1171875 0.515625,-0.5273438 0,-0.2578125 -0.1875,-0.515625 -0.5273437,-0.515625 -0.082031,0 -0.1054688,0 -0.1289063,0.011719 0.2226563,-0.6445313 0.7617188,-1.0195313 1.3359375,-1.0195313 0.9140624,0 1.3359374,0.8085938 1.3359374,1.6289063 0,0.796875 -0.492187,1.5820312 -1.042969,2.203125 L 8.3578281,-0.36201562 C 8.2523594,-0.25654687 8.2523594,-0.23310937 8.2523594,0.00126563 h 3.6914066 l 0.28125,-1.73437503 h -0.257813 c -0.04687,0.3046875 -0.117187,0.73828128 -0.210937,0.89062503 -0.07031,0.0820313 -0.726563,0.0820313 -0.949219,0.0820313 z m 0,0"
         style="fill:#000000;fill-opacity:1;fill-rule:nonzero;stroke:none" />
    </g>
    <path
       id="path19"
       d="M 1.2660781,-0.76091406 2.3207656,-1.7921641 c 1.5585938,-1.3710937 2.15625,-1.9101562 2.15625,-2.90625 0,-1.1367187 -0.9023437,-1.9335937 -2.1210937,-1.9335937 -1.125,0 -1.85156253,0.9140625 -1.85156253,1.8046875 0,0.5507812 0.4921875,0.5507812 0.52734373,0.5507812 0.1640625,0 0.515625,-0.1171875 0.515625,-0.5273437 0,-0.2578125 -0.1875,-0.515625 -0.5273437,-0.515625 -0.0820313,0 -0.10546878,0 -0.12890628,0.011719 C 1.1137344,-5.95232 1.6527969,-6.32732 2.2270156,-6.32732 c 0.9140625,0 1.3359375,0.8085937 1.3359375,1.6289062 0,0.796875 -0.4921875,1.5820313 -1.0429687,2.203125 L 0.60982812,-0.36247656 C 0.50435937,-0.25700781 0.50435937,-0.23357031 0.50435937,8.046875e-4 H 4.1957656 L 4.4770156,-1.7335703 H 4.2192031 c -0.046875,0.3046875 -0.1171875,0.73828124 -0.2109375,0.89062499 -0.070312,0.0820313 -0.7265625,0.0820313 -0.9492187,0.0820313 z m 0,0"
       style="fill:#000000;fill-opacity:1;fill-rule:nonzero;stroke:none"
       aria-label="2"
       transform="matrix(1.3333333,0,0,1.3333333,122.08533,110.06533)" />
    <path
       id="path20"
       d="m 2.9301406,-1.6410234 v 0.86718746 c 0,0.3515625 -0.023437,0.46875 -0.7617187,0.46875 H 1.9574844 V -3.984375e-4 C 2.3676406,-0.03555469 2.8949844,-0.03555469 3.3051406,-0.03555469 c 0.421875,0 0.9492188,0 1.359375,0.0351562525 V -0.30508594 H 4.4535781 c -0.7382812,0 -0.7617187,-0.1171875 -0.7617187,-0.46875 V -1.6410234 H 4.6879531 V -1.9574297 H 3.6918594 v -4.5234375 c 0,-0.1992187 0,-0.2578125 -0.1523438,-0.2578125 -0.09375,0 -0.1171875,0 -0.1992187,0.1171875 l -3.05859378,4.6640625 v 0.3164063 z m 0.058594,-0.3164063 H 0.56295312 L 2.9887344,-5.6722734 Z m 0,0"
       style="fill:#000000;fill-opacity:1;fill-rule:nonzero;stroke:none"
       aria-label="4"
       transform="matrix(1.3333333,0,0,1.3333333,122.08533,75.356)" />
    <path
       id="path21"
       d="m 1.3129531,-3.2692031 v -0.234375 c 0,-2.5195313 1.2421875,-2.8828125 1.7460938,-2.8828125 0.234375,0 0.65625,0.058594 0.8789062,0.3984375 -0.1523437,0 -0.5507812,0 -0.5507812,0.4453125 0,0.3164062 0.234375,0.4570312 0.4570312,0.4570312 0.1640625,0 0.4570313,-0.082031 0.4570313,-0.46875 0,-0.5976562 -0.4335938,-1.078125 -1.265625,-1.078125 -1.2773438,0 -2.61328128,1.2890625 -2.61328128,3.4804688 0,2.66015622 1.14843748,3.37499997 2.07421878,3.37499997 1.1132812,0 2.0507812,-0.9375 2.0507812,-2.24999997 0,-1.265625 -0.8789062,-2.2265625 -1.9921875,-2.2265625 -0.6679687,0 -1.0429687,0.5039062 -1.2421875,0.984375 z m 1.1835938,3.21093747 c -0.6210938,0 -0.9257813,-0.59765625 -0.984375,-0.75 C 1.3363906,-1.2770156 1.3363906,-2.0738906 1.3363906,-2.2496719 c 0,-0.7734375 0.3164063,-1.7695312 1.21875,-1.7695312 0.1523438,0 0.609375,0 0.9257813,0.609375 0.1757812,0.375 0.1757812,0.8789062 0.1757812,1.3710937 0,0.4804688 0,0.9726563 -0.1640625,1.33593752 -0.3046875,0.59765625 -0.7617187,0.64453125 -0.9960937,0.64453125 z m 0,0"
       style="fill:#000000;fill-opacity:1;fill-rule:nonzero;stroke:none"
       aria-label="6"
       transform="matrix(1.3333333,0,0,1.3333333,122.08533,40.648)" />
    <path
       id="path22"
       d="m 0,12812.804 h 0.1946 0.19459 0.19463 0.19459 0.19461 0.19461 0.1946 0.19461 0.19461 0.19461 0.1946 0.19462 0.1946 0.19461 0.19461 0.1946 0.1946 0.19461 0.19462 0.19459 0.19461 0.19461 0.1946 0.19462 0.1946 0.19461 0.19461 0.19461 0.1946 0.19461 0.1946 0.1946 0.19463 0.19459 0.19461 0.19461 0.1946 0.19461 0.19461 0.19461 0.1946 0.19463 0.19459 0.19461 0.19461 0.19459 0.19461 0.19462 0.19461 0.19459 0.19461 0.19461 0.1946 0.19462 0.1946 0.19461 0.19461 0.19461 0.1946 0.1946 0.19462 0.19459 0.19463 0.19459 0.19461 0.19462 0.19461 0.19461 l 0.19459,-0.01 h 0.19461 0.19462 0.1946 l 0.1946,-0.01 h 0.19462 0.1946 l 0.1946,-0.01 h 0.19462 0.1946 l 0.19461,-0.01 h 0.19461 0.19461 0.19459 l 0.19463,-0.01 h 0.19459 l 0.1946,-0.01 h 0.19462 l 0.1946,-0.01 h 0.19461 l 0.19461,-0.01 0.1946,-0.01 h 0.19461 l 0.19461,-0.01 0.19461,-0.01 h 0.1946 l 0.19462,-0.01 0.1946,-0.01 h 0.19461 l 0.19461,-0.01 h 0.19459 l 0.19462,-0.01 0.19462,-0.01 0.19458,-0.01 0.19463,-0.01 0.19459,-0.01 0.19461,-0.01 0.19461,-0.01 0.1946,-0.01 0.19462,-0.01 0.19458,-0.01 0.19463,-0.01 0.19461,-0.01 0.19459,-0.01 0.19463,-0.01 0.19458,-0.01 0.19461,-0.01 0.19464,-0.01 0.19458,-0.01 0.19461,-0.01 0.1946,-0.01 0.19462,-0.01 0.19461,-0.01 0.1946,-0.01 0.19461,-0.01 h 0.1946 l 0.19462,-0.01 0.19462,-0.01 0.19457,-0.01 0.19463,-0.01 0.1946,-0.01 0.1946,-0.01 0.19463,-0.01 0.1946,-0.01 0.19462,-0.01 0.19458,-0.01 0.19461,-0.01 0.19463,-0.01 0.19459,-0.01 0.19461,-0.01 0.1946,-0.01 0.19461,-0.01 0.19462,-0.01 0.1946,-0.01 0.19461,-0.01 0.19458,-0.01 0.19463,-0.01 0.19462,-0.01 0.19458,-0.01 0.19463,-0.01 0.19458,-0.01 0.19463,-0.01 0.19462,-0.01 0.19458,-0.01 0.19461,-0.01 0.19461,-0.01 0.19462,-0.01 0.1946,-0.01 0.1946,-0.01 0.19462,-0.01 0.19458,-0.01 0.19463,-0.01 0.19461,-0.01 0.19458,-0.01 0.19464,-0.01 0.19458,-0.01 0.19461,-0.01 0.19463,-0.01 0.19459,-0.01 0.19461,-0.01 0.1946,-0.01 0.19461,-0.01 0.19463,-0.02 0.19459,-0.01 0.19461,-0.01 0.19458,-0.01 0.19463,-0.02 0.19462,-0.01 0.19458,-0.02 0.19463,-0.01 0.1946,-0.02 0.19461,-0.01 0.19462,-0.02 0.19458,-0.02 0.19461,-0.02 0.19462,-0.01 0.1946,-0.02 0.19461,-0.02 0.1946,-0.02 0.19463,-0.02 0.19458,-0.02 0.19462,-0.02 0.19461,-0.02 0.19458,-0.02 0.19464,-0.02 0.19458,-0.02 0.19461,-0.02 0.19463,-0.02 0.1946,-0.02 0.19462,-0.01 0.19458,-0.02 0.19461,-0.02 0.19464,-0.02 0.19458,-0.02 0.19461,-0.02 0.1946,-0.02 0.19462,-0.02 0.19462,-0.02 0.19459,-0.02 0.19461,-0.02 0.1946,-0.02 0.19463,-0.02 0.1946,-0.02 0.19458,-0.02 0.19464,-0.02 0.19458,-0.02 0.19462,-0.02 0.19462,-0.02 0.19458,-0.02 0.19463,-0.02 0.19459,-0.02 0.19461,-0.02 0.19461,-0.02 0.1946,-0.02 0.19462,-0.02 0.19458,-0.02 0.19463,-0.02 0.19461,-0.02 0.1946,-0.02 0.19462,-0.02 0.19458,-0.02 0.19461,-0.02 0.19464,-0.02 0.19458,-0.02 0.19461,-0.02 0.1946,-0.02 0.19463,-0.02 0.19461,-0.02 0.19459,-0.02 0.19461,-0.02 0.1946,-0.02 0.19462,-0.02 0.19461,-0.02 0.19459,-0.02 0.19462,-0.02 0.1946,-0.02 0.19461,-0.02 0.19462,-0.02 0.19458,-0.02 0.19463,-0.02 0.19459,-0.03 0.19461,-0.02 0.19461,-0.03 0.19462,-0.03 0.19461,-0.02 0.19458,-0.03 0.19462,-0.03 0.19461,-0.03 0.19459,-0.03 0.19463,-0.03 0.19458,-0.03 0.19463,-0.03 0.19463,-0.03 0.19458,-0.03 0.19462,-0.03 0.19458,-0.03 0.19463,-0.03 0.19462,-0.03 0.19458,-0.03 0.19462,-0.03 0.19459,-0.03 0.19462,-0.03 0.19462,-0.03 0.19459,-0.03 0.19461,-0.03 0.1946,-0.03 0.19462,-0.03 0.19461,-0.03 0.19458,-0.03 0.19464,-0.03 0.19458,-0.03 0.19461,-0.03 0.19463,-0.03 0.1946,-0.03 0.1946,-0.03 0.1946,-0.03 0.19461,-0.03 0.19463,-0.03 0.19459,-0.03 0.19461,-0.03 0.19458,-0.04 0.19465,-0.03 0.19461,-0.03 0.19458,-0.04 0.19462,-0.04 0.19458,-0.04 0.19463,-0.04 0.19462,-0.04 0.19459,-0.04 0.1946,-0.04 0.19462,-0.04 0.19461,-0.04 0.19461,-0.04 0.19459,-0.04 0.19461,-0.04 0.1946,-0.04 0.19462,-0.04 0.19461,-0.04 0.1946,-0.04 0.19463,-0.04 0.19458,-0.04 0.19461,-0.04 0.19462,-0.04 0.19459,-0.04 0.19462,-0.04 0.19459,-0.05 0.19461,-0.05 0.19463,-0.05 0.19459,-0.05 0.19462,-0.05 0.19458,-0.05 0.19464,-0.05 0.19461,-0.05 0.19458,-0.05 0.19463,-0.05 0.19457,-0.05 0.19463,-0.05 0.19463,-0.05 0.19457,-0.05 0.19463,-0.05 0.1946,-0.05 0.19461,-0.05 0.19462,-0.05 0.19458,-0.06 0.19463,-0.06 0.19459,-0.06 0.19461,-0.06 0.19462,-0.06 0.19461,-0.06 0.1946,-0.06 0.19459,-0.06 0.19462,-0.06 0.19461,-0.06 0.1946,-0.06 0.19462,-0.06 0.19458,-0.07 0.19461,-0.06 0.19465,-0.07 0.19458,-0.07 0.19461,-0.07 0.19459,-0.07 0.19461,-0.07 0.19463,-0.07 0.1946,-0.07 0.1946,-0.07 0.1946,-0.07 0.19463,-0.07 0.19461,-0.08 0.19458,-0.07 0.19462,-0.08 0.1946,-0.08 0.19461,-0.08 0.19462,-0.08 0.19458,-0.08 0.19463,-0.08 0.1946,-0.09 0.19461,-0.09 0.19461,-0.09 0.1946,-0.09 0.19462,-0.09 0.19458,-0.09 0.19462,-0.09 0.19463,-0.09 0.19458,-0.09 0.19463,-0.1 0.19458,-0.1 0.19461,-0.101 0.19464,-0.101 0.19458,-0.102 0.19461,-0.105 0.19459,-0.107 0.19463,-0.107 0.19461,-0.11 0.19459,-0.113 0.19462,-0.113 0.19459,-0.115 0.19463,-0.119 0.19461,-0.12 0.19458,-0.121 0.19462,-0.125 0.1946,-0.125 0.19461,-0.129 0.19462,-0.131 0.19458,-0.133 0.19463,-0.137 0.1946,-0.139 0.19461,-0.141 0.19462,-0.143 0.1946,-0.147 0.19461,-0.151 0.19459,-0.153 0.19461,-0.155 0.19463,-0.159 0.1946,-0.163 0.19461,-0.165 0.19458,-0.17 0.19462,-0.173 0.19463,-0.177 0.19458,-0.179 0.19462,-0.184 0.19458,-0.189 0.19463,-0.193 0.19463,-0.196 0.19458,-0.201 0.19461,-0.207 0.19461,-0.212 0.19461,-0.215 0.19461,-0.222 0.19459,-0.226 0.19463,-0.233 0.19458,-0.238 0.19463,-0.242 0.19461,-0.251 0.19458,-0.258 0.19464,-0.262 0.19458,-0.272 0.19461,-0.276 0.19462,-0.286 0.1946,-0.294 0.19461,-0.302 0.19459,-0.31 0.19462,-0.32 0.19461,-0.327 0.19461,-0.338 0.19461,-0.349 0.19458,-0.36 0.19462,-0.369 0.19463,-0.384 0.19458,-0.393 0.19463,-0.407 0.19459,-0.421 0.19461,-0.437 0.19463,-0.449 0.19458,-0.467 0.19461,-0.48 0.19461,-0.501 0.19461,-0.518 0.19461,-0.538 0.19459,-0.56 0.19463,-0.58 0.19458,-0.604 0.19463,-0.628 0.1946,-0.655 0.19459,-0.681 0.19464,-0.713 0.19458,-0.743 0.19461,-0.777 0.19462,-0.812 0.1946,-0.854 0.19461,-0.892 0.1946,-0.937 0.19461,-0.985 0.19462,-1.039 0.1946,-1.092 0.19461,-1.154 0.19459,-1.218 0.19463,-1.291 0.19461,-1.37 0.1946,-1.454 0.19461,-1.547 0.19457,-1.648 0.19465,-1.766 0.19461,-1.889 0.19458,-2.028 0.19462,-2.182 0.1946,-2.358 0.19461,-2.552 0.19463,-2.776 0.19458,-3.021 0.19462,-3.311 0.1946,-3.641 0.1946,-4.021 0.19462,-4.465 0.19459,-4.983 0.19463,-5.605 0.19458,-6.347 0.19463,-7.244 0.19461,-8.351 0.19459,-9.724 0.19463,-11.473 0.19458,-13.744 0.19461,-16.765 0.19464,-20.891 0.19458,-26.735 0.19461,-35.507 0.1946,-49.33 0.19462,-73.32 0.19461,-120.307 0.1946,-233.701 0.19461,-650.953 L 97.10892,0"
       style="fill:none;stroke:#ff0000;stroke-width:0.3985;stroke-linecap:butt;stroke-linejoin:miter;stroke-miterlimit:10;stroke-dasharray:none;stroke-opacity:1"
       transform="matrix(1.3333333,0,0,-1.3333333,6.7466667,17228.14)"
       clip-path="url(#clipPath23)" />
    <path
       id="path24"
       d="m 97.15555,16323 0.19459,-2124.543 0.19463,-652.528 0.19459,-234.079 0.19462,-120.398 0.19461,-73.372 0.19459,-49.395 0.19461,-35.508 0.19461,-26.746 0.19461,-20.892 0.1946,-16.764 0.19462,-13.771 0.1946,-11.466 0.19461,-9.73 0.19461,-8.349 0.1946,-7.248 0.19461,-6.347 0.19461,-5.607 0.19461,-4.985 0.19459,-4.465 0.19461,-4.021 0.19462,-3.641 0.19459,-3.311 0.19463,-3.026 0.19459,-2.775 0.19461,-2.552 0.19461,-2.358 0.19461,-2.182 0.1946,-2.03 0.19461,-1.889 0.19461,-1.763 0.19459,-1.651 0.19463,-1.547 0.1946,-1.454 0.19459,-1.37 0.19463,-1.289 0.19459,-1.22 0.19461,-1.154 0.19461,-1.094 0.19461,-1.037 0.1946,-0.985 0.19463,-0.937 0.19459,-0.894 0.19461,-0.852 0.19461,-0.812 0.1946,-0.777 0.19462,-0.745 0.1946,-0.711 0.19461,-0.683 0.19461,-0.653 0.19461,-0.63 0.19459,-0.604 0.19462,-0.579 0.19461,-0.559 0.19459,-0.538 0.19463,-0.518 0.19459,-0.501 0.19461,-0.482 0.19461,-0.465 0.1946,-0.451 0.19461,-0.435 0.19461,-0.421 0.19461,-0.407 0.1946,-0.395 0.19462,-0.384 0.1946,-0.369 0.19461,-0.359 0.19461,-0.348 0.19459,-0.34 0.19462,-0.327 0.19461,-0.32 0.19461,-0.31 0.19459,-0.302 0.19461,-0.294 0.19461,-0.284 0.1946,-0.278 0.19463,-0.27 0.19459,-0.264 0.19461,-0.256 0.19461,-0.25 0.19461,-0.245 0.1946,-0.238 0.19462,-0.232 0.1946,-0.227 0.19459,-0.22 0.19463,-0.217 0.19459,-0.212 0.19461,-0.205 0.19462,-0.202 0.19459,-0.197 0.19461,-0.193 0.19461,-0.188 0.19461,-0.185 0.1946,-0.179 0.19462,-0.177 0.1946,-0.172 0.19461,-0.169 0.19461,-0.167 0.1946,-0.161 0.19461,-0.161 0.19461,-0.155 0.19461,-0.153 0.19459,-0.149 0.19463,-0.147 0.19458,-0.145 0.19461,-0.141 0.19464,-0.139 0.19458,-0.135 0.19463,-0.135 0.19457,-0.131 0.19463,-0.127 0.19463,-0.127 0.19458,-0.125 0.19461,-0.121 0.19459,-0.119 0.19463,-0.12 0.19461,-0.115 0.1946,-0.113 0.19461,-0.111 0.19459,-0.111 0.19462,-0.108 0.19462,-0.107 0.19458,-0.103 0.19462,-0.103 0.1946,-0.102 0.19461,-0.101 0.19463,-0.1 0.19459,-0.1 0.19461,-0.09 0.1946,-0.09 0.19461,-0.09 0.19461,-0.09 0.19461,-0.09 0.19461,-0.09 0.19458,-0.09 0.19462,-0.09 0.19463,-0.08 0.19458,-0.08 0.19463,-0.08 0.19458,-0.08 0.19461,-0.08 0.19464,-0.08 0.19458,-0.08 0.19461,-0.08 0.19461,-0.08 0.19461,-0.07 0.19461,-0.07 0.1946,-0.07 0.19461,-0.07 0.1946,-0.07 0.19462,-0.07 0.19461,-0.07 0.19458,-0.07 0.19464,-0.07 0.19458,-0.07 0.19461,-0.06 0.19463,-0.06 0.19458,-0.06 0.19462,-0.06 0.1946,-0.06 0.19461,-0.06 0.19461,-0.06 0.19461,-0.06 0.19461,-0.06 0.19458,-0.06 0.19463,-0.06 0.19461,-0.06 0.19459,-0.06 0.19463,-0.06 0.19458,-0.05 0.19461,-0.05 0.19464,-0.05 0.19458,-0.05 0.19461,-0.05 0.19461,-0.05 0.19461,-0.05 0.19463,-0.05 0.19458,-0.05 0.19461,-0.05 0.19461,-0.05 0.19461,-0.05 0.19461,-0.05 0.1946,-0.05 0.19462,-0.05 0.19458,-0.05 0.19463,-0.05 0.19461,-0.05 0.19458,-0.04 0.19464,-0.04 0.19458,-0.04 0.19461,-0.04 0.19463,-0.04 0.19459,-0.04 0.19461,-0.04 0.1946,-0.04 0.19461,-0.04 0.19461,-0.04 0.19461,-0.04 0.19461,-0.04 0.19458,-0.04 0.19464,-0.04 0.19461,-0.04 0.19458,-0.04 0.19463,-0.04 0.1946,-0.04 0.1946,-0.03 0.19463,-0.04 0.19458,-0.04 0.19462,-0.04 0.1946,-0.03 0.19461,-0.03 0.19461,-0.04 0.1946,-0.03 0.19462,-0.03 0.19458,-0.03 0.19463,-0.03 0.19461,-0.03 0.19458,-0.03 0.19464,-0.03 0.19458,-0.03 0.19461,-0.03 0.19463,-0.03 0.19459,-0.03 0.19461,-0.03 0.1946,-0.03 0.19461,-0.03 0.19462,-0.03 0.1946,-0.03 0.19461,-0.03 0.19458,-0.03 0.19464,-0.03 0.19461,-0.03 0.19458,-0.03 0.19463,-0.03 0.19458,-0.03 0.19462,-0.03 0.19463,-0.03 0.19458,-0.03 0.19461,-0.03 0.19461,-0.03 0.19461,-0.03 0.19463,-0.03 0.19458,-0.03 0.19461,-0.03 0.19461,-0.03 0.19461,-0.03 0.19461,-0.02 0.19461,-0.02 0.19461,-0.03 0.19458,-0.03 0.19463,-0.02 0.19461,-0.03 0.19459,-0.02 0.19463,-0.02 0.19458,-0.02 0.19462,-0.02 0.19463,-0.02 0.19458,-0.02 0.19461,-0.02 0.1946,-0.02 0.19462,-0.02 0.19461,-0.02 0.1946,-0.02 0.19461,-0.02 0.19458,-0.02 0.19464,-0.02 0.19461,-0.02 0.19458,-0.02 0.19463,-0.02 0.19459,-0.02 0.19461,-0.02 0.19463,-0.02 0.19458,-0.02 0.19463,-0.02 0.19459,-0.02 0.19461,-0.02 0.19461,-0.02 0.19461,-0.02 0.19461,-0.02 0.19458,-0.02 0.19463,-0.02 0.19462,-0.02 0.19458,-0.02 0.19463,-0.02 0.19458,-0.02 0.19463,-0.02 0.19462,-0.02 0.19458,-0.02 0.19462,-0.02 0.19459,-0.02 0.19462,-0.02 0.19461,-0.02 0.1946,-0.02 0.19461,-0.02 0.1946,-0.02 0.19462,-0.02 0.19461,-0.02 0.19458,-0.02 0.19463,-0.02 0.19459,-0.02 0.19461,-0.02 0.19463,-0.02 0.1946,-0.02 0.1946,-0.02 0.1946,-0.02 0.19461,-0.02 0.19463,-0.02 0.19459,-0.02 0.19461,-0.02 0.1946,-0.02 0.19461,-0.02 0.19463,-0.02 0.19459,-0.02 0.19461,-0.02 0.19458,-0.02 0.19463,-0.02 0.19462,-0.01 0.19459,-0.02 0.19462,-0.02 0.19458,-0.02 0.19462,-0.01 0.19463,-0.02 0.19458,-0.01 0.19461,-0.02 0.19461,-0.01 0.19461,-0.02 0.19461,-0.01 0.1946,-0.01 0.19463,-0.01 0.19457,-0.02 0.19463,-0.01 0.19461,-0.01 0.19459,-0.01 0.19463,-0.01 0.19458,-0.01 0.19461,-0.01 0.19464,-0.01 0.19458,-0.01 0.19461,-0.01 0.1946,-0.01 0.19461,-0.01 0.19463,-0.01 0.19459,-0.01 0.19461,-0.01 0.19458,-0.01 0.19463,-0.01 0.19462,-0.01 0.19458,-0.01 0.19463,-0.01 0.1946,-0.01 0.19461,-0.01 0.19462,-0.01 0.19458,-0.01 0.19461,-0.01 0.19461,-0.01 0.19461,-0.01 0.19461,-0.01 0.1946,-0.01 0.19462,-0.01 0.19459,-0.01 0.19462,-0.01 0.19461,-0.01 0.19458,-0.01 0.19464,-0.01 0.19458,-0.01 0.19461,-0.01 0.19463,-0.01 0.19459,-0.01 0.19462,-0.01 0.19459,-0.01 0.19461,-0.01 0.19464,-0.01 0.19459,-0.01 0.1946,-0.01 0.1946,-0.01 0.19462,-0.01 0.19462,-0.01 0.19459,-0.01 0.19461,-0.01 0.1946,-0.01 0.19462,-0.01 0.19461,-0.01 0.19458,-0.01 0.19465,-0.01 0.19457,-0.01 0.19461,-0.01 h 0.19463 l 0.19458,-0.01 0.19463,-0.01 0.19459,-0.01 0.19461,-0.01 0.19461,-0.01 0.1946,-0.01 0.19462,-0.01 0.19458,-0.01 0.19463,-0.01 0.19461,-0.01 0.1946,-0.01 0.19462,-0.01 0.19458,-0.01 h 0.19461 0.19464 l 0.19458,-0.01 0.19461,-0.01 0.19461,-0.01 0.19462,-0.01 h 0.19461 l 0.19459,-0.01 0.19461,-0.01 h 0.1946 l 0.19462,-0.01 0.19461,-0.01 h 0.19458 l 0.19464,-0.01 h 0.19459 l 0.19461,-0.01 h 0.19462 l 0.19458,-0.01 h 0.19463 l 0.19459,-0.01 h 0.19461 l 0.19461,-0.01 h 0.19461 0.19462 l 0.19458,-0.01 h 0.19462 0.19461 l 0.1946,-0.01 h 0.19462 0.19458 0.19463 l 0.19462,-0.01 h 0.19458 0.19462 0.19459 0.19463 0.19461 0.19459 0.19461 0.19461 0.19461 0.19462 0.19459 0.19461 0.1946 0.19462 0.19461 0.19458 0.19464 0.19458 0.19461 0.19463 0.1946 0.19461 0.19459 0.19461 0.19463 0.19459 0.19461 0.19459 0.19464 0.19461 0.19458 0.19462 0.19458 0.19463 0.19462 0.19458 0.19461 0.19461 0.19462 0.1946 0.1946 0.19461 0.19459 0.19463 0.19461 0.1946 0.19462 0.19458 0.19462 0.19462 0.1946 0.19461 0.19459 0.19462 0.19462 0.19459 0.19462 0.19457 0.19465 0.19461 0.19458 0.19462 0.19458 0.19463 0.19463 0.19457 0.19462 0.19461"
       style="fill:none;stroke:#ff0000;stroke-width:0.3985;stroke-linecap:butt;stroke-linejoin:miter;stroke-miterlimit:10;stroke-dasharray:none;stroke-opacity:1"
       transform="matrix(1.3333333,0,0,-1.3333333,6.7466667,17228.14)"
       clip-path="url(#clipPath25)" />
    <path
       id="path26"
       d="m 3.3294766,-3.0120625 c 0.058594,-0.2578125 0.2929687,-1.171875 0.984375,-1.171875 0.046875,0 0.2929687,0 0.5039062,0.1289062 -0.28125,0.046875 -0.4804687,0.3046875 -0.4804687,0.5390625 0,0.1640625 0.1054687,0.3515625 0.375,0.3515625 0.2226562,0 0.5390625,-0.1875 0.5390625,-0.5859375 0,-0.515625 -0.5859375,-0.65625 -0.9257813,-0.65625 -0.5742187,0 -0.9257812,0.5273438 -1.0429687,0.7617188 -0.2578125,-0.65625 -0.7851563,-0.7617188 -1.078125,-0.7617188 -1.0429688,0 -1.60546879,1.2890625 -1.60546879,1.5351563 0,0.1054687 0.10546875,0.1054687 0.1171875,0.1054687 0.0820313,0 0.1171875,-0.023437 0.12890625,-0.1171875 0.33984374,-1.0546875 0.99609374,-1.3007812 1.33593754,-1.3007812 0.1875,0 0.5390625,0.09375 0.5390625,0.6679687 0,0.3046875 -0.1640625,0.9726563 -0.5390625,2.3671875 -0.1523438,0.6210938 -0.5039063,1.0429688 -0.9492188,1.0429688 -0.058594,0 -0.28124999,0 -0.49218749,-0.12890625 0.24609375,-0.0585937 0.46874999,-0.26953125 0.46874999,-0.5390625 0,-0.26953125 -0.22265624,-0.35156255 -0.37499999,-0.35156255 -0.29296875,0 -0.5390625,0.25781255 -0.5390625,0.5742188 0,0.45703125 0.4921875,0.65625 0.93749999,0.65625 0.65625,0 1.0078125,-0.69140625 1.0429688,-0.75 0.1171875,0.36328125 0.4804687,0.75 1.078125,0.75 1.0195312,0 1.59375,-1.2773438 1.59375,-1.5351563 0,-0.09375 -0.09375,-0.09375 -0.1289063,-0.09375 -0.082031,0 -0.1054687,0.035156 -0.1289062,0.1054688 -0.328125,1.06640625 -0.9960938,1.3125 -1.3242188,1.3125 -0.3867187,0 -0.5390625,-0.328125 -0.5390625,-0.65625 0,-0.22265625 0.058594,-0.4453125 0.1640625,-0.8789063 z m 0,0"
       style="fill:#000000;fill-opacity:1;fill-rule:nonzero;stroke:none"
       aria-label="x"
       transform="matrix(1.3333333,0,0,1.3333333,253.47867,135.79733)" />
    <path
       id="path27"
       d="m 2.3317188,-4.4300938 c 0,-0.1875 -0.011719,-0.1992187 -0.2109375,-0.1992187 C 1.6754688,-4.1957188 1.0426563,-4.184 0.76140625,-4.184 v 0.2460937 c 0.1640625,0 0.62109375,0 1.00781255,-0.1875 v 3.5507813 c 0,0.234375 0,0.328125 -0.6914063,0.328125 H 0.80828125 V -4.0625e-4 C 0.9371875,-0.012125 1.7926563,-0.02384375 2.0504688,-0.02384375 c 0.2109375,0 1.0898437,0.01171875 1.2421875,0.0234375 V -0.2465 H 3.0348438 c -0.703125,0 -0.703125,-0.09375 -0.703125,-0.328125 z m 0,0"
       style="fill:#000000;fill-opacity:1;fill-rule:nonzero;stroke:none"
       aria-label="1"
       transform="matrix(1.3333333,0,0,1.3333333,142.90667,43.578667)" />
    <path
       id="path28"
       d="M 0,0 H 4.518"
       style="fill:none;stroke:#000000;stroke-width:0.398;stroke-linecap:butt;stroke-linejoin:miter;stroke-miterlimit:10;stroke-dasharray:none;stroke-opacity:1"
       transform="matrix(1.3333333,0,0,-1.3333333,142.54267,45.488)" />
    <path
       id="path29"
       d="m 1.7346016,-0.7383125 c -0.070312,0.234375 -0.2929688,0.609375 -0.65625,0.609375 -0.023437,0 -0.22265629,0 -0.37500004,-0.09375 0.28125,-0.09375 0.30468754,-0.33984375 0.30468754,-0.38671875 0,-0.15234375 -0.11718754,-0.2578125 -0.28125004,-0.2578125 -0.1875,0 -0.38671875,0.1640625 -0.38671875,0.43359375 0,0.33984375 0.38671875,0.50390625 0.72656249,0.50390625 0.3164063,0 0.609375,-0.19921875 0.7851563,-0.4921875 0.1640625,0.36328125 0.5507812,0.4921875 0.8203125,0.4921875 0.8085937,0 1.2304687,-0.8671875 1.2304687,-1.06640625 0,-0.09375 -0.09375,-0.09375 -0.1054687,-0.09375 -0.1054688,0 -0.1054688,0.035156 -0.140625,0.1171875 -0.140625,0.48046875 -0.5625,0.84375 -0.9492188,0.84375 -0.28125,0 -0.421875,-0.1875 -0.421875,-0.4453125 0,-0.1875 0.1640625,-0.8203125 0.3632813,-1.59375 0.1289062,-0.5390625 0.4453125,-0.7148438 0.6796875,-0.7148438 0.011719,0 0.2226562,0 0.375,0.1054688 -0.2226563,0.058594 -0.3046875,0.2578125 -0.3046875,0.375 0,0.1523437 0.1171875,0.2578125 0.28125,0.2578125 0.1523437,0 0.3867187,-0.1289063 0.3867187,-0.421875 0,-0.3867188 -0.4453125,-0.5039063 -0.7265625,-0.5039063 -0.3515625,0 -0.6328125,0.2226563 -0.7851562,0.4921875 -0.1171875,-0.2929687 -0.4453125,-0.4921875 -0.8320313,-0.4921875 -0.78515624,0 -1.23046874,0.8554688 -1.23046874,1.0664063 0,0.082031 0.10546875,0.082031 0.1171875,0.082031 0.09375,0 0.10546875,-0.023437 0.140625,-0.1171875 0.17578125,-0.5390625 0.60937504,-0.84375 0.94921874,-0.84375 0.234375,0 0.421875,0.1289063 0.421875,0.46875 0,0.1289063 -0.082031,0.4804688 -0.1523437,0.7148438 z m 0,0"
       style="fill:#000000;fill-opacity:1;fill-rule:nonzero;stroke:none"
       aria-label="x"
       transform="matrix(1.3333333,0,0,1.3333333,142.54267,53.390667)" />
    <g
       id="g29"
       aria-label="f(x)=&#10;1"
       transform="matrix(1.3333333,0,0,1.3333333,109.86533,15.649333)">
      <path
         id="path30"
         d="m 3.6576406,-3.9850469 h 0.8554688 c 0.1992187,0 0.3046875,0 0.3046875,-0.1992187 0,-0.1054688 -0.1054688,-0.1054688 -0.2695313,-0.1054688 H 3.7162344 l 0.2109375,-1.1367187 c 0.035156,-0.2109375 0.1757812,-0.9140625 0.234375,-1.0429688 0.09375,-0.1875 0.2578125,-0.3398437 0.46875,-0.3398437 0.046875,0 0.3046875,0 0.4921875,0.1875 -0.4335938,0.035156 -0.5390625,0.3867187 -0.5390625,0.5390625 0,0.2226562 0.1757812,0.3398437 0.3632812,0.3398437 0.2695313,0 0.5507813,-0.2109375 0.5507813,-0.5976562 0,-0.4570313 -0.4570313,-0.6796875 -0.8671875,-0.6796875 -0.3398438,0 -0.9609375,0.1757812 -1.265625,1.1601562 -0.058594,0.2109375 -0.082031,0.3164063 -0.328125,1.5703125 H 2.3568594 c -0.1992188,0 -0.3046875,0 -0.3046875,0.1875 0,0.1171875 0.09375,0.1171875 0.28125,0.1171875 h 0.65625 l -0.75,3.93750002 C 2.0638906,0.91339062 1.8998281,1.8274531 1.3724844,1.8274531 c -0.035156,0 -0.28125,0 -0.46875003,-0.1875 C 1.3607656,1.6165156 1.4427969,1.2532344 1.4427969,1.1008906 c 0,-0.22265623 -0.1757813,-0.33984373 -0.3632813,-0.33984373 -0.25781248,0 -0.55078123,0.2109375 -0.55078123,0.59765623 0,0.4453125 0.43359375,0.6796875 0.84375003,0.6796875 0.5507812,0 0.9492187,-0.5859375 1.125,-0.9609375 0.328125,-0.63281248 0.5507812,-1.83984373 0.5625,-1.91015623 z m 0,0"
         style="fill:#000000;fill-opacity:1;fill-rule:nonzero;stroke:none" />
      <path
         id="path31"
         d="m 9.241625,2.3899531 c 0,-0.035156 0,-0.046875 -0.1640625,-0.2226562 C 7.835375,0.91339062 7.50725,-0.96160938 7.50725,-2.4967656 c 0,-1.7226563 0.3867187,-3.4570313 1.6054687,-4.7109375 0.1289063,-0.1171875 0.1289063,-0.1289063 0.1289063,-0.1640625 0,-0.070312 -0.035156,-0.1054688 -0.09375,-0.1054688 -0.1054688,0 -0.9960938,0.6796875 -1.5820313,1.9453125 -0.515625,1.1015625 -0.6328125,2.203125 -0.6328125,3.0351563 0,0.7851562 0.1171875,1.99218747 0.65625,3.11718747 0.5976563,1.21875003 1.453125,1.87500003 1.5585938,1.87500003 0.058594,0 0.09375,-0.035156 0.09375,-0.1054688 z m 0,0"
         style="fill:#000000;fill-opacity:1;fill-rule:nonzero;stroke:none" />
      <path
         id="path32"
         d="m 13.152758,-3.0123906 c 0.05859,-0.2578125 0.292969,-1.171875 0.984375,-1.171875 0.04687,0 0.292969,0 0.503906,0.1289062 -0.28125,0.046875 -0.480469,0.3046875 -0.480469,0.5390625 0,0.1640625 0.105469,0.3515625 0.375,0.3515625 0.222657,0 0.539063,-0.1875 0.539063,-0.5859375 0,-0.515625 -0.585938,-0.65625 -0.925781,-0.65625 -0.574219,0 -0.925782,0.5273438 -1.042969,0.7617188 -0.257813,-0.65625 -0.785156,-0.7617188 -1.078125,-0.7617188 -1.042969,0 -1.605469,1.2890625 -1.605469,1.5351563 0,0.1054687 0.105469,0.1054687 0.117188,0.1054687 0.08203,0 0.117187,-0.023437 0.128906,-0.1171875 0.339844,-1.0546875 0.996094,-1.3007812 1.335937,-1.3007812 0.1875,0 0.539063,0.09375 0.539063,0.6679687 0,0.3046875 -0.164063,0.9726563 -0.539063,2.3671875 -0.152343,0.62109377 -0.503906,1.04296877 -0.949218,1.04296877 -0.05859,0 -0.28125,0 -0.492188,-0.12890625 0.246094,-0.0585938 0.46875,-0.26953125 0.46875,-0.5390625 0,-0.26953122 -0.222656,-0.35156252 -0.375,-0.35156252 -0.292969,0 -0.539062,0.25781252 -0.539062,0.57421877 0,0.45703125 0.492187,0.65625 0.9375,0.65625 0.65625,0 1.007812,-0.69140625 1.042968,-0.75 0.117188,0.36328125 0.480469,0.75 1.078125,0.75 1.019532,0 1.59375,-1.27734377 1.59375,-1.53515627 0,-0.09375 -0.09375,-0.09375 -0.128906,-0.09375 -0.08203,0 -0.105469,0.035156 -0.128906,0.1054688 -0.328125,1.06640622 -0.996094,1.31249997 -1.324219,1.31249997 -0.386719,0 -0.539062,-0.328125 -0.539062,-0.65625 0,-0.22265625 0.05859,-0.44531247 0.164062,-0.87890627 z m 0,0"
         style="fill:#000000;fill-opacity:1;fill-rule:nonzero;stroke:none" />
      <path
         id="path33"
         d="m 18.399828,-2.4967656 c 0,-0.7734375 -0.117187,-1.9804688 -0.65625,-3.1054688 -0.597656,-1.21875 -1.464844,-1.875 -1.558594,-1.875 -0.05859,0 -0.105468,0.046875 -0.105468,0.1054688 0,0.035156 0,0.046875 0.199218,0.234375 0.972657,0.984375 1.535157,2.5664062 1.535157,4.640625 0,1.71093747 -0.363282,3.45703122 -1.59375,4.7226562 -0.140625,0.1171875 -0.140625,0.1289063 -0.140625,0.1640625 0,0.058594 0.04687,0.1054688 0.105468,0.1054688 0.09375,0 0.996094,-0.6796875 1.582032,-1.94531253 0.503906,-1.1015625 0.632812,-2.20312497 0.632812,-3.04687497 z m 10.605469,-0.7617188 c 0.152344,0 0.339844,0 0.339844,-0.1992187 0,-0.1992188 -0.1875,-0.1992188 -0.328125,-0.1992188 h -5.964844 c -0.140625,0 -0.328125,0 -0.328125,0.1992188 0,0.1992187 0.1875,0.1992187 0.339844,0.1992187 z m 0.01172,1.9335938 c 0.140625,0 0.328125,0 0.328125,-0.1992188 0,-0.1992187 -0.1875,-0.1992187 -0.339844,-0.1992187 h -5.941406 c -0.152344,0 -0.339844,0 -0.339844,0.1992187 0,0.1992188 0.1875,0.1992188 0.328125,0.1992188 z m 0,0"
         style="fill:#000000;fill-opacity:1;fill-rule:nonzero;stroke:none" />
      <path
         id="path34"
         d="m 36.476,-8.3502813 c 0,-0.1875 -0.01172,-0.1992187 -0.210938,-0.1992187 -0.445312,0.4335937 -1.078125,0.4453125 -1.359375,0.4453125 v 0.2460937 c 0.164063,0 0.621094,0 1.007813,-0.1875 v 3.5507813 c 0,0.234375 0,0.328125 -0.691406,0.328125 h -0.269532 v 0.2460937 c 0.128907,-0.011719 0.984375,-0.023437 1.242188,-0.023437 0.210937,0 1.089844,0.011719 1.242187,0.023437 v -0.2460937 h -0.257812 c -0.703125,0 -0.703125,-0.09375 -0.703125,-0.328125 z m 0,0"
         style="fill:#000000;fill-opacity:1;fill-rule:nonzero;stroke:none" />
    </g>
    <path
       id="path35"
       d="M 0,0 H 4.518"
       style="fill:none;stroke:#000000;stroke-width:0.398;stroke-linecap:butt;stroke-linejoin:miter;stroke-miterlimit:10;stroke-dasharray:none;stroke-opacity:1"
       transform="matrix(1.3333333,0,0,-1.3333333,155.028,12.329333)" />
    <path
       id="path36"
       d="m 1.7338828,-0.73842969 c -0.070312,0.234375 -0.2929687,0.609375 -0.65625,0.609375 -0.023437,0 -0.22265624,0 -0.37499999,-0.09375 0.28125,-0.09375 0.30468749,-0.33984375 0.30468749,-0.38671875 0,-0.15234375 -0.11718749,-0.2578125 -0.28124999,-0.2578125 -0.1875,0 -0.38671875,0.1640625 -0.38671875,0.43359375 0,0.33984375 0.38671875,0.50390625 0.72656254,0.50390625 0.3164062,0 0.609375,-0.19921875 0.7851562,-0.4921875 0.1640625,0.36328125 0.5507813,0.4921875 0.8203125,0.4921875 0.8085938,0 1.2304688,-0.8671875 1.2304688,-1.06640625 0,-0.09375 -0.09375,-0.09375 -0.1054688,-0.09375 -0.1054687,0 -0.1054687,0.035156 -0.140625,0.11718752 -0.140625,0.48046875 -0.5625,0.84375 -0.9492187,0.84375 -0.28125,0 -0.421875,-0.1875 -0.421875,-0.4453125 0,-0.1875 0.1640625,-0.82031252 0.3632812,-1.59375002 0.1289063,-0.5390625 0.4453125,-0.7148437 0.6796875,-0.7148437 0.011719,0 0.2226563,0 0.375,0.1054687 -0.2226562,0.058594 -0.3046875,0.2578125 -0.3046875,0.375 0,0.1523438 0.1171875,0.2578125 0.28125,0.2578125 0.1523438,0 0.3867188,-0.1289062 0.3867188,-0.421875 0,-0.3867187 -0.4453125,-0.5039062 -0.7265625,-0.5039062 -0.3515625,0 -0.6328125,0.2226562 -0.7851563,0.4921875 -0.1171875,-0.2929688 -0.4453125,-0.4921875 -0.8320312,-0.4921875 -0.78515629,0 -1.23046879,0.8554687 -1.23046879,1.0664062 0,0.082031 0.10546875,0.082031 0.1171875,0.082031 0.09375,0 0.10546875,-0.023437 0.140625,-0.1171875 0.17578125,-0.5390625 0.60937499,-0.84375 0.94921879,-0.84375 0.234375,0 0.421875,0.1289062 0.421875,0.46875 0,0.1289062 -0.082031,0.4804687 -0.1523438,0.7148437 z m 0,0"
       style="fill:#000000;fill-opacity:1;fill-rule:nonzero;stroke:none"
       aria-label="x"
       transform="matrix(1.3333333,0,0,1.3333333,155.028,20.230667)" />
  </g>
</svg>
