<?xml version="1.0" encoding="UTF-8" standalone="no"?>
<!-- Created with Inkscape (http://www.inkscape.org/) -->

<svg
   version="1.1"
   id="svg1"
   width="244.336"
   height="181.41068"
   viewBox="0 0 244.336 181.41068"
   xmlns="http://www.w3.org/2000/svg"
   xmlns:svg="http://www.w3.org/2000/svg">
  <defs
     id="defs1" />
  <g
     id="g1">
    <path
       id="path1"
       d="M -59.52846,-56.69362 H 59.52846 M -59.52846,-28.3468 H 59.52846 M -59.52846,0 H 59.52846 M -59.52846,28.3468 H 59.52846 M -59.52846,56.69362 H 59.52846 M -56.69362,-59.52846 V 59.52846 M -28.3468,-59.52846 V 59.52846 M 0,-59.52846 V 59.52846 M 28.3468,-59.52846 V 59.52846 M 56.69362,-59.52846 V 59.52846"
       style="fill:none;stroke:#808080;stroke-width:0.19925;stroke-linecap:butt;stroke-linejoin:miter;stroke-miterlimit:10;stroke-dasharray:none;stroke-opacity:1"
       transform="matrix(1.3333333,0,0,-1.3333333,79.636,101.77467)" />
    <path
       id="path2"
       d="M -59.52846,0 H 59.07019"
       style="fill:none;stroke:#000000;stroke-width:0.3985;stroke-linecap:butt;stroke-linejoin:miter;stroke-miterlimit:10;stroke-dasharray:none;stroke-opacity:1"
       transform="matrix(1.3333333,0,0,-1.3333333,79.636,101.77467)" />
    <path
       id="path3"
       d="M -1.19551,1.59401 C -1.09587,0.99626 0,0.09961 0.29886,0 0,-0.09961 -1.09587,-0.99626 -1.19551,-1.59401"
       style="fill:none;stroke:#000000;stroke-width:0.31879;stroke-linecap:round;stroke-linejoin:round;stroke-miterlimit:10;stroke-dasharray:none;stroke-opacity:1"
       transform="matrix(1.3333333,0,0,-1.3333333,158.39625,101.77467)" />
    <path
       id="path4"
       d="m 3.3285391,-3.0131094 c 0.058594,-0.2578125 0.2929687,-1.171875 0.984375,-1.171875 0.046875,0 0.2929687,0 0.5039062,0.1289063 -0.28125,0.046875 -0.4804687,0.3046875 -0.4804687,0.5390625 0,0.1640625 0.1054687,0.3515625 0.375,0.3515625 0.2226562,0 0.5390625,-0.1875 0.5390625,-0.5859375 0,-0.515625 -0.5859375,-0.65625 -0.9257813,-0.65625 -0.5742187,0 -0.9257812,0.5273437 -1.0429687,0.7617187 -0.2578125,-0.65625 -0.7851563,-0.7617187 -1.078125,-0.7617187 -1.0429688,0 -1.60546879,1.2890625 -1.60546879,1.5351562 0,0.1054688 0.10546875,0.1054688 0.1171875,0.1054688 0.0820313,0 0.1171875,-0.023437 0.12890625,-0.1171875 0.33984374,-1.0546875 0.99609374,-1.3007813 1.33593754,-1.3007813 0.1875,0 0.5390625,0.09375 0.5390625,0.6679688 0,0.3046875 -0.1640625,0.9726562 -0.5390625,2.3671875 -0.1523438,0.62109372 -0.5039063,1.04296872 -0.9492188,1.04296872 -0.058594,0 -0.28124999,0 -0.49218749,-0.12890625 0.24609375,-0.0585938 0.46874999,-0.26953125 0.46874999,-0.5390625 0,-0.26953127 -0.22265624,-0.35156247 -0.37499999,-0.35156247 -0.29296875,0 -0.5390625,0.25781247 -0.5390625,0.57421872 0,0.45703125 0.4921875,0.65625 0.93749999,0.65625 0.65625,0 1.0078125,-0.69140625 1.0429688,-0.75 0.1171875,0.36328125 0.4804687,0.75 1.078125,0.75 1.0195312,0 1.59375,-1.27734372 1.59375,-1.53515622 0,-0.09375 -0.09375,-0.09375 -0.1289063,-0.09375 -0.082031,0 -0.1054687,0.035156 -0.1289062,0.1054687 -0.328125,1.06640627 -0.9960938,1.31250002 -1.3242188,1.31250002 -0.3867187,0 -0.5390625,-0.328125 -0.5390625,-0.65625 0,-0.22265625 0.058594,-0.44531252 0.1640625,-0.87890622 z m 0,0"
       style="fill:#000000;fill-opacity:1;fill-rule:nonzero;stroke:none"
       aria-label="x"
       transform="matrix(1.3333333,0,0,1.3333333,163.69867,104.63467)" />
    <path
       id="path5"
       d="M 0,-59.52846 V 59.07019"
       style="fill:none;stroke:#000000;stroke-width:0.3985;stroke-linecap:butt;stroke-linejoin:miter;stroke-miterlimit:10;stroke-dasharray:none;stroke-opacity:1"
       transform="matrix(1.3333333,0,0,-1.3333333,79.636,101.77467)" />
    <path
       id="path6"
       d="M -1.19551,1.59401 C -1.09587,0.99626 0,0.09961 0.29886,0 0,-0.09961 -1.09587,-0.99626 -1.19551,-1.59401"
       style="fill:none;stroke:#000000;stroke-width:0.31879;stroke-linecap:round;stroke-linejoin:round;stroke-miterlimit:10;stroke-dasharray:none;stroke-opacity:1"
       transform="matrix(0,-1.3333333,-1.3333333,0,79.636,23.014413)" />
    <g
       id="g6"
       aria-label="f(x)"
       transform="matrix(1.3333333,0,0,1.3333333,66.708,14.390667)">
      <path
         id="path7"
         d="m 3.6555234,-3.9844063 h 0.8554688 c 0.1992187,0 0.3046875,0 0.3046875,-0.1992187 0,-0.1054688 -0.1054688,-0.1054688 -0.2695313,-0.1054688 H 3.7141172 l 0.2109375,-1.1367187 c 0.035156,-0.2109375 0.1757812,-0.9140625 0.234375,-1.0429688 0.09375,-0.1875 0.2578125,-0.3398437 0.46875,-0.3398437 0.046875,0 0.3046875,0 0.4921875,0.1875 -0.4335938,0.035156 -0.5390625,0.3867187 -0.5390625,0.5390625 0,0.2226562 0.1757812,0.3398437 0.3632812,0.3398437 0.2695313,0 0.5507813,-0.2109375 0.5507813,-0.5976562 0,-0.4570313 -0.4570313,-0.6796875 -0.8671875,-0.6796875 -0.3398438,0 -0.9609375,0.1757812 -1.265625,1.1601562 -0.058594,0.2109375 -0.082031,0.3164063 -0.328125,1.5703125 H 2.3547422 c -0.1992188,0 -0.3046875,0 -0.3046875,0.1875 0,0.1171875 0.09375,0.1171875 0.28125,0.1171875 h 0.65625 l -0.75,3.93750005 C 2.0617734,0.91403125 1.8977109,1.8280937 1.3703672,1.8280937 c -0.035156,0 -0.28125,0 -0.46875001,-0.1875 C 1.3586484,1.6171562 1.4406797,1.253875 1.4406797,1.1015312 c 0,-0.2226562 -0.1757813,-0.3398437 -0.3632813,-0.3398437 -0.25781246,0 -0.55078121,0.2109375 -0.55078121,0.5976562 0,0.4453125 0.43359375,0.6796875 0.84375001,0.6796875 0.5507812,0 0.9492187,-0.5859375 1.125,-0.9609375 0.328125,-0.63281245 0.5507812,-1.8398437 0.5625,-1.9101562 z m 0,0"
         style="fill:#000000;fill-opacity:1;fill-rule:nonzero;stroke:none" />
      <path
         id="path8"
         d="m 9.2424375,2.3905937 c 0,-0.035156 0,-0.046875 -0.1640625,-0.2226562 C 7.8361875,0.91403125 7.5080625,-0.96096875 7.5080625,-2.496125 c 0,-1.7226563 0.3867188,-3.4570313 1.6054688,-4.7109375 0.1289062,-0.1171875 0.1289062,-0.1289063 0.1289062,-0.1640625 0,-0.070312 -0.035156,-0.1054688 -0.09375,-0.1054688 -0.1054687,0 -0.9960937,0.6796875 -1.5820312,1.9453125 -0.515625,1.1015625 -0.6328125,2.203125 -0.6328125,3.0351563 0,0.7851562 0.1171875,1.9921875 0.65625,3.1171875 0.5976562,1.21875 1.453125,1.875 1.5585937,1.875 0.058594,0 0.09375,-0.035156 0.09375,-0.1054688 z m 0,0"
         style="fill:#000000;fill-opacity:1;fill-rule:nonzero;stroke:none" />
      <path
         id="path9"
         d="m 13.15357,-3.01175 c 0.05859,-0.2578125 0.292969,-1.171875 0.984375,-1.171875 0.04687,0 0.292969,0 0.503907,0.1289062 -0.28125,0.046875 -0.480469,0.3046875 -0.480469,0.5390625 0,0.1640625 0.105469,0.3515625 0.375,0.3515625 0.222656,0 0.539062,-0.1875 0.539062,-0.5859375 0,-0.515625 -0.585937,-0.65625 -0.925781,-0.65625 -0.574219,0 -0.925781,0.5273438 -1.042969,0.7617188 -0.257812,-0.65625 -0.785156,-0.7617188 -1.078125,-0.7617188 -1.042968,0 -1.605468,1.2890625 -1.605468,1.5351563 0,0.1054687 0.105468,0.1054687 0.117187,0.1054687 0.08203,0 0.117188,-0.023437 0.128906,-0.1171875 0.339844,-1.0546875 0.996094,-1.3007812 1.335938,-1.3007812 0.1875,0 0.539062,0.09375 0.539062,0.6679687 0,0.3046875 -0.164062,0.9726563 -0.539062,2.3671875 -0.152344,0.6210938 -0.503906,1.0429688 -0.949219,1.0429688 -0.05859,0 -0.28125,0 -0.492187,-0.12890625 0.246093,-0.0585937 0.46875,-0.26953125 0.46875,-0.5390625 0,-0.26953125 -0.222657,-0.35156255 -0.375,-0.35156255 -0.292969,0 -0.539063,0.25781255 -0.539063,0.5742188 0,0.45703125 0.492188,0.65625 0.9375,0.65625 0.65625,0 1.007813,-0.69140625 1.042969,-0.75 0.117187,0.36328125 0.480469,0.75 1.078125,0.75 1.019531,0 1.59375,-1.2773438 1.59375,-1.5351563 0,-0.09375 -0.09375,-0.09375 -0.128906,-0.09375 -0.08203,0 -0.105469,0.035156 -0.128907,0.1054688 -0.328125,1.06640625 -0.996093,1.3125 -1.324218,1.3125 -0.386719,0 -0.539063,-0.328125 -0.539063,-0.65625 0,-0.22265625 0.05859,-0.4453125 0.164063,-0.8789063 z m 0,0"
         style="fill:#000000;fill-opacity:1;fill-rule:nonzero;stroke:none" />
      <path
         id="path10"
         d="m 18.400641,-2.496125 c 0,-0.7734375 -0.117188,-1.9804688 -0.65625,-3.1054688 -0.597657,-1.21875 -1.464844,-1.875 -1.558594,-1.875 -0.05859,0 -0.105469,0.046875 -0.105469,0.1054688 0,0.035156 0,0.046875 0.199219,0.234375 0.972656,0.984375 1.535156,2.5664062 1.535156,4.640625 0,1.7109375 -0.363281,3.45703125 -1.59375,4.7226562 -0.140625,0.1171875 -0.140625,0.1289063 -0.140625,0.1640625 0,0.058594 0.04687,0.1054688 0.105469,0.1054688 0.09375,0 0.996094,-0.6796875 1.582031,-1.9453125 0.503906,-1.1015625 0.632813,-2.203125 0.632813,-3.046875 z m 0,0"
         style="fill:#000000;fill-opacity:1;fill-rule:nonzero;stroke:none" />
    </g>
    <path
       id="path11"
       d="M -28.3468,-56.69362 V 56.69362"
       style="fill:none;stroke:#ff0000;stroke-width:0.3985;stroke-linecap:butt;stroke-linejoin:miter;stroke-miterlimit:10;stroke-dasharray:2.98883, 2.98883;stroke-dashoffset:0;stroke-opacity:1"
       transform="matrix(1.3333333,0,0,-1.3333333,79.636,101.77467)" />
    <g
       id="g11"
       aria-label="x=1"
       transform="matrix(1.3333333,0,0,1.3333333,25.868,21.490667)">
      <path
         id="path12"
         d="m 3.3275156,-3.0105781 c 0.058594,-0.2578125 0.2929688,-1.171875 0.984375,-1.171875 0.046875,0 0.2929688,0 0.5039063,0.1289062 -0.28125,0.046875 -0.4804688,0.3046875 -0.4804688,0.5390625 0,0.1640625 0.1054688,0.3515625 0.375,0.3515625 0.2226563,0 0.5390625,-0.1875 0.5390625,-0.5859375 0,-0.515625 -0.5859375,-0.65625 -0.9257812,-0.65625 -0.5742188,0 -0.9257813,0.5273438 -1.0429688,0.7617188 -0.2578125,-0.65625 -0.7851562,-0.7617188 -1.078125,-0.7617188 -1.0429687,0 -1.60546872,1.2890625 -1.60546872,1.5351563 0,0.1054687 0.10546875,0.1054687 0.1171875,0.1054687 0.0820313,0 0.1171875,-0.023437 0.12890625,-0.1171875 0.33984377,-1.0546875 0.99609377,-1.3007812 1.33593747,-1.3007812 0.1875,0 0.5390625,0.09375 0.5390625,0.6679687 0,0.3046875 -0.1640625,0.9726563 -0.5390625,2.3671875 -0.1523437,0.62109377 -0.5039062,1.04296877 -0.9492187,1.04296877 -0.058594,0 -0.28125002,0 -0.49218752,-0.12890625 0.24609375,-0.0585938 0.46875002,-0.26953125 0.46875002,-0.5390625 0,-0.26953122 -0.22265627,-0.35156252 -0.37500002,-0.35156252 -0.29296875,0 -0.5390625,0.25781252 -0.5390625,0.57421877 0,0.45703125 0.4921875,0.65625 0.93750002,0.65625 0.65625,0 1.0078125,-0.69140625 1.0429687,-0.75 0.1171875,0.36328125 0.4804688,0.75 1.078125,0.75 1.0195313,0 1.59375,-1.27734377 1.59375,-1.53515627 0,-0.09375 -0.09375,-0.09375 -0.1289062,-0.09375 -0.082031,0 -0.1054688,0.035156 -0.1289063,0.1054688 -0.328125,1.06640622 -0.9960937,1.31249997 -1.3242187,1.31249997 -0.3867188,0 -0.5390625,-0.328125 -0.5390625,-0.65625 0,-0.22265625 0.058594,-0.44531247 0.1640625,-0.87890627 z m 0,0"
         style="fill:#ff0000;fill-opacity:1;fill-rule:nonzero;stroke:none" />
      <path
         id="path13"
         d="m 15.304078,-3.2566719 c 0.152344,0 0.339844,0 0.339844,-0.1992187 0,-0.1992188 -0.1875,-0.1992188 -0.328125,-0.1992188 H 9.3509531 c -0.140625,0 -0.328125,0 -0.328125,0.1992188 0,0.1992187 0.1875,0.1992187 0.3398438,0.1992187 z m 0.01172,1.9335938 c 0.140625,0 0.328125,0 0.328125,-0.1992188 0,-0.1992187 -0.1875,-0.1992187 -0.339844,-0.1992187 H 9.3626719 c -0.1523438,0 -0.3398438,0 -0.3398438,0.1992187 0,0.1992188 0.1875,0.1992188 0.328125,0.1992188 z m 6.594726,-5.0507813 c 0,-0.234375 0,-0.2578125 -0.234375,-0.2578125 -0.609375,0.6328125 -1.488281,0.6328125 -1.804687,0.6328125 v 0.3164063 c 0.199219,0 0.785156,0 1.300781,-0.2578125 v 5.15624997 c 0,0.3515625 -0.03516,0.48046875 -0.925781,0.48046875 h -0.316406 v 0.3046875 c 0.351562,-0.03515625 1.207031,-0.03515625 1.605468,-0.03515625 0.398438,0 1.265625,0 1.617188,0.03515625 v -0.3046875 h -0.316406 c -0.902344,0 -0.925782,-0.1171875 -0.925782,-0.48046875 z m 0,0"
         style="fill:#ff0000;fill-opacity:1;fill-rule:nonzero;stroke:none" />
    </g>
    <path
       id="path14"
       d="M 28.3468,-56.69362 V 56.69362"
       style="fill:none;stroke:#ff0000;stroke-width:0.3985;stroke-linecap:butt;stroke-linejoin:miter;stroke-miterlimit:10;stroke-dasharray:2.98883, 2.98883;stroke-dashoffset:0;stroke-opacity:1"
       transform="matrix(1.3333333,0,0,-1.3333333,79.636,101.77467)" />
    <g
       id="g14"
       aria-label="x=−1"
       transform="matrix(1.3333333,0,0,1.3333333,96.293333,20.384)">
      <path
         id="path15"
         d="m 3.3278516,-3.0126094 c 0.058594,-0.2578125 0.2929687,-1.171875 0.984375,-1.171875 0.046875,0 0.2929687,0 0.5039062,0.1289063 -0.28125,0.046875 -0.4804687,0.3046875 -0.4804687,0.5390625 0,0.1640625 0.1054687,0.3515625 0.375,0.3515625 0.2226562,0 0.5390625,-0.1875 0.5390625,-0.5859375 0,-0.515625 -0.5859375,-0.65625 -0.9257813,-0.65625 -0.5742187,0 -0.9257812,0.5273437 -1.0429687,0.7617187 -0.2578125,-0.65625 -0.7851563,-0.7617187 -1.078125,-0.7617187 -1.0429688,0 -1.60546879,1.2890625 -1.60546879,1.5351562 0,0.1054688 0.10546875,0.1054688 0.1171875,0.1054688 0.0820313,0 0.1171875,-0.023437 0.12890625,-0.1171875 0.33984374,-1.0546875 0.99609374,-1.3007813 1.33593754,-1.3007813 0.1875,0 0.5390625,0.09375 0.5390625,0.6679688 0,0.3046875 -0.1640625,0.9726562 -0.5390625,2.3671875 -0.1523438,0.62109372 -0.5039063,1.04296872 -0.9492188,1.04296872 -0.058594,0 -0.28124999,0 -0.49218749,-0.12890625 0.24609375,-0.0585938 0.46874999,-0.26953125 0.46874999,-0.5390625 0,-0.26953127 -0.22265624,-0.35156247 -0.37499999,-0.35156247 -0.29296875,0 -0.5390625,0.25781247 -0.5390625,0.57421872 0,0.45703125 0.4921875,0.65625 0.93749999,0.65625 0.65625,0 1.0078125,-0.69140625 1.0429688,-0.75 0.1171875,0.36328125 0.4804687,0.75 1.078125,0.75 1.0195312,0 1.59375,-1.27734372 1.59375,-1.53515622 0,-0.09375 -0.09375,-0.09375 -0.1289063,-0.09375 -0.082031,0 -0.1054687,0.035156 -0.1289062,0.1054687 -0.328125,1.06640627 -0.9960938,1.31250002 -1.3242188,1.31250002 -0.3867187,0 -0.5390625,-0.328125 -0.5390625,-0.65625 0,-0.22265625 0.058594,-0.44531252 0.1640625,-0.87890622 z m 0,0"
         style="fill:#ff0000;fill-opacity:1;fill-rule:nonzero;stroke:none" />
      <path
         id="path16"
         d="m 15.304414,-3.2587031 c 0.152344,0 0.339844,0 0.339844,-0.1992188 0,-0.1992187 -0.1875,-0.1992187 -0.328125,-0.1992187 H 9.3512891 c -0.140625,0 -0.328125,0 -0.328125,0.1992187 0,0.1992188 0.1875,0.1992188 0.3398437,0.1992188 z m 0.01172,1.9335937 c 0.140625,0 0.328125,0 0.328125,-0.1992187 0,-0.1992188 -0.1875,-0.1992188 -0.339844,-0.1992188 H 9.3630078 c -0.1523437,0 -0.3398437,0 -0.3398437,0.1992188 0,0.1992187 0.1875,0.1992187 0.328125,0.1992187 z m 0,0"
         style="fill:#ff0000;fill-opacity:1;fill-rule:nonzero;stroke:none" />
      <path
         id="path17"
         d="m 25.540742,-2.2977656 c 0.175781,0 0.351563,0 0.351563,-0.1992188 0,-0.1992187 -0.175782,-0.1992187 -0.351563,-0.1992187 h -5.390625 c -0.164062,0 -0.339844,0 -0.339844,0.1992187 0,0.1992188 0.175782,0.1992188 0.339844,0.1992188 z m 0,0"
         style="fill:#ff0000;fill-opacity:1;fill-rule:nonzero;stroke:none" />
      <path
         id="path18"
         d="m 29.656953,-6.3758906 c 0,-0.234375 0,-0.2578125 -0.234375,-0.2578125 -0.609375,0.6328125 -1.488281,0.6328125 -1.804687,0.6328125 v 0.3164062 c 0.199218,0 0.785156,0 1.300781,-0.2578125 v 5.15625002 c 0,0.3515625 -0.03516,0.48046875 -0.925781,0.48046875 h -0.316407 v 0.304687505 c 0.351563,-0.035156255 1.207032,-0.035156255 1.605469,-0.035156255 0.398438,0 1.265625,0 1.617188,0.035156255 V -0.30557813 h -0.316407 c -0.902343,0 -0.925781,-0.1171875 -0.925781,-0.48046875 z m 0,0"
         style="fill:#ff0000;fill-opacity:1;fill-rule:nonzero;stroke:none" />
    </g>
    <path
       id="path19"
       d="m -28.3468,-28.3468 2.36209,2.36209 2.36209,2.36209 2.36209,2.36209 2.36209,2.36209 2.36209,2.36209 2.36209,2.36209 2.3621,2.3621 2.36209,2.36209 2.36207,2.36207 2.36211,2.36211 2.36207,2.36207 2.36211,2.36211 2.36205,2.36205 2.3621,2.3621 2.36208,2.36208 2.36209,2.36209 2.36209,2.36209 2.36209,2.36209 2.36209,2.36209 2.36209,2.36209 2.36209,2.36209 2.3621,2.3621 2.36207,2.36207 2.36211,2.36211"
       style="fill:none;stroke:#0000ff;stroke-width:0.3985;stroke-linecap:butt;stroke-linejoin:miter;stroke-miterlimit:10;stroke-dasharray:none;stroke-opacity:1"
       transform="matrix(1.3333333,0,0,-1.3333333,79.636,101.77467)" />
    <g
       id="g19"
       aria-label="f(x)=x,x∈[−1,1]"
       transform="matrix(1.3333333,0,0,1.3333333,122.12,78.64)">
      <path
         id="path20"
         d="m 3.6570703,-3.9839063 h 0.8554688 c 0.1992187,0 0.3046875,0 0.3046875,-0.1992187 0,-0.1054688 -0.1054688,-0.1054688 -0.2695313,-0.1054688 H 3.7156641 l 0.2109375,-1.1367187 c 0.035156,-0.2109375 0.1757812,-0.9140625 0.234375,-1.0429688 0.09375,-0.1875 0.2578125,-0.3398437 0.46875,-0.3398437 0.046875,0 0.3046875,0 0.4921875,0.1875 -0.4335938,0.035156 -0.5390625,0.3867187 -0.5390625,0.5390625 0,0.2226562 0.1757812,0.3398437 0.3632812,0.3398437 0.2695313,0 0.5507813,-0.2109375 0.5507813,-0.5976562 0,-0.4570313 -0.4570313,-0.6796875 -0.8671875,-0.6796875 -0.3398438,0 -0.9609375,0.1757812 -1.265625,1.1601562 -0.058594,0.2109375 -0.082031,0.3164063 -0.328125,1.5703125 H 2.3562891 c -0.1992188,0 -0.3046875,0 -0.3046875,0.1875 0,0.1171875 0.09375,0.1171875 0.28125,0.1171875 h 0.65625 l -0.75,3.93750005 C 2.0633203,0.91453125 1.8992578,1.8285937 1.3719141,1.8285937 c -0.035156,0 -0.28125,0 -0.46875004,-0.1875 C 1.3601953,1.6176562 1.4422266,1.254375 1.4422266,1.1020312 c 0,-0.2226562 -0.1757813,-0.3398437 -0.3632813,-0.3398437 -0.25781249,0 -0.55078124,0.2109375 -0.55078124,0.5976562 0,0.4453125 0.43359375,0.6796875 0.84375004,0.6796875 0.5507812,0 0.9492187,-0.5859375 1.125,-0.9609375 0.328125,-0.63281245 0.5507812,-1.8398437 0.5625,-1.9101562 z m 0,0"
         style="fill:#0000ff;fill-opacity:1;fill-rule:nonzero;stroke:none" />
      <path
         id="path21"
         d="m 9.2439844,2.3910937 c 0,-0.035156 0,-0.046875 -0.1640625,-0.2226562 C 7.8377344,0.91453125 7.5096094,-0.96046875 7.5096094,-2.495625 c 0,-1.7226563 0.3867187,-3.4570313 1.6054687,-4.7109375 0.1289063,-0.1171875 0.1289063,-0.1289063 0.1289063,-0.1640625 0,-0.070312 -0.035156,-0.1054688 -0.09375,-0.1054688 -0.1054688,0 -0.9960938,0.6796875 -1.5820313,1.9453125 -0.515625,1.1015625 -0.6328125,2.203125 -0.6328125,3.0351563 0,0.7851562 0.1171875,1.9921875 0.65625,3.1171875 0.5976563,1.21875 1.453125,1.875 1.5585938,1.875 0.058594,0 0.09375,-0.035156 0.09375,-0.1054688 z m 0,0"
         style="fill:#0000ff;fill-opacity:1;fill-rule:nonzero;stroke:none" />
      <path
         id="path22"
         d="m 13.152188,-3.01125 c 0.05859,-0.2578125 0.292968,-1.171875 0.984375,-1.171875 0.04687,0 0.292968,0 0.503906,0.1289062 -0.28125,0.046875 -0.480469,0.3046875 -0.480469,0.5390625 0,0.1640625 0.105469,0.3515625 0.375,0.3515625 0.222656,0 0.539063,-0.1875 0.539063,-0.5859375 0,-0.515625 -0.585938,-0.65625 -0.925782,-0.65625 -0.574218,0 -0.925781,0.5273438 -1.042968,0.7617188 -0.257813,-0.65625 -0.785157,-0.7617188 -1.078125,-0.7617188 -1.042969,0 -1.605469,1.2890625 -1.605469,1.5351563 0,0.1054687 0.105469,0.1054687 0.117187,0.1054687 0.08203,0 0.117188,-0.023437 0.128907,-0.1171875 0.339843,-1.0546875 0.996093,-1.3007812 1.335937,-1.3007812 0.1875,0 0.539063,0.09375 0.539063,0.6679687 0,0.3046875 -0.164063,0.9726563 -0.539063,2.3671875 C 11.851406,-0.526875 11.499844,-0.105 11.054531,-0.105 c -0.05859,0 -0.28125,0 -0.492187,-0.12890625 0.246094,-0.0585937 0.46875,-0.26953125 0.46875,-0.5390625 0,-0.26953125 -0.222656,-0.35156255 -0.375,-0.35156255 -0.292969,0 -0.539063,0.25781255 -0.539063,0.5742188 0,0.45703125 0.492188,0.65625 0.9375,0.65625 0.65625,0 1.007813,-0.69140625 1.042969,-0.75 0.117188,0.36328125 0.480469,0.75 1.078125,0.75 1.019531,0 1.59375,-1.2773438 1.59375,-1.5351563 0,-0.09375 -0.09375,-0.09375 -0.128906,-0.09375 -0.08203,0 -0.105469,0.035156 -0.128906,0.1054688 -0.328125,1.06640625 -0.996094,1.3125 -1.324219,1.3125 -0.386719,0 -0.539063,-0.328125 -0.539063,-0.65625 0,-0.22265625 0.05859,-0.4453125 0.164063,-0.8789063 z m 0,0"
         style="fill:#0000ff;fill-opacity:1;fill-rule:nonzero;stroke:none" />
      <path
         id="path23"
         d="m 18.402188,-2.495625 c 0,-0.7734375 -0.117188,-1.9804688 -0.65625,-3.1054688 -0.597657,-1.21875 -1.464844,-1.875 -1.558594,-1.875 -0.05859,0 -0.105469,0.046875 -0.105469,0.1054688 0,0.035156 0,0.046875 0.199219,0.234375 0.972656,0.984375 1.535156,2.5664062 1.535156,4.640625 0,1.7109375 -0.363281,3.45703125 -1.59375,4.7226562 -0.140625,0.1171875 -0.140625,0.1289063 -0.140625,0.1640625 0,0.058594 0.04687,0.1054688 0.105469,0.1054688 0.09375,0 0.996094,-0.6796875 1.582031,-1.9453125 0.503906,-1.1015625 0.632813,-2.203125 0.632813,-3.046875 z m 10.602539,-0.7617188 c 0.152343,0 0.339843,0 0.339843,-0.1992187 0,-0.1992188 -0.1875,-0.1992188 -0.328125,-0.1992188 h -5.964843 c -0.140625,0 -0.328125,0 -0.328125,0.1992188 0,0.1992187 0.1875,0.1992187 0.339843,0.1992187 z m 0.01172,1.9335938 c 0.140625,0 0.328125,0 0.328125,-0.1992188 0,-0.1992187 -0.1875,-0.1992187 -0.339843,-0.1992187 H 23.06332 c -0.152343,0 -0.339843,0 -0.339843,0.1992187 0,0.1992188 0.1875,0.1992188 0.328125,0.1992188 z m 0,0"
         style="fill:#0000ff;fill-opacity:1;fill-rule:nonzero;stroke:none" />
      <path
         id="path24"
         d="m 36.00375,-3.01125 c 0.05859,-0.2578125 0.292969,-1.171875 0.984375,-1.171875 0.04687,0 0.292969,0 0.503906,0.1289062 -0.28125,0.046875 -0.480468,0.3046875 -0.480468,0.5390625 0,0.1640625 0.105468,0.3515625 0.375,0.3515625 0.222656,0 0.539062,-0.1875 0.539062,-0.5859375 0,-0.515625 -0.585937,-0.65625 -0.925781,-0.65625 -0.574219,0 -0.925781,0.5273438 -1.042969,0.7617188 -0.257812,-0.65625 -0.785156,-0.7617188 -1.078125,-0.7617188 -1.042969,0 -1.605469,1.2890625 -1.605469,1.5351563 0,0.1054687 0.105469,0.1054687 0.117188,0.1054687 0.08203,0 0.117187,-0.023437 0.128906,-0.1171875 0.339844,-1.0546875 0.996094,-1.3007812 1.335938,-1.3007812 0.1875,0 0.539062,0.09375 0.539062,0.6679687 0,0.3046875 -0.164062,0.9726563 -0.539062,2.3671875 C 34.702969,-0.526875 34.351406,-0.105 33.906094,-0.105 c -0.05859,0 -0.28125,0 -0.492188,-0.12890625 0.246094,-0.0585937 0.46875,-0.26953125 0.46875,-0.5390625 0,-0.26953125 -0.222656,-0.35156255 -0.375,-0.35156255 -0.292968,0 -0.539062,0.25781255 -0.539062,0.5742188 0,0.45703125 0.492187,0.65625 0.9375,0.65625 0.65625,0 1.007812,-0.69140625 1.042969,-0.75 0.117187,0.36328125 0.480468,0.75 1.078125,0.75 1.019531,0 1.59375,-1.2773438 1.59375,-1.5351563 0,-0.09375 -0.09375,-0.09375 -0.128907,-0.09375 -0.08203,0 -0.105468,0.035156 -0.128906,0.1054688 -0.328125,1.06640625 -0.996094,1.3125 -1.324219,1.3125 -0.386718,0 -0.539062,-0.328125 -0.539062,-0.65625 0,-0.22265625 0.05859,-0.4453125 0.164062,-0.8789063 z m 4.394531,3 c 0,-0.65625 -0.257812,-1.0429688 -0.644531,-1.0429688 -0.328125,0 -0.527344,0.2460938 -0.527344,0.5273438 0,0.26953125 0.199219,0.52734375 0.527344,0.52734375 0.117188,0 0.246094,-0.03515625 0.351563,-0.12890625 0.02344,-0.0234375 0.03516,-0.0351563 0.04687,-0.0351563 0.01172,0 0.02344,0.0117188 0.02344,0.15234375 0,0.73828125 -0.351562,1.33593755 -0.679687,1.66406255 -0.105469,0.1054687 -0.105469,0.1289062 -0.105469,0.1640624 0,0.070312 0.04687,0.1054688 0.09375,0.1054688 0.117187,0 0.914062,-0.7617187 0.914062,-1.93359375 z m 5.730469,-3 c 0.05859,-0.2578125 0.292969,-1.171875 0.984375,-1.171875 0.04687,0 0.292969,0 0.503906,0.1289062 -0.28125,0.046875 -0.480468,0.3046875 -0.480468,0.5390625 0,0.1640625 0.105468,0.3515625 0.375,0.3515625 0.222656,0 0.539062,-0.1875 0.539062,-0.5859375 0,-0.515625 -0.585937,-0.65625 -0.925781,-0.65625 -0.574219,0 -0.925781,0.5273438 -1.042969,0.7617188 -0.257812,-0.65625 -0.785156,-0.7617188 -1.078125,-0.7617188 -1.042969,0 -1.605469,1.2890625 -1.605469,1.5351563 0,0.1054687 0.105469,0.1054687 0.117188,0.1054687 0.08203,0 0.117187,-0.023437 0.128906,-0.1171875 0.339844,-1.0546875 0.996094,-1.3007812 1.335938,-1.3007812 0.1875,0 0.539062,0.09375 0.539062,0.6679687 0,0.3046875 -0.164062,0.9726563 -0.539062,2.3671875 C 44.827969,-0.526875 44.476406,-0.105 44.031094,-0.105 c -0.05859,0 -0.28125,0 -0.492188,-0.12890625 0.246094,-0.0585937 0.46875,-0.26953125 0.46875,-0.5390625 0,-0.26953125 -0.222656,-0.35156255 -0.375,-0.35156255 -0.292968,0 -0.539062,0.25781255 -0.539062,0.5742188 0,0.45703125 0.492187,0.65625 0.9375,0.65625 0.65625,0 1.007812,-0.69140625 1.042969,-0.75 0.117187,0.36328125 0.480468,0.75 1.078125,0.75 1.019531,0 1.59375,-1.2773438 1.59375,-1.5351563 0,-0.09375 -0.09375,-0.09375 -0.128907,-0.09375 -0.08203,0 -0.105468,0.035156 -0.128906,0.1054688 -0.328125,1.06640625 -0.996094,1.3125 -1.324219,1.3125 -0.386718,0 -0.539062,-0.328125 -0.539062,-0.65625 0,-0.22265625 0.05859,-0.4453125 0.164062,-0.8789063 z m 0,0"
         style="fill:#0000ff;fill-opacity:1;fill-rule:nonzero;stroke:none" />
      <path
         id="path25"
         d="m 56.71957,-2.2964063 c 0.164063,0 0.351563,0 0.351563,-0.1992187 0,-0.1992188 -0.1875,-0.1992188 -0.351563,-0.1992188 H 52.489102 C 52.618008,-4.0190625 53.754727,-4.98 55.160977,-4.98 h 1.558593 c 0.164063,0 0.351563,0 0.351563,-0.1992188 0,-0.1992187 -0.1875,-0.1992187 -0.351563,-0.1992187 h -1.570312 c -1.710938,0 -3.058594,1.2890625 -3.058594,2.8828125 0,1.59375 1.347656,2.89453125 3.058594,2.89453125 h 1.570312 c 0.164063,0 0.351563,0 0.351563,-0.19921875 0,-0.19921875 -0.1875,-0.19921875 -0.351563,-0.19921875 h -1.558593 c -1.40625,0 -2.542969,-0.9609375 -2.671875,-2.29687505 z m 0,0"
         style="fill:#0000ff;fill-opacity:1;fill-rule:nonzero;stroke:none" />
      <path
         id="path26"
         d="M 63.211758,2.4965625 V 2.098125 h -0.972656 v -9.1757813 h 0.972656 v -0.3984375 h -1.371094 v 9.9726563 z m 0,0"
         style="fill:#0000ff;fill-opacity:1;fill-rule:nonzero;stroke:none" />
      <path
         id="path27"
         d="m 69.996914,-2.2964063 c 0.175781,0 0.351563,0 0.351563,-0.1992187 0,-0.1992188 -0.175782,-0.1992188 -0.351563,-0.1992188 h -5.390625 c -0.164062,0 -0.339844,0 -0.339844,0.1992188 0,0.1992187 0.175782,0.1992187 0.339844,0.1992187 z m 0,0"
         style="fill:#0000ff;fill-opacity:1;fill-rule:nonzero;stroke:none" />
      <path
         id="path28"
         d="m 74.113125,-6.3745313 c 0,-0.234375 0,-0.2578125 -0.234375,-0.2578125 -0.609375,0.6328125 -1.488281,0.6328125 -1.804687,0.6328125 v 0.3164063 c 0.199218,0 0.785156,0 1.300781,-0.2578125 v 5.15625 c 0,0.3515625 -0.03516,0.48046875 -0.925781,0.48046875 h -0.316407 v 0.3046875 c 0.351563,-0.03515625 1.207032,-0.03515625 1.605469,-0.03515625 0.398438,0 1.265625,0 1.617188,0.03515625 v -0.3046875 h -0.316407 c -0.902343,0 -0.925781,-0.1171875 -0.925781,-0.48046875 z m 0,0"
         style="fill:#0000ff;fill-opacity:1;fill-rule:nonzero;stroke:none" />
      <path
         id="path29"
         d="m 78.19125,-0.01125 c 0,-0.65625 -0.257812,-1.0429688 -0.644531,-1.0429688 -0.328125,0 -0.527344,0.2460938 -0.527344,0.5273438 0,0.26953125 0.199219,0.52734375 0.527344,0.52734375 0.117187,0 0.246094,-0.03515625 0.351562,-0.12890625 0.02344,-0.0234375 0.03516,-0.0351563 0.04687,-0.0351563 0.01172,0 0.02344,0.0117188 0.02344,0.15234375 0,0.73828125 -0.351563,1.33593755 -0.679688,1.66406255 -0.105468,0.1054687 -0.105468,0.1289062 -0.105468,0.1640624 0,0.070312 0.04687,0.1054688 0.09375,0.1054688 0.117187,0 0.914062,-0.7617187 0.914062,-1.93359375 z m 0,0"
         style="fill:#0000ff;fill-opacity:1;fill-rule:nonzero;stroke:none" />
      <path
         id="path30"
         d="m 83.523281,-6.3745313 c 0,-0.234375 0,-0.2578125 -0.234375,-0.2578125 -0.609375,0.6328125 -1.488281,0.6328125 -1.804687,0.6328125 v 0.3164063 c 0.199219,0 0.785156,0 1.300781,-0.2578125 v 5.15625 c 0,0.3515625 -0.03516,0.48046875 -0.925781,0.48046875 h -0.316406 v 0.3046875 c 0.351562,-0.03515625 1.207031,-0.03515625 1.605468,-0.03515625 0.398438,0 1.265625,0 1.617188,0.03515625 v -0.3046875 h -0.316406 c -0.902344,0 -0.925782,-0.1171875 -0.925782,-0.48046875 z m 3.632813,-1.1015625 h -1.359375 v 0.3984375 h 0.960937 V 2.098125 h -0.960937 v 0.3984375 h 1.359375 z m 0,0"
         style="fill:#0000ff;fill-opacity:1;fill-rule:nonzero;stroke:none" />
    </g>
    <path
       id="path31"
       d="m -56.69362,-56.69362 1.18083,1.18083 1.18084,1.18084 1.18083,1.18083 1.18083,1.18083 1.18082,1.18082 1.18083,1.18083 1.18083,1.18083 1.18083,1.18083 1.18083,1.18083 1.18082,1.18082 1.18083,1.18083 1.18083,1.18083 1.18084,1.18084 1.18083,1.18083 1.18081,1.18081 1.18084,1.18084 1.18083,1.18083 1.18083,1.18083 1.18083,1.18083 1.18082,1.18082 1.18083,1.18083 1.18083,1.18083 1.18083,1.18083 1.18084,1.18084"
       style="fill:none;stroke:#0000ff;stroke-width:0.3985;stroke-linecap:butt;stroke-linejoin:miter;stroke-miterlimit:10;stroke-dasharray:0.3985, 1.99255;stroke-dashoffset:0;stroke-opacity:1"
       transform="matrix(1.3333333,0,0,-1.3333333,79.636,101.77467)" />
    <path
       id="path32"
       d="m 28.3468,28.3468 1.18082,1.18082 1.18083,1.18083 1.18082,1.18082 1.18083,1.18083 1.18083,1.18083 1.18083,1.18083 1.18084,1.18084 1.18081,1.18081 1.18083,1.18083 1.18084,1.18084 1.18082,1.18082 1.18084,1.18084 1.18082,1.18082 1.18083,1.18083 1.18083,1.18083 1.18083,1.18083 1.18083,1.18083 1.18082,1.18082 1.18083,1.18083 1.18083,1.18083 1.18084,1.18084 1.18083,1.18083 1.18081,1.18081 1.18084,1.18084"
       style="fill:none;stroke:#0000ff;stroke-width:0.3985;stroke-linecap:butt;stroke-linejoin:miter;stroke-miterlimit:10;stroke-dasharray:0.3985, 1.99255;stroke-dashoffset:0;stroke-opacity:1"
       transform="matrix(1.3333333,0,0,-1.3333333,79.636,101.77467)" />
    <path
       id="path33"
       d="m -26.92938,-28.3468 c 0,0.78282 -0.6346,1.41742 -1.41742,1.41742 -0.78282,0 -1.41742,-0.6346 -1.41742,-1.41742 0,-0.78282 0.6346,-1.41742 1.41742,-1.41742 0.78282,0 1.41742,0.6346 1.41742,1.41742 z"
       style="fill:#000000;fill-opacity:1;fill-rule:nonzero;stroke:#000000;stroke-width:0.3985;stroke-linecap:butt;stroke-linejoin:miter;stroke-miterlimit:10;stroke-dasharray:none;stroke-opacity:1"
       transform="matrix(1.3333333,0,0,-1.3333333,79.636,101.77467)" />
    <path
       id="path34"
       d="M 2.4036719,-6.5847578 C 2.3099219,-6.8074141 2.2864844,-6.8074141 2.0521094,-6.8074141 H 0.36460938 v 0.3164063 h 0.24609375 c 0.76171877,0 0.78515627,0.1054687 0.78515627,0.46875 v 4.9804687 c 0,0.26953129 0,0.73828129 -1.03125002,0.73828129 v 0.3046875 c 0.3515625,-0.01171875 0.84375002,-0.03515625 1.17187502,-0.03515625 0.328125,0 0.8203125,0.0234375 1.1601562,0.03515625 v -0.3046875 c -1.0195312,0 -1.0195312,-0.46875 -1.0195312,-0.73828129 v -5.3671875 h 0.011719 l 2.4023438,6.18750004 c 0.046875,0.12890625 0.09375,0.22265625 0.1992187,0.22265625 0.1054688,0 0.1289063,-0.08203125 0.1757813,-0.1875 L 6.9153906,-6.4910078 h 0.011719 v 5.71874999 c 0,0.3515625 -0.023437,0.46875 -0.7851563,0.46875 H 5.8958594 v 0.3046875 c 0.375,-0.03515625 1.0429687,-0.03515625 1.4414062,-0.03515625 0.3867188,0 1.0546875,0 1.4179688,0.03515625 v -0.3046875 h -0.234375 c -0.7734375,0 -0.7851563,-0.1171875 -0.7851563,-0.46875 V -6.0222578 c 0,-0.3632813 0.011719,-0.46875 0.7851563,-0.46875 h 0.234375 V -6.8074141 H 7.0794531 c -0.2695312,0 -0.2695312,0.011719 -0.3398437,0.1992188 l -2.1796875,5.6015625 z m 8.4873051,2.1796875 -1.3945317,0.1171875 v 0.3046875 c 0.6562497,0 0.7382817,0.058594 0.7382817,0.5507812 v 2.67187504 c 0,0.45703125 -0.105469,0.45703125 -0.7734379,0.45703125 v 0.3046875 c 0.3164062,-0.01171875 0.8554689,-0.03515625 1.1015629,-0.03515625 0.339843,0 0.691406,0.0234375 1.03125,0.03515625 v -0.3046875 c -0.65625,0 -0.703125,-0.0585938 -0.703125,-0.4453125 z m 0.04687,-1.734375 c 0,-0.3164063 -0.246094,-0.5273438 -0.527344,-0.5273438 -0.316406,0 -0.5273439,0.2695313 -0.5273439,0.5273438 0,0.2695312 0.2109379,0.5273437 0.5273439,0.5273437 0.28125,0 0.527344,-0.1992187 0.527344,-0.5273437 z m 2.065429,2.71875 v 2.66015624 c 0,0.45703125 -0.117187,0.45703125 -0.785156,0.45703125 v 0.3046875 c 0.351563,-0.01171875 0.855469,-0.03515625 1.125,-0.03515625 0.257813,0 0.785156,0.0234375 1.113281,0.03515625 v -0.3046875 c -0.65625,0 -0.773437,0 -0.773437,-0.45703125 V -2.5886641 c 0,-1.03125 0.714844,-1.59375 1.347656,-1.59375 0.621094,0 0.738281,0.5390625 0.738281,1.1015625 v 2.32031254 c 0,0.45703125 -0.117187,0.45703125 -0.773437,0.45703125 v 0.3046875 c 0.339844,-0.01171875 0.855469,-0.03515625 1.125,-0.03515625 0.257812,0 0.773437,0.0234375 1.113281,0.03515625 v -0.3046875 c -0.515625,0 -0.773437,0 -0.785156,-0.3046875 V -2.5066328 c 0,-0.8554688 0,-1.171875 -0.304688,-1.5234375 -0.140625,-0.1757813 -0.46875,-0.375 -1.042968,-0.375 -0.726563,0 -1.195313,0.4335937 -1.476563,1.0546875 v -1.0546875 l -1.40625,0.1171875 v 0.3046875 c 0.703125,0 0.785156,0.070312 0.785156,0.5625 z m 6.342774,2.89453124 c 0,-0.29296875 -0.234375,-0.52734374 -0.527344,-0.52734374 -0.28125,0 -0.527344,0.23437499 -0.527344,0.52734374 0,0.29296875 0.246094,0.52734375 0.527344,0.52734375 0.292969,0 0.527344,-0.234375 0.527344,-0.52734375 z M 30.426133,-2.5652266 H 30.16832 c -0.105468,1.0078125 -0.246093,2.26171879 -1.992187,2.26171879 H 27.35582 c -0.46875,0 -0.492187,-0.0703125 -0.492187,-0.3984375 V -6.0105391 c 0,-0.3398437 0,-0.4804687 0.949219,-0.4804687 h 0.328125 v -0.3164063 c -0.363282,0.035156 -1.265625,0.035156 -1.675782,0.035156 -0.386718,0 -1.160156,0 -1.511718,-0.035156 v 0.3164063 h 0.234375 c 0.773437,0 0.796875,0.1054687 0.796875,0.46875 v 5.24999999 c 0,0.3515625 -0.02344,0.46875 -0.796875,0.46875 h -0.234375 v 0.3046875 h 5.191406 z m 5.115234,0.4335938 c 0,-1.2773438 -0.996094,-2.3320313 -2.191406,-2.3320313 -1.253906,0 -2.214844,1.0898438 -2.214844,2.3320313 0,1.28906249 1.03125,2.23828124 2.203125,2.23828124 1.207031,0 2.203125,-0.97265625 2.203125,-2.23828124 z m -2.191406,1.99218749 c -0.433594,0 -0.867188,-0.2109375 -1.136719,-0.66796875 C 31.95543,-1.2410078 31.95543,-1.8503828 31.95543,-2.2136641 c 0,-0.3867187 0,-0.9257812 0.246093,-1.359375 0.269532,-0.4570312 0.738282,-0.6679687 1.136719,-0.6679687 0.433594,0 0.867188,0.2226562 1.125,0.6445312 0.257813,0.4335938 0.257813,1.0078125 0.257813,1.3828125 0,0.3632813 0,0.9023438 -0.222657,1.33593754 -0.222656,0.4453125 -0.65625,0.73828125 -1.148437,0.73828125 z m 3.922851,-2.02734379 c 0,-1.6289062 0.820313,-2.0507812 1.347657,-2.0507812 0.09375,0 0.714843,0.011719 1.066406,0.375 -0.410156,0.023437 -0.46875,0.328125 -0.46875,0.4570312 0,0.2578125 0.1875,0.4570313 0.457031,0.4570313 0.257813,0 0.457031,-0.1640625 0.457031,-0.46875 0,-0.6796875 -0.75,-1.0664063 -1.523437,-1.0664063 -1.242188,0 -2.15625,1.078125 -2.15625,2.3085938 0,1.27734374 0.984375,2.26171874 2.144531,2.26171874 1.335938,0 1.652344,-1.19531254 1.652344,-1.28906254 0,-0.1054687 -0.105469,-0.1054687 -0.128906,-0.1054687 -0.09375,0 -0.117188,0.046875 -0.128907,0.1054687 -0.292968,0.92578129 -0.9375,1.04296879 -1.3125,1.04296879 -0.527343,0 -1.40625,-0.421875 -1.40625,-2.02734379 z m 6.583008,1.40625004 c 0.03516,0.3984375 0.304688,0.8203125 0.773438,0.8203125 0.210937,0 0.820312,-0.140625 0.820312,-0.94921875 V -1.4402266 h -0.246093 v 0.55078129 c 0,0.5859375 -0.246094,0.64453125 -0.363282,0.64453125 -0.328125,0 -0.363281,-0.45703125 -0.363281,-0.50390625 V -2.7410078 c 0,-0.4101563 0,-0.8085938 -0.363281,-1.171875 -0.386719,-0.3867188 -0.878906,-0.5507813 -1.359375,-0.5507813 -0.820313,0 -1.511719,0.46875 -1.511719,1.125 0,0.3046875 0.199219,0.46875 0.457031,0.46875 0.28125,0 0.46875,-0.1992187 0.46875,-0.4570312 0,-0.1171875 -0.05859,-0.4453125 -0.515625,-0.4570313 0.269532,-0.3515625 0.761719,-0.4570312 1.078125,-0.4570312 0.492188,0 1.054688,0.3867187 1.054688,1.2773437 v 0.3632813 c -0.503906,0.035156 -1.207031,0.058594 -1.828125,0.3632812 -0.75,0.3398438 -0.996094,0.8554688 -0.996094,1.28906254 0,0.80859375 0.960938,1.0546875 1.59375,1.0546875 0.65625,0 1.113281,-0.3984375 1.300781,-0.8671875 z M 43.78551,-2.3894453 v 0.9960937 c 0,0.94921879 -0.714844,1.28906254 -1.160156,1.28906254 -0.492188,0 -0.902344,-0.3515625 -0.902344,-0.85546875 0,-0.53906249 0.421875,-1.37109379 2.0625,-1.42968749 z m 3.495117,-4.5234375 -1.429688,0.1054687 v 0.3164063 c 0.703125,0 0.773438,0.070312 0.773438,0.5507812 v 5.17968754 c 0,0.45703125 -0.105469,0.45703125 -0.773438,0.45703125 v 0.3046875 c 0.328125,-0.01171875 0.855469,-0.03515625 1.101563,-0.03515625 0.257812,0 0.738281,0.0234375 1.113281,0.03515625 v -0.3046875 c -0.667969,0 -0.785156,0 -0.785156,-0.45703125 z m 0,0"
       style="fill:#000000;fill-opacity:1;fill-rule:nonzero;stroke:none"
       aria-label="Min.Local"
       transform="matrix(1.3333333,0,0,1.3333333,9.6466667,134.87733)" />
    <path
       id="path35"
       d="m 29.76422,28.3468 c 0,0.78282 -0.6346,1.41742 -1.41742,1.41742 -0.78282,0 -1.41742,-0.6346 -1.41742,-1.41742 0,-0.78282 0.6346,-1.41742 1.41742,-1.41742 0.78282,0 1.41742,0.6346 1.41742,1.41742 z"
       style="fill:#000000;fill-opacity:1;fill-rule:nonzero;stroke:#000000;stroke-width:0.3985;stroke-linecap:butt;stroke-linejoin:miter;stroke-miterlimit:10;stroke-dasharray:none;stroke-opacity:1"
       transform="matrix(1.3333333,0,0,-1.3333333,79.636,101.77467)" />
    <path
       id="path36"
       d="M 2.4023281,-6.5870703 C 2.3085781,-6.8097266 2.2851406,-6.8097266 2.0507656,-6.8097266 H 0.36326563 v 0.3164063 h 0.24609375 c 0.76171872,0 0.78515622,0.1054687 0.78515622,0.46875 v 4.9804687 c 0,0.26953129 0,0.73828129 -1.03124997,0.73828129 v 0.3046875 c 0.3515625,-0.01171875 0.84374997,-0.03515625 1.17187497,-0.03515625 0.328125,0 0.8203125,0.0234375 1.1601563,0.03515625 v -0.3046875 c -1.0195313,0 -1.0195313,-0.46875 -1.0195313,-0.73828129 v -5.3671875 h 0.011719 l 2.4023437,6.18750004 c 0.046875,0.12890625 0.09375,0.22265625 0.1992188,0.22265625 0.1054687,0 0.1289062,-0.08203125 0.1757812,-0.1875 L 6.9140469,-6.4933203 h 0.011719 v 5.71874999 c 0,0.3515625 -0.023437,0.46875 -0.7851562,0.46875 H 5.8945156 v 0.3046875 c 0.375,-0.03515625 1.0429688,-0.03515625 1.4414063,-0.03515625 0.3867187,0 1.0546875,0 1.4179687,0.03515625 v -0.3046875 h -0.234375 c -0.7734375,0 -0.7851562,-0.1171875 -0.7851562,-0.46875 V -6.0245703 c 0,-0.3632813 0.011719,-0.46875 0.7851562,-0.46875 h 0.234375 V -6.8097266 H 7.0781094 c -0.2695313,0 -0.2695313,0.011719 -0.3398438,0.1992188 l -2.1796875,5.6015625 z m 10.0458989,5.82421874 c 0.03516,0.3984375 0.304687,0.8203125 0.773437,0.8203125 0.210938,0 0.820313,-0.140625 0.820313,-0.94921875 V -1.4425391 h -0.246094 v 0.55078129 c 0,0.5859375 -0.246094,0.64453125 -0.363281,0.64453125 -0.328125,0 -0.363282,-0.45703125 -0.363282,-0.50390625 V -2.7433203 c 0,-0.4101563 0,-0.8085938 -0.363281,-1.171875 -0.386719,-0.3867188 -0.878906,-0.5507813 -1.359375,-0.5507813 -0.820312,0 -1.5117187,0.46875 -1.5117187,1.125 0,0.3046875 0.1992187,0.46875 0.4570317,0.46875 0.28125,0 0.46875,-0.1992187 0.46875,-0.4570312 0,-0.1171875 -0.05859,-0.4453125 -0.515625,-0.4570313 0.269531,-0.3515625 0.761718,-0.4570312 1.078125,-0.4570312 0.492187,0 1.054687,0.3867187 1.054687,1.2773437 v 0.3632813 c -0.503906,0.035156 -1.207031,0.058594 -1.828125,0.3632812 -0.7499999,0.3398438 -0.9960937,0.8554688 -0.9960937,1.28906254 0,0.80859375 0.9609377,1.0546875 1.5937497,1.0546875 0.65625,0 1.113282,-0.3984375 1.300782,-0.8671875 z m -0.07031,-1.62890624 v 0.9960937 c 0,0.94921879 -0.714844,1.28906254 -1.160156,1.28906254 -0.492188,0 -0.902344,-0.3515625 -0.902344,-0.85546875 0,-0.53906249 0.421875,-1.37109379 2.0625,-1.42968749 z m 4.59668,0.046875 c 0.292969,-0.375 0.679687,-0.8671875 0.914062,-1.125 0.316407,-0.3515625 0.714844,-0.5039063 1.183594,-0.515625 v -0.3046875 c -0.257812,0.011719 -0.550781,0.023437 -0.808594,0.023437 -0.304687,0 -0.832031,-0.023437 -0.960937,-0.023437 v 0.3046875 c 0.210937,0.023437 0.292969,0.1523437 0.292969,0.3046875 0,0.1640625 -0.105469,0.2929687 -0.152344,0.3515625 l -0.621094,0.7734375 -0.773437,-0.9960938 c -0.09375,-0.1054687 -0.09375,-0.1289062 -0.09375,-0.1875 0,-0.1523437 0.152343,-0.234375 0.351562,-0.2460937 v -0.3046875 c -0.257812,0 -0.914062,0.023437 -1.078125,0.023437 -0.210937,0 -0.679687,-0.011719 -0.949219,-0.023437 v 0.3046875 c 0.703125,0 0.714844,0.011719 1.183594,0.609375 l 0.984375,1.2773437 -0.9375,1.19531254 c -0.480469,0.57421875 -1.066406,0.59765625 -1.277344,0.59765625 v 0.3046875 c 0.257813,-0.0234375 0.574219,-0.03515625 0.832032,-0.03515625 0.28125,0 0.703125,0.0234375 0.949218,0.03515625 v -0.3046875 c -0.222656,-0.0351563 -0.292968,-0.1640625 -0.292968,-0.31640625 0,-0.2109375 0.292968,-0.53906254 0.890625,-1.26562504 l 0.761718,0.99609379 c 0.08203,0.1171875 0.210938,0.26953125 0.210938,0.328125 0,0.09375 -0.09375,0.24609375 -0.363281,0.2578125 v 0.3046875 c 0.304687,-0.01171875 0.855468,-0.03515625 1.078125,-0.03515625 0.269531,0 0.65625,0.01171875 0.960937,0.03515625 v -0.3046875 c -0.539062,0 -0.726562,-0.0234375 -0.949219,-0.31640625 z m 4.30664,1.81640624 c 0,-0.29296875 -0.234375,-0.52734374 -0.527343,-0.52734374 -0.28125,0 -0.527344,0.23437499 -0.527344,0.52734374 0,0.29296875 0.246094,0.52734375 0.527344,0.52734375 0.292968,0 0.527343,-0.234375 0.527343,-0.52734375 z M 32.364242,-2.5675391 H 32.10643 c -0.105469,1.0078125 -0.246094,2.26171879 -1.992188,2.26171879 H 29.29393 c -0.46875,0 -0.492188,-0.0703125 -0.492188,-0.3984375 V -6.0128516 c 0,-0.3398437 0,-0.4804687 0.949219,-0.4804687 h 0.328125 v -0.3164063 c -0.363281,0.035156 -1.265625,0.035156 -1.675781,0.035156 -0.386719,0 -1.160157,0 -1.511719,-0.035156 v 0.3164063 h 0.234375 c 0.773437,0 0.796875,0.1054687 0.796875,0.46875 v 5.24999999 c 0,0.3515625 -0.02344,0.46875 -0.796875,0.46875 h -0.234375 v 0.3046875 h 5.191406 z m 5.112305,0.4335938 c 0,-1.2773438 -0.996094,-2.3320313 -2.191406,-2.3320313 -1.253907,0 -2.214844,1.0898438 -2.214844,2.3320313 0,1.28906249 1.03125,2.23828124 2.203125,2.23828124 1.207031,0 2.203125,-0.97265625 2.203125,-2.23828124 z m -2.191406,1.99218749 c -0.433594,0 -0.867188,-0.2109375 -1.136719,-0.66796875 -0.257813,-0.43359374 -0.257813,-1.04296874 -0.257813,-1.40625004 0,-0.3867187 0,-0.9257812 0.246094,-1.359375 0.269531,-0.4570312 0.738281,-0.6679687 1.136719,-0.6679687 0.433594,0 0.867187,0.2226562 1.125,0.6445312 0.257812,0.4335938 0.257812,1.0078125 0.257812,1.3828125 0,0.3632813 0,0.9023438 -0.222656,1.33593754 -0.222656,0.4453125 -0.65625,0.73828125 -1.148437,0.73828125 z m 3.925781,-2.02734379 c 0,-1.6289062 0.820312,-2.0507812 1.347656,-2.0507812 0.09375,0 0.714844,0.011719 1.066406,0.375 -0.410156,0.023437 -0.46875,0.328125 -0.46875,0.4570312 0,0.2578125 0.1875,0.4570313 0.457032,0.4570313 0.257812,0 0.457031,-0.1640625 0.457031,-0.46875 0,-0.6796875 -0.75,-1.0664063 -1.523438,-1.0664063 -1.242187,0 -2.15625,1.078125 -2.15625,2.3085938 0,1.27734374 0.984375,2.26171874 2.144532,2.26171874 1.335937,0 1.652343,-1.19531254 1.652343,-1.28906254 0,-0.1054687 -0.105468,-0.1054687 -0.128906,-0.1054687 -0.09375,0 -0.117187,0.046875 -0.128906,0.1054687 -0.292969,0.92578129 -0.9375,1.04296879 -1.3125,1.04296879 -0.527344,0 -1.40625,-0.421875 -1.40625,-2.02734379 z m 6.583008,1.40625004 c 0.03516,0.3984375 0.304687,0.8203125 0.773437,0.8203125 0.210938,0 0.820313,-0.140625 0.820313,-0.94921875 V -1.4425391 h -0.246094 v 0.55078129 c 0,0.5859375 -0.246094,0.64453125 -0.363281,0.64453125 -0.328125,0 -0.363282,-0.45703125 -0.363282,-0.50390625 V -2.7433203 c 0,-0.4101563 0,-0.8085938 -0.363281,-1.171875 -0.386719,-0.3867188 -0.878906,-0.5507813 -1.359375,-0.5507813 -0.820312,0 -1.511719,0.46875 -1.511719,1.125 0,0.3046875 0.199219,0.46875 0.457032,0.46875 0.28125,0 0.46875,-0.1992187 0.46875,-0.4570312 0,-0.1171875 -0.05859,-0.4453125 -0.515625,-0.4570313 0.269531,-0.3515625 0.761718,-0.4570312 1.078125,-0.4570312 0.492187,0 1.054687,0.3867187 1.054687,1.2773437 v 0.3632813 c -0.503906,0.035156 -1.207031,0.058594 -1.828125,0.3632812 -0.75,0.3398438 -0.996094,0.8554688 -0.996094,1.28906254 0,0.80859375 0.960938,1.0546875 1.59375,1.0546875 0.65625,0 1.113282,-0.3984375 1.300782,-0.8671875 z M 45.72362,-2.3917578 v 0.9960937 c 0,0.94921879 -0.714844,1.28906254 -1.160156,1.28906254 -0.492188,0 -0.902344,-0.3515625 -0.902344,-0.85546875 0,-0.53906249 0.421875,-1.37109379 2.0625,-1.42968749 z m 3.492188,-4.5234375 -1.429688,0.1054687 v 0.3164063 c 0.703125,0 0.773438,0.070312 0.773438,0.5507812 v 5.17968754 c 0,0.45703125 -0.105469,0.45703125 -0.773438,0.45703125 v 0.3046875 c 0.328125,-0.01171875 0.855469,-0.03515625 1.101563,-0.03515625 0.257812,0 0.738281,0.0234375 1.113281,0.03515625 v -0.3046875 c -0.667969,0 -0.785156,0 -0.785156,-0.45703125 z m 0,0"
       style="fill:#000000;fill-opacity:1;fill-rule:nonzero;stroke:none"
       aria-label="Max.Local"
       transform="matrix(1.3333333,0,0,1.3333333,83.945333,59.286667)" />
  </g>
</svg>
