<?xml version="1.0" encoding="UTF-8" standalone="no"?>
<!-- Created with Inkscape (http://www.inkscape.org/) -->

<svg
   version="1.1"
   id="svg1"
   width="301.73199"
   height="266.19867"
   viewBox="0 0 301.73199 266.19867"
   xmlns="http://www.w3.org/2000/svg"
   xmlns:svg="http://www.w3.org/2000/svg">
  <defs
     id="defs1">
    <pattern
       patternUnits="userSpaceOnUse"
       x="0"
       y="0"
       width="4.98138"
       height="4.98138"
       id="pattern8">
      <path
         d="M 0,0 3.08846,3.08846"
         style="fill:none;stroke:#808080;stroke-opacity:1;stroke-width:0.3985;stroke-linecap:butt;stroke-linejoin:miter;stroke-miterlimit:10;stroke-dasharray:none"
         transform="translate(0.99628,0.99628)"
         id="path8" />
    </pattern>
  </defs>
  <g
     id="g1">
    <path
       id="path1"
       d="M 0,0 H 192.2766"
       style="fill:none;stroke:#000000;stroke-width:0.3985;stroke-linecap:butt;stroke-linejoin:miter;stroke-miterlimit:10;stroke-dasharray:none;stroke-opacity:1"
       transform="matrix(1.3333333,0,0,-1.3333333,42.444,244.08933)" />
    <path
       id="path2"
       d="M 1.99252,0 -1.19551,1.59401 0,0 -1.19551,-1.59401"
       style="fill:#000000;fill-opacity:1;fill-rule:nonzero;stroke:none"
       transform="matrix(1.3333333,0,0,-1.3333333,298.8128,244.08933)" />
    <path
       id="path3"
       d="M 0,0 V 159.40384"
       style="fill:none;stroke:#000000;stroke-width:0.3985;stroke-linecap:butt;stroke-linejoin:miter;stroke-miterlimit:10;stroke-dasharray:none;stroke-opacity:1"
       transform="matrix(1.3333333,0,0,-1.3333333,42.444,244.08933)" />
    <path
       id="path4"
       d="M 1.99252,0 -1.19551,1.59401 0,0 -1.19551,-1.59401"
       style="fill:#000000;fill-opacity:1;fill-rule:nonzero;stroke:none"
       transform="matrix(0,-1.3333333,-1.3333333,0,42.444,31.55088)" />
    <path
       id="path5"
       d="M 0,0 72.8509,60.52364"
       style="fill:none;stroke:#000000;stroke-width:0.3985;stroke-linecap:butt;stroke-linejoin:miter;stroke-miterlimit:10;stroke-dasharray:none;stroke-opacity:1"
       transform="matrix(1.3333333,0,0,-1.3333333,42.444,244.08933)" />
    <path
       id="path6"
       d="m 121.4182,100.87273 72.85092,60.52363"
       style="fill:none;stroke:#000000;stroke-width:0.3985;stroke-linecap:butt;stroke-linejoin:miter;stroke-miterlimit:10;stroke-dasharray:none;stroke-opacity:1"
       transform="matrix(1.3333333,0,0,-1.3333333,42.444,244.08933)" />
    <path
       id="path7"
       d="m 72.8509,20.17455 v 40.34909 h 48.5673 V 20.17455 Z"
       style="fill:url(#pattern8);fill-opacity:1;fill-rule:nonzero;stroke:none"
       transform="matrix(1.3333333,0,0,-1.3333333,42.444,244.08933)" />
    <path
       id="path9"
       d="M 0,20.17455 H 194.26912"
       style="fill:none;stroke:#000000;stroke-width:0.3985;stroke-linecap:butt;stroke-linejoin:miter;stroke-miterlimit:10;stroke-dasharray:2.98883, 1.99255, 0.3985, 1.99255;stroke-dashoffset:0;stroke-opacity:1"
       transform="matrix(1.3333333,0,0,-1.3333333,42.444,244.08933)" />
    <g
       id="g9"
       aria-label="L−ϵ"
       transform="matrix(1.3333333,0,0,1.3333333,4.428,221.176)">
      <path
         id="path10"
         d="m 3.7278281,-6.0236016 c 0.09375,-0.3632812 0.1171875,-0.46875 1.0546875,-0.46875 0.3046875,0 0.375,0 0.375,-0.1875 0,-0.1289062 -0.1054687,-0.1289062 -0.1523437,-0.1289062 -0.328125,0 -1.1484375,0.035156 -1.4765625,0.035156 -0.3046875,0 -1.03125,-0.035156 -1.3242188,-0.035156 -0.070312,0 -0.1875,0 -0.1875,0.1992187 0,0.1171875 0.082031,0.1171875 0.28125,0.1171875 0.011719,0 0.1992188,0 0.375,0.011719 0.1757813,0.023437 0.2695313,0.035156 0.2695313,0.1640625 0,0.035156 -0.011719,0.070312 -0.046875,0.1875 l -1.3359375,5.35546874 c -0.09375,0.38671875 -0.1171875,0.46875 -0.90234378,0.46875 -0.1640625,0 -0.26953125,0 -0.26953125,0.19921875 0,0.1054687475 0.09375,0.1054687475 0.26953125,0.1054687475 H 5.2747031 c 0.234375,0 0.2460938,0 0.3046875,-0.1640624975 L 6.3645469,-2.3204766 c 0.046875,-0.1054687 0.046875,-0.1289062 0.046875,-0.140625 0,-0.035156 -0.035156,-0.1054687 -0.1289063,-0.1054687 -0.082031,0 -0.09375,0.046875 -0.1640625,0.2109375 -0.3398437,0.9140625 -0.7734375,2.05078124 -2.4960937,2.05078124 h -0.9375 c -0.140625,0 -0.1640625,0 -0.2226563,-0.0117188 -0.1054687,-0.0117188 -0.1289062,-0.0234375 -0.1289062,-0.10546875 0,-0.0234375 0,-0.046875 0.046875,-0.22265625 z m 0,0"
         style="fill:#000000;fill-opacity:1;fill-rule:nonzero;stroke:none" />
      <path
         id="path11"
         d="m 15.557906,-2.2970391 c 0.175781,0 0.351563,0 0.351563,-0.1992187 0,-0.1992188 -0.175782,-0.1992188 -0.351563,-0.1992188 h -5.390625 c -0.164062,0 -0.3398435,0 -0.3398435,0.1992188 0,0.1992187 0.1757815,0.1992187 0.3398435,0.1992187 z m 0,0"
         style="fill:#000000;fill-opacity:1;fill-rule:nonzero;stroke:none" />
      <path
         id="path12"
         d="m 21.921187,-2.2501641 c 0.164063,0 0.339844,0 0.339844,-0.1757812 0,-0.1289063 -0.117187,-0.1289063 -0.28125,-0.1289063 h -1.617187 c 0.234375,-0.8554687 0.796875,-1.4296875 1.699218,-1.4296875 h 0.316407 c 0.164062,0 0.328125,0 0.328125,-0.1640625 0,-0.140625 -0.128907,-0.140625 -0.304688,-0.140625 h -0.351562 c -1.289063,0 -2.625,0.9960938 -2.625,2.5195313 0,1.08984374 0.75,1.87499999 1.804687,1.87499999 0.644531,0 1.289063,-0.3984375 1.289063,-0.50390625 0,-0.0351563 -0.01172,-0.140625 -0.09375,-0.140625 -0.02344,0 -0.04687,0 -0.128907,0.0585938 -0.316406,0.19921875 -0.679687,0.375 -1.042968,0.375 -0.585938,0 -1.078125,-0.421875 -1.078125,-1.30078124 0,-0.3515625 0.08203,-0.7265626 0.105468,-0.8437501 z m 0,0"
         style="fill:#000000;fill-opacity:1;fill-rule:nonzero;stroke:none" />
    </g>
    <path
       id="path13"
       d="M 0,40.34909 H 97.13455"
       style="fill:none;stroke:#000000;stroke-width:0.3985;stroke-linecap:butt;stroke-linejoin:miter;stroke-miterlimit:10;stroke-dasharray:0.3985, 1.99255;stroke-dashoffset:0;stroke-opacity:1"
       transform="matrix(1.3333333,0,0,-1.3333333,42.444,244.08933)" />
    <path
       id="path14"
       d="m 3.7265781,-6.0224141 c 0.09375,-0.3632812 0.1171875,-0.46875 1.0546875,-0.46875 0.3046875,0 0.375,0 0.375,-0.1875 0,-0.1289062 -0.1054687,-0.1289062 -0.1523437,-0.1289062 -0.328125,0 -1.1484375,0.035156 -1.4765625,0.035156 -0.3046875,0 -1.03125,-0.035156 -1.3242188,-0.035156 -0.070312,0 -0.1875,0 -0.1875,0.1992187 0,0.1171875 0.082031,0.1171875 0.28125,0.1171875 0.011719,0 0.1992188,0 0.375,0.011719 0.1757813,0.023437 0.2695313,0.035156 0.2695313,0.1640625 0,0.035156 -0.011719,0.070312 -0.046875,0.1875 l -1.3359375,5.35546874 c -0.09375,0.38671875 -0.1171875,0.46875 -0.90234378,0.46875 -0.1640625,0 -0.26953125,0 -0.26953125,0.19921875 0,0.10546875 0.09375,0.10546875 0.26953125,0.10546875 H 5.2734531 c 0.234375,0 0.2460938,0 0.3046875,-0.1640625 L 6.3632969,-2.3192891 c 0.046875,-0.1054687 0.046875,-0.1289062 0.046875,-0.140625 0,-0.035156 -0.035156,-0.1054687 -0.1289063,-0.1054687 -0.082031,0 -0.09375,0.046875 -0.1640625,0.2109375 -0.3398437,0.9140625 -0.7734375,2.05078124 -2.4960937,2.05078124 h -0.9375 c -0.140625,0 -0.1640625,0 -0.2226563,-0.0117188 -0.1054687,-0.0117188 -0.1289062,-0.0234375 -0.1289062,-0.10546875 0,-0.0234375 0,-0.046875 0.046875,-0.22265625 z m 0,0"
       style="fill:#000000;fill-opacity:1;fill-rule:nonzero;stroke:none"
       aria-label="L"
       transform="matrix(1.3333333,0,0,1.3333333,26.054667,194.83067)" />
    <path
       id="path15"
       d="M 0,60.52364 H 194.26912"
       style="fill:none;stroke:#000000;stroke-width:0.3985;stroke-linecap:butt;stroke-linejoin:miter;stroke-miterlimit:10;stroke-dasharray:2.98883, 1.99255, 0.3985, 1.99255;stroke-dashoffset:0;stroke-opacity:1"
       transform="matrix(1.3333333,0,0,-1.3333333,42.444,244.08933)" />
    <g
       id="g15"
       aria-label="L+ϵ"
       transform="matrix(1.3333333,0,0,1.3333333,4.428,167.37733)">
      <path
         id="path16"
         d="m 3.7278281,-6.0222578 c 0.09375,-0.3632813 0.1171875,-0.46875 1.0546875,-0.46875 0.3046875,0 0.375,0 0.375,-0.1875 0,-0.1289063 -0.1054687,-0.1289063 -0.1523437,-0.1289063 -0.328125,0 -1.1484375,0.035156 -1.4765625,0.035156 -0.3046875,0 -1.03125,-0.035156 -1.3242188,-0.035156 -0.070312,0 -0.1875,0 -0.1875,0.1992188 0,0.1171875 0.082031,0.1171875 0.28125,0.1171875 0.011719,0 0.1992188,0 0.375,0.011719 0.1757813,0.023437 0.2695313,0.035156 0.2695313,0.1640625 0,0.035156 -0.011719,0.070312 -0.046875,0.1875 l -1.3359375,5.35546879 c -0.09375,0.38671875 -0.1171875,0.46875 -0.90234378,0.46875 -0.1640625,0 -0.26953125,0 -0.26953125,0.19921875 0,0.10546875 0.09375,0.10546875 0.26953125,0.10546875 H 5.2747031 c 0.234375,0 0.2460938,0 0.3046875,-0.1640625 L 6.3645469,-2.3191328 c 0.046875,-0.1054688 0.046875,-0.1289063 0.046875,-0.140625 0,-0.035156 -0.035156,-0.1054688 -0.1289063,-0.1054688 -0.082031,0 -0.09375,0.046875 -0.1640625,0.2109375 -0.3398437,0.9140625 -0.7734375,2.05078129 -2.4960937,2.05078129 h -0.9375 c -0.140625,0 -0.1640625,0 -0.2226563,-0.0117188 -0.1054687,-0.0117188 -0.1289062,-0.0234375 -0.1289062,-0.10546875 0,-0.0234375 0,-0.046875 0.046875,-0.22265625 z m 0,0"
         style="fill:#000000;fill-opacity:1;fill-rule:nonzero;stroke:none" />
      <path
         id="path17"
         d="m 13.073531,-2.2956953 h 2.777344 c 0.140625,0 0.328125,0 0.328125,-0.1992188 0,-0.1992187 -0.1875,-0.1992187 -0.328125,-0.1992187 h -2.777344 v -2.7890625 c 0,-0.1289063 0,-0.328125 -0.199219,-0.328125 -0.199218,0 -0.199218,0.1992187 -0.199218,0.328125 v 2.7890625 H 9.8860312 c -0.140625,0 -0.328125,0 -0.328125,0.1992187 0,0.1992188 0.1875,0.1992188 0.328125,0.1992188 h 2.7890628 v 2.80078124 c 0,0.12890625 0,0.328125 0.199218,0.328125 0.199219,0 0.199219,-0.19921875 0.199219,-0.328125 z m 0,0"
         style="fill:#000000;fill-opacity:1;fill-rule:nonzero;stroke:none" />
      <path
         id="path18"
         d="m 21.921187,-2.2488203 c 0.164063,0 0.339844,0 0.339844,-0.1757813 0,-0.1289062 -0.117187,-0.1289062 -0.28125,-0.1289062 h -1.617187 c 0.234375,-0.8554688 0.796875,-1.4296875 1.699218,-1.4296875 h 0.316407 c 0.164062,0 0.328125,0 0.328125,-0.1640625 0,-0.140625 -0.128907,-0.140625 -0.304688,-0.140625 h -0.351562 c -1.289063,0 -2.625,0.9960937 -2.625,2.5195312 0,1.08984379 0.75,1.87500004 1.804687,1.87500004 0.644531,0 1.289063,-0.3984375 1.289063,-0.50390625 0,-0.0351563 -0.01172,-0.140625 -0.09375,-0.140625 -0.02344,0 -0.04687,0 -0.128907,0.0585938 -0.316406,0.19921875 -0.679687,0.375 -1.042968,0.375 -0.585938,0 -1.078125,-0.421875 -1.078125,-1.30078129 0,-0.3515625 0.08203,-0.7265625 0.105468,-0.84375 z m 0,0"
         style="fill:#000000;fill-opacity:1;fill-rule:nonzero;stroke:none" />
    </g>
    <path
       id="path19"
       d="M 72.8509,0 V 161.39636"
       style="fill:none;stroke:#000000;stroke-width:0.3985;stroke-linecap:butt;stroke-linejoin:miter;stroke-miterlimit:10;stroke-dasharray:2.98883, 1.99255, 0.3985, 1.99255;stroke-dashoffset:0;stroke-opacity:1"
       transform="matrix(1.3333333,0,0,-1.3333333,42.444,244.08933)" />
    <g
       id="g19"
       aria-label="a+δ"
       transform="matrix(1.3333333,0,0,1.3333333,124.74667,260.664)">
      <path
         id="path20"
         d="m 3.7144141,-3.7616719 c -0.1757813,-0.375 -0.46875,-0.6445312 -0.9140625,-0.6445312 -1.171875,0 -2.40234379,1.4648437 -2.40234379,2.9179687 0,0.93750003 0.55078125,1.59375003 1.32421879,1.59375003 0.1992187,0 0.703125,-0.03515625 1.3007812,-0.73828125 0.070312,0.41015625 0.421875,0.73828125 0.9023438,0.73828125 0.3515625,0 0.5742187,-0.22265625 0.7382812,-0.5390625 0.1640625,-0.36328125 0.2929688,-0.97265623 0.2929688,-0.99609373 0,-0.09375 -0.082031,-0.09375 -0.1171875,-0.09375 -0.09375,0 -0.1054688,0.035156 -0.140625,0.1757812 -0.1640625,0.64453128 -0.3515625,1.24218753 -0.75,1.24218753 -0.2695313,0 -0.3046875,-0.2578125 -0.3046875,-0.45703125 0,-0.22265625 0.023437,-0.3046875 0.1289062,-0.73828128 0.1171875,-0.421875 0.1289063,-0.5273437 0.2226563,-0.9023437 l 0.3515625,-1.3945313 c 0.070312,-0.28125 0.070312,-0.2929687 0.070312,-0.3398437 0,-0.1640625 -0.1171875,-0.2695313 -0.28125,-0.2695313 -0.2460938,0 -0.3867188,0.2226563 -0.4218745,0.4453125 z m -0.6445313,2.578125 c -0.046875,0.1757813 -0.046875,0.19921878 -0.1992187,0.36328128 -0.4453125,0.55078125 -0.84375,0.71484375 -1.125,0.71484375 -0.5039063,0 -0.6445313,-0.55078125 -0.6445313,-0.93750003 0,-0.5039062 0.328125,-1.7226562 0.5507813,-2.1796875 0.3046875,-0.5976562 0.7617187,-0.9609375 1.1601562,-0.9609375 0.6445313,0 0.7851563,0.8203125 0.7851563,0.8789063 0,0.058594 -0.023437,0.1171875 -0.035156,0.1640625 z m 0,0"
         style="fill:#000000;fill-opacity:1;fill-rule:nonzero;stroke:none" />
      <path
         id="path21"
         d="m 11.557187,-2.2968281 h 2.777344 c 0.140625,0 0.328125,0 0.328125,-0.1992188 0,-0.1992187 -0.1875,-0.1992187 -0.328125,-0.1992187 h -2.777344 v -2.7890625 c 0,-0.1289063 0,-0.328125 -0.199218,-0.328125 -0.199219,0 -0.199219,0.1992187 -0.199219,0.328125 v 2.7890625 H 8.3696875 c -0.140625,0 -0.328125,0 -0.328125,0.1992187 0,0.1992188 0.1875,0.1992188 0.328125,0.1992188 H 11.15875 v 2.80078123 c 0,0.12890625 0,0.328125 0.199219,0.328125 0.199218,0 0.199218,-0.19921875 0.199218,-0.328125 z m 0,0"
         style="fill:#000000;fill-opacity:1;fill-rule:nonzero;stroke:none" />
      <path
         id="path22"
         d="m 20.06793,-4.3476094 c -1.242188,0.2929688 -2.203125,1.59375 -2.203125,2.7890625 0,0.96093753 0.632812,1.67578128 1.570312,1.67578128 1.160156,0 1.992188,-1.55859378 1.992188,-2.94140628 0,-0.9023437 -0.398438,-1.3945312 -0.738282,-1.8515625 -0.351562,-0.4453125 -0.949218,-1.1953125 -0.949218,-1.6289062 0,-0.2226563 0.199218,-0.4570313 0.550781,-0.4570313 0.304687,0 0.503906,0.1289063 0.703125,0.2695313 0.199219,0.1171875 0.398437,0.2460937 0.550781,0.2460937 0.246094,0 0.398438,-0.234375 0.398438,-0.3984375 0,-0.2226562 -0.152344,-0.2460937 -0.515625,-0.328125 -0.515625,-0.1054687 -0.65625,-0.1054687 -0.820313,-0.1054687 -0.773437,0 -1.136719,0.421875 -1.136719,1.0195312 0,0.5390625 0.292969,1.1015625 0.597657,1.7109375 z m 0.128906,0.2109375 c 0.246094,0.4570313 0.539062,0.9960938 0.539062,1.7109375 0,0.6679688 -0.375,2.32031253 -1.300781,2.32031253 -0.550781,0 -0.960937,-0.41015625 -0.960937,-1.17187503 0,-0.6210937 0.375,-2.4960937 1.722656,-2.859375 z m 0,0"
         style="fill:#000000;fill-opacity:1;fill-rule:nonzero;stroke:none" />
    </g>
    <path
       id="path23"
       d="M 97.13455,0 V 80.69818"
       style="fill:none;stroke:#000000;stroke-width:0.3985;stroke-linecap:butt;stroke-linejoin:miter;stroke-miterlimit:10;stroke-dasharray:0.3985, 1.99255;stroke-dashoffset:0;stroke-opacity:1"
       transform="matrix(1.3333333,0,0,-1.3333333,42.444,244.08933)" />
    <path
       id="path24"
       d="m 3.7148281,-3.7606016 c -0.1757812,-0.375 -0.46875,-0.6445312 -0.9140625,-0.6445312 -1.171875,0 -2.40234373,1.4648437 -2.40234373,2.9179687 0,0.93750004 0.55078125,1.59375004 1.32421873,1.59375004 0.1992188,0 0.703125,-0.03515625 1.3007813,-0.73828125 0.070312,0.41015625 0.421875,0.73828125 0.9023437,0.73828125 0.3515625,0 0.5742188,-0.22265625 0.7382813,-0.5390625 0.1640625,-0.36328125 0.2929687,-0.97265624 0.2929687,-0.99609374 0,-0.09375 -0.082031,-0.09375 -0.1171875,-0.09375 -0.09375,0 -0.1054687,0.035156 -0.140625,0.1757812 -0.1640625,0.64453129 -0.3515625,1.24218754 -0.75,1.24218754 -0.2695312,0 -0.3046875,-0.2578125 -0.3046875,-0.45703125 0,-0.22265625 0.023437,-0.3046875 0.1289063,-0.73828129 0.1171875,-0.421875 0.1289062,-0.5273437 0.2226562,-0.9023437 l 0.3515625,-1.3945313 c 0.070312,-0.28125 0.070312,-0.2929687 0.070312,-0.3398437 0,-0.1640625 -0.1171875,-0.2695313 -0.28125,-0.2695313 -0.2460937,0 -0.3867187,0.2226563 -0.4218745,0.4453125 z m -0.6445312,2.578125 c -0.046875,0.1757813 -0.046875,0.19921879 -0.1992188,0.36328129 -0.4453125,0.55078125 -0.84375,0.71484375 -1.125,0.71484375 -0.5039062,0 -0.6445312,-0.55078125 -0.6445312,-0.93750004 0,-0.5039062 0.328125,-1.7226562 0.5507812,-2.1796875 0.3046875,-0.5976562 0.7617188,-0.9609375 1.1601563,-0.9609375 0.6445312,0 0.7851562,0.8203125 0.7851562,0.8789063 0,0.058594 -0.023437,0.1171875 -0.035156,0.1640625 z m 0,0"
       style="fill:#000000;fill-opacity:1;fill-rule:nonzero;stroke:none"
       aria-label="a"
       transform="matrix(1.3333333,0,0,1.3333333,168.44533,257.15867)" />
    <path
       id="path25"
       d="M 121.4182,0 V 161.39636"
       style="fill:none;stroke:#000000;stroke-width:0.3985;stroke-linecap:butt;stroke-linejoin:miter;stroke-miterlimit:10;stroke-dasharray:2.98883, 1.99255, 0.3985, 1.99255;stroke-dashoffset:0;stroke-opacity:1"
       transform="matrix(1.3333333,0,0,-1.3333333,42.444,244.08933)" />
    <g
       id="g25"
       aria-label="a−δ"
       transform="matrix(1.3333333,0,0,1.3333333,189.50133,260.664)">
      <path
         id="path26"
         d="m 3.7138438,-3.7616719 c -0.1757813,-0.375 -0.46875,-0.6445312 -0.9140625,-0.6445312 -1.171875,0 -2.4023438,1.4648437 -2.4023438,2.9179687 0,0.93750003 0.55078125,1.59375003 1.3242188,1.59375003 0.1992187,0 0.703125,-0.03515625 1.3007812,-0.73828125 0.070312,0.41015625 0.421875,0.73828125 0.9023438,0.73828125 0.3515625,0 0.5742187,-0.22265625 0.7382812,-0.5390625 0.1640625,-0.36328125 0.2929688,-0.97265623 0.2929688,-0.99609373 0,-0.09375 -0.082031,-0.09375 -0.1171875,-0.09375 -0.09375,0 -0.1054688,0.035156 -0.140625,0.1757812 -0.1640625,0.64453128 -0.3515625,1.24218753 -0.75,1.24218753 -0.2695313,0 -0.3046875,-0.2578125 -0.3046875,-0.45703125 0,-0.22265625 0.023437,-0.3046875 0.1289062,-0.73828128 0.1171875,-0.421875 0.1289063,-0.5273437 0.2226563,-0.9023437 l 0.3515625,-1.3945313 c 0.070312,-0.28125 0.070312,-0.2929687 0.070312,-0.3398437 0,-0.1640625 -0.1171875,-0.2695313 -0.28125,-0.2695313 -0.2460938,0 -0.3867188,0.2226563 -0.4218745,0.4453125 z m -0.6445313,2.578125 c -0.046875,0.1757813 -0.046875,0.19921878 -0.1992187,0.36328128 -0.4453125,0.55078125 -0.84375,0.71484375 -1.125,0.71484375 -0.5039063,0 -0.6445313,-0.55078125 -0.6445313,-0.93750003 0,-0.5039062 0.328125,-1.7226562 0.5507813,-2.1796875 0.3046875,-0.5976562 0.7617187,-0.9609375 1.1601562,-0.9609375 0.6445313,0 0.7851563,0.8203125 0.7851563,0.8789063 0,0.058594 -0.023437,0.1171875 -0.035156,0.1640625 z m 0,0"
         style="fill:#000000;fill-opacity:1;fill-rule:nonzero;stroke:none" />
      <path
         id="path27"
         d="m 14.043922,-2.2968281 c 0.175781,0 0.351562,0 0.351562,-0.1992188 0,-0.1992187 -0.175781,-0.1992187 -0.351562,-0.1992187 H 8.6532969 c -0.1640625,0 -0.3398438,0 -0.3398438,0.1992187 0,0.1992188 0.1757813,0.1992188 0.3398438,0.1992188 z m 0,0"
         style="fill:#000000;fill-opacity:1;fill-rule:nonzero;stroke:none" />
      <path
         id="path28"
         d="m 20.067359,-4.3476094 c -1.242187,0.2929688 -2.203125,1.59375 -2.203125,2.7890625 0,0.96093753 0.632813,1.67578128 1.570313,1.67578128 1.160156,0 1.992187,-1.55859378 1.992187,-2.94140628 0,-0.9023437 -0.398437,-1.3945312 -0.738281,-1.8515625 -0.351562,-0.4453125 -0.949219,-1.1953125 -0.949219,-1.6289062 0,-0.2226563 0.199219,-0.4570313 0.550782,-0.4570313 0.304687,0 0.503906,0.1289063 0.703125,0.2695313 0.199218,0.1171875 0.398437,0.2460937 0.550781,0.2460937 0.246094,0 0.398437,-0.234375 0.398437,-0.3984375 0,-0.2226562 -0.152343,-0.2460937 -0.515625,-0.328125 -0.515625,-0.1054687 -0.65625,-0.1054687 -0.820312,-0.1054687 -0.773438,0 -1.136719,0.421875 -1.136719,1.0195312 0,0.5390625 0.292969,1.1015625 0.597656,1.7109375 z m 0.128907,0.2109375 c 0.246093,0.4570313 0.539062,0.9960938 0.539062,1.7109375 0,0.6679688 -0.375,2.32031253 -1.300781,2.32031253 -0.550781,0 -0.960938,-0.41015625 -0.960938,-1.17187503 0,-0.6210937 0.375,-2.4960937 1.722657,-2.859375 z m 0,0"
         style="fill:#000000;fill-opacity:1;fill-rule:nonzero;stroke:none" />
    </g>
    <path
       id="path29"
       d="m 72.8509,60.52364 48.5673,40.34909"
       style="fill:none;stroke:#ff0000;stroke-width:0.3985;stroke-linecap:butt;stroke-linejoin:miter;stroke-miterlimit:10;stroke-dasharray:2.98883, 2.98883;stroke-dashoffset:0;stroke-opacity:1"
       transform="matrix(1.3333333,0,0,-1.3333333,42.444,244.08933)" />
    <g
       id="g29"
       aria-label="|L−f(x)|&gt;ϵ"
       transform="matrix(1.3333333,0,0,1.3333333,142.72533,105.87467)">
      <path
         id="path30"
         d="m 1.2782656,-3.515375 c 0,-0.082031 0,-0.2226562 -0.140625,-0.2226562 -0.14062498,0 -0.14062498,0.140625 -0.14062498,0.2226562 V 1.0315 c 0,0.082031 0,0.2109375 0.14062498,0.2109375 0.140625,0 0.140625,-0.1289062 0.140625,-0.2109375 z m 0,0"
         style="fill:#ff0000;fill-opacity:1;fill-rule:nonzero;stroke:none" />
      <path
         id="path31"
         d="m 4.6620547,-2.9763125 c 0.023437,-0.1289062 0.058594,-0.1640625 0.1757812,-0.1757812 0.140625,-0.023437 0.2460938,-0.023437 0.375,-0.023437 0.1523438,0 0.2226563,0 0.2226563,-0.140625 0,-0.058594 -0.046875,-0.082031 -0.09375,-0.082031 -0.140625,0 -0.2695313,0.011719 -0.3984375,0.011719 -0.140625,0 -0.28125,0 -0.421875,0 -0.1289063,0 -0.2578125,0 -0.375,0 -0.1171875,0 -0.2460938,-0.011719 -0.3632813,-0.011719 -0.035156,0 -0.1171875,0 -0.1171875,0.140625 0,0.082031 0.058594,0.082031 0.1757813,0.082031 0.058594,0 0.2226562,0 0.328125,0.023437 0,0.058594 0,0.070312 -0.023437,0.1289062 l -0.6445313,2.61328125 c -0.046875,0.140625 -0.046875,0.1875 -0.421875,0.1875 -0.1289062,0 -0.2109375,0 -0.2109375,0.140625 C 2.8690859,2.5e-4 2.9511172,2.5e-4 3.0331484,2.5e-4 h 2.8242188 c 0.1289062,0 0.1289062,0 0.1757812,-0.1171875 0.046875,-0.12890625 0.4453125,-1.125 0.4453125,-1.1484375 0,-0.035156 -0.023437,-0.09375 -0.1054687,-0.09375 -0.070312,0 -0.082031,0.023437 -0.140625,0.1523438 -0.2578125,0.63281245 -0.5742188,0.98437495 -1.3945313,0.98437495 H 4.1464297 c -0.046875,0 -0.1171875,0 -0.1640625,-0.0117188 0,-0.0351563 0,-0.046875 0.011719,-0.09375 z m 0,0"
         style="fill:#ff0000;fill-opacity:1;fill-rule:nonzero;stroke:none" />
      <path
         id="path32"
         d="m 13.055609,-1.1013125 c 0.08203,0 0.210938,0 0.210938,-0.140625 0,-0.140625 -0.128906,-0.140625 -0.210938,-0.140625 H 9.6806094 c -0.082031,0 -0.2109375,0 -0.2109375,0.140625 0,0.140625 0.1289062,0.140625 0.2109375,0.140625 z m 0,0"
         style="fill:#ff0000;fill-opacity:1;fill-rule:nonzero;stroke:none" />
      <path
         id="path33"
         d="m 18.065375,-1.921625 h 0.5625 c 0.105469,0 0.105469,0 0.128906,-0.023437 0.03516,-0.023437 0.04687,-0.082031 0.04687,-0.1171875 0,-0.082031 -0.08203,-0.082031 -0.164062,-0.082031 H 18.11225 c 0.05859,-0.375 0.152344,-1.0078125 0.222656,-1.078125 0.07031,-0.082031 0.152344,-0.1171875 0.234375,-0.1171875 0.03516,0 0.140625,0 0.246094,0.046875 -0.199219,0.09375 -0.199219,0.2695312 -0.199219,0.2929687 0,0.1171875 0.09375,0.1992188 0.222656,0.1992188 0.128907,0 0.304688,-0.1054688 0.304688,-0.328125 0,-0.2929688 -0.328125,-0.3867188 -0.5625,-0.3867188 -0.632813,0 -0.761719,0.609375 -0.808594,0.8203125 -0.04687,0.2109375 -0.01172,0.082031 -0.09375,0.5507813 h -0.457031 c -0.09375,0 -0.175781,0 -0.175781,0.140625 0,0.082031 0.08203,0.082031 0.164062,0.082031 H 17.6435 c -0.09375,0.4921875 -0.304688,1.875 -0.445313,2.40234375 -0.03516,0.1171875 -0.152343,0.375 -0.339843,0.375 -0.03516,0 -0.140625,-0.0117188 -0.234375,-0.0585938 0.140625,-0.0585938 0.199218,-0.17578125 0.199218,-0.28125 0,-0.12890625 -0.09375,-0.2109375 -0.222656,-0.2109375 -0.128906,0 -0.304687,0.1171875 -0.304687,0.328125 0,0.3046875 0.363281,0.38671875 0.550781,0.38671875 0.292969,0 0.515625,-0.22265625 0.621094,-0.38671875 0.199218,-0.26953125 0.316406,-0.9375 0.328125,-0.94921875 z m 0,0"
         style="fill:#ff0000;fill-opacity:1;fill-rule:nonzero;stroke:none" />
      <path
         id="path34"
         d="m 21.885687,-3.6208437 c 0,0 0.02344,-0.023437 0.02344,-0.046875 0,-0.023437 -0.01172,-0.070312 -0.09375,-0.070312 -0.09375,0 -1.371094,0.796875 -1.371094,2.4960937 0,1.6875 1.277344,2.484375 1.371094,2.484375 0.08203,0 0.09375,-0.046875 0.09375,-0.070312 0,-0.035156 -0.02344,-0.046875 -0.04687,-0.058594 -0.878906,-0.70312505 -1.042969,-1.71093755 -1.042969,-2.3554688 0,-1.21875 0.574219,-2.0273437 1.066406,-2.3789062 z m 0,0"
         style="fill:#ff0000;fill-opacity:1;fill-rule:nonzero;stroke:none" />
      <path
         id="path35"
         d="m 25.486273,-1.9567812 c -0.234375,0.070312 -0.234375,0.2929687 -0.234375,0.2929687 0,0.09375 0.05859,0.2109375 0.234375,0.2109375 0.128907,0 0.304688,-0.1171875 0.304688,-0.3398437 0,-0.2929688 -0.328125,-0.4101563 -0.597656,-0.4101563 -0.316407,0 -0.527344,0.2109375 -0.632813,0.3398438 -0.164062,-0.28125 -0.480469,-0.3398438 -0.65625,-0.3398438 -0.621094,0 -0.984375,0.5859375 -0.984375,0.7734375 0,0.070312 0.08203,0.070312 0.105469,0.070312 0.04687,0 0.09375,0 0.105469,-0.058594 0.152343,-0.4921875 0.5625,-0.609375 0.75,-0.609375 0.164062,0 0.351562,0.070312 0.351562,0.328125 0,0.1289062 -0.08203,0.46875 -0.257812,1.1367187 -0.07031,0.28125 -0.304688,0.4453125 -0.515625,0.4453125 -0.03516,0 -0.175782,0 -0.304688,-0.0820313 0.234375,-0.0703125 0.234375,-0.26953125 0.234375,-0.28125 0,-0.15234375 -0.117187,-0.2109375 -0.222656,-0.2109375 -0.128906,0 -0.304688,0.09375 -0.304688,0.33984375 0,0.3046875 0.328125,0.41015625 0.585938,0.41015625 0.269531,0 0.503906,-0.1640625 0.621094,-0.33984375 0.199218,0.29296875 0.515625,0.33984375 0.667968,0.33984375 0.632813,0 0.984375,-0.59765625 0.984375,-0.7734375 0,-0.0703125 -0.08203,-0.0703125 -0.105468,-0.0703125 -0.08203,0 -0.09375,0.0234375 -0.105469,0.0703125 -0.152344,0.4453125 -0.527344,0.59765625 -0.75,0.59765625 -0.152344,0 -0.351563,-0.046875 -0.351563,-0.328125 0,-0.0585938 0,-0.09375 0.03516,-0.26953125 0.08203,-0.3515625 0.222656,-0.9023438 0.257812,-0.984375 0.07031,-0.1289063 0.234375,-0.328125 0.480469,-0.328125 0.02344,0 0.1875,0 0.304687,0.070312 z m 0,0"
         style="fill:#ff0000;fill-opacity:1;fill-rule:nonzero;stroke:none" />
      <path
         id="path36"
         d="m 28.281195,-1.2419375 c 0,-1.6875 -1.277343,-2.4960937 -1.382812,-2.4960937 -0.07031,0 -0.07031,0.058594 -0.07031,0.070312 0,0.011719 0,0.035156 0.02344,0.070312 0.75,0.5859375 1.042969,1.453125 1.042969,2.3554687 0,0.4453125 -0.08203,0.9140625 -0.246094,1.32421875 -0.246094,0.5625 -0.550781,0.84375 -0.796875,1.04296875 -0.01172,0 -0.02344,0.035156 -0.02344,0.046875 0,0.011719 0,0.070312 0.07031,0.070312 0.105469,0 1.382812,-0.796875 1.382812,-2.484375 z m 0,0"
         style="fill:#ff0000;fill-opacity:1;fill-rule:nonzero;stroke:none" />
      <path
         id="path37"
         d="m 30.311469,-3.515375 c 0,-0.082031 0,-0.2226562 -0.140625,-0.2226562 -0.140625,0 -0.140625,0.140625 -0.140625,0.2226562 V 1.0315 c 0,0.082031 0,0.2109375 0.140625,0.2109375 0.140625,0 0.140625,-0.1289062 0.140625,-0.2109375 z m 0,0"
         style="fill:#ff0000;fill-opacity:1;fill-rule:nonzero;stroke:none" />
      <path
         id="path38"
         d="m 37.843695,-1.1013125 c 0.05859,-0.023437 0.105469,-0.070312 0.105469,-0.140625 0,-0.082031 -0.04687,-0.1171875 -0.105469,-0.1523437 L 34.398383,-2.952875 c -0.07031,-0.035156 -0.09375,-0.035156 -0.105469,-0.035156 -0.07031,0 -0.140625,0.058594 -0.140625,0.1289062 0,0.082031 0.04687,0.1171875 0.117188,0.1523438 l 3.210937,1.4648437 -3.210937,1.46484375 c -0.07031,0.0234375 -0.117188,0.0703125 -0.117188,0.140625 0,0.0703125 0.07031,0.140625 0.140625,0.140625 0.02344,0 0.04687,-0.0117188 0.09375,-0.0351563 z m 5.06543,0.011719 c 0.08203,0 0.210937,0 0.210937,-0.1289063 0,-0.09375 -0.09375,-0.09375 -0.175781,-0.09375 h -1.042969 c 0.152344,-0.4101562 0.515625,-0.609375 0.984375,-0.609375 h 0.234375 c 0.08203,0 0.199219,0 0.199219,-0.1171875 0,-0.1054687 -0.07031,-0.1054687 -0.175781,-0.1054687 h -0.269531 c -0.691407,0 -1.523438,0.421875 -1.523438,1.1835937 0,0.5859375 0.492188,1.01953125 1.171875,1.01953125 0.07031,0 0.234375,0 0.480469,-0.08203125 0,0 0.339844,-0.1171875 0.339844,-0.2109375 0,-0.0351563 -0.02344,-0.12890625 -0.08203,-0.12890625 -0.01172,0 -0.02344,0 -0.08203,0.0351563 -0.1875,0.10546875 -0.410156,0.2109375 -0.644531,0.2109375 -0.1875,0 -0.714844,-0.0703125 -0.714844,-0.69140625 0,-0.0234375 0,-0.140625 0.02344,-0.2812499 z m 0,0"
         style="fill:#ff0000;fill-opacity:1;fill-rule:nonzero;stroke:none" />
    </g>
    <path
       id="path39"
       d="m 98.59157,80.69818 c 0,0.66852 -0.65233,1.21047 -1.45702,1.21047 -0.80469,0 -1.45701,-0.54195 -1.45701,-1.21047 0,-0.66853 0.65232,-1.21048 1.45701,-1.21048 0.80469,0 1.45702,0.54195 1.45702,1.21048 z"
       style="fill:#ffffff;fill-opacity:1;fill-rule:nonzero;stroke:#000000;stroke-width:0.3985;stroke-linecap:butt;stroke-linejoin:miter;stroke-miterlimit:10;stroke-dasharray:none;stroke-opacity:1;paint-order:stroke fill markers"
       transform="matrix(1.3333333,0,0,-1.3333333,42.444,244.08933)" />
    <path
       id="path40"
       d="m 98.59157,40.34909 c 0,0.66852 -0.65233,1.21047 -1.45702,1.21047 -0.80469,0 -1.45701,-0.54195 -1.45701,-1.21047 0,-0.66853 0.65232,-1.21048 1.45701,-1.21048 0.80469,0 1.45702,0.54195 1.45702,1.21048 z"
       style="fill:#000000;fill-opacity:1;fill-rule:nonzero;stroke:#000000;stroke-width:0.3985;stroke-linecap:butt;stroke-linejoin:miter;stroke-miterlimit:10;stroke-dasharray:none;stroke-opacity:1;paint-order:stroke fill markers"
       transform="matrix(1.3333333,0,0,-1.3333333,42.444,244.08933)" />
    <path
       id="path41"
       d="m 1.7346875,-0.73941406 c -0.070312,0.234375 -0.2929687,0.609375 -0.65625,0.609375 -0.023437,0 -0.22265625,0 -0.375,-0.09375 0.28125,-0.09375 0.3046875,-0.33984375 0.3046875,-0.38671875 0,-0.15234375 -0.1171875,-0.2578125 -0.28125,-0.2578125 -0.1875,0 -0.38671875,0.1640625 -0.38671875,0.43359375 0,0.33984375 0.38671875,0.50390625 0.72656255,0.50390625 0.3164062,0 0.609375,-0.19921875 0.7851562,-0.4921875 0.1640625,0.36328125 0.5507813,0.4921875 0.8203125,0.4921875 0.8085938,0 1.2304688,-0.8671875 1.2304688,-1.06640625 0,-0.09375 -0.09375,-0.09375 -0.1054688,-0.09375 -0.1054687,0 -0.1054687,0.035156 -0.140625,0.11718758 -0.140625,0.48046875 -0.5625,0.84375 -0.9492187,0.84375 -0.28125,0 -0.421875,-0.1875 -0.421875,-0.4453125 0,-0.1875 0.1640625,-0.82031258 0.3632812,-1.59375008 0.1289063,-0.5390625 0.4453125,-0.7148437 0.6796875,-0.7148437 0.011719,0 0.2226563,0 0.375,0.1054687 -0.2226562,0.058594 -0.3046875,0.2578125 -0.3046875,0.375 0,0.1523438 0.1171875,0.2578125 0.28125,0.2578125 0.1523438,0 0.3867188,-0.1289062 0.3867188,-0.421875 0,-0.3867187 -0.4453125,-0.5039062 -0.7265625,-0.5039062 -0.3515625,0 -0.6328125,0.2226562 -0.7851563,0.4921875 -0.1171875,-0.2929688 -0.4453125,-0.4921875 -0.8320312,-0.4921875 -0.7851563,0 -1.2304688,0.8554687 -1.2304688,1.0664062 0,0.082031 0.10546875,0.082031 0.1171875,0.082031 0.09375,0 0.10546875,-0.023437 0.140625,-0.1171875 0.17578125,-0.5390625 0.609375,-0.84375 0.9492188,-0.84375 0.234375,0 0.421875,0.1289062 0.421875,0.46875 0,0.1289062 -0.082031,0.4804687 -0.1523438,0.7148437 z m 0,0"
       style="fill:#000000;fill-opacity:1;fill-rule:nonzero;stroke:none"
       aria-label="x"
       transform="matrix(1.3333333,0,0,1.3333333,288.09333,252.78667)" />
    <g
       id="g41"
       aria-label="f(x)"
       transform="matrix(0,-1.3333333,1.3333333,0,32.770667,54.138667)">
      <path
         id="path42"
         d="m 2.8373984,-2.7547578 h 0.6796875 c 0.140625,0 0.234375,0 0.234375,-0.1523438 0,-0.09375 -0.09375,-0.09375 -0.2109375,-0.09375 h -0.65625 c 0.1640625,-0.890625 0.2226563,-1.2070312 0.28125,-1.4179687 0.035156,-0.1523438 0.1875,-0.2929688 0.3515625,-0.2929688 0,0 0.1992188,0 0.328125,0.082031 -0.2929687,0.09375 -0.3046875,0.3398437 -0.3046875,0.3867187 0,0.1523438 0.1171875,0.2578125 0.2695313,0.2578125 0.1992187,0 0.3984375,-0.1640625 0.3984375,-0.4335937 0,-0.3164063 -0.3398438,-0.4921875 -0.6914063,-0.4921875 -0.3046875,0 -0.6445312,0.1757812 -0.84375,0.5273437 -0.1289062,0.2578125 -0.1875,0.5742188 -0.3398437,1.3828125 H 1.7827109 c -0.140625,0 -0.2226562,0 -0.2226562,0.1523438 0,0.09375 0.082031,0.09375 0.2109375,0.09375 h 0.515625 c 0,0.046875 -0.4453125,2.55468749 -0.609375,3.29296874 -0.035156,0.1640625 -0.1523438,0.69140626 -0.4921875,0.69140626 0,0 -0.1757813,0 -0.30468751,-0.082031 0.28125001,-0.09375 0.30468751,-0.35156246 0.30468751,-0.38671871 0,-0.15234375 -0.1171875,-0.2578125 -0.28125001,-0.2578125 -0.1875,0 -0.3984375,0.1640625 -0.3984375,0.421875 0,0.31640621 0.328125,0.49218751 0.67968751,0.49218751 0.4453125,0 0.75,-0.45703126 0.84375,-0.60937501 0.2460937,-0.46875 0.4101562,-1.32421875 0.421875,-1.40625 z m 0,0"
         style="fill:#000000;fill-opacity:1;fill-rule:nonzero;stroke:none" />
      <path
         id="path43"
         d="m 7.1381797,-5.2274141 c -1.3242188,0.9257813 -1.6757813,2.4140625 -1.6757813,3.4804688 0,0.98437499 0.2929688,2.50781249 1.6757813,3.4804687 0.058594,0 0.140625,0 0.140625,-0.082031 0,-0.046875 -0.023437,-0.058594 -0.070312,-0.1054688 -0.9257813,-0.83203121 -1.265625,-2.01562496 -1.265625,-3.2929687 0,-1.875 0.7148437,-2.8007813 1.2890625,-3.3164063 0.023437,-0.023437 0.046875,-0.046875 0.046875,-0.082031 0,-0.082031 -0.082031,-0.082031 -0.1406255,-0.082032 z m 0,0"
         style="fill:#000000;fill-opacity:1;fill-rule:nonzero;stroke:none" />
      <path
         id="path44"
         d="m 9.5141562,-0.73913281 c -0.070312,0.234375 -0.2929687,0.609375 -0.65625,0.609375 -0.023437,0 -0.2226562,0 -0.375,-0.09375 0.28125,-0.09375 0.3046875,-0.33984375 0.3046875,-0.38671875 0,-0.15234375 -0.1171875,-0.2578125 -0.28125,-0.2578125 -0.1875,0 -0.3867187,0.1640625 -0.3867187,0.43359375 0,0.33984375 0.3867187,0.50390625 0.7265625,0.50390625 0.3164062,0 0.609375,-0.19921875 0.7851562,-0.4921875 0.1640625,0.36328125 0.5507813,0.4921875 0.8203123,0.4921875 0.808594,0 1.230469,-0.8671875 1.230469,-1.06640625 0,-0.09375 -0.09375,-0.09375 -0.105469,-0.09375 -0.105469,0 -0.105469,0.035156 -0.140625,0.11718748 -0.140625,0.48046875 -0.5625,0.84375 -0.949219,0.84375 -0.28125,0 -0.421875,-0.1875 -0.421875,-0.4453125 0,-0.1875 0.164063,-0.82031248 0.363282,-1.59374998 0.128906,-0.5390625 0.445312,-0.7148438 0.679687,-0.7148438 0.01172,0 0.222656,0 0.375,0.1054688 -0.222656,0.058594 -0.304687,0.2578125 -0.304687,0.375 0,0.1523437 0.117187,0.2578125 0.28125,0.2578125 0.152343,0 0.386718,-0.1289063 0.386718,-0.421875 0,-0.3867188 -0.445312,-0.5039063 -0.726562,-0.5039063 -0.351563,0 -0.632813,0.2226563 -0.785156,0.4921875 -0.117188,-0.2929687 -0.4453128,-0.4921875 -0.8320315,-0.4921875 -0.7851563,0 -1.2304688,0.8554688 -1.2304688,1.0664063 0,0.082031 0.1054688,0.082031 0.1171875,0.082031 0.09375,0 0.1054688,-0.023437 0.140625,-0.1171875 0.1757813,-0.5390625 0.609375,-0.84375 0.9492188,-0.84375 0.234375,0 0.421875,0.1289063 0.421875,0.46875 0,0.1289063 -0.082031,0.4804688 -0.1523438,0.7148438 z m 0,0"
         style="fill:#000000;fill-opacity:1;fill-rule:nonzero;stroke:none" />
      <path
         id="path45"
         d="m 12.930172,-5.2274141 c -0.05859,0 -0.140625,0 -0.140625,0.082031 0,0.035156 0.02344,0.058594 0.07031,0.1054687 0.597657,0.5507813 1.265625,1.4882813 1.265625,3.2929688 0,1.45312499 -0.457031,2.55468749 -1.207031,3.234375 -0.117187,0.1171875 -0.128906,0.1289062 -0.128906,0.1640625 0,0.035156 0.02344,0.082031 0.09375,0.082031 0.08203,0 0.75,-0.4570312 1.207031,-1.32421871 0.304688,-0.5859375 0.503906,-1.3359375 0.503906,-2.15624999 0,-0.984375 -0.292968,-2.5078125 -1.664062,-3.4804688 z m 0,0"
         style="fill:#000000;fill-opacity:1;fill-rule:nonzero;stroke:none" />
    </g>
    <path
       id="path46"
       d="m 3.9611172,-6.9372422 c -0.046875,-0.1289062 -0.070312,-0.1992187 -0.2226563,-0.1992187 -0.1640625,0 -0.1875,0.058594 -0.2460937,0.1992187 l -2.0625,5.96484376 c -0.1757813,0.50390625 -0.57421876,0.65625 -1.11328126,0.66796875 V 2.578125e-4 c 0.234375,-0.0117187525 0.65625,-0.0351562525 1.01953126,-0.0351562525 0.3046875,0 0.8203125,0.0234375 1.1484375,0.0351562525 V -0.30442969 c -0.5039063,0 -0.75,-0.2578125 -0.75,-0.515625 0,-0.0234375 0.011719,-0.12890625 0.023437,-0.140625 L 2.2150234,-2.2731797 h 2.4609375 l 0.5273438,1.52343751 c 0.011719,0.046875 0.023437,0.10546875 0.023437,0.140625 0,0.3046875 -0.5507813,0.3046875 -0.8203125,0.3046875 V 2.578125e-4 C 4.7579922,-0.03489844 5.4611172,-0.03489844 5.8361172,-0.03489844 c 0.4335937,0 0.890625,0.01171875 1.3007812,0.0351562525 V -0.30442969 H 6.9611172 c -0.5976563,0 -0.7382813,-0.0703125 -0.84375,-0.3984375 z m -0.5273438,1.125 1.125,3.234375 H 2.3204922 Z m 5.7480469,2.0625 v -0.65625 l -1.4296875,0.1171875 v 0.3046875 c 0.703125,0 0.7734375,0.058594 0.7734375,0.4921875 v 4.6640625 c 0,0.4570313 -0.1054687,0.4570313 -0.7734375,0.4570313 v 0.3046875 c 0.3398438,-0.011719 0.8554688,-0.035156 1.1132813,-0.035156 0.2695312,0 0.7734375,0.023437 1.125,0.035156 V 1.6291641 c -0.6679688,0 -0.7734375,0 -0.7734375,-0.4570313 v -1.75781249 c 0.046875,0.15234375 0.46875,0.69140625 1.2187504,0.69140625 1.183593,0 2.226562,-0.97265625 2.226562,-2.26171876 0,-1.265625 -0.972656,-2.25 -2.085937,-2.25 -0.7734379,0 -1.1953129,0.4453125 -1.3945317,0.65625 z m 0.035156,2.6132813 v -2.2148438 c 0.28125,-0.515625 0.7734375,-0.796875 1.2773437,-0.796875 0.726563,0 1.335938,0.8671875 1.335938,1.9921875 0,1.20703126 -0.691406,2.05078126 -1.429688,2.05078126 -0.398437,0 -0.7734375,-0.19921875 -1.0429687,-0.609375 -0.140625,-0.2109375 -0.140625,-0.22265625 -0.140625,-0.42187496 z m 5.5488287,-5.7773438 -1.429688,0.1054688 v 0.3164062 c 0.703125,0 0.773438,0.070312 0.773438,0.5507813 v 5.17968746 c 0,0.45703125 -0.105469,0.45703125 -0.773438,0.45703125 V 2.578125e-4 C 13.664242,-0.01146094 14.191586,-0.03489844 14.43768,-0.03489844 c 0.257812,0 0.738281,0.0234375 1.113281,0.0351562525 V -0.30442969 c -0.667969,0 -0.785156,0 -0.785156,-0.45703125 z m 2.765625,2.5078125 -1.394532,0.1171875 v 0.3046875 c 0.65625,0 0.738282,0.058594 0.738282,0.5507813 v 2.67187496 c 0,0.45703125 -0.105469,0.45703125 -0.773438,0.45703125 V 2.578125e-4 C 16.418148,-0.01146094 16.957211,-0.03489844 17.203305,-0.03489844 c 0.339843,0 0.691406,0.0234375 1.03125,0.0351562525 V -0.30442969 c -0.65625,0 -0.703125,-0.0585938 -0.703125,-0.4453125 z m 0.04687,-1.734375 c 0,-0.3164062 -0.246094,-0.5273437 -0.527344,-0.5273437 -0.316406,0 -0.527344,0.2695312 -0.527344,0.5273437 0,0.2695313 0.210938,0.5273438 0.527344,0.5273438 0.28125,0 0.527344,-0.1992188 0.527344,-0.5273438 z m 2.124023,3.9726563 c 0,-1.6289063 0.820313,-2.0507813 1.347656,-2.0507813 0.09375,0 0.714844,0.011719 1.066407,0.375 -0.410157,0.023437 -0.46875,0.328125 -0.46875,0.4570313 0,0.2578125 0.1875,0.4570312 0.457031,0.4570312 0.257812,0 0.457031,-0.1640625 0.457031,-0.46875 0,-0.6796875 -0.75,-1.0664062 -1.523437,-1.0664062 -1.242188,0 -2.15625,1.078125 -2.15625,2.3085937 0,1.27734376 0.984375,2.26171876 2.144531,2.26171876 1.335937,0 1.652344,-1.19531246 1.652344,-1.28906246 0,-0.1054688 -0.105469,-0.1054688 -0.128907,-0.1054688 -0.09375,0 -0.117187,0.046875 -0.128906,0.1054688 -0.292969,0.92578121 -0.9375,1.04296871 -1.3125,1.04296871 -0.527344,0 -1.40625,-0.421875 -1.40625,-2.02734371 z m 6.583008,1.40624996 c 0.03516,0.3984375 0.304687,0.8203125 0.773437,0.8203125 0.210938,0 0.820313,-0.140625 0.820313,-0.94921875 V -1.4411484 h -0.246094 v 0.55078121 c 0,0.5859375 -0.246094,0.64453125 -0.363281,0.64453125 -0.328125,0 -0.363281,-0.45703125 -0.363281,-0.50390625 V -2.7419297 c 0,-0.4101562 0,-0.8085937 -0.363282,-1.171875 -0.386718,-0.3867187 -0.878906,-0.5507812 -1.359375,-0.5507812 -0.820312,0 -1.511718,0.46875 -1.511718,1.125 0,0.3046875 0.199218,0.46875 0.457031,0.46875 0.28125,0 0.46875,-0.1992188 0.46875,-0.4570313 0,-0.1171875 -0.05859,-0.4453125 -0.515625,-0.4570312 0.269531,-0.3515625 0.761719,-0.4570313 1.078125,-0.4570313 0.492187,0 1.054687,0.3867188 1.054687,1.2773438 v 0.3632812 c -0.503906,0.035156 -1.207031,0.058594 -1.828125,0.3632813 -0.75,0.3398437 -0.996093,0.8554687 -0.996093,1.28906246 0,0.80859375 0.960937,1.0546875 1.59375,1.0546875 0.65625,0 1.113281,-0.3984375 1.300781,-0.8671875 z m -0.07031,-1.62890626 v 0.9960938 c 0,0.94921871 -0.714843,1.28906246 -1.160156,1.28906246 -0.492187,0 -0.902344,-0.3515625 -0.902344,-0.85546875 0,-0.53906251 0.421875,-1.37109371 2.0625,-1.42968751 z m 2.838868,-1.03125 v 2.66015626 c 0,0.45703125 -0.117188,0.45703125 -0.785157,0.45703125 V 2.578125e-4 c 0.351563,-0.0117187525 0.855469,-0.0351562525 1.125,-0.0351562525 0.257813,0 0.785157,0.0234375 1.113282,0.0351562525 V -0.30442969 c -0.65625,0 -0.773438,0 -0.773438,-0.45703125 V -2.5895859 c 0,-1.03125 0.714844,-1.59375 1.347656,-1.59375 0.621094,0 0.738282,0.5390625 0.738282,1.1015625 v 2.32031246 c 0,0.45703125 -0.117188,0.45703125 -0.773438,0.45703125 V 2.578125e-4 c 0.339844,-0.0117187525 0.855469,-0.0351562525 1.125,-0.0351562525 0.257813,0 0.773438,0.0234375 1.113281,0.0351562525 V -0.30442969 c -0.515625,0 -0.773437,0 -0.785156,-0.3046875 V -2.5075547 c 0,-0.8554687 0,-1.171875 -0.304687,-1.5234375 -0.140625,-0.1757812 -0.46875,-0.375 -1.042969,-0.375 -0.726563,0 -1.195313,0.4335938 -1.476563,1.0546875 v -1.0546875 l -1.40625,0.1171875 v 0.3046875 c 0.703125,0 0.785157,0.070312 0.785157,0.5625 z m 8.217773,2.87109376 v 0.65625 L 38.736508,2.578125e-4 V -0.30442969 c -0.703125,0 -0.773438,-0.0703125 -0.773438,-0.5625 V -6.9138047 l -1.441406,0.1054688 v 0.3164062 c 0.703125,0 0.785156,0.070312 0.785156,0.5507813 v 2.15625 c -0.292968,-0.3632813 -0.726562,-0.6210938 -1.265625,-0.6210938 -1.171875,0 -2.214843,0.984375 -2.214843,2.2617188 0,1.26562496 0.972656,2.24999996 2.109375,2.24999996 0.644531,0 1.089843,-0.33984375 1.335937,-0.65625 z m 0,-2.67187496 v 2.0507812 c 0,0.17578126 0,0.19921876 -0.105469,0.36328126 -0.304687,0.48046875 -0.75,0.703125 -1.183593,0.703125 -0.445313,0 -0.796875,-0.2578125 -1.042969,-0.64453125 -0.257813,-0.41015621 -0.292969,-0.97265621 -0.292969,-1.38281251 0,-0.3632812 0.02344,-0.9609375 0.316406,-1.4179687 0.210938,-0.3046875 0.585938,-0.6328125 1.125,-0.6328125 0.351563,0 0.761719,0.1523437 1.078125,0.5976562 0.105469,0.1640625 0.105469,0.1875 0.105469,0.3632813 z m 6.436523,1.0898437 c 0,-1.2773437 -0.996093,-2.3320312 -2.191406,-2.3320312 -1.253906,0 -2.214844,1.0898437 -2.214844,2.3320312 0,1.28906251 1.03125,2.23828126 2.203125,2.23828126 1.207032,0 2.203125,-0.97265625 2.203125,-2.23828126 z m -2.191406,1.99218751 c -0.433594,0 -0.867187,-0.2109375 -1.136719,-0.66796875 -0.25781,-0.43359376 -0.25781,-1.04296876 -0.25781,-1.40624996 0,-0.3867188 0,-0.9257813 0.246094,-1.359375 0.269531,-0.4570313 0.738281,-0.6679688 1.136718,-0.6679688 0.433594,0 0.867188,0.2226563 1.125,0.6445313 0.257813,0.4335937 0.257813,1.0078125 0.257813,1.3828125 0,0.3632812 0,0.9023437 -0.222656,1.33593746 -0.222657,0.4453125 -0.65625,0.73828125 -1.148438,0.73828125 z m 6.905274,-3.28125001 v 2.66015626 c 0,0.45703125 -0.117188,0.45703125 -0.785157,0.45703125 V 2.578125e-4 c 0.351563,-0.0117187525 0.855469,-0.0351562525 1.125,-0.0351562525 0.257813,0 0.785157,0.0234375 1.113282,0.0351562525 V -0.30442969 c -0.65625,0 -0.773438,0 -0.773438,-0.45703125 V -2.5895859 c 0,-1.03125 0.714844,-1.59375 1.347656,-1.59375 0.621094,0 0.738282,0.5390625 0.738282,1.1015625 v 2.32031246 c 0,0.45703125 -0.117188,0.45703125 -0.773438,0.45703125 V 2.578125e-4 c 0.339844,-0.0117187525 0.855469,-0.0351562525 1.125,-0.0351562525 0.257813,0 0.773438,0.0234375 1.113281,0.0351562525 V -0.30442969 c -0.515625,0 -0.773437,0 -0.785156,-0.3046875 V -2.5075547 c 0,-0.8554687 0,-1.171875 -0.304687,-1.5234375 -0.140625,-0.1757812 -0.46875,-0.375 -1.042969,-0.375 -0.726563,0 -1.195313,0.4335938 -1.476563,1.0546875 v -1.0546875 l -1.40625,0.1171875 v 0.3046875 c 0.703125,0 0.785157,0.070312 0.785157,0.5625 z m 7.749023,2.66015626 c 0.03516,0.3984375 0.304688,0.8203125 0.773438,0.8203125 0.210937,0 0.820312,-0.140625 0.820312,-0.94921875 V -1.4411484 h -0.246094 v 0.55078121 c 0,0.5859375 -0.246093,0.64453125 -0.363281,0.64453125 -0.328125,0 -0.363281,-0.45703125 -0.363281,-0.50390625 V -2.7419297 c 0,-0.4101562 0,-0.8085937 -0.363281,-1.171875 -0.386719,-0.3867187 -0.878907,-0.5507812 -1.359375,-0.5507812 -0.820313,0 -1.511719,0.46875 -1.511719,1.125 0,0.3046875 0.199219,0.46875 0.457031,0.46875 0.28125,0 0.46875,-0.1992188 0.46875,-0.4570313 0,-0.1171875 -0.05859,-0.4453125 -0.515625,-0.4570312 0.269531,-0.3515625 0.761719,-0.4570313 1.078125,-0.4570313 0.492188,0 1.054688,0.3867188 1.054688,1.2773438 v 0.3632812 c -0.503907,0.035156 -1.207032,0.058594 -1.828125,0.3632813 -0.75,0.3398437 -0.996094,0.8554687 -0.996094,1.28906246 0,0.80859375 0.960937,1.0546875 1.59375,1.0546875 0.65625,0 1.113281,-0.3984375 1.300781,-0.8671875 z m -0.07031,-1.62890626 v 0.9960938 c 0,0.94921871 -0.714844,1.28906246 -1.160157,1.28906246 -0.492187,0 -0.902343,-0.3515625 -0.902343,-0.85546875 0,-0.53906251 0.421875,-1.37109371 2.0625,-1.42968751 z m 6.421875,1.61718751 c 0,0.3515625 -0.02344,0.46875 -0.796875,0.46875 H 61.491391 V 2.578125e-4 h 5.753906 L 67.655453,-2.5661484 h -0.246094 c -0.246093,1.5351562 -0.480468,2.26171871 -2.191406,2.26171871 h -1.324219 c -0.46875,0 -0.492187,-0.0703125 -0.492187,-0.3984375 V -3.3630234 h 0.902344 c 0.960937,0 1.078125,0.3164062 1.078125,1.1601562 h 0.246093 v -2.6367187 h -0.246093 c 0,0.8554687 -0.117188,1.1601562 -1.078125,1.1601562 h -0.902344 v -2.390625 c 0,-0.328125 0.02344,-0.3984375 0.492187,-0.3984375 h 1.289063 c 1.523437,0 1.792969,0.5507813 1.945312,1.9335938 h 0.246094 l -0.269531,-2.2382813 h -5.613281 v 0.3046875 h 0.234375 c 0.773437,0 0.796875,0.1171875 0.796875,0.46875 z m 6.524414,-2.64843751 v 2.66015626 c 0,0.45703125 -0.117188,0.45703125 -0.785157,0.45703125 V 2.578125e-4 c 0.351563,-0.0117187525 0.855469,-0.0351562525 1.125,-0.0351562525 0.257813,0 0.785157,0.0234375 1.113282,0.0351562525 V -0.30442969 c -0.65625,0 -0.773438,0 -0.773438,-0.45703125 V -2.5895859 c 0,-1.03125 0.714844,-1.59375 1.347656,-1.59375 0.621094,0 0.738282,0.5390625 0.738282,1.1015625 v 2.32031246 c 0,0.45703125 -0.117188,0.45703125 -0.773438,0.45703125 V 2.578125e-4 c 0.339844,-0.0117187525 0.855469,-0.0351562525 1.125,-0.0351562525 0.257813,0 0.773438,0.0234375 1.113281,0.0351562525 V -0.30442969 c -0.515625,0 -0.773437,0 -0.785156,-0.3046875 V -2.5075547 c 0,-0.8554687 0,-1.171875 -0.304687,-1.5234375 -0.140625,-0.1757812 -0.46875,-0.375 -1.042969,-0.375 -0.726563,0 -1.195313,0.4335938 -1.476563,1.0546875 v -1.0546875 l -1.40625,0.1171875 v 0.3046875 c 0.703125,0 0.785157,0.070312 0.785157,0.5625 z m 6.638672,1.7109375 c -0.867188,0 -0.867188,-0.9960937 -0.867188,-1.2304687 0,-0.2695313 0.01172,-0.5859375 0.152344,-0.8320313 0.08203,-0.1171875 0.316406,-0.3984375 0.714844,-0.3984375 0.867187,0 0.867187,0.9960938 0.867187,1.21875 0,0.2695313 -0.01172,0.5976563 -0.164062,0.84375 -0.08203,0.1171875 -0.304688,0.3984375 -0.703125,0.3984375 z m -1.160157,0.3867188 c 0,-0.035156 0,-0.2695313 0.175782,-0.46875 0.386718,0.28125 0.796875,0.3046875 0.984375,0.3046875 0.925781,0 1.605468,-0.6796875 1.605468,-1.453125 0,-0.3632813 -0.152343,-0.7382813 -0.398437,-0.9609375 0.351562,-0.3398438 0.714844,-0.3867188 0.890625,-0.3867188 0.02344,0 0.07031,0 0.105469,0 -0.117188,0.046875 -0.164063,0.1523438 -0.164063,0.2695313 0,0.1757812 0.128906,0.2929687 0.292969,0.2929687 0.09375,0 0.28125,-0.070312 0.28125,-0.2929687 0,-0.1757813 -0.117188,-0.4921875 -0.503906,-0.4921875 -0.199219,0 -0.632813,0.058594 -1.054688,0.46875 -0.421875,-0.328125 -0.84375,-0.3632813 -1.054687,-0.3632813 -0.925782,0 -1.617188,0.6914063 -1.617188,1.453125 0,0.4453125 0.222656,0.8203125 0.46875,1.03125 -0.128906,0.1523438 -0.304687,0.4804688 -0.304687,0.8203125 0,0.31640626 0.128906,0.69140626 0.433593,0.89062501 -0.597656,0.17578125 -0.914062,0.59765625 -0.914062,0.99609375 0,0.71484374 0.984375,1.26562504 2.203125,1.26562504 1.171875,0 2.203125,-0.5039063 2.203125,-1.28906254 0,-0.33984375 -0.140625,-0.85546875 -0.644531,-1.125 -0.527344,-0.28125 -1.101563,-0.28125 -1.710938,-0.28125 -0.246094,0 -0.679687,0 -0.75,-0.0117188 -0.316406,-0.046875 -0.527344,-0.35156246 -0.527344,-0.66796866 z m 1.441407,3.1523437 c -1.007813,0 -1.699219,-0.515625 -1.699219,-1.04296874 0,-0.45703125 0.375,-0.8203125 0.820312,-0.85546875 h 0.585938 c 0.855469,0 1.96875,0 1.96875,0.85546875 0,0.53906254 -0.703125,1.04296874 -1.675781,1.04296874 z m 5.800781,-2.58984374 c 0.03516,0.3984375 0.304687,0.8203125 0.773437,0.8203125 0.210938,0 0.820313,-0.140625 0.820313,-0.94921875 V -1.4411484 h -0.246094 v 0.55078121 c 0,0.5859375 -0.246094,0.64453125 -0.363281,0.64453125 -0.328125,0 -0.363281,-0.45703125 -0.363281,-0.50390625 V -2.7419297 c 0,-0.4101562 0,-0.8085937 -0.363282,-1.171875 -0.386718,-0.3867187 -0.878906,-0.5507812 -1.359375,-0.5507812 -0.820312,0 -1.511718,0.46875 -1.511718,1.125 0,0.3046875 0.199218,0.46875 0.457031,0.46875 0.28125,0 0.46875,-0.1992188 0.46875,-0.4570313 0,-0.1171875 -0.05859,-0.4453125 -0.515625,-0.4570312 0.269531,-0.3515625 0.761719,-0.4570313 1.078125,-0.4570313 0.492187,0 1.054687,0.3867188 1.054687,1.2773438 v 0.3632812 c -0.503906,0.035156 -1.207031,0.058594 -1.828125,0.3632813 -0.75,0.3398437 -0.996093,0.8554687 -0.996093,1.28906246 0,0.80859375 0.960937,1.0546875 1.59375,1.0546875 0.65625,0 1.113281,-0.3984375 1.300781,-0.8671875 z m -0.07031,-1.62890626 v 0.9960938 c 0,0.94921871 -0.714843,1.28906246 -1.160156,1.28906246 -0.492187,0 -0.902344,-0.3515625 -0.902344,-0.85546875 0,-0.53906251 0.421875,-1.37109371 2.0625,-1.42968751 z m 2.835938,-1.03125 v 2.66015626 c 0,0.45703125 -0.117188,0.45703125 -0.785156,0.45703125 V 2.578125e-4 c 0.351562,-0.0117187525 0.855468,-0.0351562525 1.125,-0.0351562525 0.257812,0 0.785156,0.0234375 1.113281,0.0351562525 V -0.30442969 c -0.65625,0 -0.773438,0 -0.773438,-0.45703125 V -2.5895859 c 0,-1.03125 0.714844,-1.59375 1.347657,-1.59375 0.621093,0 0.738281,0.5390625 0.738281,1.1015625 v 2.32031246 c 0,0.45703125 -0.117188,0.45703125 -0.773438,0.45703125 V 2.578125e-4 c 0.339844,-0.0117187525 0.855469,-0.0351562525 1.125,-0.0351562525 0.257813,0 0.773438,0.0234375 1.113282,0.0351562525 V -0.30442969 c -0.515625,0 -0.773438,0 -0.785157,-0.3046875 V -2.5075547 c 0,-0.8554687 0,-1.171875 -0.304687,-1.5234375 -0.140625,-0.1757812 -0.46875,-0.375 -1.042969,-0.375 -0.726562,0 -1.195312,0.4335938 -1.476562,1.0546875 v -1.0546875 l -1.40625,0.1171875 v 0.3046875 c 0.703125,0 0.785156,0.070312 0.785156,0.5625 z m 9.123047,1.2890625 c 0,-1.2773437 -0.996094,-2.3320312 -2.191407,-2.3320312 -1.253906,0 -2.214843,1.0898437 -2.214843,2.3320312 0,1.28906251 1.03125,2.23828126 2.203125,2.23828126 1.207031,0 2.203125,-0.97265625 2.203125,-2.23828126 z m -2.191407,1.99218751 c -0.433593,0 -0.867187,-0.2109375 -1.136718,-0.66796875 -0.257813,-0.43359376 -0.257813,-1.04296876 -0.257813,-1.40624996 0,-0.3867188 0,-0.9257813 0.246094,-1.359375 0.269531,-0.4570313 0.738281,-0.6679688 1.136719,-0.6679688 0.433593,0 0.867187,0.2226563 1.125,0.6445313 0.257812,0.4335937 0.257812,1.0078125 0.257812,1.3828125 0,0.3632812 0,0.9023437 -0.222656,1.33593746 -0.222656,0.4453125 -0.65625,0.73828125 -1.148438,0.73828125 z M 96.02362,-1.9333359 c 0.222656,0.035156 1.03125,0.1992187 1.03125,0.9140625 0,0.51562496 -0.351562,0.91406246 -1.125,0.91406246 -0.832031,0 -1.195312,-0.57421875 -1.382812,-1.41796876 -0.03516,-0.1289062 -0.03516,-0.1757812 -0.140625,-0.1757812 -0.128907,0 -0.128907,0.070312 -0.128907,0.2578125 v 1.31249996 c 0,0.1640625 0,0.234375 0.105469,0.234375 0.05859,0 0.07031,0 0.257813,-0.19921875 0.01172,-0.01171875 0.01172,-0.03515625 0.199218,-0.22265625 0.433594,0.421875 0.878907,0.421875 1.089844,0.421875 1.148438,0 1.605469,-0.66796875 1.605469,-1.38281246 0,-0.5273438 -0.292969,-0.8203125 -0.421875,-0.9492188 -0.328125,-0.3164062 -0.714844,-0.3984375 -1.136719,-0.46875 -0.550781,-0.1171875 -1.21875,-0.2460937 -1.21875,-0.8203125 0,-0.3515625 0.257813,-0.7617187 1.113281,-0.7617187 1.101563,0 1.148438,0.9023437 1.171875,1.2070312 0,0.09375 0.09375,0.09375 0.117188,0.09375 0.128906,0 0.128906,-0.046875 0.128906,-0.2460937 v -0.9960938 c 0,-0.1757812 0,-0.2460937 -0.117187,-0.2460937 -0.04687,0 -0.07031,0 -0.199219,0.1171875 -0.02344,0.046875 -0.128906,0.1289062 -0.164063,0.1640625 -0.375,-0.28125 -0.785156,-0.28125 -0.9375,-0.28125 -1.21875,0 -1.59375,0.6679687 -1.59375,1.2304687 0,0.3398438 0.164063,0.6210938 0.433594,0.84375 0.316406,0.2578125 0.597656,0.3164063 1.3125,0.4570313 z m 5.1709,1.17187496 c 0.0352,0.3984375 0.30468,0.8203125 0.77343,0.8203125 0.21094,0 0.82032,-0.140625 0.82032,-0.94921875 V -1.4411484 h -0.2461 v 0.55078121 c 0,0.5859375 -0.24609,0.64453125 -0.36328,0.64453125 -0.32812,0 -0.36328,-0.45703125 -0.36328,-0.50390625 V -2.7419297 c 0,-0.4101562 0,-0.8085937 -0.36328,-1.171875 -0.38672,-0.3867187 -0.87891,-0.5507812 -1.35938,-0.5507812 -0.820306,0 -1.511713,0.46875 -1.511713,1.125 0,0.3046875 0.199219,0.46875 0.457032,0.46875 0.28125,0 0.46875,-0.1992188 0.46875,-0.4570313 0,-0.1171875 -0.05859,-0.4453125 -0.515625,-0.4570312 0.269531,-0.3515625 0.761718,-0.4570313 1.078126,-0.4570313 0.49218,0 1.05468,0.3867188 1.05468,1.2773438 v 0.3632812 c -0.5039,0.035156 -1.207025,0.058594 -1.828119,0.3632813 -0.75,0.3398437 -0.996094,0.8554687 -0.996094,1.28906246 0,0.80859375 0.960938,1.0546875 1.59375,1.0546875 0.656243,0 1.113283,-0.3984375 1.300783,-0.8671875 z m -0.0703,-1.62890626 v 0.9960938 c 0,0.94921871 -0.71484,1.28906246 -1.16015,1.28906246 -0.492188,0 -0.902344,-0.3515625 -0.902344,-0.85546875 0,-0.53906251 0.421875,-1.37109371 2.062494,-1.42968751 z m 0,0"
       style="fill:#000000;fill-opacity:1;fill-rule:nonzero;stroke:none"
       aria-label="AplicandonaEnganosa"
       transform="matrix(1.3333333,0,0,1.3333333,103.37867,13.652)" />
  </g>
</svg>
