<?xml version="1.0" encoding="UTF-8" standalone="no"?>
<!-- Created with Inkscape (http://www.inkscape.org/) -->

<svg
   version="1.1"
   id="svg1"
   width="267.34534"
   height="226.21867"
   viewBox="0 0 267.34534 226.21867"
   xmlns="http://www.w3.org/2000/svg"
   xmlns:svg="http://www.w3.org/2000/svg">
  <defs
     id="defs1">
    <clipPath
       clipPathUnits="userSpaceOnUse"
       id="clipPath23">
      <path
         d="m 0,12735.204 h 194.26486 v 161.397 H 0 Z"
         id="path23" />
    </clipPath>
    <clipPath
       clipPathUnits="userSpaceOnUse"
       id="clipPath25">
      <path
         d="m 0,12735.204 h 194.26486 v 161.397 H 0 Z"
         id="path25" />
    </clipPath>
  </defs>
  <g
     id="g1">
    <path
       id="path1"
       d="m 4.62535,12813.779 v 4.247 m 46.25354,-4.247 v 4.247 m 92.50708,-4.247 v 4.247 m 46.25354,-4.247 v 4.247"
       style="fill:none;stroke:#808080;stroke-width:0.19925;stroke-linecap:butt;stroke-linejoin:miter;stroke-miterlimit:10;stroke-dasharray:none;stroke-opacity:1"
       transform="matrix(1.3333333,0,0,-1.3333333,6.7466667,17200.48)" />
    <path
       id="path2"
       d="m 95.00645,12737.806 h 4.25193 m -4.25193,26.032 h 4.25193 m -4.25193,26.031 h 4.25193 m -4.25193,52.063 h 4.25193 m -4.25193,26.032 h 4.25193 m -4.25193,26.031 h 4.25193"
       style="fill:none;stroke:#808080;stroke-width:0.19925;stroke-linecap:butt;stroke-linejoin:miter;stroke-miterlimit:10;stroke-dasharray:none;stroke-opacity:1"
       transform="matrix(1.3333333,0,0,-1.3333333,6.7466667,17200.48)" />
    <path
       id="path3"
       d="M 0,12815.903 H 192.27234"
       style="fill:none;stroke:#000000;stroke-width:0.3985;stroke-linecap:butt;stroke-linejoin:miter;stroke-miterlimit:10;stroke-dasharray:none;stroke-opacity:1"
       transform="matrix(1.3333333,0,0,-1.3333333,6.7466667,17200.48)" />
    <path
       id="path4"
       d="M 1.99252,0 -1.19551,1.59401 0,0 -1.19551,-1.59401"
       style="fill:#000000;fill-opacity:1;fill-rule:nonzero;stroke:none"
       transform="matrix(1.3333333,0,0,-1.3333333,263.10979,112.60988)" />
    <path
       id="path5"
       d="m 97.13243,12735.204 v 159.404"
       style="fill:none;stroke:#000000;stroke-width:0.3985;stroke-linecap:butt;stroke-linejoin:miter;stroke-miterlimit:10;stroke-dasharray:none;stroke-opacity:1"
       transform="matrix(1.3333333,0,0,-1.3333333,6.7466667,17200.48)" />
    <path
       id="path6"
       d="M 1.99252,0 -1.19551,1.59401 0,0 -1.19551,-1.59401"
       style="fill:#000000;fill-opacity:1;fill-rule:nonzero;stroke:none"
       transform="matrix(0,-1.3333333,-1.3333333,0,136.25657,7.66884)" />
    <g
       id="g6"
       aria-label="−4"
       transform="matrix(1.3333333,0,0,1.3333333,4.428,128.91467)">
      <path
         id="path7"
         d="m 6.5637656,-2.2973281 c 0.1757813,0 0.3515625,0 0.3515625,-0.1992188 0,-0.1992187 -0.1757812,-0.1992187 -0.3515625,-0.1992187 h -5.390625 c -0.1640625,0 -0.33984372,0 -0.33984372,0.1992187 0,0.1992188 0.17578122,0.1992188 0.33984372,0.1992188 z m 0,0"
         style="fill:#000000;fill-opacity:1;fill-rule:nonzero;stroke:none" />
      <path
         id="path8"
         d="m 10.677047,-1.6410781 v 0.86718747 c 0,0.3515625 -0.02344,0.46875 -0.7617189,0.46875 H 9.7043906 V -4.53125e-4 C 10.114547,-0.03560938 10.641891,-0.03560938 11.052047,-0.03560938 c 0.421875,0 0.949219,0 1.359375,0.035156255 V -0.30514063 h -0.210938 c -0.738281,0 -0.761718,-0.1171875 -0.761718,-0.46875 V -1.6410781 h 0.996093 v -0.3164063 h -0.996093 v -4.5234375 c 0,-0.1992187 0,-0.2578125 -0.152344,-0.2578125 -0.09375,0 -0.117188,0 -0.199219,0.1171875 l -3.0585936,4.6640625 v 0.3164063 z m 0.05859,-0.3164063 H 8.3098594 l 2.4257816,-3.7148437 z m 0,0"
         style="fill:#000000;fill-opacity:1;fill-rule:nonzero;stroke:none" />
    </g>
    <g
       id="g8"
       aria-label="−2"
       transform="matrix(1.3333333,0,0,1.3333333,66.097333,128.91467)">
      <path
         id="path9"
         d="m 6.5627422,-2.2973281 c 0.1757812,0 0.3515625,0 0.3515625,-0.1992188 0,-0.1992187 -0.1757813,-0.1992187 -0.3515625,-0.1992187 h -5.390625 c -0.1640625,0 -0.33984376,0 -0.33984376,0.1992187 0,0.1992188 0.17578126,0.1992188 0.33984376,0.1992188 z m 0,0"
         style="fill:#000000;fill-opacity:1;fill-rule:nonzero;stroke:none" />
      <path
         id="path10"
         d="M 9.0148906,-0.76217188 10.069578,-1.7934219 c 1.558594,-1.3710937 2.15625,-1.9101562 2.15625,-2.90625 0,-1.1367187 -0.902344,-1.9335937 -2.121094,-1.9335937 -1.1249996,0 -1.8515621,0.9140625 -1.8515621,1.8046875 0,0.5507812 0.4921875,0.5507812 0.5273437,0.5507812 0.1640625,0 0.515625,-0.1171875 0.515625,-0.5273437 0,-0.2578125 -0.1875,-0.515625 -0.5273437,-0.515625 -0.082031,0 -0.1054688,0 -0.1289063,0.011719 0.2226563,-0.6445312 0.7617188,-1.0195312 1.3359375,-1.0195312 0.9140629,0 1.3359379,0.8085937 1.3359379,1.6289062 0,0.796875 -0.492188,1.5820313 -1.042969,2.203125 L 8.3586406,-0.36373438 C 8.2531719,-0.25826563 8.2531719,-0.23482813 8.2531719,-4.53125e-4 h 3.6914061 l 0.28125,-1.734374975 h -0.257812 c -0.04687,0.3046875 -0.117188,0.73828122 -0.210938,0.89062497 -0.07031,0.0820313 -0.726562,0.0820313 -0.949219,0.0820313 z m 0,0"
         style="fill:#000000;fill-opacity:1;fill-rule:nonzero;stroke:none" />
    </g>
    <path
       id="path11"
       d="M 1.2657266,-0.76217188 2.3204141,-1.7934219 c 1.5585937,-1.3710937 2.15625,-1.9101562 2.15625,-2.90625 0,-1.1367187 -0.9023438,-1.9335937 -2.1210938,-1.9335937 -1.125,0 -1.85156249,0.9140625 -1.85156249,1.8046875 0,0.5507812 0.4921875,0.5507812 0.52734379,0.5507812 0.1640625,0 0.515625,-0.1171875 0.515625,-0.5273437 0,-0.2578125 -0.1875,-0.515625 -0.5273438,-0.515625 -0.0820312,0 -0.10546874,0 -0.12890624,0.011719 0.22265624,-0.6445312 0.76171874,-1.0195312 1.33593754,-1.0195312 0.9140625,0 1.3359375,0.8085937 1.3359375,1.6289062 0,0.796875 -0.4921875,1.5820313 -1.0429688,2.203125 L 0.60947656,-0.36373438 C 0.50400781,-0.25826563 0.50400781,-0.23482813 0.50400781,-4.53125e-4 H 4.1954141 L 4.4766641,-1.7348281 H 4.2188516 c -0.046875,0.3046875 -0.1171875,0.73828122 -0.2109375,0.89062497 -0.070312,0.0820313 -0.7265625,0.0820313 -0.9492188,0.0820313 z m 0,0"
       style="fill:#000000;fill-opacity:1;fill-rule:nonzero;stroke:none"
       aria-label="2"
       transform="matrix(1.3333333,0,0,1.3333333,194.60533,128.91467)" />
    <path
       id="path12"
       d="m 2.9306953,-1.6410781 v 0.86718747 c 0,0.3515625 -0.023437,0.46875 -0.7617187,0.46875 H 1.9580391 v 0.304687505 c 0.4101562,-0.035156255 0.9375,-0.035156255 1.3476562,-0.035156255 0.421875,0 0.9492188,0 1.359375,0.035156255 V -0.30514063 H 4.4541328 c -0.7382812,0 -0.7617187,-0.1171875 -0.7617187,-0.46875 V -1.6410781 H 4.6885078 V -1.9574844 H 3.6924141 v -4.5234375 c 0,-0.1992187 0,-0.2578125 -0.1523438,-0.2578125 -0.09375,0 -0.1171875,0 -0.1992187,0.1171875 l -3.05859379,4.6640625 v 0.3164063 z m 0.058594,-0.3164063 H 0.56350781 L 2.9892891,-5.6723281 Z m 0,0"
       style="fill:#000000;fill-opacity:1;fill-rule:nonzero;stroke:none"
       aria-label="4"
       transform="matrix(1.3333333,0,0,1.3333333,256.276,128.91467)" />
    <g
       id="g12"
       aria-label="−6"
       transform="matrix(1.3333333,0,0,1.3333333,111.75467,220.684)">
      <path
         id="path13"
         d="m 6.5619297,-2.2971797 c 0.1757812,0 0.3515625,0 0.3515625,-0.1992187 0,-0.1992188 -0.1757813,-0.1992188 -0.3515625,-0.1992188 h -5.390625 c -0.1640625,0 -0.33984376,0 -0.33984376,0.1992188 0,0.1992187 0.17578126,0.1992187 0.33984376,0.1992187 z m 0,0"
         style="fill:#000000;fill-opacity:1;fill-rule:nonzero;stroke:none" />
      <path
         id="path14"
         d="m 9.0609531,-3.2698359 v -0.234375 c 0,-2.5195313 1.2421879,-2.8828125 1.7460939,-2.8828125 0.234375,0 0.65625,0.058594 0.878906,0.3984375 -0.152344,0 -0.550781,0 -0.550781,0.4453125 0,0.3164062 0.234375,0.4570312 0.457031,0.4570312 0.164063,0 0.457031,-0.082031 0.457031,-0.46875 0,-0.5976562 -0.433593,-1.078125 -1.265625,-1.078125 -1.2773434,0 -2.6132809,1.2890625 -2.6132809,3.4804688 0,2.66015621 1.1484375,3.37499996 2.0742189,3.37499996 1.113281,0 2.050781,-0.9375 2.050781,-2.24999996 0,-1.265625 -0.878906,-2.2265625 -1.992187,-2.2265625 -0.6679691,0 -1.0429691,0.5039062 -1.2421879,0.984375 z m 1.1835939,3.21093746 c -0.6210939,0 -0.9257814,-0.59765625 -0.9843751,-0.75 C 9.0843906,-1.2776484 9.0843906,-2.0745234 9.0843906,-2.2503047 c 0,-0.7734375 0.3164063,-1.7695312 1.2187504,-1.7695312 0.152343,0 0.609375,0 0.925781,0.609375 0.175781,0.375 0.175781,0.8789062 0.175781,1.3710937 0,0.4804688 0,0.9726563 -0.164062,1.33593751 -0.304688,0.59765625 -0.761719,0.64453125 -0.996094,0.64453125 z m 0,0"
         style="fill:#000000;fill-opacity:1;fill-rule:nonzero;stroke:none" />
    </g>
    <g
       id="g14"
       aria-label="−4"
       transform="matrix(1.3333333,0,0,1.3333333,111.75467,185.976)">
      <path
         id="path15"
         d="m 6.5619297,-2.2964531 c 0.1757812,0 0.3515625,0 0.3515625,-0.1992188 0,-0.1992187 -0.1757813,-0.1992187 -0.3515625,-0.1992187 h -5.390625 c -0.1640625,0 -0.33984376,0 -0.33984376,0.1992187 0,0.1992188 0.17578126,0.1992188 0.33984376,0.1992188 z m 0,0"
         style="fill:#000000;fill-opacity:1;fill-rule:nonzero;stroke:none" />
      <path
         id="path16"
         d="m 10.678141,-1.6402031 v 0.86718747 c 0,0.3515625 -0.02344,0.46875 -0.7617191,0.46875 H 9.7054844 V 4.21875e-4 C 10.115641,-0.03473438 10.642984,-0.03473438 11.053141,-0.03473438 c 0.421875,0 0.949218,0 1.359375,0.035156255 V -0.30426563 h -0.210938 c -0.738281,0 -0.761719,-0.1171875 -0.761719,-0.46875 V -1.6402031 h 0.996094 v -0.3164063 h -0.996094 v -4.5234375 c 0,-0.1992187 0,-0.2578125 -0.152343,-0.2578125 -0.09375,0 -0.117188,0 -0.199219,0.1171875 l -3.0585939,4.6640625 v 0.3164063 z m 0.05859,-0.3164063 H 8.3109531 l 2.4257809,-3.7148437 z m 0,0"
         style="fill:#000000;fill-opacity:1;fill-rule:nonzero;stroke:none" />
    </g>
    <g
       id="g16"
       aria-label="−2"
       transform="matrix(1.3333333,0,0,1.3333333,111.75467,151.268)">
      <path
         id="path17"
         d="m 6.5619297,-2.2957266 c 0.1757812,0 0.3515625,0 0.3515625,-0.1992187 0,-0.1992188 -0.1757813,-0.1992188 -0.3515625,-0.1992188 h -5.390625 c -0.1640625,0 -0.33984376,0 -0.33984376,0.1992188 0,0.1992187 0.17578126,0.1992187 0.33984376,0.1992187 z m 0,0"
         style="fill:#000000;fill-opacity:1;fill-rule:nonzero;stroke:none" />
      <path
         id="path18"
         d="M 9.0140781,-0.76057031 10.068766,-1.7918203 c 1.558593,-1.3710938 2.15625,-1.9101563 2.15625,-2.90625 0,-1.1367188 -0.902344,-1.9335938 -2.121094,-1.9335938 -1.1250001,0 -1.8515626,0.9140625 -1.8515626,1.8046875 0,0.5507813 0.4921875,0.5507813 0.5273437,0.5507813 0.1640625,0 0.515625,-0.1171875 0.515625,-0.5273438 0,-0.2578125 -0.1875,-0.515625 -0.5273437,-0.515625 -0.082031,0 -0.1054688,0 -0.1289063,0.011719 0.2226563,-0.6445313 0.7617188,-1.0195313 1.3359375,-1.0195313 0.9140624,0 1.3359374,0.8085938 1.3359374,1.6289063 0,0.796875 -0.492187,1.5820312 -1.042969,2.203125 L 8.3578281,-0.36213281 C 8.2523594,-0.25666406 8.2523594,-0.23322656 8.2523594,0.00114844 h 3.6914066 l 0.28125,-1.73437504 h -0.257813 c -0.04687,0.3046875 -0.117187,0.73828129 -0.210937,0.89062504 -0.07031,0.0820313 -0.726563,0.0820313 -0.949219,0.0820313 z m 0,0"
         style="fill:#000000;fill-opacity:1;fill-rule:nonzero;stroke:none" />
    </g>
    <path
       id="path19"
       d="M 1.2660781,-0.76103125 2.3207656,-1.7922813 c 1.5585938,-1.3710937 2.15625,-1.9101562 2.15625,-2.90625 0,-1.1367187 -0.9023437,-1.9335937 -2.1210937,-1.9335937 -1.125,0 -1.85156253,0.9140625 -1.85156253,1.8046875 0,0.5507812 0.4921875,0.5507812 0.52734373,0.5507812 0.1640625,0 0.515625,-0.1171875 0.515625,-0.5273437 0,-0.2578125 -0.1875,-0.515625 -0.5273437,-0.515625 -0.0820313,0 -0.10546878,0 -0.12890628,0.011719 0.22265628,-0.6445312 0.76171878,-1.0195312 1.33593748,-1.0195312 0.9140625,0 1.3359375,0.8085937 1.3359375,1.6289062 0,0.796875 -0.4921875,1.5820313 -1.0429687,2.203125 L 0.60982812,-0.36259375 C 0.50435937,-0.257125 0.50435937,-0.2336875 0.50435937,6.875e-4 H 4.1957656 l 0.28125,-1.734375 H 4.2192031 C 4.1723281,-1.429 4.1020156,-0.99540625 4.0082656,-0.8430625 3.9379536,-0.7610312 3.2817031,-0.7610312 3.0590469,-0.7610312 Z m 0,0"
       style="fill:#000000;fill-opacity:1;fill-rule:nonzero;stroke:none"
       aria-label="2"
       transform="matrix(1.3333333,0,0,1.3333333,122.08533,82.405333)" />
    <path
       id="path20"
       d="m 2.9301406,-1.6411406 v 0.86718748 c 0,0.3515625 -0.023437,0.46875 -0.7617187,0.46875 H 1.9574844 v 0.304687495 c 0.4101562,-0.035156245 0.9375,-0.035156245 1.3476562,-0.035156245 0.421875,0 0.9492188,0 1.359375,0.035156245 V -0.30520312 H 4.4535781 c -0.7382812,0 -0.7617187,-0.1171875 -0.7617187,-0.46875 V -1.6411406 H 4.6879531 V -1.9575469 H 3.6918594 v -4.5234375 c 0,-0.1992187 0,-0.2578125 -0.1523438,-0.2578125 -0.09375,0 -0.1171875,0 -0.1992187,0.1171875 l -3.05859378,4.6640625 v 0.3164063 z m 0.058594,-0.3164063 H 0.56295312 L 2.9887344,-5.6723906 Z m 0,0"
       style="fill:#000000;fill-opacity:1;fill-rule:nonzero;stroke:none"
       aria-label="4"
       transform="matrix(1.3333333,0,0,1.3333333,122.08533,47.696)" />
    <path
       id="path21"
       d="m 1.3129531,-3.2693203 v -0.234375 c 0,-2.5195313 1.2421875,-2.8828125 1.7460938,-2.8828125 0.234375,0 0.65625,0.058594 0.8789062,0.3984375 -0.1523437,0 -0.5507812,0 -0.5507812,0.4453125 0,0.3164062 0.234375,0.4570312 0.4570312,0.4570312 0.1640625,0 0.4570313,-0.082031 0.4570313,-0.46875 0,-0.5976562 -0.4335938,-1.078125 -1.265625,-1.078125 -1.2773438,0 -2.61328128,1.2890625 -2.61328128,3.4804688 0,2.66015624 1.14843748,3.37499999 2.07421878,3.37499999 1.1132812,0 2.0507812,-0.9375 2.0507812,-2.24999999 0,-1.265625 -0.8789062,-2.2265625 -1.9921875,-2.2265625 -0.6679687,0 -1.0429687,0.5039062 -1.2421875,0.984375 z m 1.1835938,3.21093749 c -0.6210938,0 -0.9257813,-0.59765625 -0.984375,-0.75 C 1.3363906,-1.2771328 1.3363906,-2.0740078 1.3363906,-2.2497891 c 0,-0.7734375 0.3164063,-1.7695312 1.21875,-1.7695312 0.1523438,0 0.609375,0 0.9257813,0.609375 0.1757812,0.375 0.1757812,0.8789062 0.1757812,1.3710937 0,0.4804688 0,0.9726563 -0.1640625,1.33593754 -0.3046875,0.59765625 -0.7617187,0.64453125 -0.9960937,0.64453125 z m 0,0"
       style="fill:#000000;fill-opacity:1;fill-rule:nonzero;stroke:none"
       aria-label="6"
       transform="matrix(1.3333333,0,0,1.3333333,122.08533,12.988)" />
    <path
       id="path22"
       d="m 0,12812.804 h 0.1946 0.19459 0.19463 0.19459 0.19461 0.19461 0.1946 0.19461 0.19461 0.19461 0.1946 0.19462 0.1946 0.19461 0.19461 0.1946 0.1946 0.19461 0.19462 0.19459 0.19461 0.19461 0.1946 0.19462 0.1946 0.19461 0.19461 0.19461 0.1946 0.19461 0.1946 0.1946 0.19463 0.19459 0.19461 0.19461 0.1946 0.19461 0.19461 0.19461 0.1946 0.19463 0.19459 0.19461 0.19461 0.19459 0.19461 0.19462 0.19461 0.19459 0.19461 0.19461 0.1946 0.19462 0.1946 0.19461 0.19461 0.19461 0.1946 0.1946 0.19462 0.19459 0.19463 0.19459 0.19461 0.19462 0.19461 0.19461 l 0.19459,-0.01 h 0.19461 0.19462 0.1946 l 0.1946,-0.01 h 0.19462 0.1946 l 0.1946,-0.01 h 0.19462 0.1946 l 0.19461,-0.01 h 0.19461 0.19461 0.19459 l 0.19463,-0.01 h 0.19459 l 0.1946,-0.01 h 0.19462 l 0.1946,-0.01 h 0.19461 l 0.19461,-0.01 0.1946,-0.01 h 0.19461 l 0.19461,-0.01 0.19461,-0.01 h 0.1946 l 0.19462,-0.01 0.1946,-0.01 h 0.19461 l 0.19461,-0.01 h 0.19459 l 0.19462,-0.01 0.19462,-0.01 0.19458,-0.01 0.19463,-0.01 0.19459,-0.01 0.19461,-0.01 0.19461,-0.01 0.1946,-0.01 0.19462,-0.01 0.19458,-0.01 0.19463,-0.01 0.19461,-0.01 0.19459,-0.01 0.19463,-0.01 0.19458,-0.01 0.19461,-0.01 0.19464,-0.01 0.19458,-0.01 0.19461,-0.01 0.1946,-0.01 0.19462,-0.01 0.19461,-0.01 0.1946,-0.01 0.19461,-0.01 h 0.1946 l 0.19462,-0.01 0.19462,-0.01 0.19457,-0.01 0.19463,-0.01 0.1946,-0.01 0.1946,-0.01 0.19463,-0.01 0.1946,-0.01 0.19462,-0.01 0.19458,-0.01 0.19461,-0.01 0.19463,-0.01 0.19459,-0.01 0.19461,-0.01 0.1946,-0.01 0.19461,-0.01 0.19462,-0.01 0.1946,-0.01 0.19461,-0.01 0.19458,-0.01 0.19463,-0.01 0.19462,-0.01 0.19458,-0.01 0.19463,-0.01 0.19458,-0.01 0.19463,-0.01 0.19462,-0.01 0.19458,-0.01 0.19461,-0.01 0.19461,-0.01 0.19462,-0.01 0.1946,-0.01 0.1946,-0.01 0.19462,-0.01 0.19458,-0.01 0.19463,-0.01 0.19461,-0.01 0.19458,-0.01 0.19464,-0.01 0.19458,-0.01 0.19461,-0.01 0.19463,-0.01 0.19459,-0.01 0.19461,-0.01 0.1946,-0.01 0.19461,-0.01 0.19463,-0.02 0.19459,-0.01 0.19461,-0.01 0.19458,-0.01 0.19463,-0.02 0.19462,-0.01 0.19458,-0.02 0.19463,-0.01 0.1946,-0.02 0.19461,-0.01 0.19462,-0.02 0.19458,-0.02 0.19461,-0.02 0.19462,-0.01 0.1946,-0.02 0.19461,-0.02 0.1946,-0.02 0.19463,-0.02 0.19458,-0.02 0.19462,-0.02 0.19461,-0.02 0.19458,-0.02 0.19464,-0.02 0.19458,-0.02 0.19461,-0.02 0.19463,-0.02 0.1946,-0.02 0.19462,-0.01 0.19458,-0.02 0.19461,-0.02 0.19464,-0.02 0.19458,-0.02 0.19461,-0.02 0.1946,-0.02 0.19462,-0.02 0.19462,-0.02 0.19459,-0.02 0.19461,-0.02 0.1946,-0.02 0.19463,-0.02 0.1946,-0.02 0.19458,-0.02 0.19464,-0.02 0.19458,-0.02 0.19462,-0.02 0.19462,-0.02 0.19458,-0.02 0.19463,-0.02 0.19459,-0.02 0.19461,-0.02 0.19461,-0.02 0.1946,-0.02 0.19462,-0.02 0.19458,-0.02 0.19463,-0.02 0.19461,-0.02 0.1946,-0.02 0.19462,-0.02 0.19458,-0.02 0.19461,-0.02 0.19464,-0.02 0.19458,-0.02 0.19461,-0.02 0.1946,-0.02 0.19463,-0.02 0.19461,-0.02 0.19459,-0.02 0.19461,-0.02 0.1946,-0.02 0.19462,-0.02 0.19461,-0.02 0.19459,-0.02 0.19462,-0.02 0.1946,-0.02 0.19461,-0.02 0.19462,-0.02 0.19458,-0.02 0.19463,-0.02 0.19459,-0.03 0.19461,-0.02 0.19461,-0.03 0.19462,-0.03 0.19461,-0.02 0.19458,-0.03 0.19462,-0.03 0.19461,-0.03 0.19459,-0.03 0.19463,-0.03 0.19458,-0.03 0.19463,-0.03 0.19463,-0.03 0.19458,-0.03 0.19462,-0.03 0.19458,-0.03 0.19463,-0.03 0.19462,-0.03 0.19458,-0.03 0.19462,-0.03 0.19459,-0.03 0.19462,-0.03 0.19462,-0.03 0.19459,-0.03 0.19461,-0.03 0.1946,-0.03 0.19462,-0.03 0.19461,-0.03 0.19458,-0.03 0.19464,-0.03 0.19458,-0.03 0.19461,-0.03 0.19463,-0.03 0.1946,-0.03 0.1946,-0.03 0.1946,-0.03 0.19461,-0.03 0.19463,-0.03 0.19459,-0.03 0.19461,-0.03 0.19458,-0.04 0.19465,-0.03 0.19461,-0.03 0.19458,-0.04 0.19462,-0.04 0.19458,-0.04 0.19463,-0.04 0.19462,-0.04 0.19459,-0.04 0.1946,-0.04 0.19462,-0.04 0.19461,-0.04 0.19461,-0.04 0.19459,-0.04 0.19461,-0.04 0.1946,-0.04 0.19462,-0.04 0.19461,-0.04 0.1946,-0.04 0.19463,-0.04 0.19458,-0.04 0.19461,-0.04 0.19462,-0.04 0.19459,-0.04 0.19462,-0.04 0.19459,-0.05 0.19461,-0.05 0.19463,-0.05 0.19459,-0.05 0.19462,-0.05 0.19458,-0.05 0.19464,-0.05 0.19461,-0.05 0.19458,-0.05 0.19463,-0.05 0.19457,-0.05 0.19463,-0.05 0.19463,-0.05 0.19457,-0.05 0.19463,-0.05 0.1946,-0.05 0.19461,-0.05 0.19462,-0.05 0.19458,-0.06 0.19463,-0.06 0.19459,-0.06 0.19461,-0.06 0.19462,-0.06 0.19461,-0.06 0.1946,-0.06 0.19459,-0.06 0.19462,-0.06 0.19461,-0.06 0.1946,-0.06 0.19462,-0.06 0.19458,-0.07 0.19461,-0.06 0.19465,-0.07 0.19458,-0.07 0.19461,-0.07 0.19459,-0.07 0.19461,-0.07 0.19463,-0.07 0.1946,-0.07 0.1946,-0.07 0.1946,-0.07 0.19463,-0.07 0.19461,-0.08 0.19458,-0.07 0.19462,-0.08 0.1946,-0.08 0.19461,-0.08 0.19462,-0.08 0.19458,-0.08 0.19463,-0.08 0.1946,-0.09 0.19461,-0.09 0.19461,-0.09 0.1946,-0.09 0.19462,-0.09 0.19458,-0.09 0.19462,-0.09 0.19463,-0.09 0.19458,-0.09 0.19463,-0.1 0.19458,-0.1 0.19461,-0.101 0.19464,-0.101 0.19458,-0.102 0.19461,-0.105 0.19459,-0.107 0.19463,-0.107 0.19461,-0.11 0.19459,-0.113 0.19462,-0.113 0.19459,-0.115 0.19463,-0.119 0.19461,-0.12 0.19458,-0.121 0.19462,-0.125 0.1946,-0.125 0.19461,-0.129 0.19462,-0.131 0.19458,-0.133 0.19463,-0.137 0.1946,-0.139 0.19461,-0.141 0.19462,-0.143 0.1946,-0.147 0.19461,-0.151 0.19459,-0.153 0.19461,-0.155 0.19463,-0.159 0.1946,-0.163 0.19461,-0.165 0.19458,-0.17 0.19462,-0.173 0.19463,-0.177 0.19458,-0.179 0.19462,-0.184 0.19458,-0.189 0.19463,-0.193 0.19463,-0.196 0.19458,-0.201 0.19461,-0.207 0.19461,-0.212 0.19461,-0.215 0.19461,-0.222 0.19459,-0.226 0.19463,-0.233 0.19458,-0.238 0.19463,-0.242 0.19461,-0.251 0.19458,-0.258 0.19464,-0.262 0.19458,-0.272 0.19461,-0.276 0.19462,-0.286 0.1946,-0.294 0.19461,-0.302 0.19459,-0.31 0.19462,-0.32 0.19461,-0.327 0.19461,-0.338 0.19461,-0.349 0.19458,-0.36 0.19462,-0.369 0.19463,-0.384 0.19458,-0.393 0.19463,-0.407 0.19459,-0.421 0.19461,-0.437 0.19463,-0.449 0.19458,-0.467 0.19461,-0.48 0.19461,-0.501 0.19461,-0.518 0.19461,-0.538 0.19459,-0.56 0.19463,-0.58 0.19458,-0.604 0.19463,-0.628 0.1946,-0.655 0.19459,-0.681 0.19464,-0.713 0.19458,-0.743 0.19461,-0.777 0.19462,-0.812 0.1946,-0.854 0.19461,-0.892 0.1946,-0.937 0.19461,-0.985 0.19462,-1.039 0.1946,-1.092 0.19461,-1.154 0.19459,-1.218 0.19463,-1.291 0.19461,-1.37 0.1946,-1.454 0.19461,-1.547 0.19457,-1.648 0.19465,-1.766 0.19461,-1.889 0.19458,-2.028 0.19462,-2.182 0.1946,-2.358 0.19461,-2.552 0.19463,-2.776 0.19458,-3.021 0.19462,-3.311 0.1946,-3.641 0.1946,-4.021 0.19462,-4.465 0.19459,-4.983 0.19463,-5.605 0.19458,-6.347 0.19463,-7.244 0.19461,-8.351 0.19459,-9.724 0.19463,-11.473 0.19458,-13.744 0.19461,-16.765 0.19464,-20.891 0.19458,-26.735 0.19461,-35.507 0.1946,-49.33 0.19462,-73.32 0.19461,-120.307 0.1946,-233.701 0.19461,-650.953 L 97.10892,0"
       style="fill:none;stroke:#ff0000;stroke-width:0.3985;stroke-linecap:butt;stroke-linejoin:miter;stroke-miterlimit:10;stroke-dasharray:none;stroke-opacity:1"
       transform="matrix(1.3333333,0,0,-1.3333333,6.7466667,17200.48)"
       clip-path="url(#clipPath23)" />
    <path
       id="path24"
       d="m 97.15555,16323 0.19459,-2124.543 0.19463,-652.528 0.19459,-234.079 0.19462,-120.398 0.19461,-73.372 0.19459,-49.395 0.19461,-35.508 0.19461,-26.746 0.19461,-20.892 0.1946,-16.764 0.19462,-13.771 0.1946,-11.466 0.19461,-9.73 0.19461,-8.349 0.1946,-7.248 0.19461,-6.347 0.19461,-5.607 0.19461,-4.985 0.19459,-4.465 0.19461,-4.021 0.19462,-3.641 0.19459,-3.311 0.19463,-3.026 0.19459,-2.775 0.19461,-2.552 0.19461,-2.358 0.19461,-2.182 0.1946,-2.03 0.19461,-1.889 0.19461,-1.763 0.19459,-1.651 0.19463,-1.547 0.1946,-1.454 0.19459,-1.37 0.19463,-1.289 0.19459,-1.22 0.19461,-1.154 0.19461,-1.094 0.19461,-1.037 0.1946,-0.985 0.19463,-0.937 0.19459,-0.894 0.19461,-0.852 0.19461,-0.812 0.1946,-0.777 0.19462,-0.745 0.1946,-0.711 0.19461,-0.683 0.19461,-0.653 0.19461,-0.63 0.19459,-0.604 0.19462,-0.579 0.19461,-0.559 0.19459,-0.538 0.19463,-0.518 0.19459,-0.501 0.19461,-0.482 0.19461,-0.465 0.1946,-0.451 0.19461,-0.435 0.19461,-0.421 0.19461,-0.407 0.1946,-0.395 0.19462,-0.384 0.1946,-0.369 0.19461,-0.359 0.19461,-0.348 0.19459,-0.34 0.19462,-0.327 0.19461,-0.32 0.19461,-0.31 0.19459,-0.302 0.19461,-0.294 0.19461,-0.284 0.1946,-0.278 0.19463,-0.27 0.19459,-0.264 0.19461,-0.256 0.19461,-0.25 0.19461,-0.245 0.1946,-0.238 0.19462,-0.232 0.1946,-0.227 0.19459,-0.22 0.19463,-0.217 0.19459,-0.212 0.19461,-0.205 0.19462,-0.202 0.19459,-0.197 0.19461,-0.193 0.19461,-0.188 0.19461,-0.185 0.1946,-0.179 0.19462,-0.177 0.1946,-0.172 0.19461,-0.169 0.19461,-0.167 0.1946,-0.161 0.19461,-0.161 0.19461,-0.155 0.19461,-0.153 0.19459,-0.149 0.19463,-0.147 0.19458,-0.145 0.19461,-0.141 0.19464,-0.139 0.19458,-0.135 0.19463,-0.135 0.19457,-0.131 0.19463,-0.127 0.19463,-0.127 0.19458,-0.125 0.19461,-0.121 0.19459,-0.119 0.19463,-0.12 0.19461,-0.115 0.1946,-0.113 0.19461,-0.111 0.19459,-0.111 0.19462,-0.108 0.19462,-0.107 0.19458,-0.103 0.19462,-0.103 0.1946,-0.102 0.19461,-0.101 0.19463,-0.1 0.19459,-0.1 0.19461,-0.09 0.1946,-0.09 0.19461,-0.09 0.19461,-0.09 0.19461,-0.09 0.19461,-0.09 0.19458,-0.09 0.19462,-0.09 0.19463,-0.08 0.19458,-0.08 0.19463,-0.08 0.19458,-0.08 0.19461,-0.08 0.19464,-0.08 0.19458,-0.08 0.19461,-0.08 0.19461,-0.08 0.19461,-0.07 0.19461,-0.07 0.1946,-0.07 0.19461,-0.07 0.1946,-0.07 0.19462,-0.07 0.19461,-0.07 0.19458,-0.07 0.19464,-0.07 0.19458,-0.07 0.19461,-0.06 0.19463,-0.06 0.19458,-0.06 0.19462,-0.06 0.1946,-0.06 0.19461,-0.06 0.19461,-0.06 0.19461,-0.06 0.19461,-0.06 0.19458,-0.06 0.19463,-0.06 0.19461,-0.06 0.19459,-0.06 0.19463,-0.06 0.19458,-0.05 0.19461,-0.05 0.19464,-0.05 0.19458,-0.05 0.19461,-0.05 0.19461,-0.05 0.19461,-0.05 0.19463,-0.05 0.19458,-0.05 0.19461,-0.05 0.19461,-0.05 0.19461,-0.05 0.19461,-0.05 0.1946,-0.05 0.19462,-0.05 0.19458,-0.05 0.19463,-0.05 0.19461,-0.05 0.19458,-0.04 0.19464,-0.04 0.19458,-0.04 0.19461,-0.04 0.19463,-0.04 0.19459,-0.04 0.19461,-0.04 0.1946,-0.04 0.19461,-0.04 0.19461,-0.04 0.19461,-0.04 0.19461,-0.04 0.19458,-0.04 0.19464,-0.04 0.19461,-0.04 0.19458,-0.04 0.19463,-0.04 0.1946,-0.04 0.1946,-0.03 0.19463,-0.04 0.19458,-0.04 0.19462,-0.04 0.1946,-0.03 0.19461,-0.03 0.19461,-0.04 0.1946,-0.03 0.19462,-0.03 0.19458,-0.03 0.19463,-0.03 0.19461,-0.03 0.19458,-0.03 0.19464,-0.03 0.19458,-0.03 0.19461,-0.03 0.19463,-0.03 0.19459,-0.03 0.19461,-0.03 0.1946,-0.03 0.19461,-0.03 0.19462,-0.03 0.1946,-0.03 0.19461,-0.03 0.19458,-0.03 0.19464,-0.03 0.19461,-0.03 0.19458,-0.03 0.19463,-0.03 0.19458,-0.03 0.19462,-0.03 0.19463,-0.03 0.19458,-0.03 0.19461,-0.03 0.19461,-0.03 0.19461,-0.03 0.19463,-0.03 0.19458,-0.03 0.19461,-0.03 0.19461,-0.03 0.19461,-0.03 0.19461,-0.02 0.19461,-0.02 0.19461,-0.03 0.19458,-0.03 0.19463,-0.02 0.19461,-0.03 0.19459,-0.02 0.19463,-0.02 0.19458,-0.02 0.19462,-0.02 0.19463,-0.02 0.19458,-0.02 0.19461,-0.02 0.1946,-0.02 0.19462,-0.02 0.19461,-0.02 0.1946,-0.02 0.19461,-0.02 0.19458,-0.02 0.19464,-0.02 0.19461,-0.02 0.19458,-0.02 0.19463,-0.02 0.19459,-0.02 0.19461,-0.02 0.19463,-0.02 0.19458,-0.02 0.19463,-0.02 0.19459,-0.02 0.19461,-0.02 0.19461,-0.02 0.19461,-0.02 0.19461,-0.02 0.19458,-0.02 0.19463,-0.02 0.19462,-0.02 0.19458,-0.02 0.19463,-0.02 0.19458,-0.02 0.19463,-0.02 0.19462,-0.02 0.19458,-0.02 0.19462,-0.02 0.19459,-0.02 0.19462,-0.02 0.19461,-0.02 0.1946,-0.02 0.19461,-0.02 0.1946,-0.02 0.19462,-0.02 0.19461,-0.02 0.19458,-0.02 0.19463,-0.02 0.19459,-0.02 0.19461,-0.02 0.19463,-0.02 0.1946,-0.02 0.1946,-0.02 0.1946,-0.02 0.19461,-0.02 0.19463,-0.02 0.19459,-0.02 0.19461,-0.02 0.1946,-0.02 0.19461,-0.02 0.19463,-0.02 0.19459,-0.02 0.19461,-0.02 0.19458,-0.02 0.19463,-0.02 0.19462,-0.01 0.19459,-0.02 0.19462,-0.02 0.19458,-0.02 0.19462,-0.01 0.19463,-0.02 0.19458,-0.01 0.19461,-0.02 0.19461,-0.01 0.19461,-0.02 0.19461,-0.01 0.1946,-0.01 0.19463,-0.01 0.19457,-0.02 0.19463,-0.01 0.19461,-0.01 0.19459,-0.01 0.19463,-0.01 0.19458,-0.01 0.19461,-0.01 0.19464,-0.01 0.19458,-0.01 0.19461,-0.01 0.1946,-0.01 0.19461,-0.01 0.19463,-0.01 0.19459,-0.01 0.19461,-0.01 0.19458,-0.01 0.19463,-0.01 0.19462,-0.01 0.19458,-0.01 0.19463,-0.01 0.1946,-0.01 0.19461,-0.01 0.19462,-0.01 0.19458,-0.01 0.19461,-0.01 0.19461,-0.01 0.19461,-0.01 0.19461,-0.01 0.1946,-0.01 0.19462,-0.01 0.19459,-0.01 0.19462,-0.01 0.19461,-0.01 0.19458,-0.01 0.19464,-0.01 0.19458,-0.01 0.19461,-0.01 0.19463,-0.01 0.19459,-0.01 0.19462,-0.01 0.19459,-0.01 0.19461,-0.01 0.19464,-0.01 0.19459,-0.01 0.1946,-0.01 0.1946,-0.01 0.19462,-0.01 0.19462,-0.01 0.19459,-0.01 0.19461,-0.01 0.1946,-0.01 0.19462,-0.01 0.19461,-0.01 0.19458,-0.01 0.19465,-0.01 0.19457,-0.01 0.19461,-0.01 h 0.19463 l 0.19458,-0.01 0.19463,-0.01 0.19459,-0.01 0.19461,-0.01 0.19461,-0.01 0.1946,-0.01 0.19462,-0.01 0.19458,-0.01 0.19463,-0.01 0.19461,-0.01 0.1946,-0.01 0.19462,-0.01 0.19458,-0.01 h 0.19461 0.19464 l 0.19458,-0.01 0.19461,-0.01 0.19461,-0.01 0.19462,-0.01 h 0.19461 l 0.19459,-0.01 0.19461,-0.01 h 0.1946 l 0.19462,-0.01 0.19461,-0.01 h 0.19458 l 0.19464,-0.01 h 0.19459 l 0.19461,-0.01 h 0.19462 l 0.19458,-0.01 h 0.19463 l 0.19459,-0.01 h 0.19461 l 0.19461,-0.01 h 0.19461 0.19462 l 0.19458,-0.01 h 0.19462 0.19461 l 0.1946,-0.01 h 0.19462 0.19458 0.19463 l 0.19462,-0.01 h 0.19458 0.19462 0.19459 0.19463 0.19461 0.19459 0.19461 0.19461 0.19461 0.19462 0.19459 0.19461 0.1946 0.19462 0.19461 0.19458 0.19464 0.19458 0.19461 0.19463 0.1946 0.19461 0.19459 0.19461 0.19463 0.19459 0.19461 0.19459 0.19464 0.19461 0.19458 0.19462 0.19458 0.19463 0.19462 0.19458 0.19461 0.19461 0.19462 0.1946 0.1946 0.19461 0.19459 0.19463 0.19461 0.1946 0.19462 0.19458 0.19462 0.19462 0.1946 0.19461 0.19459 0.19462 0.19462 0.19459 0.19462 0.19457 0.19465 0.19461 0.19458 0.19462 0.19458 0.19463 0.19463 0.19457 0.19462 0.19461"
       style="fill:none;stroke:#ff0000;stroke-width:0.3985;stroke-linecap:butt;stroke-linejoin:miter;stroke-miterlimit:10;stroke-dasharray:none;stroke-opacity:1"
       transform="matrix(1.3333333,0,0,-1.3333333,6.7466667,17200.48)"
       clip-path="url(#clipPath25)" />
    <path
       id="path26"
       d="m 3.3294766,-3.0121797 c 0.058594,-0.2578125 0.2929687,-1.171875 0.984375,-1.171875 0.046875,0 0.2929687,0 0.5039062,0.1289063 -0.28125,0.046875 -0.4804687,0.3046875 -0.4804687,0.5390625 0,0.1640625 0.1054687,0.3515625 0.375,0.3515625 0.2226562,0 0.5390625,-0.1875 0.5390625,-0.5859375 0,-0.515625 -0.5859375,-0.65625 -0.9257813,-0.65625 -0.5742187,0 -0.9257812,0.5273437 -1.0429687,0.7617187 -0.2578125,-0.65625 -0.7851563,-0.7617187 -1.078125,-0.7617187 -1.0429688,0 -1.60546879,1.2890625 -1.60546879,1.5351562 0,0.1054688 0.10546875,0.1054688 0.1171875,0.1054688 0.0820313,0 0.1171875,-0.023437 0.12890625,-0.1171875 0.33984374,-1.0546875 0.99609374,-1.3007813 1.33593754,-1.3007813 0.1875,0 0.5390625,0.09375 0.5390625,0.6679688 0,0.3046875 -0.1640625,0.9726562 -0.5390625,2.3671875 -0.1523438,0.62109371 -0.5039063,1.04296871 -0.9492188,1.04296871 -0.058594,0 -0.28124999,0 -0.49218749,-0.12890625 0.24609375,-0.0585938 0.46874999,-0.26953125 0.46874999,-0.5390625 0,-0.26953126 -0.22265624,-0.35156246 -0.37499999,-0.35156246 -0.29296875,0 -0.5390625,0.25781246 -0.5390625,0.57421871 0,0.45703125 0.4921875,0.65625 0.93749999,0.65625 0.65625,0 1.0078125,-0.69140625 1.0429688,-0.75 0.1171875,0.36328125 0.4804687,0.75 1.078125,0.75 1.0195312,0 1.59375,-1.27734371 1.59375,-1.53515621 0,-0.09375 -0.09375,-0.09375 -0.1289063,-0.09375 -0.082031,0 -0.1054687,0.035156 -0.1289062,0.1054687 -0.328125,1.06640626 -0.9960938,1.31250001 -1.3242188,1.31250001 -0.3867187,0 -0.5390625,-0.328125 -0.5390625,-0.65625 0,-0.22265625 0.058594,-0.44531251 0.1640625,-0.87890621 z m 0,0"
       style="fill:#000000;fill-opacity:1;fill-rule:nonzero;stroke:none"
       aria-label="x"
       transform="matrix(1.3333333,0,0,1.3333333,253.47867,108.13733)" />
    <path
       id="path27"
       d="m 2.3317188,-4.4302109 c 0,-0.1875 -0.011719,-0.1992188 -0.2109375,-0.1992188 -0.4453125,0.4335938 -1.078125,0.4453125 -1.35937505,0.4453125 v 0.2460938 c 0.1640625,0 0.62109375,0 1.00781255,-0.1875 v 3.55078121 c 0,0.234375 0,0.328125 -0.6914063,0.328125 H 0.80828125 V -5.234375e-4 C 0.9371875,-0.01224219 1.7926563,-0.02396094 2.0504688,-0.02396094 c 0.2109375,0 1.0898437,0.01171875 1.2421875,0.0234375025 V -0.24661719 H 3.0348438 c -0.703125,0 -0.703125,-0.09375 -0.703125,-0.328125 z m 0,0"
       style="fill:#000000;fill-opacity:1;fill-rule:nonzero;stroke:none"
       aria-label="1"
       transform="matrix(1.3333333,0,0,1.3333333,142.90667,15.918667)" />
    <path
       id="path28"
       d="M 0,0 H 4.518"
       style="fill:none;stroke:#000000;stroke-width:0.398;stroke-linecap:butt;stroke-linejoin:miter;stroke-miterlimit:10;stroke-dasharray:none;stroke-opacity:1"
       transform="matrix(1.3333333,0,0,-1.3333333,142.54267,17.828)" />
    <path
       id="path29"
       d="m 1.7346016,-0.73842969 c -0.070312,0.234375 -0.2929688,0.609375 -0.65625,0.609375 -0.023437,0 -0.22265629,0 -0.37500004,-0.09375 0.28125,-0.09375 0.30468754,-0.33984375 0.30468754,-0.38671875 0,-0.15234375 -0.11718754,-0.2578125 -0.28125004,-0.2578125 -0.1875,0 -0.38671875,0.1640625 -0.38671875,0.43359375 0,0.33984375 0.38671875,0.50390625 0.72656249,0.50390625 0.3164063,0 0.609375,-0.19921875 0.7851563,-0.4921875 0.1640625,0.36328125 0.5507812,0.4921875 0.8203125,0.4921875 0.8085937,0 1.2304687,-0.8671875 1.2304687,-1.06640625 0,-0.09375 -0.09375,-0.09375 -0.1054687,-0.09375 -0.1054688,0 -0.1054688,0.035156 -0.140625,0.11718752 -0.140625,0.48046875 -0.5625,0.84375 -0.9492188,0.84375 -0.28125,0 -0.421875,-0.1875 -0.421875,-0.4453125 0,-0.1875 0.1640625,-0.82031252 0.3632813,-1.59375002 0.1289062,-0.5390625 0.4453125,-0.7148437 0.6796875,-0.7148437 0.011719,0 0.2226562,0 0.375,0.1054687 -0.2226563,0.058594 -0.3046875,0.2578125 -0.3046875,0.375 0,0.1523438 0.1171875,0.2578125 0.28125,0.2578125 0.1523437,0 0.3867187,-0.1289062 0.3867187,-0.421875 0,-0.3867187 -0.4453125,-0.5039062 -0.7265625,-0.5039062 -0.3515625,0 -0.6328125,0.2226562 -0.7851562,0.4921875 -0.1171875,-0.2929688 -0.4453125,-0.4921875 -0.8320313,-0.4921875 -0.78515624,0 -1.23046874,0.8554687 -1.23046874,1.0664062 0,0.082031 0.10546875,0.082031 0.1171875,0.082031 0.09375,0 0.10546875,-0.023437 0.140625,-0.1171875 0.17578125,-0.5390625 0.60937504,-0.84375 0.94921874,-0.84375 0.234375,0 0.421875,0.1289062 0.421875,0.46875 0,0.1289062 -0.082031,0.4804687 -0.1523437,0.7148437 z m 0,0"
       style="fill:#000000;fill-opacity:1;fill-rule:nonzero;stroke:none"
       aria-label="x"
       transform="matrix(1.3333333,0,0,1.3333333,142.54267,25.730667)" />
  </g>
</svg>
