<?xml version="1.0" encoding="UTF-8" standalone="no"?>
<!-- Created with Inkscape (http://www.inkscape.org/) -->

<svg
   version="1.1"
   id="svg1"
   width="267.34534"
   height="236"
   viewBox="0 0 267.34534 236"
   xmlns="http://www.w3.org/2000/svg"
   xmlns:svg="http://www.w3.org/2000/svg">
  <defs
     id="defs1">
    <clipPath
       clipPathUnits="userSpaceOnUse"
       id="clipPath20">
      <path
         d="M 0,0 H 194.26486 V 161.37042 H 0 Z"
         id="path20" />
    </clipPath>
    <clipPath
       clipPathUnits="userSpaceOnUse"
       id="clipPath22">
      <path
         d="M 0,0 H 194.26486 V 161.37042 H 0 Z"
         id="path22" />
    </clipPath>
  </defs>
  <g
     id="g1">
    <path
       id="path1"
       d="m 4.62535,-1.34155 v 3.83301 m 46.25354,-3.83301 v 3.83301 m 92.50708,-3.83301 v 3.83301 m 46.25354,-3.83301 v 3.83301"
       style="fill:none;stroke:#808080;stroke-width:0.19925;stroke-linecap:butt;stroke-linejoin:miter;stroke-miterlimit:10;stroke-dasharray:none;stroke-opacity:1"
       transform="matrix(1.3333333,0,0,-1.3333333,6.7466667,215.424)" />
    <path
       id="path2"
       d="m 95.00645,25.68127 h 4.25193 M 95.00645,50.7876 h 4.25193 m -4.25193,25.10632 h 4.25193 m -4.25193,25.10632 h 4.25193 m -4.25193,25.10634 h 4.25193 m -4.25193,25.10632 h 4.25193"
       style="fill:none;stroke:#808080;stroke-width:0.19925;stroke-linecap:butt;stroke-linejoin:miter;stroke-miterlimit:10;stroke-dasharray:none;stroke-opacity:1"
       transform="matrix(1.3333333,0,0,-1.3333333,6.7466667,215.424)" />
    <path
       id="path3"
       d="M 0,0.57495 H 192.27234"
       style="fill:none;stroke:#000000;stroke-width:0.3985;stroke-linecap:butt;stroke-linejoin:miter;stroke-miterlimit:10;stroke-dasharray:none;stroke-opacity:1"
       transform="matrix(1.3333333,0,0,-1.3333333,6.7466667,215.424)" />
    <path
       id="path4"
       d="M 1.99252,0 -1.19551,1.59401 0,0 -1.19551,-1.59401"
       style="fill:#000000;fill-opacity:1;fill-rule:nonzero;stroke:none"
       transform="matrix(1.3333333,0,0,-1.3333333,263.10979,214.6574)" />
    <path
       id="path5"
       d="M 97.13243,0 V 159.3779"
       style="fill:none;stroke:#000000;stroke-width:0.3985;stroke-linecap:butt;stroke-linejoin:miter;stroke-miterlimit:10;stroke-dasharray:none;stroke-opacity:1"
       transform="matrix(1.3333333,0,0,-1.3333333,6.7466667,215.424)" />
    <path
       id="path6"
       d="M 1.99252,0 -1.19551,1.59401 0,0 -1.19551,-1.59401"
       style="fill:#000000;fill-opacity:1;fill-rule:nonzero;stroke:none"
       transform="matrix(0,-1.3333333,-1.3333333,0,136.25657,2.9201333)" />
    <g
       id="g6"
       aria-label="−4"
       transform="matrix(1.3333333,0,0,1.3333333,4.428,230.46533)">
      <path
         id="path7"
         d="m 6.5637656,-2.2972422 c 0.1757813,0 0.3515625,0 0.3515625,-0.1992187 0,-0.1992188 -0.1757812,-0.1992188 -0.3515625,-0.1992188 h -5.390625 c -0.1640625,0 -0.33984372,0 -0.33984372,0.1992188 0,0.1992187 0.17578122,0.1992187 0.33984372,0.1992187 z m 0,0"
         style="fill:#000000;fill-opacity:1;fill-rule:nonzero;stroke:none" />
      <path
         id="path8"
         d="m 10.679977,-1.6409922 v 0.86718751 c 0,0.3515625 -0.02344,0.46875 -0.7617192,0.46875 H 9.7073203 V -3.671875e-4 C 10.117477,-0.03552344 10.64482,-0.03552344 11.054977,-0.03552344 c 0.421875,0 0.949218,0 1.359375,0.0351562525 V -0.30505469 h -0.210938 c -0.738281,0 -0.761719,-0.1171875 -0.761719,-0.46875 V -1.6409922 h 0.996094 v -0.3164062 h -0.996094 v -4.5234375 c 0,-0.1992188 0,-0.2578125 -0.152343,-0.2578125 -0.09375,0 -0.117188,0 -0.199219,0.1171875 l -3.0585939,4.6640625 v 0.3164062 z m 0.05859,-0.3164062 H 8.3127891 L 10.73857,-5.6722422 Z m 0,0"
         style="fill:#000000;fill-opacity:1;fill-rule:nonzero;stroke:none" />
    </g>
    <g
       id="g8"
       aria-label="−2"
       transform="matrix(1.3333333,0,0,1.3333333,66.097333,230.46533)">
      <path
         id="path9"
         d="m 6.5627422,-2.2972422 c 0.1757812,0 0.3515625,0 0.3515625,-0.1992187 0,-0.1992188 -0.1757813,-0.1992188 -0.3515625,-0.1992188 h -5.390625 c -0.1640625,0 -0.33984376,0 -0.33984376,0.1992188 0,0.1992187 0.17578126,0.1992187 0.33984376,0.1992187 z m 0,0"
         style="fill:#000000;fill-opacity:1;fill-rule:nonzero;stroke:none" />
      <path
         id="path10"
         d="M 9.0148906,-0.76208594 10.069578,-1.7933359 c 1.558594,-1.3710938 2.15625,-1.9101563 2.15625,-2.90625 0,-1.1367188 -0.902344,-1.9335938 -2.121094,-1.9335938 -1.1249996,0 -1.8515621,0.9140625 -1.8515621,1.8046875 0,0.5507813 0.4921875,0.5507813 0.5273437,0.5507813 0.1640625,0 0.515625,-0.1171875 0.515625,-0.5273438 0,-0.2578125 -0.1875,-0.515625 -0.5273437,-0.515625 -0.082031,0 -0.1054688,0 -0.1289063,0.011719 0.2226563,-0.6445313 0.7617188,-1.0195313 1.3359375,-1.0195313 0.9140629,0 1.3359379,0.8085938 1.3359379,1.6289063 0,0.796875 -0.492188,1.5820312 -1.042969,2.203125 L 8.3586406,-0.36364844 C 8.2531719,-0.25817969 8.2531719,-0.23474219 8.2531719,-3.671875e-4 H 11.944578 L 12.225828,-1.7347422 h -0.257812 c -0.04687,0.3046875 -0.117188,0.73828126 -0.210938,0.89062501 -0.07031,0.0820313 -0.726562,0.0820313 -0.949219,0.0820313 z m 0,0"
         style="fill:#000000;fill-opacity:1;fill-rule:nonzero;stroke:none" />
    </g>
    <path
       id="path11"
       d="M 1.2657266,-0.76208594 2.3204141,-1.7933359 c 1.5585937,-1.3710938 2.15625,-1.9101563 2.15625,-2.90625 0,-1.1367188 -0.9023438,-1.9335938 -2.1210938,-1.9335938 -1.125,0 -1.85156249,0.9140625 -1.85156249,1.8046875 0,0.5507813 0.4921875,0.5507813 0.52734379,0.5507813 0.1640625,0 0.515625,-0.1171875 0.515625,-0.5273438 0,-0.2578125 -0.1875,-0.515625 -0.5273438,-0.515625 -0.0820312,0 -0.10546874,0 -0.12890624,0.011719 C 1.1133828,-5.953492 1.6524453,-6.328492 2.2266641,-6.328492 c 0.9140625,0 1.3359375,0.8085938 1.3359375,1.6289063 0,0.796875 -0.4921875,1.5820312 -1.0429688,2.203125 L 0.60947656,-0.36364844 C 0.50400781,-0.25817969 0.50400781,-0.23474219 0.50400781,-3.671875e-4 H 4.1954141 L 4.4766641,-1.7347422 H 4.2188516 c -0.046875,0.3046875 -0.1171875,0.73828126 -0.2109375,0.89062501 -0.070312,0.0820313 -0.7265625,0.0820313 -0.9492188,0.0820313 z m 0,0"
       style="fill:#000000;fill-opacity:1;fill-rule:nonzero;stroke:none"
       aria-label="2"
       transform="matrix(1.3333333,0,0,1.3333333,194.60533,230.46533)" />
    <path
       id="path12"
       d="m 2.9306953,-1.6409922 v 0.86718751 c 0,0.3515625 -0.023437,0.46875 -0.7617187,0.46875 H 1.9580391 V -3.671875e-4 C 2.3681953,-0.03552344 2.8955391,-0.03552344 3.3056953,-0.03552344 c 0.421875,0 0.9492188,0 1.359375,0.0351562525 V -0.30505469 H 4.4541328 c -0.7382812,0 -0.7617187,-0.1171875 -0.7617187,-0.46875 V -1.6409922 H 4.6885078 V -1.9573984 H 3.6924141 v -4.5234375 c 0,-0.1992188 0,-0.2578125 -0.1523438,-0.2578125 -0.09375,0 -0.1171875,0 -0.1992187,0.1171875 l -3.05859379,4.6640625 v 0.3164062 z m 0.058594,-0.3164062 H 0.56350781 L 2.9892891,-5.6722422 Z m 0,0"
       style="fill:#000000;fill-opacity:1;fill-rule:nonzero;stroke:none"
       aria-label="4"
       transform="matrix(1.3333333,0,0,1.3333333,256.276,230.46533)" />
    <path
       id="path13"
       d="M 1.2666094,-0.76301563 2.3212969,-1.7942656 c 1.5585937,-1.3710938 2.15625,-1.9101563 2.15625,-2.90625 0,-1.1367188 -0.9023438,-1.9335938 -2.1210938,-1.9335938 -1.125,0 -1.85156247,0.9140625 -1.85156247,1.8046875 0,0.5507813 0.4921875,0.5507813 0.52734377,0.5507813 0.1640625,0 0.515625,-0.1171875 0.515625,-0.5273438 0,-0.2578125 -0.1875,-0.515625 -0.5273438,-0.515625 -0.0820312,0 -0.10546872,0 -0.12890622,0.011719 0.22265622,-0.6445313 0.76171872,-1.0195313 1.33593752,-1.0195313 0.9140625,0 1.3359375,0.8085938 1.3359375,1.6289063 0,0.796875 -0.4921875,1.5820312 -1.0429688,2.203125 L 0.61035938,-0.36457813 C 0.50489063,-0.25910938 0.50489063,-0.23567188 0.50489063,-0.00129688 H 4.1962969 l 0.28125,-1.73437502 H 4.2197344 c -0.046875,0.3046875 -0.1171875,0.73828127 -0.2109375,0.89062502 -0.070312,0.0820313 -0.7265625,0.0820313 -0.9492188,0.0820313 z m 8.296875,-2.42578127 c 0,-0.796875 -0.046875,-1.59375 -0.3984375,-2.3320312 -0.4570313,-0.9609375 -1.2773438,-1.1132813 -1.6875,-1.1132813 -0.5976563,0 -1.3359375,0.2578125 -1.734375,1.1835938 -0.328125,0.6914062 -0.375,1.4648437 -0.375,2.2617187 0,0.75 0.046875,1.640625 0.4453125,2.40234377 0.4335937,0.80859375 1.1601562,1.0078125 1.6523437,1.0078125 0.5390625,0 1.2890625,-0.2109375 1.734375,-1.16015625 C 9.5166094,-1.6302031 9.5634844,-2.4036406 9.5634844,-3.1887969 Z m -2.0976563,3.18750002 c -0.3867187,0 -0.984375,-0.24609375 -1.1601562,-1.20703122 -0.1054688,-0.5976563 -0.1054688,-1.5117188 -0.1054688,-2.0976563 0,-0.6445312 0,-1.3007812 0.082031,-1.8398437 0.1875,-1.1835938 0.9257812,-1.265625 1.1835937,-1.265625 0.328125,0 0.984375,0.1757812 1.171875,1.1601562 0.09375,0.5625 0.09375,1.3125 0.09375,1.9453125 0,0.75 0,1.4179688 -0.1054687,2.0625 -0.1523438,0.93750002 -0.7148438,1.24218752 -1.160156,1.24218752 z m 0,0"
       style="fill:#000000;fill-opacity:1;fill-rule:nonzero;stroke:none"
       aria-label="20"
       transform="matrix(1.3333333,0,0,1.3333333,115.444,185.46267)" />
    <path
       id="path14"
       d="m 2.9306719,-1.6404141 v 0.86718754 c 0,0.3515625 -0.023437,0.46875 -0.7617188,0.46875 H 1.9580156 V 2.109375e-4 C 2.3681719,-0.03494531 2.8955156,-0.03494531 3.3056719,-0.03494531 c 0.421875,0 0.9492187,0 1.359375,0.0351562475 V -0.30447656 H 4.4541094 c -0.7382813,0 -0.7617188,-0.1171875 -0.7617188,-0.46875 V -1.6404141 H 4.6884844 V -1.9568203 H 3.6923906 v -4.5234375 c 0,-0.1992188 0,-0.2578125 -0.1523437,-0.2578125 -0.09375,0 -0.1171875,0 -0.1992188,0.1171875 l -3.05859372,4.6640625 v 0.3164062 z m 0.058594,-0.3164062 H 0.56348438 L 2.9892656,-5.6716641 Z m 6.5742188,-1.2304688 c 0,-0.796875 -0.046875,-1.59375 -0.3984375,-2.3320312 -0.4570313,-0.9609375 -1.2773438,-1.1132813 -1.6875,-1.1132813 -0.5976563,0 -1.3359375,0.2578125 -1.734375,1.1835938 -0.328125,0.6914062 -0.375,1.4648437 -0.375,2.2617187 0,0.75 0.046875,1.640625 0.4453125,2.40234379 0.4335937,0.80859375 1.1601562,1.0078125 1.6523437,1.0078125 0.5390625,0 1.2890625,-0.2109375 1.734375,-1.16015625 0.316406,-0.69140624 0.363281,-1.46484374 0.3632813,-2.25000004 z M 7.4658281,2.109375e-4 c -0.3867187,0 -0.984375,-0.2460937475 -1.1601562,-1.2070312375 -0.1054688,-0.5976563 -0.1054688,-1.5117188 -0.1054688,-2.0976563 0,-0.6445312 0,-1.3007812 0.082031,-1.8398437 0.1875,-1.1835938 0.9257812,-1.265625 1.1835937,-1.265625 0.328125,0 0.984375,0.1757812 1.171875,1.1601562 0.09375,0.5625 0.09375,1.3125 0.09375,1.9453125 0,0.75 0,1.4179688 -0.1054687,2.0625 C 8.4736406,-0.30447656 7.9111406,2.109375e-4 7.4658281,2.109375e-4 Z m 0,0"
       style="fill:#000000;fill-opacity:1;fill-rule:nonzero;stroke:none"
       aria-label="40"
       transform="matrix(1.3333333,0,0,1.3333333,115.444,151.988)" />
    <path
       id="path15"
       d="m 1.3134844,-3.2707422 v -0.234375 c 0,-2.5195312 1.2421875,-2.8828125 1.7460937,-2.8828125 0.234375,0 0.65625,0.058594 0.8789063,0.3984375 -0.1523438,0 -0.5507813,0 -0.5507813,0.4453125 0,0.3164063 0.234375,0.4570313 0.4570313,0.4570313 0.1640625,0 0.4570312,-0.082031 0.4570312,-0.46875 0,-0.5976563 -0.4335937,-1.078125 -1.265625,-1.078125 -1.2773437,0 -2.61328122,1.2890625 -2.61328122,3.4804687 0,2.66015626 1.14843752,3.37500001 2.07421872,3.37500001 1.1132813,0 2.0507813,-0.9375 2.0507813,-2.25000001 0,-1.265625 -0.8789063,-2.2265625 -1.9921875,-2.2265625 -0.6679688,0 -1.0429688,0.5039063 -1.2421875,0.984375 z m 1.1835937,3.21093751 c -0.6210937,0 -0.9257812,-0.59765625 -0.984375,-0.75 C 1.3369219,-1.2785547 1.3369219,-2.0754297 1.3369219,-2.2512109 c 0,-0.7734375 0.3164062,-1.7695313 1.21875,-1.7695313 0.1523437,0 0.609375,0 0.9257812,0.609375 0.1757813,0.375 0.1757813,0.8789063 0.1757813,1.3710938 0,0.4804687 0,0.9726562 -0.1640625,1.33593746 -0.3046875,0.59765625 -0.7617188,0.64453125 -0.9960938,0.64453125 z M 9.5634844,-3.1887109 c 0,-0.796875 -0.046875,-1.59375 -0.3984375,-2.3320313 -0.4570313,-0.9609375 -1.2773438,-1.1132812 -1.6875,-1.1132812 -0.5976563,0 -1.3359375,0.2578125 -1.734375,1.1835937 -0.328125,0.6914063 -0.375,1.4648438 -0.375,2.2617188 0,0.75 0.046875,1.640625 0.4453125,2.40234371 0.4335937,0.80859375 1.1601562,1.0078125 1.6523437,1.0078125 0.5390625,0 1.2890625,-0.2109375 1.734375,-1.16015625 C 9.5166094,-1.6301172 9.5634844,-2.4035547 9.5634844,-3.1887109 Z m -2.0976563,3.18749996 c -0.3867187,0 -0.984375,-0.24609375 -1.1601562,-1.20703126 -0.1054688,-0.5976562 -0.1054688,-1.5117187 -0.1054688,-2.0976562 0,-0.6445313 0,-1.3007813 0.082031,-1.8398438 0.1875,-1.1835937 0.9257812,-1.265625 1.1835937,-1.265625 0.328125,0 0.984375,0.1757813 1.171875,1.1601563 0.09375,0.5625 0.09375,1.3125 0.09375,1.9453125 0,0.75 0,1.4179687 -0.1054687,2.0625 -0.1523438,0.93749996 -0.7148438,1.24218746 -1.160156,1.24218746 z m 0,0"
       style="fill:#000000;fill-opacity:1;fill-rule:nonzero;stroke:none"
       aria-label="60"
       transform="matrix(1.3333333,0,0,1.3333333,115.444,118.51333)" />
    <path
       id="path16"
       d="m 1.6298906,-4.5465781 c -0.46875,-0.3046875 -0.5039062,-0.6445313 -0.5039062,-0.8085938 0,-0.609375 0.6445312,-1.03125 1.359375,-1.03125 0.7265625,0 1.359375,0.515625 1.359375,1.2421875 0,0.5625 -0.3867188,1.0429688 -0.984375,1.3945313 z m 1.453125,0.9375 c 0.7148438,-0.3632813 1.2070313,-0.8789063 1.2070313,-1.5351563 0,-0.9257812 -0.890625,-1.4882812 -1.7929688,-1.4882812 -0.9960937,0 -1.80468747,0.7382812 -1.80468747,1.6640625 0,0.1757812 0.0117188,0.6210937 0.43359377,1.0898437 0.1054687,0.1289063 0.4804687,0.375 0.7265625,0.5390625 -0.5742188,0.2929688 -1.42968752,0.84375 -1.42968752,1.8398438 0,1.05468747 1.00781252,1.72265622 2.06250002,1.72265622 1.125,0 2.0625,-0.83203125 2.0625,-1.89843752 0,-0.3515625 -0.1054688,-0.8085937 -0.4804688,-1.21875 -0.1875,-0.2109375 -0.3515625,-0.3164062 -0.984375,-0.7148437 z m -0.9960937,0.421875 1.21875,0.7734375 c 0.28125,0.1875 0.75,0.4921875 0.75,1.1015625 0,0.73828122 -0.75,1.25390622 -1.5585938,1.25390622 -0.8671875,0 -1.58203122,-0.62109375 -1.58203122,-1.44140622 0,-0.5859375 0.31640622,-1.21875 1.17187502,-1.6875 z m 7.4765625,0 c 0,-0.796875 -0.046875,-1.59375 -0.3984375,-2.3320313 -0.4570313,-0.9609375 -1.2773438,-1.1132812 -1.6875,-1.1132812 -0.5976563,0 -1.3359375,0.2578125 -1.734375,1.1835937 -0.328125,0.6914063 -0.375,1.4648438 -0.375,2.2617188 0,0.75 0.046875,1.640625 0.4453125,2.40234372 0.4335937,0.80859375 1.1601562,1.0078125 1.6523437,1.0078125 0.5390625,0 1.2890625,-0.2109375 1.734375,-1.16015625 C 9.5166094,-1.6286094 9.5634844,-2.4020469 9.5634844,-3.1872031 Z M 7.4658281,2.96875e-4 c -0.3867187,0 -0.984375,-0.246093755 -1.1601562,-1.207031275 -0.1054688,-0.5976562 -0.1054688,-1.5117187 -0.1054688,-2.0976562 0,-0.6445313 0,-1.3007813 0.082031,-1.8398438 0.1875,-1.1835937 0.9257812,-1.265625 1.1835937,-1.265625 0.328125,0 0.984375,0.1757813 1.171875,1.1601563 0.09375,0.5625 0.09375,1.3125 0.09375,1.9453125 0,0.75 0,1.4179687 -0.1054687,2.0625 C 8.4736406,-0.30439063 7.9111406,2.96875e-4 7.4658281,2.96875e-4 Z m 0,0"
       style="fill:#000000;fill-opacity:1;fill-rule:nonzero;stroke:none"
       aria-label="80"
       transform="matrix(1.3333333,0,0,1.3333333,115.444,85.038667)" />
    <path
       id="path17"
       d="m 2.9282734,-6.376125 c 0,-0.234375 0,-0.2578125 -0.234375,-0.2578125 -0.609375,0.6328125 -1.4882812,0.6328125 -1.80468746,0.6328125 v 0.3164062 c 0.19921876,0 0.78515626,0 1.30078126,-0.2578125 v 5.15625005 c 0,0.3515625 -0.035156,0.48046875 -0.9257813,0.48046875 H 0.94780469 V -0.001125 C 1.2993672,-0.03628125 2.1548359,-0.03628125 2.5532734,-0.03628125 c 0.3984375,0 1.265625,0 1.6171875,0.03515625 V -0.3058125 H 3.8540547 c -0.9023438,0 -0.9257813,-0.1171875 -0.9257813,-0.48046875 z m 6.6357422,3.1875 c 0,-0.796875 -0.046875,-1.59375 -0.3984375,-2.3320313 -0.4570312,-0.9609375 -1.2773437,-1.1132812 -1.6875,-1.1132812 -0.5976562,0 -1.3359375,0.2578125 -1.734375,1.1835937 -0.328125,0.6914063 -0.375,1.4648438 -0.375,2.2617188 0,0.75 0.046875,1.640625 0.4453125,2.40234375 0.4335938,0.80859375 1.1601563,1.0078125 1.6523438,1.0078125 0.5390625,0 1.2890625,-0.2109375 1.734375,-1.16015625 0.3164062,-0.6914063 0.3632812,-1.4648438 0.3632812,-2.25 z m -2.0976562,3.1875 c -0.3867188,0 -0.984375,-0.24609375 -1.1601563,-1.2070313 -0.1054687,-0.5976562 -0.1054687,-1.5117187 -0.1054687,-2.0976562 0,-0.6445313 0,-1.3007813 0.082031,-1.8398438 0.1875,-1.1835937 0.9257813,-1.265625 1.1835938,-1.265625 0.328125,0 0.984375,0.1757813 1.171875,1.1601563 0.09375,0.5625 0.09375,1.3125 0.09375,1.9453125 0,0.75 0,1.4179687 -0.1054688,2.0625 -0.1523437,0.9375 -0.7148437,1.2421875 -1.160156,1.2421875 z m 7.0781246,-3.1875 c 0,-0.796875 -0.04687,-1.59375 -0.398437,-2.3320313 -0.457031,-0.9609375 -1.277344,-1.1132812 -1.6875,-1.1132812 -0.597656,0 -1.335938,0.2578125 -1.734375,1.1835937 -0.328125,0.6914063 -0.375,1.4648438 -0.375,2.2617188 0,0.75 0.04687,1.640625 0.445312,2.40234375 0.433594,0.80859375 1.160157,1.0078125 1.652344,1.0078125 0.539063,0 1.289063,-0.2109375 1.734375,-1.16015625 0.316406,-0.6914063 0.363281,-1.4648438 0.363281,-2.25 z m -2.097656,3.1875 c -0.386719,0 -0.984375,-0.24609375 -1.160156,-1.2070313 -0.105469,-0.5976562 -0.105469,-1.5117187 -0.105469,-2.0976562 0,-0.6445313 0,-1.3007813 0.08203,-1.8398438 0.1875,-1.1835937 0.925782,-1.265625 1.183594,-1.265625 0.328125,0 0.984375,0.1757813 1.171875,1.1601563 0.09375,0.5625 0.09375,1.3125 0.09375,1.9453125 0,0.75 0,1.4179687 -0.105469,2.0625 -0.152343,0.9375 -0.714843,1.2421875 -1.160156,1.2421875 z m 0,0"
       style="fill:#000000;fill-opacity:1;fill-rule:nonzero;stroke:none"
       aria-label="100"
       transform="matrix(1.3333333,0,0,1.3333333,108.80267,51.564)" />
    <path
       id="path18"
       d="m 2.9282734,-6.3746172 c 0,-0.234375 0,-0.2578125 -0.234375,-0.2578125 -0.609375,0.6328125 -1.4882812,0.6328125 -1.80468746,0.6328125 v 0.3164063 c 0.19921876,0 0.78515626,0 1.30078126,-0.2578125 v 5.15624996 c 0,0.3515625 -0.035156,0.48046875 -0.9257813,0.48046875 H 0.94780469 V 3.828125e-4 C 1.2993672,-0.03477344 2.1548359,-0.03477344 2.5532734,-0.03477344 c 0.3984375,0 1.265625,0 1.6171875,0.0351562525 V -0.30430469 H 3.8540547 c -0.9023438,0 -0.9257813,-0.1171875 -0.9257813,-0.48046875 z m 3.319336,5.61328126 1.0546875,-1.03124996 c 1.5585937,-1.3710938 2.15625,-1.9101563 2.15625,-2.90625 0,-1.1367188 -0.9023438,-1.9335938 -2.1210938,-1.9335938 -1.125,0 -1.8515625,0.9140625 -1.8515625,1.8046875 0,0.5507813 0.4921875,0.5507813 0.5273438,0.5507813 0.1640625,0 0.515625,-0.1171875 0.515625,-0.5273438 0,-0.2578125 -0.1875,-0.515625 -0.5273438,-0.515625 -0.082031,0 -0.1054687,0 -0.1289062,0.011719 0.2226562,-0.6445313 0.7617187,-1.0195313 1.3359375,-1.0195313 0.9140625,0 1.3359375,0.8085938 1.3359375,1.6289063 0,0.796875 -0.4921875,1.5820312 -1.0429688,2.203125 L 5.5913594,-0.36289844 C 5.4858906,-0.25742969 5.4858906,-0.23399219 5.4858906,3.828125e-4 H 9.1772969 L 9.4585469,-1.7339922 H 9.2007344 c -0.046875,0.3046875 -0.1171875,0.73828126 -0.2109375,0.89062501 -0.070312,0.0820313 -0.7265625,0.0820313 -0.9492188,0.0820313 z M 14.544484,-3.1871172 c 0,-0.796875 -0.04687,-1.59375 -0.398437,-2.3320312 -0.457031,-0.9609375 -1.277344,-1.1132813 -1.6875,-1.1132813 -0.597656,0 -1.335938,0.2578125 -1.734375,1.1835938 -0.328125,0.6914062 -0.375,1.4648437 -0.375,2.2617187 0,0.75 0.04687,1.640625 0.445312,2.40234376 0.433594,0.80859375 1.160157,1.0078125 1.652344,1.0078125 0.539063,0 1.289063,-0.2109375 1.734375,-1.16015625 0.316406,-0.69140621 0.363281,-1.46484371 0.363281,-2.25000001 z M 12.446828,3.828125e-4 c -0.386719,0 -0.984375,-0.2460937525 -1.160156,-1.2070312125 -0.105469,-0.5976563 -0.105469,-1.5117188 -0.105469,-2.0976563 0,-0.6445312 0,-1.3007812 0.08203,-1.8398437 0.1875,-1.1835938 0.925782,-1.265625 1.183594,-1.265625 0.328125,0 0.984375,0.1757812 1.171875,1.1601562 0.09375,0.5625 0.09375,1.3125 0.09375,1.9453125 0,0.75 0,1.4179688 -0.105469,2.0625 C 13.45464,-0.30430469 12.89214,3.828125e-4 12.446827,3.828125e-4 Z m 0,0"
       style="fill:#000000;fill-opacity:1;fill-rule:nonzero;stroke:none"
       aria-label="120"
       transform="matrix(1.3333333,0,0,1.3333333,108.80267,18.089333)" />
    <path
       id="path19"
       d="m 0,0.57495 h 0.1946 0.19459 0.19463 0.19459 0.19461 0.19461 0.1946 0.19461 0.19461 0.19461 0.1946 0.19462 0.1946 0.19461 0.19461 0.1946 0.1946 0.19461 0.19462 0.19459 0.19461 0.19461 0.1946 0.19462 0.1946 0.19461 0.19461 0.19461 0.1946 0.19461 0.1946 0.1946 0.19463 0.19459 0.19461 0.19461 0.1946 0.19461 0.19461 0.19461 0.1946 0.19463 0.19459 0.19461 0.19461 0.19459 0.19461 0.19462 0.19461 0.19459 0.19461 0.19461 0.1946 0.19462 0.1946 0.19461 0.19461 0.19461 0.1946 0.1946 0.19462 0.19459 0.19463 0.19459 0.19461 0.19462 0.19461 0.19461 l 0.19459,0.19165 h 0.19461 0.19462 0.1946 0.1946 0.19462 0.1946 0.1946 0.19462 0.1946 0.19461 0.19461 0.19461 0.19459 0.19463 0.19459 0.1946 0.19462 0.1946 0.19461 0.19461 0.1946 0.19461 0.19461 0.19461 0.1946 0.19462 0.1946 0.19461 0.19461 0.19459 0.19462 0.19462 0.19458 0.19463 0.19459 0.19461 0.19461 0.1946 0.19462 0.19458 0.19463 0.19461 0.19459 0.19463 0.19458 0.19461 0.19464 0.19458 0.19461 0.1946 0.19462 0.19461 0.1946 0.19461 0.1946 0.19462 0.19462 0.19457 0.19463 0.1946 0.1946 0.19463 0.1946 0.19462 0.19458 0.19461 0.19463 0.19459 0.19461 0.1946 0.19461 0.19462 0.1946 0.19461 0.19458 0.19463 0.19462 0.19458 0.19463 0.19458 0.19463 0.19462 0.19458 0.19461 0.19461 0.19462 0.1946 0.1946 0.19462 0.19458 0.19463 0.19461 0.19458 0.19464 0.19458 0.19461 0.19463 0.19459 0.19461 0.1946 0.19461 0.19463 0.19459 0.19461 0.19458 0.19463 0.19462 0.19458 0.19463 0.1946 0.19461 0.19462 0.19458 0.19461 0.19462 0.1946 0.19461 0.1946 0.19463 0.19458 0.19462 0.19461 0.19458 0.19464 0.19458 0.19461 0.19463 0.1946 0.19462 0.19458 0.19461 0.19464 0.19458 0.19461 0.1946 0.19462 0.19462 0.19459 0.19461 0.1946 0.19463 0.1946 0.19458 0.19464 0.19458 0.19462 0.19462 0.19458 0.19463 0.19459 0.19461 0.19461 0.1946 0.19462 0.19458 0.19463 0.19461 0.1946 0.19462 0.19458 0.19461 0.19464 0.19458 0.19461 0.1946 0.19463 0.19461 0.19459 0.19461 0.1946 0.19462 0.19461 0.19459 0.19462 0.1946 0.19461 0.19462 0.19458 0.19463 0.19459 0.19461 l 0.19461,0.19165 h 0.19462 0.19461 0.19458 0.19462 0.19461 0.19459 0.19463 0.19458 0.19463 0.19463 0.19458 0.19462 0.19458 0.19463 0.19462 0.19458 0.19462 0.19459 0.19462 0.19462 0.19459 0.19461 0.1946 0.19462 0.19461 0.19458 0.19464 0.19458 0.19461 0.19463 0.1946 0.1946 0.1946 0.19461 0.19463 0.19459 0.19461 0.19458 0.19465 0.19461 0.19458 0.19462 0.19458 0.19463 0.19462 0.19459 0.1946 0.19462 0.19461 0.19461 0.19459 0.19461 0.1946 0.19462 0.19461 l 0.1946,0.19165 h 0.19463 0.19458 0.19461 0.19462 0.19459 0.19462 0.19459 0.19461 0.19463 0.19459 0.19462 0.19458 0.19464 0.19461 0.19458 0.19463 0.19457 0.19463 0.19463 0.19457 0.19463 0.1946 0.19461 0.19462 0.19458 0.19463 0.19459 0.19461 0.19462 l 0.19461,0.19165 h 0.1946 0.19459 0.19462 0.19461 0.1946 0.19462 0.19458 0.19461 0.19465 0.19458 0.19461 0.19459 0.19461 0.19463 0.1946 0.1946 0.1946 0.19463 l 0.19461,0.19165 h 0.19458 0.19462 0.1946 0.19461 0.19462 0.19458 0.19463 0.1946 0.19461 0.19461 0.1946 0.19462 0.19458 l 0.19462,0.19165 h 0.19463 0.19458 0.19463 0.19458 0.19461 0.19464 0.19458 0.19461 0.19459 L 73.9507,1.9165 h 0.19461 0.19459 0.19462 0.19459 0.19463 0.19461 0.19458 0.19462 l 0.1946,0.19165 h 0.19461 0.19462 0.19458 0.19463 0.1946 L 76.8698,2.2998 h 0.19462 0.1946 0.19461 0.19459 0.19461 l 0.19463,0.19166 h 0.1946 0.19461 0.19458 0.19462 L 79.0105,2.6831 h 0.19458 0.19462 0.19458 l 0.19463,0.19166 h 0.19463 0.19458 0.19461 l 0.19461,0.19164 h 0.19461 0.19461 l 0.19459,0.19167 h 0.19463 0.19458 l 0.19463,0.19165 h 0.19461 l 0.19458,0.19165 h 0.19464 0.19458 l 0.19461,0.19165 h 0.19462 l 0.1946,0.19165 h 0.19461 l 0.19459,0.19165 h 0.19462 l 0.19461,0.19165 0.19461,0.19165 h 0.19461 l 0.19458,0.19166 0.19462,0.19165 h 0.19463 l 0.19458,0.19165 0.19463,0.19165 0.19459,0.19165 h 0.19461 l 0.19463,0.19165 0.19458,0.19165 0.19461,0.19165 0.19461,0.19167 0.19461,0.3833 0.19461,0.19164 0.19459,0.19166 0.19463,0.19165 0.19458,0.3833 0.19463,0.19165 0.1946,0.3833 0.19459,0.3833 0.19464,0.3833 0.19458,0.19165 0.19461,0.57497 0.19462,0.3833 0.1946,0.3833 0.19461,0.57495 0.1946,0.3833 0.19461,0.57495 0.19462,0.76662 0.1946,0.57495 0.19461,0.7666 0.19459,0.7666 0.19463,0.76662 0.19461,0.95825 0.1946,1.1499 0.19461,1.14992 0.19457,1.1499 0.19465,1.34156 0.19461,1.53321 0.19458,1.72487 0.19462,1.91651 0.1946,2.10817 0.19461,2.29982 0.19463,2.6831 0.19458,3.06642 0.19462,3.44974 0.1946,4.21632 0.1946,4.59963 0.19462,5.55789 0.19459,6.51614 0.19463,7.66607 0.19458,9.39091 0.19463,11.30743 0.19461,14.18219 0.19459,17.63193 0.19463,22.61486 0.19458,29.89761 0.19461,40.05513 0.19464,55.77054 0.19458,80.68521 0.19461,123.80678 0.1946,202.95877 0.19462,368.16221 0.19461,776.7629 0.1946,2122.7303 0.19461,10180.9024 0.19458,2197.338"
       style="fill:none;stroke:#ff0000;stroke-width:0.3985;stroke-linecap:butt;stroke-linejoin:miter;stroke-miterlimit:10;stroke-dasharray:none;stroke-opacity:1"
       transform="matrix(1.3333333,0,0,-1.3333333,6.7466667,215.424)"
       clip-path="url(#clipPath20)" />
    <path
       id="path21"
       d="m 97.15555,16323 0.19459,-2152.108 0.19463,-10219.233 0.19459,-2127.5215 0.19462,-778.1045 0.19461,-368.54551 0.19459,-203.15042 0.19461,-123.80678 0.19461,-80.87686 0.19461,-55.77054 0.1946,-40.05513 0.19462,-29.70596 0.1946,-22.80651 0.19461,-17.63193 0.19461,-14.18219 0.1946,-11.30743 0.19461,-9.39091 0.19461,-7.66607 0.19461,-6.51614 0.19459,-5.55789 0.19461,-4.59963 0.19462,-4.02467 0.19459,-3.64139 0.19463,-3.06642 0.19459,-2.6831 0.19461,-2.29982 0.19461,-2.10817 0.19461,-1.91651 0.1946,-1.72487 0.19461,-1.53321 0.19461,-1.34156 0.19459,-1.1499 0.19463,-1.14992 0.1946,-1.1499 0.19459,-0.7666 0.19463,-0.95827 0.19459,-0.7666 0.19461,-0.7666 0.19461,-0.57495 0.19461,-0.76662 0.1946,-0.3833 0.19463,-0.57495 0.19459,-0.57495 0.19461,-0.3833 0.19461,-0.3833 0.1946,-0.57497 0.19462,-0.19165 0.1946,-0.3833 0.19461,-0.3833 0.19461,-0.3833 0.19461,-0.19165 0.19459,-0.3833 0.19462,-0.19165 0.19461,-0.19166 0.19459,-0.19164 0.19463,-0.3833 0.19459,-0.19167 0.19461,-0.19165 0.19461,-0.19165 0.1946,-0.19165 h 0.19461 l 0.19461,-0.19165 0.19461,-0.19165 0.1946,-0.19165 h 0.19462 l 0.1946,-0.19165 0.19461,-0.19166 h 0.19461 l 0.19459,-0.19165 0.19462,-0.19165 h 0.19461 l 0.19461,-0.19165 h 0.19459 l 0.19461,-0.19165 h 0.19461 l 0.1946,-0.19165 h 0.19463 0.19459 l 0.19461,-0.19165 h 0.19461 l 0.19461,-0.19165 h 0.1946 0.19462 l 0.1946,-0.19167 h 0.19459 0.19463 l 0.19459,-0.19164 h 0.19461 0.19462 0.19459 l 0.19461,-0.19166 h 0.19461 0.19461 0.1946 l 0.19462,-0.19164 h 0.1946 0.19461 0.19461 0.1946 l 0.19461,-0.19166 h 0.19461 0.19461 0.19459 0.19463 0.19458 l 0.19461,-0.19165 h 0.19464 0.19458 0.19463 0.19457 0.19463 l 0.19463,-0.19165 h 0.19458 0.19461 0.19459 0.19463 0.19461 0.1946 0.19461 0.19459 l 0.19462,-0.19165 h 0.19462 0.19458 0.19462 0.1946 0.19461 0.19463 0.19459 0.19461 0.1946 l 0.19461,-0.19165 h 0.19461 0.19461 0.19461 0.19458 0.19462 0.19463 0.19458 0.19463 0.19458 0.19461 0.19464 0.19458 0.19461 l 0.19461,-0.19165 h 0.19461 0.19461 0.1946 0.19461 0.1946 0.19462 0.19461 0.19458 0.19464 0.19458 0.19461 0.19463 0.19458 0.19462 0.1946 0.19461 0.19461 0.19461 l 0.19461,-0.19165 h 0.19458 0.19463 0.19461 0.19459 0.19463 0.19458 0.19461 0.19464 0.19458 0.19461 0.19461 0.19461 0.19463 0.19458 0.19461 0.19461 0.19461 0.19461 0.1946 0.19462 0.19458 0.19463 0.19461 0.19458 0.19464 0.19458 0.19461 0.19463 0.19459 l 0.19461,-0.19165 h 0.1946 0.19461 0.19461 0.19461 0.19461 0.19458 0.19464 0.19461 0.19458 0.19463 0.1946 0.1946 0.19463 0.19458 0.19462 0.1946 0.19461 0.19461 0.1946 0.19462 0.19458 0.19463 0.19461 0.19458 0.19464 0.19458 0.19461 0.19463 0.19459 0.19461 0.1946 0.19461 0.19462 0.1946 0.19461 0.19458 0.19464 0.19461 0.19458 0.19463 0.19458 0.19462 0.19463 0.19458 0.19461 0.19461 0.19461 0.19463 0.19458 0.19461 0.19461 0.19461 0.19461 0.19461 0.19461 L 145.6127,0.7666 h 0.19463 0.19461 0.19459 0.19463 0.19458 0.19462 0.19463 0.19458 0.19461 0.1946 0.19462 0.19461 0.1946 0.19461 0.19458 0.19464 0.19461 0.19458 0.19463 0.19459 0.19461 0.19463 0.19458 0.19463 0.19459 0.19461 0.19461 0.19461 0.19461 0.19458 0.19463 0.19462 0.19458 0.19463 0.19458 0.19463 0.19462 0.19458 0.19462 0.19459 0.19462 0.19461 0.1946 0.19461 0.1946 0.19462 0.19461 0.19458 0.19463 0.19459 0.19461 0.19463 0.1946 0.1946 0.1946 0.19461 0.19463 0.19459 0.19461 0.1946 0.19461 0.19463 0.19459 0.19461 0.19458 0.19463 0.19462 0.19459 0.19462 0.19458 0.19462 0.19463 0.19458 0.19461 0.19461 0.19461 0.19461 0.1946 0.19463 0.19457 0.19463 0.19461 0.19459 0.19463 0.19458 0.19461 0.19464 0.19458 0.19461 0.1946 0.19461 0.19463 0.19459 0.19461 0.19458 0.19463 0.19462 0.19458 0.19463 0.1946 0.19461 0.19462 0.19458 0.19461 0.19461 0.19461 0.19461 0.1946 0.19462 0.19459 0.19462 0.19461 0.19458 0.19464 0.19458 0.19461 0.19463 0.19459 0.19462 0.19459 0.19461 0.19464 0.19459 0.1946 0.1946 0.19462 0.19462 0.19459 0.19461 0.1946 0.19462 0.19461 0.19458 0.19465 0.19457 0.19461 0.19463 0.19458 0.19463 0.19459 0.19461 0.19461 0.1946 0.19462 0.19458 0.19463 0.19461 0.1946 0.19462 0.19458 0.19461 0.19464 0.19458 0.19461 0.19461 0.19462 0.19461 0.19459 0.19461 0.1946 0.19462 0.19461 0.19458 0.19464 0.19459 0.19461 0.19462 0.19458 0.19463 0.19459 0.19461 0.19461 0.19461 0.19462 0.19458 0.19462 0.19461 0.1946 0.19462 0.19458 0.19463 l 0.19462,-0.19165 h 0.19458 0.19462 0.19459 0.19463 0.19461 0.19459 0.19461 0.19461 0.19461 0.19462 0.19459 0.19461 0.1946 0.19462 0.19461 0.19458 0.19464 0.19458 0.19461 0.19463 0.1946 0.19461 0.19459 0.19461 0.19463 0.19459 0.19461 0.19459 0.19464 0.19461 0.19458 0.19462 0.19458 0.19463 0.19462 0.19458 0.19461 0.19461 0.19462 0.1946 0.1946 0.19461 0.19459 0.19463 0.19461 0.1946 0.19462 0.19458 0.19462 0.19462 0.1946 0.19461 0.19459 0.19462 0.19462 0.19459 0.19462 0.19457 0.19465 0.19461 0.19458 0.19462 0.19458 0.19463 0.19463 0.19457 0.19462 0.19461"
       style="fill:none;stroke:#ff0000;stroke-width:0.3985;stroke-linecap:butt;stroke-linejoin:miter;stroke-miterlimit:10;stroke-dasharray:none;stroke-opacity:1"
       transform="matrix(1.3333333,0,0,-1.3333333,6.7466667,215.424)"
       clip-path="url(#clipPath22)" />
    <path
       id="path23"
       d="m 3.3294766,-3.0110859 c 0.058594,-0.2578125 0.2929687,-1.171875 0.984375,-1.171875 0.046875,0 0.2929687,0 0.5039062,0.1289062 -0.28125,0.046875 -0.4804687,0.3046875 -0.4804687,0.5390625 0,0.1640625 0.1054687,0.3515625 0.375,0.3515625 0.2226562,0 0.5390625,-0.1875 0.5390625,-0.5859375 0,-0.515625 -0.5859375,-0.65625 -0.9257813,-0.65625 -0.5742187,0 -0.9257812,0.5273438 -1.0429687,0.7617188 -0.2578125,-0.65625 -0.7851563,-0.7617188 -1.078125,-0.7617188 -1.0429688,0 -1.60546879,1.2890625 -1.60546879,1.5351563 0,0.1054687 0.10546875,0.1054687 0.1171875,0.1054687 0.0820313,0 0.1171875,-0.023437 0.12890625,-0.1171875 0.33984374,-1.0546875 0.99609374,-1.3007812 1.33593754,-1.3007812 0.1875,0 0.5390625,0.09375 0.5390625,0.6679687 0,0.3046875 -0.1640625,0.9726563 -0.5390625,2.3671875 -0.1523438,0.62109376 -0.5039063,1.04296876 -0.9492188,1.04296876 -0.058594,0 -0.28124999,0 -0.49218749,-0.12890625 0.24609375,-0.0585938 0.46874999,-0.26953125 0.46874999,-0.5390625 0,-0.26953121 -0.22265624,-0.35156251 -0.37499999,-0.35156251 -0.29296875,0 -0.5390625,0.25781251 -0.5390625,0.57421876 0,0.45703125 0.4921875,0.65625 0.93749999,0.65625 0.65625,0 1.0078125,-0.69140625 1.0429688,-0.75 0.1171875,0.36328125 0.4804687,0.75 1.078125,0.75 1.0195312,0 1.59375,-1.27734376 1.59375,-1.53515626 0,-0.09375 -0.09375,-0.09375 -0.1289063,-0.09375 -0.082031,0 -0.1054687,0.035156 -0.1289062,0.1054688 -0.328125,1.06640621 -0.9960938,1.31249996 -1.3242188,1.31249996 -0.3867187,0 -0.5390625,-0.328125 -0.5390625,-0.65625 0,-0.22265625 0.058594,-0.44531246 0.1640625,-0.87890626 z m 0,0"
       style="fill:#000000;fill-opacity:1;fill-rule:nonzero;stroke:none"
       aria-label="x"
       transform="matrix(1.3333333,0,0,1.3333333,253.47867,209.964)" />
    <path
       id="path24"
       d="m 2.3330313,-4.4307734 c 0,-0.1875 -0.011719,-0.1992188 -0.2109375,-0.1992188 -0.4453125,0.4335938 -1.078125,0.4453125 -1.35937505,0.4453125 v 0.2460938 c 0.1640625,0 0.62109375,0 1.00781255,-0.1875 v 3.55078121 c 0,0.234375 0,0.328125 -0.6914063,0.328125 H 0.80959375 v 0.24609375 C 0.9385,-0.01280469 1.7939688,-0.02452344 2.0517813,-0.02452344 c 0.2109375,0 1.0898437,0.01171875 1.2421875,0.0234375 V -0.24717969 H 3.0361563 c -0.703125,0 -0.703125,-0.09375 -0.703125,-0.328125 z m 0,0"
       style="fill:#000000;fill-opacity:1;fill-rule:nonzero;stroke:none"
       aria-label="1"
       transform="matrix(1.3333333,0,0,1.3333333,145.49867,10.950667)" />
    <path
       id="path25"
       d="M 0,0 H 8.406"
       style="fill:none;stroke:#000000;stroke-width:0.398;stroke-linecap:butt;stroke-linejoin:miter;stroke-miterlimit:10;stroke-dasharray:none;stroke-opacity:1"
       transform="matrix(1.3333333,0,0,-1.3333333,142.54267,12.86)" />
    <g
       id="g25"
       aria-label="x&#10;2"
       transform="matrix(1.3333333,0,0,1.3333333,142.54267,20.761333)">
      <path
         id="path26"
         d="m 1.7346016,-0.73799219 c -0.070312,0.234375 -0.2929688,0.609375 -0.65625,0.609375 -0.023437,0 -0.22265629,0 -0.37500004,-0.09375 0.28125,-0.09375 0.30468754,-0.33984375 0.30468754,-0.38671875 0,-0.15234375 -0.11718754,-0.2578125 -0.28125004,-0.2578125 -0.1875,0 -0.38671875,0.1640625 -0.38671875,0.43359375 0,0.33984375 0.38671875,0.50390625 0.72656249,0.50390625 0.3164063,0 0.609375,-0.19921875 0.7851563,-0.4921875 0.1640625,0.36328125 0.5507812,0.4921875 0.8203125,0.4921875 0.8085937,0 1.2304687,-0.8671875 1.2304687,-1.06640625 0,-0.09375 -0.09375,-0.09375 -0.1054687,-0.09375 -0.1054688,0 -0.1054688,0.035156 -0.140625,0.11718752 -0.140625,0.48046875 -0.5625,0.84375 -0.9492188,0.84375 -0.28125,0 -0.421875,-0.1875 -0.421875,-0.4453125 0,-0.1875 0.1640625,-0.82031252 0.3632813,-1.59375002 0.1289062,-0.5390625 0.4453125,-0.7148437 0.6796875,-0.7148437 0.011719,0 0.2226562,0 0.375,0.1054687 -0.2226563,0.058594 -0.3046875,0.2578125 -0.3046875,0.375 0,0.1523438 0.1171875,0.2578125 0.28125,0.2578125 0.1523437,0 0.3867187,-0.1289062 0.3867187,-0.421875 0,-0.3867187 -0.4453125,-0.5039062 -0.7265625,-0.5039062 -0.3515625,0 -0.6328125,0.2226562 -0.7851562,0.4921875 -0.1171875,-0.2929688 -0.4453125,-0.4921875 -0.8320313,-0.4921875 -0.78515624,0 -1.23046874,0.8554687 -1.23046874,1.0664062 0,0.082031 0.10546875,0.082031 0.1171875,0.082031 0.09375,0 0.10546875,-0.023437 0.140625,-0.1171875 0.17578125,-0.5390625 0.60937504,-0.84375 0.94921874,-0.84375 0.234375,0 0.421875,0.1289062 0.421875,0.46875 0,0.1289062 -0.082031,0.4804687 -0.1523437,0.7148437 z m 0,0"
         style="fill:#000000;fill-opacity:1;fill-rule:nonzero;stroke:none" />
      <path
         id="path27"
         d="M 7.4474922,-2.9528359 H 7.2365547 c -0.011719,0.09375 -0.058594,0.3984375 -0.140625,0.4570312 -0.035156,0.023437 -0.4570313,0.023437 -0.5273438,0.023437 h -0.984375 c 0.328125,-0.2460937 0.703125,-0.515625 0.9960938,-0.7148437 0.4570312,-0.3164063 0.8671875,-0.5976563 0.8671875,-1.125 0,-0.6445313 -0.5976563,-0.9960938 -1.3125,-0.9960938 -0.6679688,0 -1.1601563,0.3867188 -1.1601563,0.8789063 0,0.2578125 0.2109375,0.3046875 0.28125,0.3046875 0.140625,0 0.2929688,-0.09375 0.2929688,-0.2929688 0,-0.1875 -0.1289063,-0.28125 -0.28125,-0.2929687 0.140625,-0.234375 0.4335937,-0.375 0.7617187,-0.375 0.4804688,0 0.890625,0.28125 0.890625,0.7734375 0,0.421875 -0.2929687,0.7382812 -0.6796875,1.0546875 l -1.2070312,1.03125 c -0.046875,0.046875 -0.058594,0.046875 -0.058594,0.082031 v 0.1523438 h 2.3085938 z m 0,0"
         style="fill:#000000;fill-opacity:1;fill-rule:nonzero;stroke:none" />
    </g>
  </g>
</svg>
