<?xml version="1.0" encoding="UTF-8" standalone="no"?>
<!-- Created with Inkscape (http://www.inkscape.org/) -->

<svg
   version="1.1"
   id="svg1"
   width="301.73199"
   height="237.56667"
   viewBox="0 0 301.73199 237.56667"
   xmlns="http://www.w3.org/2000/svg"
   xmlns:svg="http://www.w3.org/2000/svg">
  <defs
     id="defs1">
    <pattern
       patternUnits="userSpaceOnUse"
       x="0"
       y="0"
       width="4.98138"
       height="4.98138"
       id="pattern7">
      <path
         d="M 0,0 3.08846,3.08846"
         style="fill:none;stroke:#808080;stroke-opacity:1;stroke-width:0.3985;stroke-linecap:butt;stroke-linejoin:miter;stroke-miterlimit:10;stroke-dasharray:none"
         transform="translate(0.99628,0.99628)"
         id="path7" />
    </pattern>
  </defs>
  <g
     id="g1">
    <path
       id="path1"
       d="M 0,0 H 192.2766"
       style="fill:none;stroke:#000000;stroke-width:0.3985;stroke-linecap:butt;stroke-linejoin:miter;stroke-miterlimit:10;stroke-dasharray:none;stroke-opacity:1"
       transform="matrix(1.3333333,0,0,-1.3333333,42.444,215.45733)" />
    <path
       id="path2"
       d="M 1.99252,0 -1.19551,1.59401 0,0 -1.19551,-1.59401"
       style="fill:#000000;fill-opacity:1;fill-rule:nonzero;stroke:none"
       transform="matrix(1.3333333,0,0,-1.3333333,298.8128,215.45733)" />
    <path
       id="path3"
       d="M 0,0 V 159.40384"
       style="fill:none;stroke:#000000;stroke-width:0.3985;stroke-linecap:butt;stroke-linejoin:miter;stroke-miterlimit:10;stroke-dasharray:none;stroke-opacity:1"
       transform="matrix(1.3333333,0,0,-1.3333333,42.444,215.45733)" />
    <path
       id="path4"
       d="M 1.99252,0 -1.19551,1.59401 0,0 -1.19551,-1.59401"
       style="fill:#000000;fill-opacity:1;fill-rule:nonzero;stroke:none"
       transform="matrix(0,-1.3333333,-1.3333333,0,42.444,2.91888)" />
    <path
       id="path5"
       d="M 0,0 194.26912,161.39636"
       style="fill:none;stroke:#000000;stroke-width:0.3985;stroke-linecap:butt;stroke-linejoin:miter;stroke-miterlimit:10;stroke-dasharray:none;stroke-opacity:1"
       transform="matrix(1.3333333,0,0,-1.3333333,42.444,215.45733)" />
    <path
       id="path6"
       d="m 72.8509,60.52364 v 40.34909 h 48.5673 V 60.52364 Z"
       style="fill:url(#pattern7);fill-opacity:1;fill-rule:nonzero;stroke:none"
       transform="matrix(1.3333333,0,0,-1.3333333,42.444,215.45733)" />
    <path
       id="path8"
       d="M 0,60.52364 H 194.26912"
       style="fill:none;stroke:#000000;stroke-width:0.3985;stroke-linecap:butt;stroke-linejoin:miter;stroke-miterlimit:10;stroke-dasharray:2.98883, 1.99255, 0.3985, 1.99255;stroke-dashoffset:0;stroke-opacity:1"
       transform="matrix(1.3333333,0,0,-1.3333333,42.444,215.45733)" />
    <g
       id="g8"
       aria-label="L−ϵ"
       transform="matrix(1.3333333,0,0,1.3333333,4.428,138.74533)">
      <path
         id="path9"
         d="m 3.7278281,-6.0228672 c 0.09375,-0.3632812 0.1171875,-0.46875 1.0546875,-0.46875 0.3046875,0 0.375,0 0.375,-0.1875 0,-0.1289062 -0.1054687,-0.1289062 -0.1523437,-0.1289062 -0.328125,0 -1.1484375,0.035156 -1.4765625,0.035156 -0.3046875,0 -1.03125,-0.035156 -1.3242188,-0.035156 -0.070312,0 -0.1875,0 -0.1875,0.1992187 0,0.1171875 0.082031,0.1171875 0.28125,0.1171875 0.011719,0 0.1992188,0 0.375,0.011719 0.1757813,0.023437 0.2695313,0.035156 0.2695313,0.1640625 0,0.035156 -0.011719,0.070312 -0.046875,0.1875 l -1.3359375,5.35546871 c -0.09375,0.38671875 -0.1171875,0.46875 -0.90234378,0.46875 -0.1640625,0 -0.26953125,0 -0.26953125,0.19921875 0,0.1054687525 0.09375,0.1054687525 0.26953125,0.1054687525 H 5.2747031 c 0.234375,0 0.2460938,0 0.3046875,-0.1640625025 L 6.3645469,-2.3197422 c 0.046875,-0.1054687 0.046875,-0.1289062 0.046875,-0.140625 0,-0.035156 -0.035156,-0.1054687 -0.1289063,-0.1054687 -0.082031,0 -0.09375,0.046875 -0.1640625,0.2109375 -0.3398437,0.9140625 -0.7734375,2.05078121 -2.4960937,2.05078121 h -0.9375 c -0.140625,0 -0.1640625,0 -0.2226563,-0.0117188 -0.1054687,-0.0117188 -0.1289062,-0.0234375 -0.1289062,-0.10546875 0,-0.0234375 0,-0.046875 0.046875,-0.22265625 z m 0,0"
         style="fill:#000000;fill-opacity:1;fill-rule:nonzero;stroke:none" />
      <path
         id="path10"
         d="m 15.554977,-2.2963047 c 0.175781,0 0.351562,0 0.351562,-0.1992187 0,-0.1992188 -0.175781,-0.1992188 -0.351562,-0.1992188 h -5.390625 c -0.164063,0 -0.3398442,0 -0.3398442,0.1992188 0,0.1992187 0.1757812,0.1992187 0.3398442,0.1992187 z m 0,0"
         style="fill:#000000;fill-opacity:1;fill-rule:nonzero;stroke:none" />
      <path
         id="path11"
         d="m 21.918258,-2.2494297 c 0.164062,0 0.339844,0 0.339844,-0.1757812 0,-0.1289063 -0.117188,-0.1289063 -0.28125,-0.1289063 h -1.617188 c 0.234375,-0.8554687 0.796875,-1.4296875 1.699219,-1.4296875 h 0.316406 c 0.164063,0 0.328125,0 0.328125,-0.1640625 0,-0.140625 -0.128906,-0.140625 -0.304687,-0.140625 h -0.351563 c -1.289062,0 -2.625,0.9960938 -2.625,2.5195313 0,1.08984371 0.75,1.87499996 1.804688,1.87499996 0.644531,0 1.289062,-0.3984375 1.289062,-0.50390625 0,-0.0351563 -0.01172,-0.140625 -0.09375,-0.140625 -0.02344,0 -0.04687,0 -0.128906,0.0585938 -0.316406,0.19921875 -0.679688,0.375 -1.042969,0.375 -0.585937,0 -1.078125,-0.421875 -1.078125,-1.30078131 0,-0.3515625 0.08203,-0.7265625 0.105469,-0.84375 z m 0,0"
         style="fill:#000000;fill-opacity:1;fill-rule:nonzero;stroke:none" />
    </g>
    <path
       id="path12"
       d="M 0,80.69818 H 97.13455"
       style="fill:none;stroke:#000000;stroke-width:0.3985;stroke-linecap:butt;stroke-linejoin:miter;stroke-miterlimit:10;stroke-dasharray:0.3985, 1.99255;stroke-dashoffset:0;stroke-opacity:1"
       transform="matrix(1.3333333,0,0,-1.3333333,42.444,215.45733)" />
    <path
       id="path13"
       d="m 3.7265781,-6.0246094 c 0.09375,-0.3632812 0.1171875,-0.46875 1.0546875,-0.46875 0.3046875,0 0.375,0 0.375,-0.1875 0,-0.1289062 -0.1054687,-0.1289062 -0.1523437,-0.1289062 -0.328125,0 -1.1484375,0.035156 -1.4765625,0.035156 -0.3046875,0 -1.03125,-0.035156 -1.3242188,-0.035156 -0.070312,0 -0.1875,0 -0.1875,0.1992187 0,0.1171875 0.082031,0.1171875 0.28125,0.1171875 0.011719,0 0.1992188,0 0.375,0.011719 0.1757813,0.023437 0.2695313,0.035156 0.2695313,0.1640625 0,0.035156 -0.011719,0.070312 -0.046875,0.1875 l -1.3359375,5.35546873 c -0.09375,0.38671875 -0.1171875,0.46875 -0.90234378,0.46875 -0.1640625,0 -0.26953125,0 -0.26953125,0.19921875 0,0.10546875 0.09375,0.10546875 0.26953125,0.10546875 H 5.2734531 c 0.234375,0 0.2460938,0 0.3046875,-0.1640625 L 6.3632969,-2.3214844 c 0.046875,-0.1054687 0.046875,-0.1289062 0.046875,-0.140625 0,-0.035156 -0.035156,-0.1054687 -0.1289063,-0.1054687 -0.082031,0 -0.09375,0.046875 -0.1640625,0.2109375 -0.3398437,0.9140625 -0.7734375,2.05078123 -2.4960937,2.05078123 h -0.9375 c -0.140625,0 -0.1640625,0 -0.2226563,-0.0117188 -0.1054687,-0.0117188 -0.1289062,-0.0234375 -0.1289062,-0.10546875 0,-0.0234375 0,-0.046875 0.046875,-0.22265625 z m 0,0"
       style="fill:#000000;fill-opacity:1;fill-rule:nonzero;stroke:none"
       aria-label="L"
       transform="matrix(1.3333333,0,0,1.3333333,26.054667,112.4)" />
    <path
       id="path14"
       d="M 0,100.87273 H 194.26912"
       style="fill:none;stroke:#000000;stroke-width:0.3985;stroke-linecap:butt;stroke-linejoin:miter;stroke-miterlimit:10;stroke-dasharray:2.98883, 1.99255, 0.3985, 1.99255;stroke-dashoffset:0;stroke-opacity:1"
       transform="matrix(1.3333333,0,0,-1.3333333,42.444,215.45733)" />
    <g
       id="g14"
       aria-label="L+ϵ"
       transform="matrix(1.3333333,0,0,1.3333333,4.428,84.948)">
      <path
         id="path15"
         d="m 3.7278281,-6.0225234 c 0.09375,-0.3632813 0.1171875,-0.46875 1.0546875,-0.46875 0.3046875,0 0.375,0 0.375,-0.1875 0,-0.1289063 -0.1054687,-0.1289063 -0.1523437,-0.1289063 -0.328125,0 -1.1484375,0.035156 -1.4765625,0.035156 -0.3046875,0 -1.03125,-0.035156 -1.3242188,-0.035156 -0.070312,0 -0.1875,0 -0.1875,0.1992188 0,0.1171875 0.082031,0.1171875 0.28125,0.1171875 0.011719,0 0.1992188,0 0.375,0.011719 0.1757813,0.023437 0.2695313,0.035156 0.2695313,0.1640625 0,0.035156 -0.011719,0.070312 -0.046875,0.1875 l -1.3359375,5.35546876 c -0.09375,0.38671875 -0.1171875,0.46875 -0.90234378,0.46875 -0.1640625,0 -0.26953125,0 -0.26953125,0.19921875 0,0.1054687525 0.09375,0.1054687525 0.26953125,0.1054687525 H 5.2747031 c 0.234375,0 0.2460938,0 0.3046875,-0.1640625025 L 6.3645469,-2.3193984 c 0.046875,-0.1054688 0.046875,-0.1289063 0.046875,-0.140625 0,-0.035156 -0.035156,-0.1054688 -0.1289063,-0.1054688 -0.082031,0 -0.09375,0.046875 -0.1640625,0.2109375 -0.3398437,0.9140625 -0.7734375,2.05078126 -2.4960937,2.05078126 h -0.9375 c -0.140625,0 -0.1640625,0 -0.2226563,-0.0117188 -0.1054687,-0.0117188 -0.1289062,-0.0234375 -0.1289062,-0.10546875 0,-0.0234375 0,-0.046875 0.046875,-0.22265625 z m 0,0"
         style="fill:#000000;fill-opacity:1;fill-rule:nonzero;stroke:none" />
      <path
         id="path16"
         d="m 13.070602,-2.2959609 h 2.777343 c 0.140625,0 0.328125,0 0.328125,-0.1992188 0,-0.1992187 -0.1875,-0.1992187 -0.328125,-0.1992187 h -2.777343 v -2.7890625 c 0,-0.1289063 0,-0.328125 -0.199219,-0.328125 -0.199219,0 -0.199219,0.1992187 -0.199219,0.328125 v 2.7890625 H 9.8831016 c -0.140625,0 -0.328125,0 -0.328125,0.1992187 0,0.1992188 0.1875,0.1992188 0.328125,0.1992188 h 2.7890624 v 2.80078121 c 0,0.12890625 0,0.328125 0.199219,0.328125 0.199219,0 0.199219,-0.19921875 0.199219,-0.328125 z m 0,0"
         style="fill:#000000;fill-opacity:1;fill-rule:nonzero;stroke:none" />
      <path
         id="path17"
         d="m 21.918258,-2.2490859 c 0.164062,0 0.339844,0 0.339844,-0.1757813 0,-0.1289062 -0.117188,-0.1289062 -0.28125,-0.1289062 h -1.617188 c 0.234375,-0.8554688 0.796875,-1.4296875 1.699219,-1.4296875 h 0.316406 c 0.164063,0 0.328125,0 0.328125,-0.1640625 0,-0.140625 -0.128906,-0.140625 -0.304687,-0.140625 h -0.351563 c -1.289062,0 -2.625,0.9960937 -2.625,2.5195312 0,1.08984376 0.75,1.87500001 1.804688,1.87500001 0.644531,0 1.289062,-0.3984375 1.289062,-0.50390625 0,-0.0351563 -0.01172,-0.140625 -0.09375,-0.140625 -0.02344,0 -0.04687,0 -0.128906,0.0585937 -0.316406,0.19921875 -0.679688,0.375 -1.042969,0.375 -0.585937,0 -1.078125,-0.421875 -1.078125,-1.30078116 0,-0.3515625 0.08203,-0.7265626 0.105469,-0.8437501 z m 0,0"
         style="fill:#000000;fill-opacity:1;fill-rule:nonzero;stroke:none" />
    </g>
    <path
       id="path18"
       d="M 72.8509,0 V 161.39636"
       style="fill:none;stroke:#000000;stroke-width:0.3985;stroke-linecap:butt;stroke-linejoin:miter;stroke-miterlimit:10;stroke-dasharray:2.98883, 1.99255, 0.3985, 1.99255;stroke-dashoffset:0;stroke-opacity:1"
       transform="matrix(1.3333333,0,0,-1.3333333,42.444,215.45733)" />
    <g
       id="g18"
       aria-label="a+δ"
       transform="matrix(1.3333333,0,0,1.3333333,124.74667,232.032)">
      <path
         id="path19"
         d="m 3.7144141,-3.7622813 c -0.1757813,-0.375 -0.46875,-0.6445312 -0.9140625,-0.6445312 -1.171875,0 -2.40234379,1.4648437 -2.40234379,2.9179687 0,0.93750005 0.55078125,1.59375005 1.32421879,1.59375005 0.1992187,0 0.703125,-0.03515625 1.3007812,-0.73828125 0.070312,0.41015625 0.421875,0.73828125 0.9023438,0.73828125 0.3515625,0 0.5742187,-0.22265625 0.7382812,-0.5390625 C 4.8276953,-0.7974375 4.9566016,-1.4068125 4.9566016,-1.43025 c 0,-0.09375 -0.082031,-0.09375 -0.1171875,-0.09375 -0.09375,0 -0.1054688,0.035156 -0.140625,0.1757812 -0.1640625,0.6445313 -0.3515625,1.24218755 -0.75,1.24218755 -0.2695313,0 -0.3046875,-0.2578125 -0.3046875,-0.45703125 0,-0.22265625 0.023437,-0.3046875 0.1289062,-0.7382813 0.1171875,-0.421875 0.1289063,-0.5273437 0.2226563,-0.9023437 l 0.3515625,-1.3945313 c 0.070312,-0.28125 0.070312,-0.2929687 0.070312,-0.3398437 0,-0.1640625 -0.1171875,-0.2695313 -0.28125,-0.2695313 -0.2460938,0 -0.3867188,0.2226563 -0.4218745,0.4453125 z m -0.6445313,2.578125 c -0.046875,0.1757813 -0.046875,0.1992188 -0.1992187,0.3632813 -0.4453125,0.55078125 -0.84375,0.71484375 -1.125,0.71484375 -0.5039063,0 -0.6445313,-0.55078125 -0.6445313,-0.93750005 0,-0.5039062 0.328125,-1.7226562 0.5507813,-2.1796875 0.3046875,-0.5976562 0.7617187,-0.9609375 1.1601562,-0.9609375 0.6445313,0 0.7851563,0.8203125 0.7851563,0.8789063 0,0.058594 -0.023437,0.1171875 -0.035156,0.1640625 z m 0,0"
         style="fill:#000000;fill-opacity:1;fill-rule:nonzero;stroke:none" />
      <path
         id="path20"
         d="m 11.557187,-2.2974375 h 2.777344 c 0.140625,0 0.328125,0 0.328125,-0.1992188 0,-0.1992187 -0.1875,-0.1992187 -0.328125,-0.1992187 h -2.777344 v -2.7890625 c 0,-0.1289063 0,-0.328125 -0.199218,-0.328125 -0.199219,0 -0.199219,0.1992187 -0.199219,0.328125 V -2.695875 H 8.3696875 c -0.140625,0 -0.328125,0 -0.328125,0.1992187 0,0.1992188 0.1875,0.1992188 0.328125,0.1992188 H 11.15875 v 2.80078125 c 0,0.12890625 0,0.328125 0.199219,0.328125 0.199218,0 0.199218,-0.19921875 0.199218,-0.328125 z m 0,0"
         style="fill:#000000;fill-opacity:1;fill-rule:nonzero;stroke:none" />
      <path
         id="path21"
         d="m 20.06207,-4.3482188 c -1.242187,0.2929688 -2.203125,1.59375 -2.203125,2.7890625 0,0.96093755 0.632813,1.6757813 1.570313,1.6757813 1.160156,0 1.992187,-1.5585938 1.992187,-2.9414063 0,-0.9023437 -0.398437,-1.3945312 -0.738281,-1.8515625 -0.351562,-0.4453125 -0.949219,-1.1953125 -0.949219,-1.6289062 0,-0.2226563 0.199219,-0.4570313 0.550782,-0.4570313 0.304687,0 0.503906,0.1289063 0.703125,0.2695313 0.199218,0.1171875 0.398437,0.2460937 0.550781,0.2460937 0.246094,0 0.398437,-0.234375 0.398437,-0.3984375 0,-0.2226562 -0.152343,-0.2460937 -0.515625,-0.328125 -0.515625,-0.1054687 -0.65625,-0.1054687 -0.820312,-0.1054687 -0.773438,0 -1.136719,0.421875 -1.136719,1.0195312 0,0.5390625 0.292969,1.1015625 0.597656,1.7109375 z m 0.128907,0.2109375 c 0.246093,0.4570313 0.539062,0.9960938 0.539062,1.7109375 0,0.6679688 -0.375,2.32031255 -1.300781,2.32031255 -0.550781,0 -0.960938,-0.41015625 -0.960938,-1.17187505 0,-0.6210937 0.375,-2.4960937 1.722657,-2.859375 z m 0,0"
         style="fill:#000000;fill-opacity:1;fill-rule:nonzero;stroke:none" />
    </g>
    <path
       id="path22"
       d="M 97.13455,0 V 80.69818"
       style="fill:none;stroke:#000000;stroke-width:0.3985;stroke-linecap:butt;stroke-linejoin:miter;stroke-miterlimit:10;stroke-dasharray:0.3985, 1.99255;stroke-dashoffset:0;stroke-opacity:1"
       transform="matrix(1.3333333,0,0,-1.3333333,42.444,215.45733)" />
    <path
       id="path23"
       d="m 3.7148281,-3.7612109 c -0.1757812,-0.375 -0.46875,-0.6445313 -0.9140625,-0.6445313 -1.171875,0 -2.40234373,1.4648438 -2.40234373,2.9179688 0,0.93749996 0.55078125,1.59374996 1.32421873,1.59374996 0.1992188,0 0.703125,-0.03515625 1.3007813,-0.73828125 0.070312,0.41015625 0.421875,0.73828125 0.9023437,0.73828125 0.3515625,0 0.5742188,-0.22265625 0.7382813,-0.5390625 0.1640625,-0.36328125 0.2929687,-0.97265626 0.2929687,-0.99609376 0,-0.09375 -0.082031,-0.09375 -0.1171875,-0.09375 -0.09375,0 -0.1054687,0.035156 -0.140625,0.1757813 -0.1640625,0.64453121 -0.3515625,1.24218746 -0.75,1.24218746 -0.2695312,0 -0.3046875,-0.2578125 -0.3046875,-0.45703125 0,-0.22265625 0.023437,-0.3046875 0.1289063,-0.73828121 0.1171875,-0.421875 0.1289062,-0.5273438 0.2226562,-0.9023438 l 0.3515625,-1.3945312 c 0.070312,-0.28125 0.070312,-0.2929688 0.070312,-0.3398438 0,-0.1640625 -0.1171875,-0.2695312 -0.28125,-0.2695312 -0.2460937,0 -0.3867187,0.2226562 -0.4218745,0.4453125 z m -0.6445312,2.578125 c -0.046875,0.1757812 -0.046875,0.19921871 -0.1992188,0.36328121 -0.4453125,0.55078125 -0.84375,0.71484375 -1.125,0.71484375 -0.5039062,0 -0.6445312,-0.55078125 -0.6445312,-0.93749996 0,-0.5039063 0.328125,-1.7226563 0.5507812,-2.1796875 0.3046875,-0.5976563 0.7617188,-0.9609375 1.1601563,-0.9609375 0.6445312,0 0.7851562,0.8203125 0.7851562,0.8789062 0,0.058594 -0.023437,0.1171875 -0.035156,0.1640625 z m 0,0"
       style="fill:#000000;fill-opacity:1;fill-rule:nonzero;stroke:none"
       aria-label="a"
       transform="matrix(1.3333333,0,0,1.3333333,168.44533,228.52667)" />
    <path
       id="path24"
       d="M 121.4182,0 V 161.39636"
       style="fill:none;stroke:#000000;stroke-width:0.3985;stroke-linecap:butt;stroke-linejoin:miter;stroke-miterlimit:10;stroke-dasharray:2.98883, 1.99255, 0.3985, 1.99255;stroke-dashoffset:0;stroke-opacity:1"
       transform="matrix(1.3333333,0,0,-1.3333333,42.444,215.45733)" />
    <g
       id="g24"
       aria-label="a−δ"
       transform="matrix(1.3333333,0,0,1.3333333,189.50133,232.032)">
      <path
         id="path25"
         d="m 3.7138438,-3.7622813 c -0.1757813,-0.375 -0.46875,-0.6445312 -0.9140625,-0.6445312 -1.171875,0 -2.4023438,1.4648437 -2.4023438,2.9179687 0,0.93750005 0.55078125,1.59375005 1.3242188,1.59375005 0.1992187,0 0.703125,-0.03515625 1.3007812,-0.73828125 0.070312,0.41015625 0.421875,0.73828125 0.9023438,0.73828125 0.3515625,0 0.5742187,-0.22265625 0.7382812,-0.5390625 C 4.827125,-0.7974375 4.9560313,-1.4068125 4.9560313,-1.43025 4.9560313,-1.524 4.874,-1.524 4.8388438,-1.524 c -0.09375,0 -0.1054688,0.035156 -0.140625,0.1757812 -0.1640625,0.6445313 -0.3515625,1.24218755 -0.75,1.24218755 -0.2695313,0 -0.3046875,-0.2578125 -0.3046875,-0.45703125 0,-0.22265625 0.023437,-0.3046875 0.1289062,-0.7382813 0.1171875,-0.421875 0.1289063,-0.5273437 0.2226563,-0.9023437 l 0.3515625,-1.3945313 c 0.070312,-0.28125 0.070312,-0.2929687 0.070312,-0.3398437 0,-0.1640625 -0.1171875,-0.2695313 -0.28125,-0.2695313 -0.2460938,0 -0.3867188,0.2226563 -0.4218745,0.4453125 z m -0.6445313,2.578125 c -0.046875,0.1757813 -0.046875,0.1992188 -0.1992187,0.3632813 -0.4453125,0.55078125 -0.84375,0.71484375 -1.125,0.71484375 -0.5039063,0 -0.6445313,-0.55078125 -0.6445313,-0.93750005 0,-0.5039062 0.328125,-1.7226562 0.5507813,-2.1796875 0.3046875,-0.5976562 0.7617187,-0.9609375 1.1601562,-0.9609375 0.6445313,0 0.7851563,0.8203125 0.7851563,0.8789063 0,0.058594 -0.023437,0.1171875 -0.035156,0.1640625 z m 0,0"
         style="fill:#000000;fill-opacity:1;fill-rule:nonzero;stroke:none" />
      <path
         id="path26"
         d="m 14.040992,-2.2974375 c 0.175781,0 0.351563,0 0.351563,-0.1992188 0,-0.1992187 -0.175782,-0.1992187 -0.351563,-0.1992187 H 8.6503672 c -0.1640625,0 -0.3398438,0 -0.3398438,0.1992187 0,0.1992188 0.1757813,0.1992188 0.3398438,0.1992188 z m 0,0"
         style="fill:#000000;fill-opacity:1;fill-rule:nonzero;stroke:none" />
      <path
         id="path27"
         d="m 20.06443,-4.3482188 c -1.242188,0.2929688 -2.203125,1.59375 -2.203125,2.7890625 0,0.96093755 0.632812,1.6757813 1.570312,1.6757813 1.160156,0 1.992188,-1.5585938 1.992188,-2.9414063 0,-0.9023437 -0.398438,-1.3945312 -0.738282,-1.8515625 -0.351562,-0.4453125 -0.949218,-1.1953125 -0.949218,-1.6289062 0,-0.2226563 0.199218,-0.4570313 0.550781,-0.4570313 0.304687,0 0.503906,0.1289063 0.703125,0.2695313 0.199219,0.1171875 0.398437,0.2460937 0.550781,0.2460937 0.246094,0 0.398438,-0.234375 0.398438,-0.3984375 0,-0.2226562 -0.152344,-0.2460937 -0.515625,-0.328125 -0.515625,-0.1054687 -0.65625,-0.1054687 -0.820313,-0.1054687 -0.773437,0 -1.136719,0.421875 -1.136719,1.0195312 0,0.5390625 0.292969,1.1015625 0.597657,1.7109375 z m 0.128906,0.2109375 c 0.246094,0.4570313 0.539062,0.9960938 0.539062,1.7109375 0,0.6679688 -0.375,2.32031255 -1.300781,2.32031255 -0.550781,0 -0.960937,-0.41015625 -0.960937,-1.17187505 0,-0.6210937 0.375,-2.4960937 1.722656,-2.859375 z m 0,0"
         style="fill:#000000;fill-opacity:1;fill-rule:nonzero;stroke:none" />
    </g>
    <path
       id="path28"
       d="m 98.59157,80.69818 c 0,0.66852 -0.65233,1.21047 -1.45702,1.21047 -0.80469,0 -1.45701,-0.54195 -1.45701,-1.21047 0,-0.66853 0.65232,-1.21048 1.45701,-1.21048 0.80469,0 1.45702,0.54195 1.45702,1.21048 z"
       style="fill:#000000;fill-opacity:1;fill-rule:nonzero;stroke:#000000;stroke-width:0.3985;stroke-linecap:butt;stroke-linejoin:miter;stroke-miterlimit:10;stroke-dasharray:none;stroke-opacity:1;paint-order:stroke fill markers"
       transform="matrix(1.3333333,0,0,-1.3333333,42.444,215.45733)" />
    <path
       id="path29"
       d="m 1.7346875,-0.73709375 c -0.070312,0.234375 -0.2929687,0.609375 -0.65625,0.609375 -0.023437,0 -0.22265625,0 -0.375,-0.09375 0.28125,-0.09375 0.3046875,-0.33984375 0.3046875,-0.38671875 0,-0.15234375 -0.1171875,-0.2578125 -0.28125,-0.2578125 -0.1875,0 -0.38671875,0.1640625 -0.38671875,0.43359375 0,0.33984375 0.38671875,0.50390625 0.72656255,0.50390625 0.3164062,0 0.609375,-0.19921875 0.7851562,-0.4921875 C 2.0159375,-0.05740625 2.4026563,0.0715 2.6721875,0.0715 c 0.8085938,0 1.2304688,-0.8671875 1.2304688,-1.06640625 0,-0.0937498 -0.09375,-0.0937498 -0.1054688,-0.0937498 -0.1054687,0 -0.1054687,0.035156 -0.140625,0.1171874 -0.140625,0.48046875 -0.5625,0.84375 -0.9492187,0.84375 -0.28125,0 -0.421875,-0.1875 -0.421875,-0.4453125 0,-0.1875 0.1640625,-0.8203124 0.3632812,-1.59375 0.1289063,-0.5390625 0.4453125,-0.7148438 0.6796875,-0.7148438 0.011719,0 0.2226563,0 0.375,0.1054688 -0.2226562,0.058594 -0.3046875,0.2578125 -0.3046875,0.375 0,0.1523437 0.1171875,0.2578125 0.28125,0.2578125 0.1523438,0 0.3867188,-0.1289063 0.3867188,-0.421875 0,-0.3867188 -0.4453125,-0.5039063 -0.7265625,-0.5039063 -0.3515625,0 -0.6328125,0.2226563 -0.7851563,0.4921875 C 2.4378125,-2.8699062 2.1096875,-3.069125 1.7229688,-3.069125 c -0.7851563,0 -1.2304688,0.8554688 -1.2304688,1.0664063 0,0.082031 0.10546875,0.082031 0.1171875,0.082031 0.09375,0 0.10546875,-0.023437 0.140625,-0.1171875 0.17578125,-0.5390625 0.609375,-0.84375 0.9492188,-0.84375 0.234375,0 0.421875,0.1289063 0.421875,0.46875 0,0.1289063 -0.082031,0.4804688 -0.1523438,0.7148438 z m 0,0"
       style="fill:#000000;fill-opacity:1;fill-rule:nonzero;stroke:none"
       aria-label="x"
       transform="matrix(1.3333333,0,0,1.3333333,288.09333,224.15467)" />
    <g
       id="g29"
       aria-label="f(x)"
       transform="matrix(0,-1.3333333,1.3333333,0,32.770667,25.506667)">
      <path
         id="path30"
         d="m 2.8350781,-2.7547578 h 0.6796875 c 0.140625,0 0.234375,0 0.234375,-0.1523438 0,-0.09375 -0.09375,-0.09375 -0.2109375,-0.09375 h -0.65625 c 0.1640625,-0.890625 0.2226563,-1.2070312 0.28125,-1.4179687 0.035156,-0.1523438 0.1875,-0.2929688 0.3515625,-0.2929688 0,0 0.1992188,0 0.328125,0.082031 -0.2929687,0.09375 -0.3046875,0.3398437 -0.3046875,0.3867187 0,0.1523438 0.1171875,0.2578125 0.2695313,0.2578125 0.1992187,0 0.3984375,-0.1640625 0.3984375,-0.4335937 0,-0.3164063 -0.3398438,-0.4921875 -0.6914063,-0.4921875 -0.3046875,0 -0.6445312,0.1757812 -0.84375,0.5273437 -0.1289062,0.2578125 -0.1875,0.5742188 -0.3398437,1.3828125 H 1.7803906 c -0.140625,0 -0.2226562,0 -0.2226562,0.1523438 0,0.09375 0.082031,0.09375 0.2109375,0.09375 h 0.515625 c 0,0.046875 -0.4453125,2.55468749 -0.609375,3.29296874 -0.035156,0.1640625 -0.1523438,0.69140626 -0.4921875,0.69140626 0,0 -0.1757813,0 -0.30468753,-0.082031 0.28125003,-0.09375 0.30468753,-0.35156246 0.30468753,-0.38671871 0,-0.15234375 -0.1171875,-0.2578125 -0.28125003,-0.2578125 -0.1875,0 -0.3984375,0.1640625 -0.3984375,0.421875 0,0.31640621 0.328125,0.49218751 0.67968753,0.49218751 0.4453125,0 0.75,-0.45703126 0.84375,-0.60937501 0.2460937,-0.46875 0.4101562,-1.32421875 0.421875,-1.40625 z m 0,0"
         style="fill:#000000;fill-opacity:1;fill-rule:nonzero;stroke:none" />
      <path
         id="path31"
         d="m 7.1387891,-5.2274141 c -1.3242188,0.9257813 -1.6757813,2.4140625 -1.6757813,3.4804688 0,0.98437499 0.2929688,2.50781249 1.6757813,3.4804687 0.058594,0 0.140625,0 0.140625,-0.082031 0,-0.046875 -0.023437,-0.058594 -0.070312,-0.1054688 -0.9257813,-0.83203121 -1.265625,-2.01562496 -1.265625,-3.2929687 0,-1.875 0.7148437,-2.8007813 1.2890625,-3.3164063 0.023437,-0.023437 0.046875,-0.046875 0.046875,-0.082031 0,-0.082031 -0.082031,-0.082031 -0.1406255,-0.082032 z m 0,0"
         style="fill:#000000;fill-opacity:1;fill-rule:nonzero;stroke:none" />
      <path
         id="path32"
         d="m 9.5147656,-0.73913281 c -0.070312,0.234375 -0.2929687,0.609375 -0.65625,0.609375 -0.023437,0 -0.2226562,0 -0.375,-0.09375 0.28125,-0.09375 0.3046875,-0.33984375 0.3046875,-0.38671875 0,-0.15234375 -0.1171875,-0.2578125 -0.28125,-0.2578125 -0.1875,0 -0.3867187,0.1640625 -0.3867187,0.43359375 0,0.33984375 0.3867187,0.50390625 0.7265625,0.50390625 0.3164062,0 0.609375,-0.19921875 0.7851562,-0.4921875 0.1640625,0.36328125 0.5507809,0.4921875 0.8203129,0.4921875 0.808593,0 1.230468,-0.8671875 1.230468,-1.06640625 0,-0.09375 -0.09375,-0.09375 -0.105468,-0.09375 -0.105469,0 -0.105469,0.035156 -0.140625,0.11718748 -0.140625,0.48046875 -0.5625,0.84375 -0.949219,0.84375 -0.28125,0 -0.421875,-0.1875 -0.421875,-0.4453125 0,-0.1875 0.164062,-0.82031248 0.363281,-1.59374998 0.128906,-0.5390625 0.445313,-0.7148438 0.679688,-0.7148438 0.01172,0 0.222656,0 0.375,0.1054688 -0.222657,0.058594 -0.304688,0.2578125 -0.304688,0.375 0,0.1523437 0.117188,0.2578125 0.28125,0.2578125 0.152344,0 0.386719,-0.1289063 0.386719,-0.421875 0,-0.3867188 -0.445313,-0.5039063 -0.726563,-0.5039063 -0.351562,0 -0.632812,0.2226563 -0.785156,0.4921875 -0.117187,-0.2929687 -0.4453124,-0.4921875 -0.8320311,-0.4921875 -0.7851563,0 -1.2304688,0.8554688 -1.2304688,1.0664063 0,0.082031 0.1054688,0.082031 0.1171875,0.082031 0.09375,0 0.1054688,-0.023437 0.140625,-0.1171875 0.1757813,-0.5390625 0.609375,-0.84375 0.9492188,-0.84375 0.234375,0 0.421875,0.1289063 0.421875,0.46875 0,0.1289063 -0.082031,0.4804688 -0.1523438,0.7148438 z m 0,0"
         style="fill:#000000;fill-opacity:1;fill-rule:nonzero;stroke:none" />
      <path
         id="path33"
         d="m 12.930781,-5.2274141 c -0.05859,0 -0.140625,0 -0.140625,0.082031 0,0.035156 0.02344,0.058594 0.07031,0.1054687 0.597656,0.5507813 1.265625,1.4882813 1.265625,3.2929688 0,1.45312499 -0.457032,2.55468749 -1.207032,3.234375 -0.117187,0.1171875 -0.128906,0.1289062 -0.128906,0.1640625 0,0.035156 0.02344,0.082031 0.09375,0.082031 0.08203,0 0.75,-0.4570312 1.207031,-1.32421871 0.304688,-0.5859375 0.503907,-1.3359375 0.503907,-2.15624999 0,-0.984375 -0.292969,-2.5078125 -1.664063,-3.4804688 z m 0,0"
         style="fill:#000000;fill-opacity:1;fill-rule:nonzero;stroke:none" />
    </g>
  </g>
</svg>
