<?xml version="1.0" encoding="UTF-8" standalone="no"?>
<!-- Created with Inkscape (http://www.inkscape.org/) -->

<svg
   version="1.1"
   id="svg1"
   width="326.89999"
   height="219.20534"
   viewBox="0 0 326.89999 219.20534"
   xmlns="http://www.w3.org/2000/svg"
   xmlns:svg="http://www.w3.org/2000/svg">
  <defs
     id="defs1" />
  <g
     id="g1">
    <path
       id="path1"
       d="m -110.55237,0 h 221.10474 m -221.10474,28.3468 h 221.10474 m -221.10474,28.34682 h 221.10474 m -221.10474,28.3468 H 110.55237 M -85.04042,-25.51193 v 136.0643 m 28.3468,-136.0643 v 136.0643 m 28.34682,-136.0643 v 136.0643 M 0,-25.51193 v 136.0643 m 28.3468,-136.0643 v 136.0643 m 28.34682,-136.0643 v 136.0643 m 28.3468,-136.0643 v 136.0643"
       style="fill:none;stroke:#808080;stroke-width:0.19925;stroke-linecap:butt;stroke-linejoin:miter;stroke-miterlimit:10;stroke-dasharray:none;stroke-opacity:1"
       transform="matrix(1.3333333,0,0,-1.3333333,155.22667,177.364)" />
    <path
       id="path2"
       d="M -116.22208,0 H 115.76381"
       style="fill:none;stroke:#000000;stroke-width:0.3985;stroke-linecap:butt;stroke-linejoin:miter;stroke-miterlimit:10;stroke-dasharray:none;stroke-opacity:1"
       transform="matrix(1.3333333,0,0,-1.3333333,155.22667,177.364)" />
    <path
       id="path3"
       d="M -1.19551,1.59401 C -1.09587,0.99626 0,0.09961 0.29886,0 0,-0.09961 -1.09587,-0.99626 -1.19551,-1.59401"
       style="fill:none;stroke:#000000;stroke-width:0.31879;stroke-linecap:round;stroke-linejoin:round;stroke-miterlimit:10;stroke-dasharray:none;stroke-opacity:1"
       transform="matrix(1.3333333,0,0,-1.3333333,309.57841,177.364)" />
    <path
       id="path4"
       d="m 3.3273047,-3.0127266 c 0.058594,-0.2578125 0.2929687,-1.171875 0.984375,-1.171875 0.046875,0 0.2929687,0 0.5039062,0.1289063 -0.28125,0.046875 -0.4804687,0.3046875 -0.4804687,0.5390625 0,0.1640625 0.1054687,0.3515625 0.375,0.3515625 0.2226562,0 0.5390625,-0.1875 0.5390625,-0.5859375 0,-0.515625 -0.5859375,-0.65625 -0.9257813,-0.65625 -0.5742187,0 -0.9257812,0.5273437 -1.0429687,0.7617187 -0.2578125,-0.65625 -0.7851563,-0.7617187 -1.078125,-0.7617187 -1.0429688,0 -1.60546876,1.2890625 -1.60546876,1.5351562 0,0.1054688 0.10546875,0.1054688 0.1171875,0.1054688 0.0820313,0 0.1171875,-0.023437 0.12890625,-0.1171875 0.33984371,-1.0546875 0.99609371,-1.3007813 1.33593751,-1.3007813 0.1875,0 0.5390625,0.09375 0.5390625,0.6679688 0,0.3046875 -0.1640625,0.9726562 -0.5390625,2.3671875 -0.1523438,0.62109374 -0.5039063,1.04296874 -0.9492188,1.04296874 -0.058594,0 -0.28124996,0 -0.49218746,-0.12890625 0.24609375,-0.0585938 0.46874996,-0.26953125 0.46874996,-0.5390625 0,-0.26953129 -0.22265621,-0.35156249 -0.37499996,-0.35156249 -0.29296875,0 -0.5390625,0.25781249 -0.5390625,0.57421874 0,0.45703125 0.4921875,0.65625 0.93749996,0.65625 0.65625,0 1.0078125,-0.69140625 1.0429688,-0.75 0.1171875,0.36328125 0.4804687,0.75 1.078125,0.75 1.0195312,0 1.59375,-1.27734374 1.59375,-1.53515624 0,-0.09375 -0.09375,-0.09375 -0.1289063,-0.09375 -0.082031,0 -0.1054687,0.035156 -0.1289062,0.1054687 -0.328125,1.06640629 -0.9960938,1.31250004 -1.3242188,1.31250004 -0.3867187,0 -0.5390625,-0.328125 -0.5390625,-0.65625 0,-0.22265625 0.058594,-0.44531254 0.1640625,-0.87890624 z m 0,0"
       style="fill:#000000;fill-opacity:1;fill-rule:nonzero;stroke:none"
       aria-label="x"
       transform="matrix(1.3333333,0,0,1.3333333,314.88,180.224)" />
    <path
       id="path5"
       d="M 0,-31.18166 V 115.76381"
       style="fill:none;stroke:#000000;stroke-width:0.3985;stroke-linecap:butt;stroke-linejoin:miter;stroke-miterlimit:10;stroke-dasharray:none;stroke-opacity:1"
       transform="matrix(1.3333333,0,0,-1.3333333,155.22667,177.364)" />
    <path
       id="path6"
       d="M -1.19551,1.59401 C -1.09587,0.99626 0,0.09961 0.29886,0 0,-0.09961 -1.09587,-0.99626 -1.19551,-1.59401"
       style="fill:none;stroke:#000000;stroke-width:0.31879;stroke-linecap:round;stroke-linejoin:round;stroke-miterlimit:10;stroke-dasharray:none;stroke-opacity:1"
       transform="matrix(0,-1.3333333,-1.3333333,0,155.22667,23.012253)" />
    <g
       id="g6"
       aria-label="f(x)"
       transform="matrix(1.3333333,0,0,1.3333333,142.29867,14.389333)">
      <path
         id="path7"
         d="M 3.6549063,-3.9834062 H 4.510375 c 0.1992188,0 0.3046875,0 0.3046875,-0.1992188 0,-0.1054687 -0.1054687,-0.1054687 -0.2695312,-0.1054687 H 3.7135 l 0.2109375,-1.1367188 c 0.035156,-0.2109375 0.1757813,-0.9140625 0.234375,-1.0429687 0.09375,-0.1875 0.2578125,-0.3398438 0.46875,-0.3398438 0.046875,0 0.3046875,0 0.4921875,0.1875 -0.4335937,0.035156 -0.5390625,0.3867188 -0.5390625,0.5390625 0,0.2226563 0.1757813,0.3398438 0.3632813,0.3398438 0.2695312,0 0.5507812,-0.2109375 0.5507812,-0.5976563 0,-0.4570312 -0.4570312,-0.6796875 -0.8671875,-0.6796875 -0.3398437,0 -0.9609375,0.1757813 -1.265625,1.1601563 -0.058594,0.2109375 -0.082031,0.3164062 -0.328125,1.5703125 H 2.354125 c -0.1992187,0 -0.3046875,0 -0.3046875,0.1875 0,0.1171875 0.09375,0.1171875 0.28125,0.1171875 h 0.65625 l -0.75,3.93749995 C 2.0611563,0.91503125 1.8970938,1.8290938 1.36975,1.8290938 c -0.035156,0 -0.28125,0 -0.46875,-0.1875 C 1.3580313,1.6181563 1.4400625,1.254875 1.4400625,1.1025313 1.4400625,0.879875 1.2642813,0.7626875 1.0767813,0.7626875 0.81896875,0.7626875 0.526,0.973625 0.526,1.3603438 c 0,0.4453125 0.43359375,0.6796875 0.84375,0.6796875 0.5507813,0 0.9492188,-0.5859375 1.125,-0.9609375 0.328125,-0.63281255 0.5507813,-1.8398438 0.5625,-1.9101563 z m 0,0"
         style="fill:#000000;fill-opacity:1;fill-rule:nonzero;stroke:none" />
      <path
         id="path8"
         d="m 9.2418203,2.3915938 c 0,-0.035156 0,-0.046875 -0.1640625,-0.2226563 C 7.8355703,0.91503125 7.5074453,-0.95996875 7.5074453,-2.495125 c 0,-1.7226562 0.3867188,-3.4570312 1.6054688,-4.7109375 0.1289062,-0.1171875 0.1289062,-0.1289062 0.1289062,-0.1640625 0,-0.070312 -0.035156,-0.1054687 -0.09375,-0.1054687 -0.1054687,0 -0.9960937,0.6796875 -1.5820312,1.9453125 -0.515625,1.1015625 -0.6328125,2.203125 -0.6328125,3.0351562 0,0.7851563 0.1171875,1.9921875 0.65625,3.1171875 0.5976562,1.21875 1.453125,1.875 1.5585937,1.875 0.058594,0 0.09375,-0.035156 0.09375,-0.1054687 z m 0,0"
         style="fill:#000000;fill-opacity:1;fill-rule:nonzero;stroke:none" />
      <path
         id="path9"
         d="m 13.152953,-3.01075 c 0.05859,-0.2578125 0.292969,-1.171875 0.984375,-1.171875 0.04687,0 0.292969,0 0.503906,0.1289063 -0.28125,0.046875 -0.480468,0.3046875 -0.480468,0.5390625 0,0.1640625 0.105468,0.3515625 0.375,0.3515625 0.222656,0 0.539062,-0.1875 0.539062,-0.5859375 0,-0.515625 -0.585937,-0.65625 -0.925781,-0.65625 -0.574219,0 -0.925781,0.5273437 -1.042969,0.7617187 -0.257812,-0.65625 -0.785156,-0.7617187 -1.078125,-0.7617187 -1.042969,0 -1.605469,1.2890625 -1.605469,1.5351562 0,0.1054688 0.105469,0.1054688 0.117188,0.1054688 0.08203,0 0.117187,-0.023437 0.128906,-0.1171875 0.339844,-1.0546875 0.996094,-1.3007813 1.335938,-1.3007813 0.1875,0 0.539062,0.09375 0.539062,0.6679688 0,0.3046875 -0.164062,0.9726562 -0.539062,2.3671875 -0.152344,0.6210937 -0.503907,1.0429687 -0.949219,1.0429687 -0.05859,0 -0.28125,0 -0.492188,-0.12890625 0.246094,-0.0585937 0.46875,-0.26953125 0.46875,-0.5390625 0,-0.26953125 -0.222656,-0.35156245 -0.375,-0.35156245 -0.292968,0 -0.539062,0.25781245 -0.539062,0.5742187 0,0.45703125 0.492187,0.65625 0.9375,0.65625 0.65625,0 1.007812,-0.69140625 1.042969,-0.75 0.117187,0.36328125 0.480468,0.75 1.078125,0.75 1.019531,0 1.59375,-1.2773437 1.59375,-1.5351562 0,-0.09375 -0.09375,-0.09375 -0.128907,-0.09375 -0.08203,0 -0.105468,0.035156 -0.128906,0.1054687 -0.328125,1.06640625 -0.996094,1.3125 -1.324219,1.3125 -0.386718,0 -0.539062,-0.328125 -0.539062,-0.65625 0,-0.22265625 0.05859,-0.4453125 0.164062,-0.8789062 z m 0,0"
         style="fill:#000000;fill-opacity:1;fill-rule:nonzero;stroke:none" />
      <path
         id="path10"
         d="m 18.400023,-2.495125 c 0,-0.7734375 -0.117187,-1.9804687 -0.65625,-3.1054687 -0.597656,-1.21875 -1.464843,-1.875 -1.558593,-1.875 -0.05859,0 -0.105469,0.046875 -0.105469,0.1054687 0,0.035156 0,0.046875 0.199219,0.234375 0.972656,0.984375 1.535156,2.5664063 1.535156,4.640625 0,1.7109375 -0.363281,3.45703125 -1.59375,4.7226563 -0.140625,0.1171875 -0.140625,0.1289062 -0.140625,0.1640625 0,0.058594 0.04687,0.1054687 0.105469,0.1054687 0.09375,0 0.996093,-0.6796875 1.582031,-1.9453125 0.503906,-1.1015625 0.632812,-2.203125 0.632812,-3.046875 z m 0,0"
         style="fill:#000000;fill-opacity:1;fill-rule:nonzero;stroke:none" />
    </g>
    <path
       id="path11"
       d="M 14.17339,34.01608 V 69.9106"
       style="fill:none;stroke:#000000;stroke-width:1.19553;stroke-linecap:butt;stroke-linejoin:miter;stroke-miterlimit:10;stroke-dasharray:none;stroke-opacity:1"
       transform="matrix(1.3333333,0,0,-1.3333333,155.22667,177.364)" />
    <path
       id="path12"
       d="M -1.91284,2.55046 C -1.75343,1.59402 0,0.15938 0.4782,0 0,-0.15938 -1.75343,-1.59402 -1.91284,-2.55046"
       style="fill:none;stroke:#000000;stroke-width:0.9564;stroke-linecap:round;stroke-linejoin:round;stroke-miterlimit:10;stroke-dasharray:none;stroke-opacity:1"
       transform="matrix(0,-1.3333333,-1.3333333,0,174.12452,84.149867)" />
    <path
       id="path13"
       d="M -14.17339,34.01608 V 69.9106"
       style="fill:none;stroke:#000000;stroke-width:1.19553;stroke-linecap:butt;stroke-linejoin:miter;stroke-miterlimit:10;stroke-dasharray:none;stroke-opacity:1"
       transform="matrix(1.3333333,0,0,-1.3333333,155.22667,177.364)" />
    <path
       id="path14"
       d="M -1.91284,2.55046 C -1.75343,1.59402 0,0.15938 0.4782,0 0,-0.15938 -1.75343,-1.59402 -1.91284,-2.55046"
       style="fill:none;stroke:#000000;stroke-width:0.9564;stroke-linecap:round;stroke-linejoin:round;stroke-miterlimit:10;stroke-dasharray:none;stroke-opacity:1"
       transform="matrix(0,-1.3333333,-1.3333333,0,136.32881,84.149867)" />
    <path
       id="path15"
       d="m -56.69362,113.38724 4.72418,-18.10951 4.72419,-16.53507 4.72418,-14.95976 4.72418,-13.38574 4.72418,-11.8109 4.72418,-10.23601 4.72419,-8.662 4.72416,-7.0867 L -14.176,7.08928 -9.45181,3.15146 -4.72763,0.78806 -0.00345,0 4.7207,0.7859 l 4.72419,2.3608 4.72416,3.93567 4.72418,5.50967 4.72419,7.08496 4.72418,8.65943 4.72418,10.23384 4.72418,11.80827 4.72418,13.38359 4.72419,14.95761 4.72417,16.53246 4.72418,18.10734"
       style="fill:none;stroke:#0000ff;stroke-width:0.3985;stroke-linecap:butt;stroke-linejoin:miter;stroke-miterlimit:10;stroke-dasharray:none;stroke-opacity:1"
       transform="matrix(1.3333333,0,0,-1.3333333,155.22667,177.364)" />
    <g
       id="g15"
       aria-label="f(x)=x&#10;2"
       transform="matrix(1.3333333,0,0,1.3333333,235.50133,29.966667)">
      <path
         id="path16"
         d="m 3.65525,-3.9857422 h 0.8554688 c 0.1992187,0 0.3046875,0 0.3046875,-0.1992187 0,-0.1054688 -0.1054688,-0.1054688 -0.2695313,-0.1054688 H 3.7138438 l 0.2109375,-1.1367187 c 0.035156,-0.2109375 0.1757812,-0.9140625 0.234375,-1.0429688 0.09375,-0.1875 0.2578125,-0.3398437 0.46875,-0.3398437 0.046875,0 0.3046875,0 0.4921875,0.1875 -0.4335938,0.035156 -0.5390625,0.3867187 -0.5390625,0.5390625 0,0.2226562 0.1757812,0.3398437 0.3632812,0.3398437 0.2695313,0 0.5507813,-0.2109375 0.5507813,-0.5976562 0,-0.4570313 -0.4570313,-0.6796875 -0.8671875,-0.6796875 -0.3398438,0 -0.9609375,0.1757812 -1.265625,1.1601562 -0.058594,0.2109375 -0.082031,0.3164063 -0.328125,1.5703125 H 2.3544688 c -0.1992188,0 -0.3046875,0 -0.3046875,0.1875 0,0.1171875 0.09375,0.1171875 0.28125,0.1171875 h 0.65625 l -0.75,3.93750001 C 2.0615,0.91269531 1.8974375,1.8267578 1.3700938,1.8267578 c -0.035156,0 -0.28125,0 -0.46875005,-0.1875 C 1.358375,1.6158203 1.4404063,1.2525391 1.4404063,1.1001953 c 0,-0.22265624 -0.1757813,-0.33984374 -0.3632813,-0.33984374 -0.2578125,0 -0.55078125,0.2109375 -0.55078125,0.59765624 0,0.4453125 0.43359375,0.6796875 0.84375005,0.6796875 0.5507812,0 0.9492187,-0.5859375 1.125,-0.9609375 0.328125,-0.63281249 0.5507812,-1.83984374 0.5625,-1.91015624 z m 0,0"
         style="fill:#0000ff;fill-opacity:1;fill-rule:nonzero;stroke:none" />
      <path
         id="path17"
         d="m 9.2421641,2.3892578 c 0,-0.035156 0,-0.046875 -0.1640625,-0.2226562 -1.2421875,-1.25390629 -1.5703125,-3.12890629 -1.5703125,-4.6640625 0,-1.7226563 0.3867187,-3.4570313 1.6054687,-4.7109375 0.1289063,-0.1171875 0.1289063,-0.1289063 0.1289063,-0.1640625 0,-0.070312 -0.035156,-0.1054688 -0.09375,-0.1054688 -0.1054688,0 -0.9960938,0.6796875 -1.5820313,1.9453125 -0.515625,1.1015625 -0.6328125,2.203125 -0.6328125,3.0351563 0,0.7851562 0.1171875,1.99218746 0.65625,3.11718746 0.5976563,1.21875004 1.453125,1.87500004 1.5585938,1.87500004 0.058594,0 0.09375,-0.035156 0.09375,-0.1054688 z m 0,0"
         style="fill:#0000ff;fill-opacity:1;fill-rule:nonzero;stroke:none" />
      <path
         id="path18"
         d="m 13.153297,-3.0130859 c 0.05859,-0.2578125 0.292969,-1.171875 0.984375,-1.171875 0.04687,0 0.292969,0 0.503906,0.1289062 -0.28125,0.046875 -0.480469,0.3046875 -0.480469,0.5390625 0,0.1640625 0.105469,0.3515625 0.375,0.3515625 0.222657,0 0.539063,-0.1875 0.539063,-0.5859375 0,-0.515625 -0.585938,-0.65625 -0.925781,-0.65625 -0.574219,0 -0.925782,0.5273438 -1.042969,0.7617188 -0.257813,-0.65625 -0.785156,-0.7617188 -1.078125,-0.7617188 -1.042969,0 -1.605469,1.2890625 -1.605469,1.5351563 0,0.1054687 0.105469,0.1054687 0.117188,0.1054687 0.08203,0 0.117187,-0.023437 0.128906,-0.1171875 0.339844,-1.0546875 0.996094,-1.3007812 1.335937,-1.3007812 0.1875,0 0.539063,0.09375 0.539063,0.6679687 0,0.3046875 -0.164063,0.9726563 -0.539063,2.3671875 -0.152343,0.62109376 -0.503906,1.04296876 -0.949218,1.04296876 -0.05859,0 -0.28125,0 -0.492188,-0.12890625 0.246094,-0.0585938 0.46875,-0.26953125 0.46875,-0.5390625 0,-0.26953121 -0.222656,-0.35156251 -0.375,-0.35156251 -0.292969,0 -0.539062,0.25781251 -0.539062,0.57421876 0,0.45703125 0.492187,0.65625 0.9375,0.65625 0.65625,0 1.007812,-0.69140625 1.042968,-0.75 0.117188,0.36328125 0.480469,0.75 1.078125,0.75 1.019532,0 1.59375,-1.27734376 1.59375,-1.53515626 0,-0.09375 -0.09375,-0.09375 -0.128906,-0.09375 -0.08203,0 -0.105469,0.035156 -0.128906,0.1054688 -0.328125,1.06640621 -0.996094,1.31249996 -1.324219,1.31249996 -0.386719,0 -0.539062,-0.328125 -0.539062,-0.65625 0,-0.22265625 0.05859,-0.44531246 0.164062,-0.87890626 z m 0,0"
         style="fill:#0000ff;fill-opacity:1;fill-rule:nonzero;stroke:none" />
      <path
         id="path19"
         d="m 18.400367,-2.4974609 c 0,-0.7734375 -0.117187,-1.9804688 -0.65625,-3.1054688 -0.597656,-1.21875 -1.464844,-1.875 -1.558594,-1.875 -0.05859,0 -0.105468,0.046875 -0.105468,0.1054688 0,0.035156 0,0.046875 0.199218,0.234375 0.972657,0.984375 1.535157,2.5664062 1.535157,4.640625 0,1.71093746 -0.363282,3.45703121 -1.59375,4.7226562 -0.140625,0.1171875 -0.140625,0.1289063 -0.140625,0.1640625 0,0.058594 0.04687,0.1054688 0.105468,0.1054688 0.09375,0 0.996094,-0.6796875 1.582032,-1.94531254 0.503906,-1.1015625 0.632812,-2.20312496 0.632812,-3.04687496 z m 10.605469,-0.7617188 c 0.152344,0 0.339844,0 0.339844,-0.1992187 0,-0.1992188 -0.1875,-0.1992188 -0.328125,-0.1992188 h -5.964844 c -0.140625,0 -0.328125,0 -0.328125,0.1992188 0,0.1992187 0.1875,0.1992187 0.339844,0.1992187 z m 0.01172,1.9335938 c 0.140625,0 0.328125,0 0.328125,-0.1992188 0,-0.1992187 -0.1875,-0.1992187 -0.339844,-0.1992187 H 23.06443 c -0.152344,0 -0.339844,0 -0.339844,0.1992187 0,0.1992188 0.1875,0.1992188 0.328125,0.1992188 z m 0,0"
         style="fill:#0000ff;fill-opacity:1;fill-rule:nonzero;stroke:none" />
      <path
         id="path20"
         d="m 36.004859,-3.0130859 c 0.05859,-0.2578125 0.292969,-1.171875 0.984375,-1.171875 0.04687,0 0.292969,0 0.503907,0.1289062 -0.28125,0.046875 -0.480469,0.3046875 -0.480469,0.5390625 0,0.1640625 0.105469,0.3515625 0.375,0.3515625 0.222656,0 0.539062,-0.1875 0.539062,-0.5859375 0,-0.515625 -0.585937,-0.65625 -0.925781,-0.65625 -0.574219,0 -0.925781,0.5273438 -1.042969,0.7617188 -0.257812,-0.65625 -0.785156,-0.7617188 -1.078125,-0.7617188 -1.042968,0 -1.605468,1.2890625 -1.605468,1.5351563 0,0.1054687 0.105468,0.1054687 0.117187,0.1054687 0.08203,0 0.117188,-0.023437 0.128906,-0.1171875 0.339844,-1.0546875 0.996094,-1.3007812 1.335938,-1.3007812 0.1875,0 0.539062,0.09375 0.539062,0.6679687 0,0.3046875 -0.164062,0.9726563 -0.539062,2.3671875 -0.152344,0.62109376 -0.503906,1.04296876 -0.949219,1.04296876 -0.05859,0 -0.28125,0 -0.492187,-0.12890625 0.246093,-0.0585938 0.46875,-0.26953125 0.46875,-0.5390625 0,-0.26953121 -0.222657,-0.35156251 -0.375,-0.35156251 -0.292969,0 -0.539063,0.25781251 -0.539063,0.57421876 0,0.45703125 0.492188,0.65625 0.9375,0.65625 0.65625,0 1.007813,-0.69140625 1.042969,-0.75 0.117187,0.36328125 0.480469,0.75 1.078125,0.75 1.019531,0 1.59375,-1.27734376 1.59375,-1.53515626 0,-0.09375 -0.09375,-0.09375 -0.128906,-0.09375 -0.08203,0 -0.105469,0.035156 -0.128907,0.1054688 -0.328125,1.06640621 -0.996093,1.31249996 -1.324218,1.31249996 -0.386719,0 -0.539063,-0.328125 -0.539063,-0.65625 0,-0.22265625 0.05859,-0.44531246 0.164063,-0.87890626 z m 0,0"
         style="fill:#0000ff;fill-opacity:1;fill-rule:nonzero;stroke:none" />
      <path
         id="path21"
         d="m 41.884742,-4.8822266 h -0.234375 c -0.02344,0.1523438 -0.08203,0.5625 -0.175781,0.6328125 -0.05859,0.035156 -0.597656,0.035156 -0.691406,0.035156 h -1.289063 c 0.738281,-0.6445313 0.984375,-0.84375 1.394531,-1.171875 0.515625,-0.4101563 0.996094,-0.84375 0.996094,-1.5 0,-0.84375 -0.738281,-1.359375 -1.628906,-1.359375 -0.867188,0 -1.453125,0.609375 -1.453125,1.2421875 0,0.3632812 0.304687,0.3984375 0.375,0.3984375 0.164062,0 0.375,-0.1171875 0.375,-0.375 0,-0.1289063 -0.05859,-0.3632813 -0.421875,-0.3632813 0.222656,-0.5039062 0.691406,-0.65625 1.019531,-0.65625 0.703125,0 1.066406,0.5507813 1.066406,1.1132813 0,0.609375 -0.433593,1.0898437 -0.65625,1.3359375 l -1.6875,1.6640625 c -0.07031,0.058594 -0.07031,0.070312 -0.07031,0.2695312 h 2.882812 z m 0,0"
         style="fill:#0000ff;fill-opacity:1;fill-rule:nonzero;stroke:none" />
    </g>
    <path
       id="path22"
       d="M 1.4174,0 C 1.4174,0.78282 0.78282,1.4174 0,1.4174 -0.78282,1.4174 -1.4174,0.78282 -1.4174,0 c 0,-0.78282 0.63458,-1.4174 1.4174,-1.4174 0.78282,0 1.4174,0.63458 1.4174,1.4174 z"
       style="fill:#000000;fill-opacity:1;fill-rule:nonzero;stroke:#000000;stroke-width:0.3985;stroke-linecap:butt;stroke-linejoin:miter;stroke-miterlimit:10;stroke-dasharray:none;stroke-opacity:1"
       transform="matrix(1.3333333,0,0,-1.3333333,155.22667,177.364)" />
    <path
       id="path23"
       d="M 2.40375,-6.587 C 2.31,-6.8096562 2.2865625,-6.8096562 2.0521875,-6.8096562 h -1.6875 V -6.49325 h 0.24609375 c 0.76171875,0 0.78515625,0.1054688 0.78515625,0.46875 v 4.9804688 c 0,0.2695312 0,0.7382812 -1.03125,0.7382812 v 0.3046875 c 0.3515625,-0.01171875 0.84375,-0.03515625 1.171875,-0.03515625 0.328125,0 0.8203125,0.0234375 1.1601563,0.03515625 V -0.30575 c -1.0195313,0 -1.0195313,-0.46875 -1.0195313,-0.7382812 v -5.3671875 h 0.011719 L 4.09125,-0.22371875 c 0.046875,0.12890625 0.09375,0.22265625 0.1992188,0.22265625 0.1054687,0 0.1289062,-0.08203125 0.1757812,-0.1875 L 6.9154688,-6.49325 h 0.011719 v 5.71875 c 0,0.3515625 -0.023437,0.46875 -0.7851562,0.46875 H 5.8959375 v 0.3046875 c 0.375,-0.03515625 1.0429688,-0.03515625 1.4414063,-0.03515625 0.3867187,0 1.0546875,0 1.4179687,0.03515625 V -0.30575 h -0.234375 c -0.7734375,0 -0.7851562,-0.1171875 -0.7851562,-0.46875 v -5.25 c 0,-0.3632812 0.011719,-0.46875 0.7851562,-0.46875 h 0.234375 V -6.8096562 H 7.0795313 C 6.81,-6.8096562 6.81,-6.7979375 6.7396875,-6.6104375 L 4.56,-1.008875 Z m 9.360352,0.2929688 c 0.08203,-0.070312 0.164062,-0.1875 0.164062,-0.3046875 0,-0.1757813 -0.175781,-0.3515625 -0.351562,-0.3515625 -0.152344,0 -0.257813,0.1054687 -0.304688,0.1640625 L 10.076602,-5.2627812 10.252383,-5.087 Z m -0.873047,1.8867187 -1.3945316,0.1171875 v 0.3046875 c 0.6562496,0 0.7382816,0.058594 0.7382816,0.5507813 v 2.67187495 c 0,0.45703125 -0.105469,0.45703125 -0.7734378,0.45703125 v 0.3046875 c 0.3164062,-0.01171875 0.8554688,-0.03515625 1.1015628,-0.03515625 0.339843,0 0.691406,0.0234375 1.03125,0.03515625 V -0.30575 c -0.65625,0 -0.703125,-0.0585938 -0.703125,-0.4453125 z m 2.109375,0.984375 v 2.66015625 c 0,0.45703125 -0.117188,0.45703125 -0.785157,0.45703125 v 0.3046875 c 0.351563,-0.01171875 0.855469,-0.03515625 1.125,-0.03515625 0.257813,0 0.785157,0.0234375 1.113282,0.03515625 V -0.30575 c -0.65625,0 -0.773438,0 -0.773438,-0.45703125 V -2.5909062 c 0,-1.03125 0.714844,-1.59375 1.347656,-1.59375 0.621094,0 0.738282,0.5390625 0.738282,1.1015625 v 2.32031245 c 0,0.45703125 -0.117188,0.45703125 -0.773438,0.45703125 v 0.3046875 c 0.339844,-0.01171875 0.855469,-0.03515625 1.125,-0.03515625 0.257813,0 0.773438,0.0234375 1.113281,0.03515625 V -0.30575 c -0.515625,0 -0.773437,0 -0.785156,-0.3046875 V -2.508875 c 0,-0.8554687 0,-1.171875 -0.304687,-1.5234375 -0.140625,-0.1757812 -0.46875,-0.375 -1.042969,-0.375 -0.726563,0 -1.195313,0.4335938 -1.476563,1.0546875 v -1.0546875 l -1.40625,0.1171875 v 0.3046875 c 0.703125,0 0.785157,0.070312 0.785157,0.5625 z m 6.193359,-0.984375 -1.394531,0.1171875 v 0.3046875 c 0.65625,0 0.738281,0.058594 0.738281,0.5507813 v 2.67187495 c 0,0.45703125 -0.105469,0.45703125 -0.773437,0.45703125 v 0.3046875 c 0.316406,-0.01171875 0.855468,-0.03515625 1.101562,-0.03515625 0.339844,0 0.691406,0.0234375 1.03125,0.03515625 V -0.30575 c -0.65625,0 -0.703125,-0.0585938 -0.703125,-0.4453125 z m 0.04687,-1.734375 c 0,-0.3164062 -0.246094,-0.5273437 -0.527344,-0.5273437 -0.316406,0 -0.527343,0.2695312 -0.527343,0.5273437 0,0.2695313 0.210937,0.5273438 0.527343,0.5273438 0.28125,0 0.527344,-0.1992188 0.527344,-0.5273438 z m 2.06543,2.71875 v 2.66015625 c 0,0.45703125 -0.117188,0.45703125 -0.785156,0.45703125 v 0.3046875 c 0.351562,-0.01171875 0.855468,-0.03515625 1.125,-0.03515625 0.257812,0 0.785156,0.0234375 1.113281,0.03515625 V -0.30575 c -0.65625,0 -0.773438,0 -0.773438,-0.45703125 V -2.5909062 c 0,-1.03125 0.714844,-1.59375 1.347657,-1.59375 0.621093,0 0.738281,0.5390625 0.738281,1.1015625 v 2.32031245 c 0,0.45703125 -0.117188,0.45703125 -0.773438,0.45703125 v 0.3046875 c 0.339844,-0.01171875 0.855469,-0.03515625 1.125,-0.03515625 0.257813,0 0.773438,0.0234375 1.113282,0.03515625 V -0.30575 c -0.667969,0 -0.785157,0 -0.785157,-0.45703125 V -2.5909062 c 0,-1.03125 0.714844,-1.59375 1.347657,-1.59375 0.632812,0 0.738281,0.5390625 0.738281,1.1015625 v 2.32031245 c 0,0.45703125 -0.105469,0.45703125 -0.773438,0.45703125 v 0.3046875 c 0.351563,-0.01171875 0.855469,-0.03515625 1.125,-0.03515625 0.257813,0 0.773438,0.0234375 1.113282,0.03515625 V -0.30575 c -0.515625,0 -0.761719,0 -0.773438,-0.3046875 V -2.508875 c 0,-0.8554687 0,-1.171875 -0.316406,-1.5234375 -0.128906,-0.1757812 -0.46875,-0.375 -1.042969,-0.375 -0.832031,0 -1.277344,0.5976563 -1.441406,0.984375 -0.140625,-0.8671875 -0.878906,-0.984375 -1.324219,-0.984375 -0.726562,0 -1.195312,0.4335938 -1.476562,1.0546875 v -1.0546875 l -1.40625,0.1171875 v 0.3046875 c 0.703125,0 0.785156,0.070312 0.785156,0.5625 z m 11.885742,1.2890625 c 0,-1.2773437 -0.996094,-2.3320312 -2.191406,-2.3320312 -1.253907,0 -2.214844,1.0898437 -2.214844,2.3320312 0,1.2890625 1.03125,2.23828125 2.203125,2.23828125 1.207031,0 2.203125,-0.97265625 2.203125,-2.23828125 z m -2.191406,1.9921875 c -0.433594,0 -0.867188,-0.2109375 -1.136719,-0.66796875 C 29.605898,-1.24325 29.605898,-1.852625 29.605898,-2.2159062 c 0,-0.3867188 0,-0.9257813 0.246094,-1.359375 0.269531,-0.4570313 0.738281,-0.6679688 1.136719,-0.6679688 0.433594,0 0.867187,0.2226563 1.125,0.6445313 0.257812,0.4335937 0.257812,1.0078125 0.257812,1.3828125 0,0.3632812 0,0.9023437 -0.222656,1.33593745 -0.222656,0.4453125 -0.65625,0.73828125 -1.148437,0.73828125 z m 0,0"
       style="fill:#000000;fill-opacity:1;fill-rule:nonzero;stroke:none"
       aria-label="M´ınimo"
       transform="matrix(1.3333333,0,0,1.3333333,159.92,191.28267)" />
  </g>
</svg>
