<?xml version="1.0" encoding="UTF-8" standalone="no"?>
<!-- Created with Inkscape (http://www.inkscape.org/) -->

<svg
   version="1.1"
   id="svg1"
   width="339.67334"
   height="235.70399"
   viewBox="0 0 339.67334 235.70399"
   xmlns="http://www.w3.org/2000/svg"
   xmlns:svg="http://www.w3.org/2000/svg">
  <defs
     id="defs1" />
  <g
     id="g1">
    <path
       id="path1"
       d="m -110.55237,-85.04042 h 221.10474 m -221.10474,28.3468 H 110.55237 M -110.55237,-28.3468 H 110.55237 M -110.55237,0 H 110.55237 M -85.04042,-110.55237 v 136.0643 m 28.3468,-136.0643 v 136.0643 m 28.34682,-136.0643 V 25.51193 M 0,-110.55237 v 136.0643 m 28.3468,-136.0643 v 136.0643 m 28.34682,-136.0643 v 136.0643 m 28.3468,-136.0643 v 136.0643"
       style="fill:none;stroke:#808080;stroke-width:0.19925;stroke-linecap:butt;stroke-linejoin:miter;stroke-miterlimit:10;stroke-dasharray:none;stroke-opacity:1"
       transform="matrix(1.3333333,0,0,-1.3333333,155.22667,63.978667)" />
    <path
       id="path2"
       d="M -116.22208,0 H 115.76381"
       style="fill:none;stroke:#000000;stroke-width:0.3985;stroke-linecap:butt;stroke-linejoin:miter;stroke-miterlimit:10;stroke-dasharray:none;stroke-opacity:1"
       transform="matrix(1.3333333,0,0,-1.3333333,155.22667,63.978667)" />
    <path
       id="path3"
       d="M -1.19551,1.59401 C -1.09587,0.99626 0,0.09961 0.29886,0 0,-0.09961 -1.09587,-0.99626 -1.19551,-1.59401"
       style="fill:none;stroke:#000000;stroke-width:0.31879;stroke-linecap:round;stroke-linejoin:round;stroke-miterlimit:10;stroke-dasharray:none;stroke-opacity:1"
       transform="matrix(1.3333333,0,0,-1.3333333,309.57841,63.978667)" />
    <path
       id="path4"
       d="m 3.3273047,-3.0108359 c 0.058594,-0.2578125 0.2929687,-1.171875 0.984375,-1.171875 0.046875,0 0.2929687,0 0.5039062,0.1289062 -0.28125,0.046875 -0.4804687,0.3046875 -0.4804687,0.5390625 0,0.1640625 0.1054687,0.3515625 0.375,0.3515625 0.2226562,0 0.5390625,-0.1875 0.5390625,-0.5859375 0,-0.515625 -0.5859375,-0.65625 -0.9257813,-0.65625 -0.5742187,0 -0.9257812,0.5273438 -1.0429687,0.7617188 -0.2578125,-0.65625 -0.7851563,-0.7617188 -1.078125,-0.7617188 -1.0429688,0 -1.60546876,1.2890625 -1.60546876,1.5351563 0,0.1054687 0.10546875,0.1054687 0.1171875,0.1054687 0.0820313,0 0.1171875,-0.023437 0.12890625,-0.1171875 0.33984371,-1.0546875 0.99609371,-1.3007812 1.33593751,-1.3007812 0.1875,0 0.5390625,0.09375 0.5390625,0.6679687 0,0.3046875 -0.1640625,0.9726563 -0.5390625,2.3671875 -0.1523438,0.62109376 -0.5039063,1.04296876 -0.9492188,1.04296876 -0.058594,0 -0.28124996,0 -0.49218746,-0.12890625 0.24609375,-0.0585938 0.46874996,-0.26953125 0.46874996,-0.5390625 0,-0.26953121 -0.22265621,-0.35156251 -0.37499996,-0.35156251 -0.29296875,0 -0.5390625,0.25781251 -0.5390625,0.57421876 0,0.45703125 0.4921875,0.65625 0.93749996,0.65625 0.65625,0 1.0078125,-0.69140625 1.0429688,-0.75 0.1171875,0.36328125 0.4804687,0.75 1.078125,0.75 1.0195312,0 1.59375,-1.27734376 1.59375,-1.53515626 0,-0.09375 -0.09375,-0.09375 -0.1289063,-0.09375 -0.082031,0 -0.1054687,0.035156 -0.1289062,0.1054688 -0.328125,1.06640621 -0.9960938,1.31249996 -1.3242188,1.31249996 -0.3867187,0 -0.5390625,-0.328125 -0.5390625,-0.65625 0,-0.22265625 0.058594,-0.44531246 0.1640625,-0.87890626 z m 0,0"
       style="fill:#000000;fill-opacity:1;fill-rule:nonzero;stroke:none"
       aria-label="x"
       transform="matrix(1.3333333,0,0,1.3333333,314.88,66.838667)" />
    <path
       id="path5"
       d="M 0,-116.22208 V 30.72337"
       style="fill:none;stroke:#000000;stroke-width:0.3985;stroke-linecap:butt;stroke-linejoin:miter;stroke-miterlimit:10;stroke-dasharray:none;stroke-opacity:1"
       transform="matrix(1.3333333,0,0,-1.3333333,155.22667,63.978667)" />
    <path
       id="path6"
       d="M -1.19551,1.59401 C -1.09587,0.99626 0,0.09961 0.29886,0 0,-0.09961 -1.09587,-0.99626 -1.19551,-1.59401"
       style="fill:none;stroke:#000000;stroke-width:0.31879;stroke-linecap:round;stroke-linejoin:round;stroke-miterlimit:10;stroke-dasharray:none;stroke-opacity:1"
       transform="matrix(0,-1.3333333,-1.3333333,0,155.22667,23.014173)" />
    <g
       id="g6"
       aria-label="f(x)"
       transform="matrix(1.3333333,0,0,1.3333333,142.29867,14.389333)">
      <path
         id="path7"
         d="M 3.6549063,-3.9834062 H 4.510375 c 0.1992188,0 0.3046875,0 0.3046875,-0.1992188 0,-0.1054687 -0.1054687,-0.1054687 -0.2695312,-0.1054687 H 3.7135 l 0.2109375,-1.1367188 c 0.035156,-0.2109375 0.1757813,-0.9140625 0.234375,-1.0429687 0.09375,-0.1875 0.2578125,-0.3398438 0.46875,-0.3398438 0.046875,0 0.3046875,0 0.4921875,0.1875 -0.4335937,0.035156 -0.5390625,0.3867188 -0.5390625,0.5390625 0,0.2226563 0.1757813,0.3398438 0.3632813,0.3398438 0.2695312,0 0.5507812,-0.2109375 0.5507812,-0.5976563 0,-0.4570312 -0.4570312,-0.6796875 -0.8671875,-0.6796875 -0.3398437,0 -0.9609375,0.1757813 -1.265625,1.1601563 -0.058594,0.2109375 -0.082031,0.3164062 -0.328125,1.5703125 H 2.354125 c -0.1992187,0 -0.3046875,0 -0.3046875,0.1875 0,0.1171875 0.09375,0.1171875 0.28125,0.1171875 h 0.65625 l -0.75,3.93749995 C 2.0611563,0.91503125 1.8970938,1.8290938 1.36975,1.8290938 c -0.035156,0 -0.28125,0 -0.46875,-0.1875 C 1.3580313,1.6181563 1.4400625,1.254875 1.4400625,1.1025313 1.4400625,0.879875 1.2642813,0.7626875 1.0767813,0.7626875 0.81896875,0.7626875 0.526,0.973625 0.526,1.3603438 c 0,0.4453125 0.43359375,0.6796875 0.84375,0.6796875 0.5507813,0 0.9492188,-0.5859375 1.125,-0.9609375 0.328125,-0.63281255 0.5507813,-1.8398438 0.5625,-1.9101563 z m 0,0"
         style="fill:#000000;fill-opacity:1;fill-rule:nonzero;stroke:none" />
      <path
         id="path8"
         d="m 9.2418203,2.3915938 c 0,-0.035156 0,-0.046875 -0.1640625,-0.2226563 C 7.8355703,0.91503125 7.5074453,-0.95996875 7.5074453,-2.495125 c 0,-1.7226562 0.3867188,-3.4570312 1.6054688,-4.7109375 0.1289062,-0.1171875 0.1289062,-0.1289062 0.1289062,-0.1640625 0,-0.070312 -0.035156,-0.1054687 -0.09375,-0.1054687 -0.1054687,0 -0.9960937,0.6796875 -1.5820312,1.9453125 -0.515625,1.1015625 -0.6328125,2.203125 -0.6328125,3.0351562 0,0.7851563 0.1171875,1.9921875 0.65625,3.1171875 0.5976562,1.21875 1.453125,1.875 1.5585937,1.875 0.058594,0 0.09375,-0.035156 0.09375,-0.1054687 z m 0,0"
         style="fill:#000000;fill-opacity:1;fill-rule:nonzero;stroke:none" />
      <path
         id="path9"
         d="m 13.152953,-3.01075 c 0.05859,-0.2578125 0.292969,-1.171875 0.984375,-1.171875 0.04687,0 0.292969,0 0.503906,0.1289063 -0.28125,0.046875 -0.480468,0.3046875 -0.480468,0.5390625 0,0.1640625 0.105468,0.3515625 0.375,0.3515625 0.222656,0 0.539062,-0.1875 0.539062,-0.5859375 0,-0.515625 -0.585937,-0.65625 -0.925781,-0.65625 -0.574219,0 -0.925781,0.5273437 -1.042969,0.7617187 -0.257812,-0.65625 -0.785156,-0.7617187 -1.078125,-0.7617187 -1.042969,0 -1.605469,1.2890625 -1.605469,1.5351562 0,0.1054688 0.105469,0.1054688 0.117188,0.1054688 0.08203,0 0.117187,-0.023437 0.128906,-0.1171875 0.339844,-1.0546875 0.996094,-1.3007813 1.335938,-1.3007813 0.1875,0 0.539062,0.09375 0.539062,0.6679688 0,0.3046875 -0.164062,0.9726562 -0.539062,2.3671875 -0.152344,0.6210937 -0.503907,1.0429687 -0.949219,1.0429687 -0.05859,0 -0.28125,0 -0.492188,-0.12890625 0.246094,-0.0585937 0.46875,-0.26953125 0.46875,-0.5390625 0,-0.26953125 -0.222656,-0.35156245 -0.375,-0.35156245 -0.292968,0 -0.539062,0.25781245 -0.539062,0.5742187 0,0.45703125 0.492187,0.65625 0.9375,0.65625 0.65625,0 1.007812,-0.69140625 1.042969,-0.75 0.117187,0.36328125 0.480468,0.75 1.078125,0.75 1.019531,0 1.59375,-1.2773437 1.59375,-1.5351562 0,-0.09375 -0.09375,-0.09375 -0.128907,-0.09375 -0.08203,0 -0.105468,0.035156 -0.128906,0.1054687 -0.328125,1.06640625 -0.996094,1.3125 -1.324219,1.3125 -0.386718,0 -0.539062,-0.328125 -0.539062,-0.65625 0,-0.22265625 0.05859,-0.4453125 0.164062,-0.8789062 z m 0,0"
         style="fill:#000000;fill-opacity:1;fill-rule:nonzero;stroke:none" />
      <path
         id="path10"
         d="m 18.400023,-2.495125 c 0,-0.7734375 -0.117187,-1.9804687 -0.65625,-3.1054687 -0.597656,-1.21875 -1.464843,-1.875 -1.558593,-1.875 -0.05859,0 -0.105469,0.046875 -0.105469,0.1054687 0,0.035156 0,0.046875 0.199219,0.234375 0.972656,0.984375 1.535156,2.5664063 1.535156,4.640625 0,1.7109375 -0.363281,3.45703125 -1.59375,4.7226563 -0.140625,0.1171875 -0.140625,0.1289062 -0.140625,0.1640625 0,0.058594 0.04687,0.1054687 0.105469,0.1054687 0.09375,0 0.996093,-0.6796875 1.582031,-1.9453125 0.503906,-1.1015625 0.632812,-2.203125 0.632812,-3.046875 z m 0,0"
         style="fill:#000000;fill-opacity:1;fill-rule:nonzero;stroke:none" />
    </g>
    <path
       id="path11"
       d="m -51.02432,-120.19061 4.25184,14.6691 4.25185,13.39309 4.25185,12.11798 4.25184,10.84244 4.25185,9.56688 4.25185,8.29175 4.25186,7.01577 4.25183,5.74021 4.25186,4.46509 4.25185,3.18953 4.25184,1.91398 4.25185,0.63799 4.25183,-0.63669 4.25183,-1.91269 4.25186,-3.18823 4.25185,-4.46379 4.25184,-5.73891 4.25185,-7.01448 4.25186,-8.29045 4.25183,-9.56558 4.25185,-10.84113 4.25186,-12.11668 4.25183,-13.39182 4.25186,-14.66778"
       style="fill:none;stroke:#ff0000;stroke-width:0.3985;stroke-linecap:butt;stroke-linejoin:miter;stroke-miterlimit:10;stroke-dasharray:none;stroke-opacity:1"
       transform="matrix(1.3333333,0,0,-1.3333333,155.22667,63.978667)" />
    <g
       id="g11"
       aria-label="f(x)=−(x&#10;2&#10;+11)"
       transform="matrix(1.3333333,0,0,1.3333333,227.94533,227.956)">
      <path
         id="path12"
         d="m 3.6562344,-3.9836016 h 0.8554687 c 0.1992188,0 0.3046875,0 0.3046875,-0.1992187 0,-0.1054688 -0.1054687,-0.1054688 -0.2695312,-0.1054688 H 3.7148281 l 0.2109375,-1.1367187 c 0.035156,-0.2109375 0.1757813,-0.9140625 0.234375,-1.0429688 0.09375,-0.1875 0.2578125,-0.3398437 0.46875,-0.3398437 0.046875,0 0.3046875,0 0.4921875,0.1875 -0.4335937,0.035156 -0.5390625,0.3867187 -0.5390625,0.5390625 0,0.2226562 0.1757813,0.3398437 0.3632813,0.3398437 0.2695312,0 0.5507812,-0.2109375 0.5507812,-0.5976562 0,-0.4570313 -0.4570312,-0.6796875 -0.8671875,-0.6796875 -0.3398437,0 -0.9609375,0.1757812 -1.265625,1.1601562 -0.058594,0.2109375 -0.082031,0.3164063 -0.328125,1.5703125 H 2.3554531 c -0.1992187,0 -0.3046875,0 -0.3046875,0.1875 0,0.1171875 0.09375,0.1171875 0.28125,0.1171875 h 0.65625 l -0.75,3.93750004 C 2.0624844,0.91483594 1.8984219,1.8288984 1.3710781,1.8288984 c -0.035156,0 -0.28125,0 -0.46874998,-0.1875 C 1.3593594,1.6179609 1.4413906,1.2546797 1.4413906,1.1023359 c 0,-0.22265621 -0.1757812,-0.33984371 -0.3632812,-0.33984371 -0.25781253,0 -0.55078128,0.2109375 -0.55078128,0.59765621 0,0.4453125 0.43359375,0.6796875 0.84374998,0.6796875 0.5507813,0 0.9492188,-0.5859375 1.125,-0.9609375 0.328125,-0.63281246 0.5507813,-1.83984371 0.5625,-1.91015621 z m 0,0"
         style="fill:#ff0000;fill-opacity:1;fill-rule:nonzero;stroke:none" />
      <path
         id="path13"
         d="m 9.2431484,2.3913984 c 0,-0.035156 0,-0.046875 -0.1640625,-0.2226562 -1.2421875,-1.25390626 -1.5703125,-3.12890626 -1.5703125,-4.6640625 0,-1.7226563 0.3867188,-3.4570313 1.6054688,-4.7109375 0.1289062,-0.1171875 0.1289062,-0.1289063 0.1289062,-0.1640625 0,-0.070312 -0.035156,-0.1054688 -0.09375,-0.1054688 -0.1054687,0 -0.9960937,0.6796875 -1.5820312,1.9453125 -0.515625,1.1015625 -0.6328125,2.203125 -0.6328125,3.0351563 0,0.7851562 0.1171875,1.99218749 0.65625,3.11718749 0.5976562,1.21875001 1.453125,1.87500001 1.5585937,1.87500001 0.058594,0 0.09375,-0.035156 0.09375,-0.1054688 z m 0,0"
         style="fill:#ff0000;fill-opacity:1;fill-rule:nonzero;stroke:none" />
      <path
         id="path14"
         d="m 13.151352,-3.0109453 c 0.05859,-0.2578125 0.292968,-1.171875 0.984375,-1.171875 0.04687,0 0.292968,0 0.503906,0.1289062 -0.28125,0.046875 -0.480469,0.3046875 -0.480469,0.5390625 0,0.1640625 0.105469,0.3515625 0.375,0.3515625 0.222656,0 0.539063,-0.1875 0.539063,-0.5859375 0,-0.515625 -0.585938,-0.65625 -0.925782,-0.65625 -0.574218,0 -0.925781,0.5273438 -1.042968,0.7617188 -0.257813,-0.65625 -0.785157,-0.7617188 -1.078125,-0.7617188 -1.042969,0 -1.605469,1.2890625 -1.605469,1.5351563 0,0.1054687 0.105469,0.1054687 0.117187,0.1054687 0.08203,0 0.117188,-0.023437 0.128907,-0.1171875 0.339843,-1.0546875 0.996093,-1.3007812 1.335937,-1.3007812 0.1875,0 0.539063,0.09375 0.539063,0.6679687 0,0.3046875 -0.164063,0.9726563 -0.539063,2.3671875 -0.152344,0.62109379 -0.503906,1.04296879 -0.949219,1.04296879 -0.05859,0 -0.28125,0 -0.492187,-0.12890625 0.246094,-0.0585937 0.46875,-0.26953125 0.46875,-0.5390625 0,-0.26953124 -0.222656,-0.35156254 -0.375,-0.35156254 -0.292969,0 -0.539063,0.25781254 -0.539063,0.57421879 0,0.45703125 0.492188,0.65625 0.9375,0.65625 0.65625,0 1.007813,-0.69140625 1.042969,-0.75 0.117188,0.36328125 0.480469,0.75 1.078125,0.75 1.019531,0 1.59375,-1.27734379 1.59375,-1.53515629 0,-0.09375 -0.09375,-0.09375 -0.128906,-0.09375 -0.08203,0 -0.105469,0.035156 -0.128906,0.1054688 -0.328125,1.06640624 -0.996094,1.31249999 -1.324219,1.31249999 -0.386719,0 -0.539063,-0.328125 -0.539063,-0.65625 0,-0.22265625 0.05859,-0.44531249 0.164063,-0.87890629 z m 0,0"
         style="fill:#ff0000;fill-opacity:1;fill-rule:nonzero;stroke:none" />
      <path
         id="path15"
         d="m 18.401352,-2.4953203 c 0,-0.7734375 -0.117188,-1.9804688 -0.65625,-3.1054688 -0.597657,-1.21875 -1.464844,-1.875 -1.558594,-1.875 -0.05859,0 -0.105469,0.046875 -0.105469,0.1054688 0,0.035156 0,0.046875 0.199219,0.234375 0.972656,0.984375 1.535156,2.5664062 1.535156,4.640625 0,1.71093749 -0.363281,3.45703124 -1.59375,4.7226562 -0.140625,0.1171875 -0.140625,0.1289063 -0.140625,0.1640625 0,0.058594 0.04687,0.1054688 0.105469,0.1054688 0.09375,0 0.996094,-0.6796875 1.582031,-1.94531251 0.503906,-1.1015625 0.632813,-2.20312499 0.632813,-3.04687499 z M 29.00682,-3.2570391 c 0.152344,0 0.339844,0 0.339844,-0.1992187 0,-0.1992188 -0.1875,-0.1992188 -0.328125,-0.1992188 h -5.964844 c -0.140625,0 -0.328125,0 -0.328125,0.1992188 0,0.1992187 0.1875,0.1992187 0.339844,0.1992187 z m 0.01172,1.9335938 c 0.140625,0 0.328125,0 0.328125,-0.1992188 0,-0.1992187 -0.1875,-0.1992187 -0.339844,-0.1992187 h -5.941406 c -0.152344,0 -0.339844,0 -0.339844,0.1992187 0,0.1992188 0.1875,0.1992188 0.328125,0.1992188 z m 0,0"
         style="fill:#ff0000;fill-opacity:1;fill-rule:nonzero;stroke:none" />
      <path
         id="path16"
         d="m 39.237289,-2.2961016 c 0.175781,0 0.351563,0 0.351563,-0.1992187 0,-0.1992188 -0.175782,-0.1992188 -0.351563,-0.1992188 h -5.390625 c -0.164062,0 -0.339844,0 -0.339844,0.1992188 0,0.1992187 0.175782,0.1992187 0.339844,0.1992187 z m 0,0"
         style="fill:#ff0000;fill-opacity:1;fill-rule:nonzero;stroke:none" />
      <path
         id="path17"
         d="m 43.716781,2.3913984 c 0,-0.035156 0,-0.046875 -0.164062,-0.2226562 -1.242188,-1.25390626 -1.570313,-3.12890626 -1.570313,-4.6640625 0,-1.7226563 0.386719,-3.4570313 1.605469,-4.7109375 0.128906,-0.1171875 0.128906,-0.1289063 0.128906,-0.1640625 0,-0.070312 -0.03516,-0.1054688 -0.09375,-0.1054688 -0.105469,0 -0.996094,0.6796875 -1.582031,1.9453125 -0.515625,1.1015625 -0.632813,2.203125 -0.632813,3.0351563 0,0.7851562 0.117188,1.99218749 0.65625,3.11718749 0.597657,1.21875001 1.453125,1.87500001 1.558594,1.87500001 0.05859,0 0.09375,-0.035156 0.09375,-0.1054688 z m 0,0"
         style="fill:#ff0000;fill-opacity:1;fill-rule:nonzero;stroke:none" />
      <path
         id="path18"
         d="m 47.627914,-3.0109453 c 0.05859,-0.2578125 0.292969,-1.171875 0.984375,-1.171875 0.04687,0 0.292969,0 0.503906,0.1289062 -0.28125,0.046875 -0.480468,0.3046875 -0.480468,0.5390625 0,0.1640625 0.105468,0.3515625 0.375,0.3515625 0.222656,0 0.539062,-0.1875 0.539062,-0.5859375 0,-0.515625 -0.585937,-0.65625 -0.925781,-0.65625 -0.574219,0 -0.925781,0.5273438 -1.042969,0.7617188 -0.257812,-0.65625 -0.785156,-0.7617188 -1.078125,-0.7617188 -1.042969,0 -1.605469,1.2890625 -1.605469,1.5351563 0,0.1054687 0.105469,0.1054687 0.117188,0.1054687 0.08203,0 0.117187,-0.023437 0.128906,-0.1171875 0.339844,-1.0546875 0.996094,-1.3007812 1.335938,-1.3007812 0.1875,0 0.539062,0.09375 0.539062,0.6679687 0,0.3046875 -0.164062,0.9726563 -0.539062,2.3671875 -0.152344,0.62109379 -0.503907,1.04296879 -0.949219,1.04296879 -0.05859,0 -0.28125,0 -0.492188,-0.12890625 0.246094,-0.0585937 0.46875,-0.26953125 0.46875,-0.5390625 0,-0.26953124 -0.222656,-0.35156254 -0.375,-0.35156254 -0.292968,0 -0.539062,0.25781254 -0.539062,0.57421879 0,0.45703125 0.492187,0.65625 0.9375,0.65625 0.65625,0 1.007812,-0.69140625 1.042969,-0.75 0.117187,0.36328125 0.480468,0.75 1.078125,0.75 1.019531,0 1.59375,-1.27734379 1.59375,-1.53515629 0,-0.09375 -0.09375,-0.09375 -0.128907,-0.09375 -0.08203,0 -0.105468,0.035156 -0.128906,0.1054688 -0.328125,1.06640624 -0.996094,1.31249999 -1.324219,1.31249999 -0.386718,0 -0.539062,-0.328125 -0.539062,-0.65625 0,-0.22265625 0.05859,-0.44531249 0.164062,-0.87890629 z m 0,0"
         style="fill:#ff0000;fill-opacity:1;fill-rule:nonzero;stroke:none" />
      <path
         id="path19"
         d="m 53.507797,-4.8830156 h -0.234375 c -0.02344,0.1523437 -0.08203,0.5625 -0.175781,0.6328125 -0.05859,0.035156 -0.597657,0.035156 -0.691407,0.035156 h -1.289062 c 0.738281,-0.6445312 0.984375,-0.84375 1.394531,-1.171875 0.515625,-0.4101562 0.996094,-0.84375 0.996094,-1.5 0,-0.84375 -0.738281,-1.359375 -1.628906,-1.359375 -0.867188,0 -1.453125,0.609375 -1.453125,1.2421875 0,0.3632813 0.304687,0.3984375 0.375,0.3984375 0.164062,0 0.375,-0.1171875 0.375,-0.375 0,-0.1289062 -0.05859,-0.3632812 -0.421875,-0.3632812 0.222656,-0.5039063 0.691406,-0.65625 1.019531,-0.65625 0.703125,0 1.066406,0.5507812 1.066406,1.1132812 0,0.609375 -0.433594,1.0898438 -0.65625,1.3359375 l -1.6875,1.6640625 c -0.07031,0.058594 -0.07031,0.070312 -0.07031,0.2695313 h 2.882812 z m 0,0"
         style="fill:#ff0000;fill-opacity:1;fill-rule:nonzero;stroke:none" />
      <path
         id="path20"
         d="m 60.752914,-2.2961016 h 2.777344 c 0.140625,0 0.328125,0 0.328125,-0.1992187 0,-0.1992188 -0.1875,-0.1992188 -0.328125,-0.1992188 h -2.777344 v -2.7890625 c 0,-0.1289062 0,-0.328125 -0.199219,-0.328125 -0.199218,0 -0.199218,0.1992188 -0.199218,0.328125 v 2.7890625 h -2.789063 c -0.140625,0 -0.328125,0 -0.328125,0.1992188 0,0.1992187 0.1875,0.1992187 0.328125,0.1992187 h 2.789063 v 2.80078129 c 0,0.12890625 0,0.328125 0.199218,0.328125 0.199219,0 0.199219,-0.19921875 0.199219,-0.328125 z m 8.8125,-4.078125 c 0,-0.234375 0,-0.2578125 -0.234375,-0.2578125 -0.609375,0.6328125 -1.488281,0.6328125 -1.804687,0.6328125 v 0.3164063 c 0.199218,0 0.785156,0 1.300781,-0.2578125 v 5.15624999 c 0,0.3515625 -0.03516,0.48046875 -0.925781,0.48046875 H 67.584945 V 7.734375e-4 C 67.936508,-0.03438281 68.791977,-0.03438281 69.190414,-0.03438281 c 0.398438,0 1.265625,0 1.617188,0.0351562475 V -0.30391406 h -0.316407 c -0.902343,0 -0.925781,-0.1171875 -0.925781,-0.48046875 z m 4.983398,0 c 0,-0.234375 0,-0.2578125 -0.234375,-0.2578125 -0.609375,0.6328125 -1.488281,0.6328125 -1.804687,0.6328125 v 0.3164063 c 0.199219,0 0.785156,0 1.300781,-0.2578125 v 5.15624999 c 0,0.3515625 -0.03516,0.48046875 -0.925781,0.48046875 H 72.568344 V 7.734375e-4 C 72.919906,-0.03438281 73.775375,-0.03438281 74.173812,-0.03438281 c 0.398438,0 1.265625,0 1.617188,0.0351562475 V -0.30391406 h -0.316406 c -0.902344,0 -0.925782,-0.1171875 -0.925782,-0.48046875 z m 4.933594,3.8789063 c 0,-0.7734375 -0.117187,-1.9804688 -0.65625,-3.1054688 -0.597656,-1.21875 -1.464844,-1.875 -1.558594,-1.875 -0.05859,0 -0.105468,0.046875 -0.105468,0.1054688 0,0.035156 0,0.046875 0.199218,0.234375 0.972657,0.984375 1.535157,2.5664062 1.535157,4.640625 0,1.71093749 -0.363282,3.45703124 -1.59375,4.7226562 -0.140625,0.1171875 -0.140625,0.1289063 -0.140625,0.1640625 0,0.058594 0.04687,0.1054688 0.105468,0.1054688 0.09375,0 0.996094,-0.6796875 1.582032,-1.94531251 0.503906,-1.1015625 0.632812,-2.20312499 0.632812,-3.04687499 z m 0,0"
         style="fill:#ff0000;fill-opacity:1;fill-rule:nonzero;stroke:none" />
    </g>
    <path
       id="path21"
       d="m 1.4174,-28.3468 c 0,0.78282 -0.63458,1.41742 -1.4174,1.41742 -0.78282,0 -1.4174,-0.6346 -1.4174,-1.41742 0,-0.78282 0.63458,-1.41742 1.4174,-1.41742 0.78282,0 1.4174,0.6346 1.4174,1.41742 z"
       style="fill:#000000;fill-opacity:1;fill-rule:nonzero;stroke:#000000;stroke-width:0.3985;stroke-linecap:butt;stroke-linejoin:miter;stroke-miterlimit:10;stroke-dasharray:none;stroke-opacity:1"
       transform="matrix(1.3333333,0,0,-1.3333333,155.22667,63.978667)" />
    <path
       id="path22"
       d="M 2.40375,-6.5854141 C 2.31,-6.8080703 2.2865625,-6.8080703 2.0521875,-6.8080703 h -1.6875 v 0.3164062 h 0.24609375 c 0.76171875,0 0.78515625,0.1054688 0.78515625,0.46875 v 4.9804688 c 0,0.26953124 0,0.73828124 -1.03125,0.73828124 V 5.234375e-4 C 0.71625,-0.01119531 1.2084375,-0.03463281 1.5365625,-0.03463281 c 0.328125,0 0.8203125,0.0234375 1.1601563,0.0351562475 V -0.30416406 c -1.0195313,0 -1.0195313,-0.46875 -1.0195313,-0.73828124 v -5.3671875 h 0.011719 L 4.09125,-0.22213281 C 4.138125,-0.09322656 4.185,5.234375e-4 4.2904688,5.234375e-4 c 0.1054687,0 0.1289062,-0.0820312475 0.1757812,-0.1874999975 L 6.9154688,-6.4916641 h 0.011719 v 5.71875004 c 0,0.3515625 -0.023437,0.46875 -0.7851562,0.46875 H 5.8959375 V 5.234375e-4 c 0.375,-0.0351562475 1.0429688,-0.0351562475 1.4414063,-0.0351562475 0.3867187,0 1.0546875,0 1.4179687,0.0351562475 V -0.30416406 h -0.234375 c -0.7734375,0 -0.7851562,-0.1171875 -0.7851562,-0.46875 V -6.0229141 c 0,-0.3632812 0.011719,-0.46875 0.7851562,-0.46875 h 0.234375 V -6.8080703 H 7.0795313 C 6.81,-6.8080703 6.81,-6.7963516 6.7396875,-6.6088516 L 4.56,-1.0072891 Z m 10.467773,0.2929688 c 0.08203,-0.070312 0.164063,-0.1875 0.164063,-0.3046875 0,-0.1757813 -0.175781,-0.3515625 -0.351563,-0.3515625 -0.152343,0 -0.257812,0.1054687 -0.304687,0.1640625 l -1.195313,1.5234375 0.175782,0.1757812 z m -0.421875,5.53124999 c 0.03516,0.3984375 0.304688,0.8203125 0.773438,0.8203125 0.210937,0 0.820312,-0.140625 0.820312,-0.94921875 V -1.4408828 h -0.246093 v 0.55078124 c 0,0.5859375 -0.246094,0.64453125 -0.363282,0.64453125 -0.328125,0 -0.363281,-0.45703125 -0.363281,-0.50390625 V -2.7416641 c 0,-0.4101562 0,-0.8085937 -0.363281,-1.171875 -0.386719,-0.3867187 -0.878906,-0.5507812 -1.359375,-0.5507812 -0.820313,0 -1.5117188,0.46875 -1.5117188,1.125 0,0.3046875 0.1992188,0.46875 0.4570308,0.46875 0.28125,0 0.46875,-0.1992188 0.46875,-0.4570313 0,-0.1171875 -0.05859,-0.4453125 -0.515625,-0.4570312 0.269532,-0.3515625 0.761719,-0.4570313 1.078125,-0.4570313 0.492188,0 1.054688,0.3867188 1.054688,1.2773438 v 0.3632812 c -0.503906,0.035156 -1.207031,0.058594 -1.828125,0.3632813 -0.7500001,0.3398437 -0.9960938,0.8554687 -0.9960938,1.28906249 0,0.80859375 0.9609378,1.0546875 1.5937498,1.0546875 0.65625,0 1.113281,-0.3984375 1.300781,-0.8671875 z m -0.07031,-1.62890629 v 0.9960938 c 0,0.94921874 -0.714844,1.28906249 -1.160156,1.28906249 -0.492188,0 -0.902344,-0.3515625 -0.902344,-0.85546875 0,-0.53906254 0.421875,-1.37109374 2.0625,-1.42968754 z m 4.59375,0.046875 c 0.292969,-0.375 0.679687,-0.8671875 0.914062,-1.125 0.316407,-0.3515625 0.714844,-0.5039062 1.183594,-0.515625 v -0.3046875 c -0.257812,0.011719 -0.550781,0.023437 -0.808594,0.023437 -0.304687,0 -0.832031,-0.023437 -0.960937,-0.023437 v 0.3046875 c 0.210937,0.023437 0.292969,0.1523438 0.292969,0.3046875 0,0.1640625 -0.105469,0.2929688 -0.152344,0.3515625 l -0.621094,0.7734375 -0.773437,-0.9960937 c -0.09375,-0.1054688 -0.09375,-0.1289063 -0.09375,-0.1875 0,-0.1523438 0.152343,-0.234375 0.351562,-0.2460938 v -0.3046875 c -0.257812,0 -0.914062,0.023437 -1.078125,0.023437 -0.210937,0 -0.679687,-0.011719 -0.949219,-0.023437 v 0.3046875 c 0.703125,0 0.714844,0.011719 1.183594,0.609375 l 0.984375,1.2773438 -0.9375,1.19531249 c -0.480469,0.57421875 -1.066406,0.59765625 -1.277344,0.59765625 V 5.234375e-4 C 14.488711,-0.02291406 14.805117,-0.03463281 15.06293,-0.03463281 c 0.28125,0 0.703125,0.0234375 0.949218,0.0351562475 V -0.30416406 c -0.222656,-0.0351563 -0.292968,-0.1640625 -0.292968,-0.31640625 0,-0.2109375 0.292968,-0.53906249 0.890625,-1.26562499 l 0.761718,0.99609374 c 0.08203,0.1171875 0.210938,0.26953125 0.210938,0.328125 0,0.09375 -0.09375,0.24609375 -0.363281,0.2578125 V 5.234375e-4 C 17.523867,-0.01119531 18.074648,-0.03463281 18.297305,-0.03463281 c 0.269531,0 0.65625,0.01171875 0.960937,0.0351562475 V -0.30416406 c -0.539062,0 -0.726562,-0.0234375 -0.949219,-0.31640625 z m 4.157227,-2.0625 -1.394532,0.1171875 v 0.3046875 c 0.65625,0 0.738282,0.058594 0.738282,0.5507813 v 2.67187499 c 0,0.45703125 -0.105469,0.45703125 -0.773438,0.45703125 V 5.234375e-4 C 20.017031,-0.01119531 20.556094,-0.03463281 20.802188,-0.03463281 c 0.339843,0 0.691406,0.0234375 1.03125,0.0351562475 V -0.30416406 c -0.65625,0 -0.703125,-0.0585938 -0.703125,-0.4453125 z m 0.04687,-1.734375 c 0,-0.3164062 -0.246094,-0.5273437 -0.527344,-0.5273437 -0.316406,0 -0.527344,0.2695312 -0.527344,0.5273437 0,0.2695313 0.210938,0.5273438 0.527344,0.5273438 0.28125,0 0.527344,-0.1992188 0.527344,-0.5273438 z m 2.065429,2.71875 v 2.66015629 c 0,0.45703125 -0.117187,0.45703125 -0.785156,0.45703125 V 5.234375e-4 c 0.351562,-0.0117187475 0.855469,-0.0351562475 1.125,-0.0351562475 0.257812,0 0.785156,0.0234375 1.113281,0.0351562475 V -0.30416406 c -0.65625,0 -0.773437,0 -0.773437,-0.45703125 V -2.5893203 c 0,-1.03125 0.714843,-1.59375 1.347656,-1.59375 0.621094,0 0.738281,0.5390625 0.738281,1.1015625 v 2.32031249 c 0,0.45703125 -0.117187,0.45703125 -0.773437,0.45703125 V 5.234375e-4 c 0.339843,-0.0117187475 0.855468,-0.0351562475 1.125,-0.0351562475 0.257812,0 0.773437,0.0234375 1.113281,0.0351562475 V -0.30416406 c -0.667969,0 -0.785156,0 -0.785156,-0.45703125 V -2.5893203 c 0,-1.03125 0.714843,-1.59375 1.347656,-1.59375 0.632812,0 0.738281,0.5390625 0.738281,1.1015625 v 2.32031249 c 0,0.45703125 -0.105469,0.45703125 -0.773437,0.45703125 V 5.234375e-4 c 0.351562,-0.0117187475 0.855468,-0.0351562475 1.125,-0.0351562475 0.257812,0 0.773437,0.0234375 1.113281,0.0351562475 V -0.30416406 c -0.515625,0 -0.761719,0 -0.773438,-0.3046875 V -2.5072891 c 0,-0.8554687 0,-1.171875 -0.316406,-1.5234375 -0.128906,-0.1757812 -0.46875,-0.375 -1.042969,-0.375 -0.832031,0 -1.277343,0.5976563 -1.441406,0.984375 -0.140625,-0.8671875 -0.878906,-0.984375 -1.324219,-0.984375 -0.726562,0 -1.195312,0.4335938 -1.476562,1.0546875 v -1.0546875 l -1.40625,0.1171875 v 0.3046875 c 0.703125,0 0.785156,0.070312 0.785156,0.5625 z m 11.885742,1.2890625 c 0,-1.2773437 -0.996093,-2.3320312 -2.191406,-2.3320312 -1.253906,0 -2.214844,1.0898437 -2.214844,2.3320312 0,1.28906254 1.03125,2.23828129 2.203125,2.23828129 1.207032,0 2.203125,-0.97265625 2.203125,-2.23828129 z m -2.191406,1.99218754 c -0.433594,0 -0.867187,-0.2109375 -1.136719,-0.66796875 -0.257812,-0.43359379 -0.257812,-1.04296879 -0.257812,-1.40624999 0,-0.3867188 0,-0.9257813 0.246094,-1.359375 0.269531,-0.4570313 0.738281,-0.6679688 1.136718,-0.6679688 0.433594,0 0.867188,0.2226563 1.125,0.6445313 0.257813,0.4335937 0.257813,1.0078125 0.257813,1.3828125 0,0.3632812 0,0.9023437 -0.222656,1.33593749 -0.222657,0.4453125 -0.65625,0.73828125 -1.148438,0.73828125 z m 0,0"
       style="fill:#000000;fill-opacity:1;fill-rule:nonzero;stroke:none"
       aria-label="M´aximo"
       transform="matrix(1.3333333,0,0,1.3333333,159.92,97.081333)" />
    <path
       id="path23"
       d="M -113.38724,-28.3468 H 113.38724"
       style="fill:none;stroke:#00ff00;stroke-width:0.3985;stroke-linecap:butt;stroke-linejoin:miter;stroke-miterlimit:10;stroke-dasharray:none;stroke-opacity:1"
       transform="matrix(1.3333333,0,0,-1.3333333,155.22667,63.978667)" />
    <path
       id="path24"
       d="M 6.6322187,-6.7390547 H 0.5501875 l -0.1875,2.2382813 H 0.60878125 C 0.74940625,-6.1062422 0.90175,-6.4343672 2.40175,-6.4343672 c 0.1757812,0 0.4335937,0 0.5390625,0.023437 0.2109375,0.035156 0.2109375,0.140625 0.2109375,0.375 v 5.25000001 c 0,0.33984375 0,0.48046875 -1.0546875,0.48046875 H 1.698625 V -7.734375e-4 C 2.1087812,-0.03592969 3.1283125,-0.03592969 3.5853437,-0.03592969 c 0.4570313,0 1.4882813,0 1.8984375,0.0351562525 V -0.30546094 H 5.0853437 c -1.0546875,0 -1.0546875,-0.140625 -1.0546875,-0.48046875 V -6.0359297 c 0,-0.1992187 0,-0.3398437 0.1875,-0.375 0.1054688,-0.023437 0.375,-0.023437 0.5625,-0.023437 1.5,0 1.6523438,0.328125 1.7929688,1.9335938 h 0.2460937 z m 3.0527344,5.97656251 c 0.035156,0.3984375 0.3046875,0.8203125 0.7734379,0.8203125 0.210937,0 0.820312,-0.140625 0.820312,-0.94921875 V -1.4421797 h -0.246094 v 0.55078126 c 0,0.5859375 -0.246093,0.64453125 -0.363281,0.64453125 -0.328125,0 -0.363281,-0.45703125 -0.363281,-0.50390625 V -2.7429609 c 0,-0.4101563 0,-0.8085938 -0.3632814,-1.171875 -0.3867187,-0.3867188 -0.8789062,-0.5507813 -1.359375,-0.5507813 -0.8203125,0 -1.5117187,0.46875 -1.5117187,1.125 0,0.3046875 0.1992187,0.46875 0.4570312,0.46875 0.28125,0 0.46875,-0.1992187 0.46875,-0.4570312 0,-0.1171875 -0.058594,-0.4453125 -0.515625,-0.4570313 0.2695313,-0.3515625 0.7617188,-0.4570312 1.078125,-0.4570312 0.4921875,0 1.0546875,0.3867187 1.0546875,1.2773437 v 0.3632813 c -0.5039062,0.035156 -1.2070312,0.058594 -1.828125,0.3632812 -0.75,0.3398438 -0.9960937,0.8554688 -0.9960937,1.28906251 0,0.80859375 0.9609375,1.0546875 1.59375,1.0546875 0.65625,0 1.1132812,-0.3984375 1.3007812,-0.8671875 z M 9.6146406,-2.3913984 v 0.9960937 c 0,0.94921876 -0.7148437,1.28906251 -1.1601562,1.28906251 -0.4921875,0 -0.9023438,-0.3515625 -0.9023438,-0.85546875 0,-0.53906246 0.421875,-1.37109376 2.0625,-1.42968746 z m 2.8359374,-1.03125 v 2.66015621 c 0,0.45703125 -0.117187,0.45703125 -0.785156,0.45703125 v 0.3046875025 c 0.351562,-0.0117187525 0.855469,-0.0351562525 1.125,-0.0351562525 0.257812,0 0.785156,0.0234375 1.113281,0.0351562525 V -0.30546094 c -0.65625,0 -0.773437,0 -0.773437,-0.45703125 V -2.5906172 c 0,-1.03125 0.714843,-1.59375 1.347656,-1.59375 0.621094,0 0.738281,0.5390625 0.738281,1.1015625 v 2.32031251 c 0,0.45703125 -0.117187,0.45703125 -0.773437,0.45703125 v 0.3046875025 c 0.339843,-0.0117187525 0.855468,-0.0351562525 1.125,-0.0351562525 0.257812,0 0.773437,0.0234375 1.113281,0.0351562525 V -0.30546094 c -0.515625,0 -0.773438,0 -0.785156,-0.3046875 V -2.5085859 c 0,-0.8554688 0,-1.171875 -0.304688,-1.5234375 -0.140625,-0.1757813 -0.46875,-0.375 -1.042969,-0.375 -0.726562,0 -1.195312,0.4335937 -1.476562,1.0546875 v -1.0546875 l -1.40625,0.1171875 v 0.3046875 c 0.703125,0 0.785156,0.070312 0.785156,0.5625 z m 6.647461,1.7109375 c -0.867187,0 -0.867187,-0.9960938 -0.867187,-1.2304688 0,-0.2695312 0.01172,-0.5859375 0.152343,-0.8320312 0.08203,-0.1171875 0.316407,-0.3984375 0.714844,-0.3984375 0.867188,0 0.867188,0.9960937 0.867188,1.21875 0,0.2695312 -0.01172,0.5976562 -0.164063,0.84375 -0.08203,0.1171875 -0.304687,0.3984375 -0.703125,0.3984375 z m -1.160156,0.3867187 c 0,-0.035156 0,-0.2695312 0.175781,-0.46875 0.386719,0.28125 0.796875,0.3046875 0.984375,0.3046875 0.925781,0 1.605469,-0.6796875 1.605469,-1.453125 0,-0.3632812 -0.152344,-0.7382812 -0.398438,-0.9609375 0.351563,-0.3398437 0.714844,-0.3867187 0.890625,-0.3867187 0.02344,0 0.07031,0 0.105469,0 -0.117187,0.046875 -0.164062,0.1523437 -0.164062,0.2695312 0,0.1757813 0.128906,0.2929688 0.292968,0.2929688 0.09375,0 0.28125,-0.070312 0.28125,-0.2929688 0,-0.1757812 -0.117187,-0.4921875 -0.503906,-0.4921875 -0.199219,0 -0.632812,0.058594 -1.054687,0.46875 -0.421875,-0.328125 -0.84375,-0.3632812 -1.054688,-0.3632812 -0.925781,0 -1.617187,0.6914062 -1.617187,1.453125 0,0.4453125 0.222656,0.8203125 0.46875,1.03125 -0.128907,0.1523437 -0.304688,0.4804687 -0.304688,0.8203125 0,0.31640621 0.128906,0.69140621 0.433594,0.89062496 -0.597656,0.17578125 -0.914063,0.59765625 -0.914063,0.99609375 0,0.71484379 0.984375,1.26562499 2.203125,1.26562499 1.171875,0 2.203125,-0.5039062 2.203125,-1.28906249 0,-0.33984375 -0.140625,-0.85546875 -0.644531,-1.125 -0.527344,-0.28125 -1.101562,-0.28125 -1.710937,-0.28125 -0.246094,0 -0.679688,0 -0.75,-0.0117188 -0.316407,-0.046875 -0.527344,-0.35156241 -0.527344,-0.66796871 z m 1.441406,3.1523438 c -1.007812,0 -1.699219,-0.515625 -1.699219,-1.04296879 0,-0.45703125 0.375,-0.8203125 0.820313,-0.85546875 h 0.585937 c 0.855469,0 1.96875,0 1.96875,0.85546875 0,0.53906249 -0.703125,1.04296879 -1.675781,1.04296879 z m 3.600586,-4.3359375 c 0.05859,-1.4882813 0.902344,-1.734375 1.242187,-1.734375 1.019532,0 1.125,1.3476562 1.125,1.734375 z m -0.01172,0.2109375 h 2.789063 c 0.210937,0 0.246093,0 0.246093,-0.2109375 0,-0.984375 -0.539062,-1.9570313 -1.78125,-1.9570313 -1.160156,0 -2.074218,1.03125 -2.074218,2.2734375 0,1.33593751 1.042968,2.29687501 2.191406,2.29687501 1.21875,0 1.664062,-1.1015625 1.664062,-1.28906251 0,-0.1054687 -0.08203,-0.1171875 -0.128906,-0.1171875 -0.09375,0 -0.117187,0.058594 -0.128906,0.140625 -0.351563,1.01953126 -1.253906,1.01953126 -1.347656,1.01953126 -0.503907,0 -0.902344,-0.29296875 -1.125,-0.66796875 C 22.968156,-1.2898359 22.968156,-1.9460859 22.968156,-2.2976484 Z m 4.426758,-1.125 v 2.66015621 c 0,0.45703125 -0.117187,0.45703125 -0.785156,0.45703125 v 0.3046875025 c 0.351562,-0.0117187525 0.855469,-0.0351562525 1.125,-0.0351562525 0.257812,0 0.785156,0.0234375 1.113281,0.0351562525 V -0.30546094 c -0.65625,0 -0.773437,0 -0.773437,-0.45703125 V -2.5906172 c 0,-1.03125 0.714843,-1.59375 1.347656,-1.59375 0.621094,0 0.738281,0.5390625 0.738281,1.1015625 v 2.32031251 c 0,0.45703125 -0.117187,0.45703125 -0.773437,0.45703125 v 0.3046875025 c 0.339843,-0.0117187525 0.855468,-0.0351562525 1.125,-0.0351562525 0.257812,0 0.773437,0.0234375 1.113281,0.0351562525 V -0.30546094 c -0.515625,0 -0.773438,0 -0.785156,-0.3046875 V -2.5085859 c 0,-0.8554688 0,-1.171875 -0.304688,-1.5234375 -0.140625,-0.1757813 -0.46875,-0.375 -1.042969,-0.375 -0.726562,0 -1.195312,0.4335937 -1.476562,1.0546875 v -1.0546875 l -1.40625,0.1171875 v 0.3046875 c 0.703125,0 0.785156,0.070312 0.785156,0.5625 z m 5.876953,-0.5625 h 1.429688 v -0.3046875 h -1.429688 v -1.8398438 h -0.246094 c -0.01172,0.8203125 -0.316406,1.8867188 -1.289062,1.921875 v 0.2226563 h 0.84375 v 2.7539062 c 0,1.21875001 0.925781,1.33593751 1.289062,1.33593751 0.703125,0 0.984375,-0.703125 0.984375,-1.33593751 v -0.5742187 h -0.246093 v 0.5507812 c 0,0.73828126 -0.304688,1.11328126 -0.667969,1.11328126 -0.667969,0 -0.667969,-0.90234376 -0.667969,-1.07812496 z m 3.266602,1.4765625 c 0.05859,-1.4882813 0.902343,-1.734375 1.242187,-1.734375 1.019531,0 1.125,1.3476562 1.125,1.734375 z m -0.01172,0.2109375 h 2.789062 c 0.210938,0 0.246094,0 0.246094,-0.2109375 0,-0.984375 -0.539062,-1.9570313 -1.78125,-1.9570313 -1.160156,0 -2.074219,1.03125 -2.074219,2.2734375 0,1.33593751 1.042969,2.29687501 2.191407,2.29687501 1.21875,0 1.664062,-1.1015625 1.664062,-1.28906251 0,-0.1054687 -0.08203,-0.1171875 -0.128906,-0.1171875 -0.09375,0 -0.117188,0.058594 -0.128906,0.140625 -0.351563,1.01953126 -1.253907,1.01953126 -1.347657,1.01953126 -0.503906,0 -0.902343,-0.29296875 -1.125,-0.66796875 C 36.52675,-1.2898359 36.52675,-1.9460859 36.52675,-2.2976484 Z m 9.958008,1.53515621 c 0.03516,0.3984375 0.304687,0.8203125 0.773437,0.8203125 0.210938,0 0.820313,-0.140625 0.820313,-0.94921875 V -1.4421797 h -0.246094 v 0.55078126 c 0,0.5859375 -0.246094,0.64453125 -0.363281,0.64453125 -0.328125,0 -0.363281,-0.45703125 -0.363281,-0.50390625 V -2.7429609 c 0,-0.4101563 0,-0.8085938 -0.363282,-1.171875 -0.386718,-0.3867188 -0.878906,-0.5507813 -1.359375,-0.5507813 -0.820312,0 -1.511718,0.46875 -1.511718,1.125 0,0.3046875 0.199218,0.46875 0.457031,0.46875 0.28125,0 0.46875,-0.1992187 0.46875,-0.4570312 0,-0.1171875 -0.05859,-0.4453125 -0.515625,-0.4570313 0.269531,-0.3515625 0.761719,-0.4570312 1.078125,-0.4570312 0.492187,0 1.054687,0.3867187 1.054687,1.2773437 v 0.3632813 c -0.503906,0.035156 -1.207031,0.058594 -1.828125,0.3632812 -0.75,0.3398438 -0.996093,0.8554688 -0.996093,1.28906251 0,0.80859375 0.960937,1.0546875 1.59375,1.0546875 0.65625,0 1.113281,-0.3984375 1.300781,-0.8671875 z m -0.07031,-1.62890621 v 0.9960937 c 0,0.94921876 -0.714843,1.28906251 -1.160156,1.28906251 -0.492187,0 -0.902344,-0.3515625 -0.902344,-0.85546875 0,-0.53906246 0.421875,-1.37109376 2.0625,-1.42968746 z m 6.421875,0.2578125 c 0,-1.2773438 -0.996093,-2.3320313 -2.191406,-2.3320313 -1.253906,0 -2.214844,1.0898438 -2.214844,2.3320313 0,1.28906246 1.03125,2.23828121 2.203125,2.23828121 1.207032,0 2.203125,-0.97265625 2.203125,-2.23828121 z m -2.191406,1.99218746 c -0.433594,0 -0.867187,-0.2109375 -1.136719,-0.66796875 -0.257812,-0.43359371 -0.257812,-1.04296871 -0.257812,-1.40625001 0,-0.3867187 0,-0.9257812 0.246094,-1.359375 0.269531,-0.4570312 0.738281,-0.6679687 1.136718,-0.6679687 0.433594,0 0.867188,0.2226562 1.125,0.6445312 0.257813,0.4335938 0.257813,1.0078125 0.257813,1.3828125 0,0.3632813 0,0.9023438 -0.222656,1.33593751 -0.222657,0.4453125 -0.65625,0.73828125 -1.148438,0.73828125 z M 58.862687,-6.5867109 C 58.768937,-6.8093672 58.7455,-6.8093672 58.511125,-6.8093672 h -1.6875 v 0.3164063 h 0.246094 c 0.761718,0 0.785156,0.1054687 0.785156,0.46875 v 4.9804687 c 0,0.26953126 0,0.73828126 -1.03125,0.73828126 V -7.734375e-4 C 57.175187,-0.01249219 57.667375,-0.03592969 57.9955,-0.03592969 c 0.328125,0 0.820312,0.0234375 1.160156,0.0351562525 V -0.30546094 c -1.019531,0 -1.019531,-0.46875 -1.019531,-0.73828126 v -5.3671875 h 0.01172 l 2.402343,6.18750001 c 0.04687,0.12890625 0.09375,0.2226562525 0.199219,0.2226562525 0.105469,0 0.128906,-0.0820312525 0.175781,-0.1875000025 l 2.449219,-6.30468746 h 0.01172 v 5.71874996 c 0,0.3515625 -0.02344,0.46875 -0.785156,0.46875 h -0.246094 v 0.3046875025 c 0.375,-0.0351562525 1.042969,-0.0351562525 1.441406,-0.0351562525 0.386719,0 1.054688,0 1.417969,0.0351562525 V -0.30546094 h -0.234375 c -0.773438,0 -0.785156,-0.1171875 -0.785156,-0.46875 V -6.0242109 c 0,-0.3632813 0.01172,-0.46875 0.785156,-0.46875 h 0.234375 v -0.3164063 h -1.675781 c -0.269532,0 -0.269532,0.011719 -0.339844,0.1992188 l -2.179688,5.6015625 z m 10.045899,5.82421871 c 0.03516,0.3984375 0.304687,0.8203125 0.773437,0.8203125 0.210938,0 0.820313,-0.140625 0.820313,-0.94921875 V -1.4421797 h -0.246094 v 0.55078126 c 0,0.5859375 -0.246094,0.64453125 -0.363281,0.64453125 -0.328125,0 -0.363281,-0.45703125 -0.363281,-0.50390625 V -2.7429609 c 0,-0.4101563 0,-0.8085938 -0.363282,-1.171875 -0.386718,-0.3867188 -0.878906,-0.5507813 -1.359375,-0.5507813 -0.820312,0 -1.511718,0.46875 -1.511718,1.125 0,0.3046875 0.199218,0.46875 0.457031,0.46875 0.28125,0 0.46875,-0.1992187 0.46875,-0.4570312 0,-0.1171875 -0.05859,-0.4453125 -0.515625,-0.4570313 0.269531,-0.3515625 0.761719,-0.4570312 1.078125,-0.4570312 0.492187,0 1.054687,0.3867187 1.054687,1.2773437 v 0.3632813 c -0.503906,0.035156 -1.207031,0.058594 -1.828125,0.3632812 -0.75,0.3398438 -0.996093,0.8554688 -0.996093,1.28906251 0,0.80859375 0.960937,1.0546875 1.59375,1.0546875 0.65625,0 1.113281,-0.3984375 1.300781,-0.8671875 z m -0.07031,-1.62890621 v 0.9960937 c 0,0.94921876 -0.714843,1.28906251 -1.160156,1.28906251 -0.492187,0 -0.902344,-0.3515625 -0.902344,-0.85546875 0,-0.53906246 0.421875,-1.37109376 2.0625,-1.42968746 z m 4.59375,0.046875 c 0.292969,-0.375 0.679688,-0.8671875 0.914063,-1.125 0.316406,-0.3515625 0.714844,-0.5039063 1.183594,-0.515625 v -0.3046875 c -0.257813,0.011719 -0.550782,0.023437 -0.808594,0.023437 -0.304688,0 -0.832031,-0.023437 -0.960938,-0.023437 v 0.3046875 c 0.210938,0.023437 0.292969,0.1523437 0.292969,0.3046875 0,0.1640625 -0.105469,0.2929687 -0.152344,0.3515625 l -0.621093,0.7734375 -0.773438,-0.9960938 c -0.09375,-0.1054687 -0.09375,-0.1289062 -0.09375,-0.1875 0,-0.1523437 0.152344,-0.234375 0.351563,-0.2460937 v -0.3046875 c -0.257813,0 -0.914063,0.023437 -1.078125,0.023437 -0.210938,0 -0.679688,-0.011719 -0.949219,-0.023437 v 0.3046875 c 0.703125,0 0.714844,0.011719 1.183594,0.609375 l 0.984375,1.2773437 -0.9375,1.19531251 c -0.480469,0.57421875 -1.066407,0.59765625 -1.277344,0.59765625 V -7.734375e-4 C 70.947648,-0.02421094 71.264055,-0.03592969 71.521867,-0.03592969 c 0.28125,0 0.703125,0.0234375 0.949219,0.0351562525 V -0.30546094 c -0.222656,-0.0351563 -0.292969,-0.1640625 -0.292969,-0.31640625 0,-0.2109375 0.292969,-0.53906251 0.890625,-1.26562501 l 0.761719,0.99609376 c 0.08203,0.1171875 0.210937,0.26953125 0.210937,0.328125 0,0.09375 -0.09375,0.24609375 -0.363281,0.2578125 V -7.734375e-4 C 73.982805,-0.01249219 74.533586,-0.03592969 74.756242,-0.03592969 c 0.269531,0 0.65625,0.01171875 0.960938,0.0351562525 V -0.30546094 c -0.539063,0 -0.726563,-0.0234375 -0.949219,-0.31640625 z m 4.309571,1.81640621 c 0,-0.29296875 -0.234375,-0.52734371 -0.527344,-0.52734371 -0.28125,0 -0.527344,0.23437496 -0.527344,0.52734371 0,0.29296875 0.246094,0.5273437525 0.527344,0.5273437525 0.292969,0 0.527344,-0.2343750025 0.527344,-0.5273437525 z m 0,0"
       style="fill:#00ff00;fill-opacity:1;fill-rule:nonzero;stroke:none"
       aria-label="TangenteaoMax."
       transform="matrix(1.3333333,0,0,1.3333333,196.92267,115.544)" />
  </g>
</svg>
