<?xml version="1.0" encoding="UTF-8" standalone="no"?>
<!-- Created with Inkscape (http://www.inkscape.org/) -->

<svg
   version="1.1"
   id="svg1"
   width="228.32533"
   height="102.36133"
   viewBox="0 0 228.32533 102.36133"
   xmlns="http://www.w3.org/2000/svg"
   xmlns:svg="http://www.w3.org/2000/svg">
  <defs
     id="defs1" />
  <g
     id="g1">
    <path
       id="path1"
       d="M 9.71223,0 C 9.71223,5.36398 5.36398,9.71223 0,9.71223 -5.36398,9.71223 -9.71223,5.36398 -9.71223,0 c 0,-5.36398 4.34825,-9.71223 9.71223,-9.71223 5.36398,0 9.71223,4.34825 9.71223,9.71223 z"
       style="fill:none;stroke:#000000;stroke-width:0.3985;stroke-linecap:butt;stroke-linejoin:miter;stroke-miterlimit:10;stroke-dasharray:none;stroke-opacity:1"
       transform="matrix(1.3333333,0,0,-1.3333333,13.214667,89.146667)" />
    <path
       id="path2"
       d="m 3.9617187,-6.9388047 c -0.046875,-0.1289062 -0.070312,-0.1992187 -0.2226562,-0.1992187 -0.1640625,0 -0.1875,0.058594 -0.2460938,0.1992187 l -2.0625,5.96484376 c -0.1757812,0.50390625 -0.5742187,0.65625 -1.1132812,0.66796875 v 0.3046875 c 0.234375,-0.01171875 0.65625,-0.03515625 1.0195312,-0.03515625 0.3046875,0 0.8203125,0.0234375 1.1484375,0.03515625 v -0.3046875 c -0.5039062,0 -0.75,-0.2578125 -0.75,-0.515625 0,-0.0234375 0.011719,-0.12890625 0.023437,-0.140625 L 2.215625,-2.2747422 h 2.4609375 l 0.5273437,1.52343751 c 0.011719,0.046875 0.023437,0.10546875 0.023437,0.140625 0,0.3046875 -0.5507812,0.3046875 -0.8203125,0.3046875 v 0.3046875 c 0.3515625,-0.03515625 1.0546875,-0.03515625 1.4296875,-0.03515625 0.4335938,0 0.890625,0.01171875 1.3007813,0.03515625 v -0.3046875 H 6.9617187 c -0.5976562,0 -0.7382812,-0.0703125 -0.84375,-0.3984375 z m -0.5273437,1.125 1.125,3.234375 H 2.3210937 Z m 0,0"
       style="fill:#000000;fill-opacity:1;fill-rule:nonzero;stroke:none"
       aria-label="A"
       transform="matrix(1.3333333,0,0,1.3333333,8.2333333,93.685333)" />
    <path
       id="path3"
       d="m 66.66124,56.69362 c 0,5.50502 -4.4626,9.96762 -9.96762,9.96762 -5.50504,0 -9.96764,-4.4626 -9.96764,-9.96762 0,-5.50504 4.4626,-9.96764 9.96764,-9.96764 5.50502,0 9.96762,4.4626 9.96762,9.96764 z"
       style="fill:none;stroke:#000000;stroke-width:0.3985;stroke-linecap:butt;stroke-linejoin:miter;stroke-miterlimit:10;stroke-dasharray:none;stroke-opacity:1"
       transform="matrix(1.3333333,0,0,-1.3333333,13.214667,89.146667)" />
    <path
       id="path4"
       d="m 4.3473984,-6.6804375 c 0,-0.011719 0.035156,-0.1289063 0.035156,-0.1289063 0,-0.011719 0,-0.1054687 -0.1171875,-0.1054687 -0.1054688,0 -0.1171875,0.035156 -0.1523438,0.1992187 l -0.5742187,2.296875 c -1.5820313,0.058594 -3.04687501,1.3828125 -3.04687501,2.7304688 0,0.94921875 0.69140621,1.734375 1.91015621,1.8046875 -0.082031,0.31640625 -0.1523437,0.6328125 -0.234375,0.9375 -0.1171875,0.46875 -0.2109375,0.84375 -0.2109375,0.8789062 0,0.09375 0.070312,0.1054688 0.1171875,0.1054688 0.046875,0 0.070312,-0.011719 0.09375,-0.035156 0.023437,-0.023437 0.082031,-0.2578125 0.1171875,-0.3984375 l 0.375,-1.4882812 c 1.6054688,-0.046875 3.046875,-1.3945313 3.046875,-2.7304688 0,-0.7851562 -0.5273437,-1.6992187 -1.9101562,-1.8046875 z m -1.8984375,6.57421875 c -0.5976562,-0.0234375 -1.3125,-0.375 -1.3125,-1.37109375 0,-1.1953125 0.8554688,-2.5898438 2.34375,-2.71875 z M 3.7380234,-4.1960625 c 0.75,0.046875 1.3242188,0.5039062 1.3242188,1.3710937 0,1.1835938 -0.8554688,2.60156255 -2.3554688,2.71875005 z m 0,0"
       style="fill:#000000;fill-opacity:1;fill-rule:nonzero;stroke:none"
       aria-label="ϕ"
       transform="matrix(1.3333333,0,0,1.3333333,84.848,16.876)" />
    <path
       id="path5"
       d="m 123.01239,0 c 0,5.31589 -4.30926,9.62515 -9.62515,9.62515 -5.31589,0 -9.62517,-4.30926 -9.62517,-9.62515 0,-5.31589 4.30928,-9.62515 9.62517,-9.62515 5.31589,0 9.62515,4.30926 9.62515,9.62515 z"
       style="fill:none;stroke:#000000;stroke-width:0.3985;stroke-linecap:butt;stroke-linejoin:miter;stroke-miterlimit:10;stroke-dasharray:none;stroke-opacity:1"
       transform="matrix(1.3333333,0,0,-1.3333333,13.214667,89.146667)" />
    <path
       id="path6"
       d="m 0.56174219,-3.4114609 c 0,2.0625 1.60546871,3.63281246 3.45703121,3.63281246 1.6289063,0 2.6015625,-1.38281246 2.6015625,-2.54296876 0,-0.1054687 0,-0.1757812 -0.1289062,-0.1757812 -0.1054688,0 -0.1054688,0.070312 -0.1171875,0.1640625 -0.082031,1.42968746 -1.1484375,2.23828121 -2.2265625,2.23828121 -0.609375,0 -2.5664063,-0.33984375 -2.5664063,-3.30468751 0,-2.9765625 1.9453125,-3.3164062 2.5546875,-3.3164062 1.078125,0 1.96875,0.9023437 2.1679688,2.3671875 0.023437,0.1289062 0.023437,0.1640625 0.1640625,0.1640625 0.1523437,0 0.1523437,-0.035156 0.1523437,-0.234375 v -2.3671875 c 0,-0.1640625 0,-0.234375 -0.1054687,-0.234375 -0.035156,0 -0.082031,0 -0.1640625,0.1171875 l -0.4921875,0.7382812 c -0.375,-0.3632812 -0.8789063,-0.8554687 -1.8398438,-0.8554687 -1.8632812,0 -3.45703121,1.5820312 -3.45703121,3.609375 z m 0,0"
       style="fill:#000000;fill-opacity:1;fill-rule:nonzero;stroke:none"
       aria-label="C"
       transform="matrix(1.3333333,0,0,1.3333333,159.59867,93.685333)" />
    <path
       id="path7"
       d="m 161.13542,28.3468 c 0,10.71521 -8.68617,19.40137 -19.40138,19.40137 -10.71521,0 -19.40137,-8.68616 -19.40137,-19.40137 0,-10.71521 8.68616,-19.40137 19.40137,-19.40137 10.71521,0 19.40138,8.68616 19.40138,19.40137 z"
       style="fill:none;stroke:#000000;stroke-width:0.3985;stroke-linecap:butt;stroke-linejoin:miter;stroke-miterlimit:10;stroke-dasharray:none;stroke-opacity:1"
       transform="matrix(1.3333333,0,0,-1.3333333,13.214667,89.146667)" />
    <path
       id="path8"
       d="m 1.628125,-4.5481953 c -0.46875,-0.3046875 -0.5039062,-0.6445313 -0.5039062,-0.8085938 0,-0.609375 0.6445312,-1.03125 1.359375,-1.03125 0.7265625,0 1.359375,0.515625 1.359375,1.2421875 0,0.5625 -0.3867188,1.0429688 -0.984375,1.3945313 z m 1.453125,0.9375 c 0.7148438,-0.3632813 1.2070313,-0.8789063 1.2070313,-1.5351563 0,-0.9257812 -0.890625,-1.4882812 -1.7929688,-1.4882812 -0.9960937,0 -1.8046875,0.7382812 -1.8046875,1.6640625 0,0.1757812 0.0117188,0.6210937 0.4335938,1.0898437 0.1054687,0.1289063 0.4804687,0.375 0.7265625,0.5390625 -0.5742188,0.2929688 -1.42968755,0.84375 -1.42968755,1.8398438 0,1.05468749 1.00781255,1.72265624 2.06250005,1.72265624 1.125,0 2.0625,-0.83203125 2.0625,-1.89843754 0,-0.3515625 -0.1054688,-0.8085937 -0.4804688,-1.21875 -0.1875,-0.2109375 -0.3515625,-0.3164062 -0.984375,-0.7148437 z m -0.9960937,0.421875 1.21875,0.7734375 c 0.28125,0.1875 0.75,0.4921875 0.75,1.1015625 0,0.73828124 -0.75,1.25390624 -1.5585938,1.25390624 -0.8671875,0 -1.58203125,-0.62109375 -1.58203125,-1.44140624 0,-0.5859375 0.31640625,-1.21875 1.17187505,-1.6875 z m 4.5263671,-1.359375 c -0.46875,-0.3046875 -0.5039062,-0.6445313 -0.5039062,-0.8085938 0,-0.609375 0.6445312,-1.03125 1.359375,-1.03125 0.7265625,0 1.359375,0.515625 1.359375,1.2421875 0,0.5625 -0.3867188,1.0429688 -0.984375,1.3945313 z m 1.453125,0.9375 c 0.7148438,-0.3632813 1.2070313,-0.8789063 1.2070313,-1.5351563 0,-0.9257812 -0.890625,-1.4882812 -1.7929688,-1.4882812 -0.9960937,0 -1.8046875,0.7382812 -1.8046875,1.6640625 0,0.1757812 0.011719,0.6210937 0.4335938,1.0898437 0.1054687,0.1289063 0.4804687,0.375 0.7265625,0.5390625 -0.5742188,0.2929688 -1.4296875,0.84375 -1.4296875,1.8398438 0,1.05468749 1.0078125,1.72265624 2.0625,1.72265624 1.125,0 2.0625,-0.83203125 2.0625,-1.89843754 0,-0.3515625 -0.1054688,-0.8085937 -0.4804688,-1.21875 -0.1875,-0.2109375 -0.3515625,-0.3164062 -0.984375,-0.7148437 z m -0.9960937,0.421875 1.21875,0.7734375 c 0.28125,0.1875 0.75,0.4921875 0.75,1.1015625 0,0.73828124 -0.75,1.25390624 -1.5585938,1.25390624 -0.8671875,0 -1.5820312,-0.62109375 -1.5820312,-1.44140624 0,-0.5859375 0.3164062,-1.21875 1.171875,-1.6875 z m 4.5234373,-1.359375 c -0.46875,-0.3046875 -0.503906,-0.6445313 -0.503906,-0.8085938 0,-0.609375 0.644531,-1.03125 1.359375,-1.03125 0.726562,0 1.359375,0.515625 1.359375,1.2421875 0,0.5625 -0.386719,1.0429688 -0.984375,1.3945313 z m 1.453125,0.9375 c 0.714844,-0.3632813 1.207031,-0.8789063 1.207031,-1.5351563 0,-0.9257812 -0.890625,-1.4882812 -1.792968,-1.4882812 -0.996094,0 -1.804688,0.7382812 -1.804688,1.6640625 0,0.1757812 0.01172,0.6210937 0.433594,1.0898437 0.105469,0.1289063 0.480469,0.375 0.726562,0.5390625 -0.574218,0.2929688 -1.429687,0.84375 -1.429687,1.8398438 0,1.05468749 1.007812,1.72265624 2.0625,1.72265624 1.125,0 2.0625,-0.83203125 2.0625,-1.89843754 0,-0.3515625 -0.105469,-0.8085937 -0.480469,-1.21875 -0.1875,-0.2109375 -0.351562,-0.3164062 -0.984375,-0.7148437 z m -0.996094,0.421875 1.21875,0.7734375 c 0.28125,0.1875 0.75,0.4921875 0.75,1.1015625 0,0.73828124 -0.75,1.25390624 -1.558593,1.25390624 -0.867188,0 -1.582032,-0.62109375 -1.582032,-1.44140624 0,-0.5859375 0.316407,-1.21875 1.171875,-1.6875 z m 4.523438,-1.359375 c -0.46875,-0.3046875 -0.503906,-0.6445313 -0.503906,-0.8085938 0,-0.609375 0.644531,-1.03125 1.359375,-1.03125 0.726562,0 1.359375,0.515625 1.359375,1.2421875 0,0.5625 -0.386719,1.0429688 -0.984375,1.3945313 z m 1.453125,0.9375 c 0.714844,-0.3632813 1.207031,-0.8789063 1.207031,-1.5351563 0,-0.9257812 -0.890625,-1.4882812 -1.792969,-1.4882812 -0.996093,0 -1.804687,0.7382812 -1.804687,1.6640625 0,0.1757812 0.01172,0.6210937 0.433594,1.0898437 0.105468,0.1289063 0.480468,0.375 0.726562,0.5390625 -0.574219,0.2929688 -1.429687,0.84375 -1.429687,1.8398438 0,1.05468749 1.007812,1.72265624 2.0625,1.72265624 1.125,0 2.0625,-0.83203125 2.0625,-1.89843754 0,-0.3515625 -0.105469,-0.8085937 -0.480469,-1.21875 -0.1875,-0.2109375 -0.351563,-0.3164062 -0.984375,-0.7148437 z m -0.996094,0.421875 1.21875,0.7734375 c 0.28125,0.1875 0.75,0.4921875 0.75,1.1015625 0,0.73828124 -0.75,1.25390624 -1.558594,1.25390624 -0.867187,0 -1.582031,-0.62109375 -1.582031,-1.44140624 0,-0.5859375 0.316406,-1.21875 1.171875,-1.6875 z m 4.523438,-1.359375 c -0.46875,-0.3046875 -0.503907,-0.6445313 -0.503907,-0.8085938 0,-0.609375 0.644532,-1.03125 1.359375,-1.03125 0.726563,0 1.359375,0.515625 1.359375,1.2421875 0,0.5625 -0.386718,1.0429688 -0.984375,1.3945313 z m 1.453125,0.9375 c 0.714843,-0.3632813 1.207031,-0.8789063 1.207031,-1.5351563 0,-0.9257812 -0.890625,-1.4882812 -1.792969,-1.4882812 -0.996094,0 -1.804687,0.7382812 -1.804687,1.6640625 0,0.1757812 0.01172,0.6210937 0.433593,1.0898437 0.105469,0.1289063 0.480469,0.375 0.726563,0.5390625 -0.574219,0.2929688 -1.429688,0.84375 -1.429688,1.8398438 0,1.05468749 1.007813,1.72265624 2.0625,1.72265624 1.125,0 2.0625,-0.83203125 2.0625,-1.89843754 0,-0.3515625 -0.105468,-0.8085937 -0.480468,-1.21875 -0.1875,-0.2109375 -0.351563,-0.3164062 -0.984375,-0.7148437 z m -0.996094,0.421875 1.21875,0.7734375 c 0.28125,0.1875 0.75,0.4921875 0.75,1.1015625 0,0.73828124 -0.75,1.25390624 -1.558594,1.25390624 -0.867187,0 -1.582031,-0.62109375 -1.582031,-1.44140624 0,-0.5859375 0.316406,-1.21875 1.171875,-1.6875 z m 4.526367,-1.359375 c -0.46875,-0.3046875 -0.503906,-0.6445313 -0.503906,-0.8085938 0,-0.609375 0.644531,-1.03125 1.359375,-1.03125 0.726562,0 1.359375,0.515625 1.359375,1.2421875 0,0.5625 -0.386719,1.0429688 -0.984375,1.3945313 z m 1.453125,0.9375 c 0.714844,-0.3632813 1.207031,-0.8789063 1.207031,-1.5351563 0,-0.9257812 -0.890625,-1.4882812 -1.792968,-1.4882812 -0.996094,0 -1.804688,0.7382812 -1.804688,1.6640625 0,0.1757812 0.01172,0.6210937 0.433594,1.0898437 0.105469,0.1289063 0.480469,0.375 0.726562,0.5390625 -0.574218,0.2929688 -1.429687,0.84375 -1.429687,1.8398438 0,1.05468749 1.007812,1.72265624 2.0625,1.72265624 1.125,0 2.0625,-0.83203125 2.0625,-1.89843754 0,-0.3515625 -0.105469,-0.8085937 -0.480469,-1.21875 -0.1875,-0.2109375 -0.351562,-0.3164062 -0.984375,-0.7148437 z m -0.996094,0.421875 1.21875,0.7734375 c 0.28125,0.1875 0.75,0.4921875 0.75,1.1015625 0,0.73828124 -0.75,1.25390624 -1.558593,1.25390624 -0.867188,0 -1.582032,-0.62109375 -1.582032,-1.44140624 0,-0.5859375 0.316407,-1.21875 1.171875,-1.6875 z m 0,0"
       style="fill:#000000;fill-opacity:1;fill-rule:nonzero;stroke:none"
       aria-label="888888"
       transform="matrix(1.3333333,0,0,1.3333333,182.26667,55.630667)" />
    <path
       id="path9"
       d="M 7.00847,7.00847 49.1805,49.1805"
       style="fill:none;stroke:#000000;stroke-width:0.3985;stroke-linecap:butt;stroke-linejoin:miter;stroke-miterlimit:10;stroke-dasharray:none;stroke-opacity:1"
       transform="matrix(1.3333333,0,0,-1.3333333,13.214667,89.146667)" />
    <path
       id="path10"
       d="M -1.19551,1.59401 C -1.09587,0.99626 0,0.09961 0.29886,0 0,-0.09961 -1.09587,-0.99626 -1.19551,-1.59401"
       style="fill:none;stroke:#000000;stroke-width:0.31879;stroke-linecap:round;stroke-linejoin:round;stroke-miterlimit:10;stroke-dasharray:none;stroke-opacity:1"
       transform="matrix(0.9428,-0.9428,-0.9428,-0.9428,78.788667,23.572667)" />
    <path
       id="path11"
       d="M 63.88269,49.50453 106.11627,7.27095"
       style="fill:none;stroke:#000000;stroke-width:0.3985;stroke-linecap:butt;stroke-linejoin:miter;stroke-miterlimit:10;stroke-dasharray:none;stroke-opacity:1"
       transform="matrix(1.3333333,0,0,-1.3333333,13.214667,89.146667)" />
    <path
       id="path12"
       d="M -1.19551,1.59401 C -1.09587,0.99626 0,0.09961 0.29886,0 0,-0.09961 -1.09587,-0.99626 -1.19551,-1.59401"
       style="fill:none;stroke:#000000;stroke-width:0.31879;stroke-linecap:round;stroke-linejoin:round;stroke-miterlimit:10;stroke-dasharray:none;stroke-opacity:1"
       transform="matrix(0.9428,0.9428,0.9428,-0.9428,154.70303,79.452067)" />
    <path
       id="path13"
       d="M 103.56282,0 H 10.36977"
       style="fill:none;stroke:#000000;stroke-width:0.3985;stroke-linecap:butt;stroke-linejoin:miter;stroke-miterlimit:10;stroke-dasharray:none;stroke-opacity:1"
       transform="matrix(1.3333333,0,0,-1.3333333,13.214667,89.146667)" />
    <path
       id="path14"
       d="M -1.19551,1.59401 C -1.09587,0.99626 0,0.09961 0.29886,0 0,-0.09961 -1.09587,-0.99626 -1.19551,-1.59401"
       style="fill:none;stroke:#000000;stroke-width:0.31879;stroke-linecap:round;stroke-linejoin:round;stroke-miterlimit:10;stroke-dasharray:none;stroke-opacity:1"
       transform="matrix(-1.3333333,0,0,1.3333333,27.041027,89.146667)" />
  </g>
</svg>
